<svg id="Capa_1" enable-background="new 0 0 510 510" height="512" viewBox="0 0 510 510" width="512" xmlns="http://www.w3.org/2000/svg" xmlns:xlink="http://www.w3.org/1999/xlink"><linearGradient id="lg1"><stop offset="0" stop-color="#b063de"/><stop offset="1" stop-color="#793981"/></linearGradient><linearGradient id="SVGID_1_" gradientUnits="userSpaceOnUse" x1="201.161" x2="333.381" xlink:href="#lg1" y1="26.002" y2="152.619"/><linearGradient id="lg2"><stop offset="0" stop-color="#662d90" stop-opacity="0"/><stop offset=".1835" stop-color="#5c2d85" stop-opacity=".184"/><stop offset=".6917" stop-color="#442d6c" stop-opacity=".692"/><stop offset="1" stop-color="#3b2d63"/></linearGradient><linearGradient id="SVGID_2_" gradientUnits="userSpaceOnUse" x1="255" x2="255" xlink:href="#lg2" y1="17.519" y2="123.521"/><linearGradient id="SVGID_3_" gradientUnits="userSpaceOnUse" x1="93.738" x2="470.975" xlink:href="#lg1" y1="193.514" y2="430.791"/><linearGradient id="SVGID_4_" gradientUnits="userSpaceOnUse" x1="229.785" x2="423.312" xlink:href="#lg1" y1="184.216" y2="369.543"/><linearGradient id="SVGID_5_" gradientUnits="userSpaceOnUse" x1="139.134" x2="224.421" xlink:href="#lg2" y1="467.249" y2="396.54"/><linearGradient id="SVGID_6_" gradientUnits="userSpaceOnUse" x1="360.175" x2="271.243" xlink:href="#lg2" y1="464.718" y2="372.869"/><linearGradient id="SVGID_7_" gradientUnits="userSpaceOnUse" x1="231.576" x2="165.783" xlink:href="#lg2" y1="221.285" y2="155.492"/><linearGradient id="lg3"><stop offset="0" stop-color="#ffda2d"/><stop offset="1" stop-color="#fdbf00"/></linearGradient><linearGradient id="SVGID_8_" gradientUnits="userSpaceOnUse" x1="189.837" x2="201.349" xlink:href="#lg3" y1="179.628" y2="191.14"/><linearGradient id="SVGID_9_" gradientTransform="matrix(-1 0 0 -1 1483.439 -7946.28)" gradientUnits="userSpaceOnUse" x1="1282.744" x2="1289.282" xlink:href="#lg3" y1="-8136.765" y2="-8130.228"/><linearGradient id="SVGID_10_" gradientUnits="userSpaceOnUse" x1="231.576" x2="165.783" xlink:href="#lg2" y1="296.398" y2="230.606"/><linearGradient id="SVGID_11_" gradientUnits="userSpaceOnUse" x1="189.837" x2="201.349" xlink:href="#lg3" y1="254.741" y2="266.253"/><linearGradient id="SVGID_12_" gradientTransform="matrix(-1 0 0 -1 1483.439 -7946.28)" gradientUnits="userSpaceOnUse" x1="1282.744" x2="1289.282" xlink:href="#lg3" y1="-8211.878" y2="-8205.341"/><linearGradient id="SVGID_13_" gradientUnits="userSpaceOnUse" x1="231.576" x2="165.783" xlink:href="#lg2" y1="371.512" y2="305.719"/><linearGradient id="SVGID_14_" gradientUnits="userSpaceOnUse" x1="189.837" x2="201.349" xlink:href="#lg3" y1="329.855" y2="341.367"/><linearGradient id="SVGID_15_" gradientTransform="matrix(-1 0 0 -1 1483.439 -7946.28)" gradientUnits="userSpaceOnUse" x1="1282.744" x2="1289.282" xlink:href="#lg3" y1="-8286.992" y2="-8280.455"/><linearGradient id="SVGID_16_" gradientUnits="userSpaceOnUse" x1="415.604" x2="320.111" xlink:href="#lg2" y1="185.093" y2="262.362"/><linearGradient id="SVGID_17_" gradientTransform="matrix(-1 0 0 1 854.301 0)" gradientUnits="userSpaceOnUse" x1="759.905" x2="664.412" xlink:href="#lg2" y1="185.093" y2="262.362"/><g><ellipse cx="255" cy="77.56" fill="url(#SVGID_1_)" rx="143.239" ry="73.313"/><ellipse cx="255" cy="77.56" fill="url(#SVGID_2_)" rx="143.239" ry="73.313"/><path d="m352.851 202.535v113.509c0 22.284-10.486 43.267-28.309 56.639-21.967 16.478-49.281 50.221-53.064 117.085-.503 8.835-7.654 15.778-16.456 15.975-.011 0-.011 0-.022 0-.12.011-.251.011-.372.011-20.625 0-40.185-9.163-53.386-25.01l-48.849-58.639c-12.188-14.631-18.862-33.07-18.862-52.112v-134.688l-53.316 73.894c-3.466 4.8-8.321 8.168-13.712 9.808-5.194 1.574-10.869 1.564-16.27-.284l-32.398-11.131c-13.887-4.767-21.213-19.933-16.314-33.776l54.978-155.322c16.981-47.98 55.907-84.927 104.718-99.382 1.596-.47 3.215-.7 4.811-.7 6.167 0 12.017 3.368 14.958 9.076 6.145 11.907 18.588 31.119 42.349 52.813 8.879 8.124 19.354 16.576 31.666 25.127 15.953 11.088 35.012 22.328 57.744 33.186 24.568 11.731 40.106 36.683 40.106 63.921z" fill="url(#SVGID_3_)"/><path d="m492.165 307.591-32.398 11.131c-5.402 1.848-11.076 1.859-16.27.284-5.391-1.64-10.245-5.008-13.712-9.808l-53.316-73.894v134.687c0 19.042-6.674 37.482-18.862 52.112l-48.849 58.639c-13.201 15.847-32.761 25.01-53.386 25.01-.12 0-.252 0-.372-.011-8.813-.186-15.975-7.129-16.478-15.975-3.783-66.863-31.097-100.606-53.064-117.085-17.823-13.373-28.309-34.355-28.309-56.639v-113.507c0-27.237 15.538-52.189 40.107-63.922 22.732-10.858 41.791-22.098 57.744-33.186 12.312-8.551 22.787-17.003 31.666-25.127 23.76-21.694 36.203-40.905 42.348-52.813 2.941-5.708 8.791-9.076 14.958-9.076 1.596 0 3.215.23 4.811.7 48.811 14.455 87.737 51.402 104.718 99.382l54.978 155.322c4.898 13.843-2.428 29.009-16.314 33.776z" fill="url(#SVGID_4_)"/><g><path d="m229.95 480.769c0 6.746-.569 13.351-1.662 19.791-10.377-4.243-19.693-10.989-27.04-19.813l-48.854-58.64c-12.192-14.63-18.862-33.076-18.862-52.113v-5.325c54.867 10.168 96.418 58.279 96.418 116.1z" fill="url(#SVGID_5_)"/><path d="m376.469 364.668v5.325c0 19.037-6.67 37.483-18.862 52.113l-48.854 58.64c-6.604 7.916-14.783 14.171-23.902 18.446-1.028.481-2.077.94-3.138 1.367-1.093-6.44-1.662-13.045-1.662-19.791 0-57.82 41.55-105.931 96.418-116.1z" fill="url(#SVGID_6_)"/></g><g><path d="m268.748 265.816c-9.603 6.147-22.189 4.782-30.251-3.28l-58.346-58.346c-4.674-4.426-7.215-10.689-7.215-17.635-.001-13.126 10.783-23.91 23.909-23.909 6.946 0 13.209 2.541 17.635 7.215l58.346 58.346c10.963 10.962 8.98 29.251-4.078 37.609z" fill="url(#SVGID_7_)"/><g><circle cx="196.762" cy="186.553" fill="url(#SVGID_8_)" r="24.284"/><circle cx="196.762" cy="186.553" fill="url(#SVGID_9_)" r="13.79"/></g></g><g><path d="m268.748 340.929c-9.603 6.147-22.189 4.782-30.251-3.28l-58.346-58.346c-4.674-4.426-7.215-10.689-7.215-17.635-.001-13.126 10.783-23.91 23.909-23.909 6.946 0 13.209 2.541 17.635 7.215l58.346 58.346c10.963 10.962 8.98 29.251-4.078 37.609z" fill="url(#SVGID_10_)"/><g><circle cx="196.762" cy="261.666" fill="url(#SVGID_11_)" r="24.284"/><circle cx="196.762" cy="261.666" fill="url(#SVGID_12_)" r="13.79"/></g></g><g><path d="m268.748 416.043c-9.603 6.147-22.189 4.782-30.251-3.28l-58.346-58.346c-4.674-4.426-7.215-10.689-7.215-17.635-.001-13.126 10.783-23.91 23.909-23.909 6.946 0 13.209 2.541 17.635 7.215l58.346 58.346c10.963 10.962 8.98 29.251-4.078 37.609z" fill="url(#SVGID_13_)"/><g><circle cx="196.762" cy="336.78" fill="url(#SVGID_14_)" r="24.284"/><circle cx="196.762" cy="336.78" fill="url(#SVGID_15_)" r="13.79"/></g></g><path d="m443.496 319.007c5.194 1.574 10.869 1.564 16.27-.284l32.398-11.131c13.886-4.767 21.212-19.933 16.314-33.776l-54.978-155.322c-13.624-38.495-41.383-69.876-77.032-88.248v205.06l53.316 73.894c3.467 4.799 8.322 8.167 13.712 9.807z" fill="url(#SVGID_16_)"/><path d="m66.504 319.007c-5.194 1.574-10.869 1.564-16.27-.284l-32.398-11.131c-13.886-4.767-21.212-19.933-16.314-33.776l54.978-155.322c13.624-38.495 41.383-69.876 77.032-88.248v205.06l-53.316 73.894c-3.467 4.799-8.322 8.167-13.712 9.807z" fill="url(#SVGID_17_)"/></g></svg>