<svg id="Capa_1" enable-background="new 0 0 510 510" height="512" viewBox="0 0 510 510" width="512" xmlns="http://www.w3.org/2000/svg" xmlns:xlink="http://www.w3.org/1999/xlink"><linearGradient id="SVGID_1_" gradientUnits="userSpaceOnUse" x1="255.206" x2="255.206" y1="365.523" y2="447.653"><stop offset="0" stop-color="#ffda2d"/><stop offset="1" stop-color="#fdbf00"/></linearGradient><linearGradient id="lg1"><stop offset="0" stop-color="#ff9100" stop-opacity="0"/><stop offset="1" stop-color="#ff9100"/></linearGradient><linearGradient id="SVGID_2_" gradientUnits="userSpaceOnUse" x1="249.778" x2="302.947" xlink:href="#lg1" y1="389.881" y2="585.156"/><linearGradient id="SVGID_3_" gradientUnits="userSpaceOnUse" x1="259.37" x2="238.157" xlink:href="#lg1" y1="388.642" y2="529.786"/><linearGradient id="SVGID_4_" gradientUnits="userSpaceOnUse" x1="254.999" x2="254.999" xlink:href="#lg1" y1="424.916" y2="512.549"/><linearGradient id="lg2"><stop offset="0" stop-color="#ff637b"/><stop offset="1" stop-color="#e63950"/></linearGradient><linearGradient id="SVGID_5_" gradientUnits="userSpaceOnUse" x1="191.233" x2="291.509" xlink:href="#lg2" y1="121.711" y2="361.293"/><linearGradient id="lg3"><stop offset="0" stop-color="#c50000" stop-opacity="0"/><stop offset="1" stop-color="#c50000"/></linearGradient><linearGradient id="SVGID_6_" gradientUnits="userSpaceOnUse" x1="266.26" x2="300.687" xlink:href="#lg3" y1="134.032" y2="89.999"/><linearGradient id="SVGID_7_" gradientUnits="userSpaceOnUse" x1="389.569" x2="402.179" xlink:href="#lg3" y1="202.231" y2="144.587"/><linearGradient id="SVGID_8_" gradientUnits="userSpaceOnUse" x1="401.839" x2="347.398" xlink:href="#lg3" y1="328.135" y2="453.03"/><linearGradient id="SVGID_9_" gradientUnits="userSpaceOnUse" x1="161.421" x2="190.242" xlink:href="#lg3" y1="317.419" y2="659.278"/><linearGradient id="SVGID_10_" gradientUnits="userSpaceOnUse" x1="359.39" x2="404.224" y1="103.25" y2="190.516"><stop offset="0" stop-color="#ffda2d"/><stop offset="1" stop-color="#ff9100"/></linearGradient><linearGradient id="SVGID_11_" gradientUnits="userSpaceOnUse" x1="269.759" x2="369.989" xlink:href="#lg2" y1="88.845" y2="328.316"/><linearGradient id="SVGID_12_" gradientUnits="userSpaceOnUse" x1="318.301" x2="395.76" xlink:href="#lg3" y1="167.469" y2="110.426"/><g><g><g><path d="m451.184 429.519c-130.424 23.936-261.931 23.936-392.356.001-16.55-2.423-27.763-19.053-24.967-35.073 1.756-7.858 2.635-11.787 4.391-19.644 4.056-14.818 19.635-26.229 35.373-22.555 120.655 22.07 242.102 22.073 362.761.001 14.977-2.24 32.405 6.507 35.374 22.555 1.756 7.858 2.634 11.787 4.391 19.644 4.463 16.705-9.838 31.576-24.967 35.071z" fill="url(#SVGID_1_)"/><path d="m384.969 440.007c-86.727 10.214-173.198 10.214-259.927 0-13.607-1.784-24.377-13.497-22.532-27.558 1.812-11.967 2.717-17.951 4.529-29.918 2.256-13.238 14.567-22.089 27.806-20.588 80.221 9.415 160.098 9.415 240.321.001 13.239-1.5 25.55 7.35 27.806 20.588 1.811 11.967 2.717 17.95 4.529 29.917 1.844 14.061-8.926 25.774-22.532 27.558z" fill="url(#SVGID_2_)"/><path d="m205.386 446.955c33.122 1.354 66.116 1.353 99.238-.001 9.499-.452 16.739-8.028 16.18-16.747-1.004-15.647-2.009-31.294-3.013-46.941-.56-8.719-8.128-15.316-16.91-14.897-30.647 1.226-61.106 1.226-91.753 0-8.782-.418-16.35 6.179-16.909 14.898-1.004 15.647-2.009 31.294-3.013 46.942-.56 8.717 6.681 16.293 16.18 16.746z" fill="url(#SVGID_3_)"/><path d="m210.792 447.198c78.134 2.714 155.435-2.67 232.435-16.187 14.765-2.996 35.98-12.59 34.213-30.795-1.394-6.236-2.091-9.355-3.485-15.591-145.204 31.214-292.695 31.215-437.899 0-1.394 6.236-2.091 9.355-3.485 15.591-1.899 17.464 19.668 28.744 34.213 30.796 47.754 8.403 95.579 13.779 144.008 16.186" fill="url(#SVGID_4_)"/></g></g><path d="m424.409 162.986-35.007-17.543c-72.584-36.374-152.769-54.987-233.954-54.306-86.224 0-156.051 70.201-155.445 156.565.598 85.136 70.504 154.438 155.642 154.332 25.431-.031 49.43-6.17 70.612-17.027 14.829 10.702 33.026 17.028 52.711 17.028 25.09 0 47.78-10.253 64.129-26.788 17.774 16.647 41.666 26.841 67.953 26.788 54.888-.111 98.946-45.537 98.946-100.424.001-58.682-33.125-112.335-85.587-138.625z" fill="url(#SVGID_5_)"/><path d="m332.257 121.028c-38.532-13.771-78.582-22.876-119.29-27.126 0 35.352 28.659 64.011 64.011 64.011h55.279z" fill="url(#SVGID_6_)"/><ellipse cx="386.498" cy="216.269" fill="url(#SVGID_7_)" rx="60.046" ry="49.74"/><path d="m510 302.888c0 54.75-44.398 99.147-99.159 99.147-26.192 0-50.018-10.16-67.755-26.78 16.128-16.284 26.072-38.681 26.072-63.408 0-29.134-13.81-55.026-35.235-71.514 18.182-22.337 45.887-36.604 76.918-36.604 54.761-.001 99.159 44.397 99.159 99.159z" fill="url(#SVGID_8_)"/><circle cx="155.449" cy="246.585" fill="url(#SVGID_9_)" r="155.449"/><circle cx="367.076" cy="118.209" fill="url(#SVGID_10_)" r="56.179"/><path d="m328.862 126.547c-36.551-16.547-76.259-7.7-88.692 19.762-12.432 27.461 7.119 63.138 43.67 79.685s76.259 7.699 88.692-19.762-7.12-63.138-43.67-79.685z" fill="url(#SVGID_11_)"/><path d="m328.862 126.547c-36.551-16.547-76.259-7.7-88.692 19.762-12.432 27.461 7.119 63.138 43.67 79.685s76.259 7.699 88.692-19.762-7.12-63.138-43.67-79.685z" fill="url(#SVGID_12_)"/></g></svg>