<svg id="Capa_1" enable-background="new 0 0 510 510" height="512" viewBox="0 0 510 510" width="512" xmlns="http://www.w3.org/2000/svg" xmlns:xlink="http://www.w3.org/1999/xlink"><linearGradient id="lg1"><stop offset="0" stop-color="#ff637b"/><stop offset="1" stop-color="#f90217"/></linearGradient><linearGradient id="SVGID_1_" gradientUnits="userSpaceOnUse" x1="255" x2="255" xlink:href="#lg1" y1="108.446" y2="247.511"/><linearGradient id="lg2"><stop offset="0" stop-color="#c50000" stop-opacity="0"/><stop offset="1" stop-color="#c50000"/></linearGradient><linearGradient id="SVGID_2_" gradientUnits="userSpaceOnUse" x1="289.578" x2="354.351" xlink:href="#lg2" y1="134.678" y2="49.296"/><linearGradient id="SVGID_3_" gradientUnits="userSpaceOnUse" x1="213.372" x2="177.55" xlink:href="#lg2" y1="141.181" y2="101.434"/><linearGradient id="SVGID_4_" gradientUnits="userSpaceOnUse" x1="68.026" x2="192.54" xlink:href="#lg1" y1="239.539" y2="427.724"/><linearGradient id="SVGID_5_" gradientUnits="userSpaceOnUse" x1="82.843" x2="-157.27" xlink:href="#lg2" y1="254.702" y2="482.072"/><linearGradient id="SVGID_6_" gradientTransform="matrix(-1 0 0 1 -835.041 0)" gradientUnits="userSpaceOnUse" x1="-1277.015" x2="-1152.501" xlink:href="#lg1" y1="239.539" y2="427.724"/><linearGradient id="SVGID_7_" gradientTransform="matrix(-1 0 0 1 -835.041 0)" gradientUnits="userSpaceOnUse" x1="-1262.198" x2="-1502.312" xlink:href="#lg2" y1="254.702" y2="482.072"/><linearGradient id="SVGID_8_" gradientUnits="userSpaceOnUse" x1="443.957" x2="145.42" xlink:href="#lg2" y1="361.695" y2="186.634"/><linearGradient id="SVGID_9_" gradientUnits="userSpaceOnUse" x1="245.614" x2="284.221" xlink:href="#lg1" y1="233.249" y2="346.863"/><linearGradient id="SVGID_10_" gradientUnits="userSpaceOnUse" x1="317.226" x2="219.909" xlink:href="#lg2" y1="238.844" y2="331.771"/><linearGradient id="SVGID_11_" gradientUnits="userSpaceOnUse" x1="270.411" x2="150.777" xlink:href="#lg2" y1="312.884" y2="608.128"/><g><g><g><path d="m382.717 176.288c3.052-3.052 4.494-7.387 4.045-12.282-.408-4.457-2.407-9.356-5.985-13.811-1.078-1.342-2.205-2.688-3.368-4.021-30.787-35.263-77.276-53.43-122.41-53.43-44.905 0-91.912 18.27-122.41 53.431-1.155 1.332-2.29 2.679-3.368 4.021-3.577 4.454-5.577 9.353-5.985 13.81-.495 5.419 1.331 10.146 5.088 13.224 1.484 1.212 2.224 1.82 3.7 3.04.852.705 1.278 1.058 2.128 1.766 1.898 1.588 4.162 2.677 6.609 3.302 3.579.914 7.606.767 11.492-.14.04-.009.082-.027.123-.035-.014.039-.029.069-.043.109-2.261 4.682-.858 11.885 3.245 15.189 1.348 1.195 2.021 1.795 3.363 2.997.742.665 1.644 1.092 2.537 1.22 1.045.149 1.981-.116 2.634-.711.356-.324.622-.758.788-1.26 2.475-7.504 8.045-13.5 13.465-18.956 15.625-15.73 38.09-24.147 59.793-27.571 10.933-1.725 22.801-1.675 33.686 0 21.783 3.352 44.081 11.926 59.792 27.571 5.3 5.278 10.669 11.145 13.278 18.388.485 1.347 1.665 2.214 3.199 2.207h.105c1.172-.005 2.411-.502 3.406-1.393 3.533-3.162 5.31-4.731 8.886-7.848.019-.016.028-.024.046-.039 5.686-4.989 6.68-13.104 3.501-19.779.004-.005.004-.005.004-.005 4.982 1.369 9.527 2.426 13.527 2.952 1.579.207 3.034-.143 4.087-1.001.365-.301.715-.618 1.042-.945z" fill="url(#SVGID_1_)"/><path d="m364.133 175.437c-18.926-40.946-69.832-59.981-110.808-59.609-41.436.375-100.731 22.778-112.553 69.511 3.58.914 7.599.767 11.482-.14.04-.009.082-.027.123-.035-.014.039-.029.069-.043.109-2.261 4.682-.858 11.885 3.245 15.189 1.348 1.195 2.021 1.795 3.363 2.997.742.665 1.644 1.092 2.537 1.22 1.045.149 1.976-.121 2.626-.712.356-.324.626-.761.792-1.264 2.475-7.502 8.05-13.496 13.469-18.951 15.628-15.73 38.09-24.147 59.793-27.571 10.933-1.725 22.801-1.675 33.686 0 21.783 3.352 44.081 11.926 59.792 27.571 5.302 5.279 10.667 11.147 13.28 18.391.486 1.347 1.667 2.214 3.201 2.205.041 0 .061 0 .102-.001 1.171-.006 2.408-.503 3.403-1.393 3.533-3.162 5.311-4.732 8.888-7.849.019-.016.028-.024.046-.039 5.633-4.948 6.645-12.988 3.576-19.629z" fill="url(#SVGID_2_)"/><path d="m360.504 195.107c-7.162-45.791-67.201-67.575-105.504-67.601-23.491-.016-48.461 6.135-68.487 19.63-14.159 9.541-27.236 21.831-34.137 38.026-.014.039-.029.069-.043.109-2.256 4.68-.861 11.88 3.241 15.184 1.364 1.21 2.045 1.816 3.402 3.033.733.657 1.621 1.074 2.502 1.188.003 0 .005.001.008.001 1.615.23 2.956-.564 3.417-1.976 2.452-7.498 8.043-13.498 13.461-18.952 15.627-15.73 38.09-24.147 59.793-27.571 10.933-1.725 22.801-1.675 33.686 0 21.783 3.352 44.074 11.926 59.792 27.571 5.304 5.279 10.675 11.142 13.282 18.388.485 1.349 1.666 2.217 3.202 2.208h.099c1.171-.006 2.408-.503 3.403-1.393 3.531-3.161 5.308-4.73 8.883-7.845z" fill="url(#SVGID_3_)"/></g></g><g><g><path d="m63.75 136.28c-62.692 0-90.148 100.653-31.042 153.352-34.497 34.699-23.118 127.624 31.042 127.624 123.578 0 161.996-140.488 161.996-140.488s-38.418-140.488-161.996-140.488z" fill="url(#SVGID_4_)"/><path d="m225.746 276.768s-38.418-140.488-161.996-140.488c-71.714 0-97.326 131.707 0 172.683 94.25 39.681 161.996-32.195 161.996-32.195z" fill="url(#SVGID_5_)"/></g><g><path d="m446.25 136.28c62.692 0 90.148 100.653 31.042 153.352 34.496 34.698 23.117 127.623-31.042 127.623-123.578 0-161.996-140.488-161.996-140.488s38.418-140.487 161.996-140.487z" fill="url(#SVGID_6_)"/><path d="m284.254 276.768s38.418-140.488 161.996-140.488c71.714 0 97.326 131.707 0 172.683-94.25 39.681-161.996-32.195-161.996-32.195z" fill="url(#SVGID_7_)"/></g></g><path d="m491.515 379.568-154.878-154.879c-5.608-6.124-12.28-11.282-19.809-15.189-23.501 34.103-32.574 67.268-32.574 67.268s38.418 140.488 161.997 140.488c22.643 0 37.803-16.248 45.264-37.688z" fill="url(#SVGID_8_)"/><g><path d="m355.976 275.528c0 18.055-4.226 32.696-11.524 44.045-1.372 2.129-2.843 4.138-4.423 6.037-10.152 12.238-24.476 19.745-40.928 22.774-.834.263-1.69.483-2.579.637l-.198.033c-17.627 2.898-35.303 3.937-52.967 3.116-9.271-.431-17.987-4.842-23.441-12.351l-.092-.127c-.009.032-.018.065-.027.097-1.524 5.601-7.211 8.962-12.817 7.455-1.823-.49-3.456-.989-4.5-1.429-16.981-7.161-29.815-23.57-32.936-43.825-3.128-20.316-3.128-40.698 0-61.025.099-.68.22-1.35.351-2.03 5.839-31.006 40.171-46.515 67.379-32.828 10.657-3.238 24.991-5.016 44.276-5.016 43.178.001 74.426 33.322 74.426 74.437z" fill="url(#SVGID_9_)"/><path d="m281.546 201.095c-19.277 0-33.611 1.778-44.272 5.012-.006-.003-.011-.005-.017-.008 1.898.954 3.763 2.042 5.58 3.285 25.892 17.709 61.052 52.813 70.495 116.191 1.515 10.173-4.657 19.871-14.234 22.814h.001c32.632-6.015 56.876-29.62 56.876-72.863.001-41.108-31.246-74.431-74.429-74.431z" fill="url(#SVGID_10_)"/></g><path d="m275.991 229.843c-38.264 0-69.284 31.019-69.284 69.284 0 15.315 4.979 29.463 13.394 40.932 5.464 7.36 14.086 11.685 23.255 12.111 17.664.821 35.34-.218 52.967-3.116l.198-.033c.889-.154 1.745-.373 2.579-.637 16.446-3.028 30.764-10.531 40.915-22.76 3.383-8.164 5.259-17.111 5.259-26.498 0-38.264-31.019-69.283-69.283-69.283z" fill="url(#SVGID_11_)"/></g></svg>