<svg id="Capa_1" enable-background="new 0 0 510 510" height="512" viewBox="0 0 510 510" width="512" xmlns="http://www.w3.org/2000/svg" xmlns:xlink="http://www.w3.org/1999/xlink"><linearGradient id="lg1"><stop offset="0" stop-color="#edf5ff"/><stop offset="1" stop-color="#b5dbff"/></linearGradient><linearGradient id="SVGID_1_" gradientUnits="userSpaceOnUse" x1="255.522" x2="255.522" xlink:href="#lg1" y1="164.977" y2="244.538"/><linearGradient id="SVGID_2_" gradientUnits="userSpaceOnUse" x1="27.91" x2="76.546" xlink:href="#lg1" y1="171.334" y2="171.334"/><linearGradient id="lg2"><stop offset="0" stop-color="#b5dbff"/><stop offset="1" stop-color="#48b2e3"/></linearGradient><linearGradient id="SVGID_3_" gradientUnits="userSpaceOnUse" x1="108.272" x2="58.495" xlink:href="#lg2" y1="171.334" y2="171.334"/><linearGradient id="SVGID_4_" gradientUnits="userSpaceOnUse" x1="432.289" x2="480.782" xlink:href="#lg1" y1="171.334" y2="171.334"/><linearGradient id="SVGID_5_" gradientTransform="matrix(-1 0 0 1 -1968.432 0)" gradientUnits="userSpaceOnUse" x1="-2371.204" x2="-2420.98" xlink:href="#lg2" y1="171.334" y2="171.334"/><linearGradient id="SVGID_6_" gradientUnits="userSpaceOnUse" x1="255.106" x2="255.106" xlink:href="#lg1" y1="359.207" y2="524.066"/><linearGradient id="lg3"><stop offset="0" stop-color="#b5dbff" stop-opacity="0"/><stop offset=".1734" stop-color="#8fc5e9" stop-opacity=".173"/><stop offset=".4541" stop-color="#56a4c8" stop-opacity=".454"/><stop offset=".6955" stop-color="#2d8db1" stop-opacity=".696"/><stop offset=".8853" stop-color="#147ea2" stop-opacity=".885"/><stop offset="1" stop-color="#0b799d"/></linearGradient><linearGradient id="SVGID_7_" gradientUnits="userSpaceOnUse" x1="337.558" x2="147.551" xlink:href="#lg3" y1="433.508" y2="242.109"/><linearGradient id="SVGID_8_" gradientUnits="userSpaceOnUse" x1="439.487" x2="292.15" xlink:href="#lg3" y1="501.247" y2="220.033"/><linearGradient id="SVGID_9_" gradientUnits="userSpaceOnUse" x1="255.106" x2="255.106" xlink:href="#lg1" y1="280.749" y2="351.976"/><linearGradient id="SVGID_10_" gradientUnits="userSpaceOnUse" x1="310.048" x2="422.159" xlink:href="#lg1" y1="307.576" y2="419.687"/><linearGradient id="SVGID_11_" gradientUnits="userSpaceOnUse" x1="336.148" x2="439.277" xlink:href="#lg3" y1="318.801" y2="428.245"/><linearGradient id="SVGID_12_" gradientTransform="matrix(-1 0 0 1 -1796.412 0)" gradientUnits="userSpaceOnUse" x1="-2121.49" x2="-2502.436" xlink:href="#lg3" y1="396.2" y2="475.476"/><linearGradient id="SVGID_13_" gradientUnits="userSpaceOnUse" x1="255" x2="255" xlink:href="#lg1" y1="481.446" y2="514.227"/><linearGradient id="SVGID_14_" gradientUnits="userSpaceOnUse" x1="95.835" x2="204.667" xlink:href="#lg1" y1="325.352" y2="434.185"/><linearGradient id="SVGID_15_" gradientUnits="userSpaceOnUse" x1="161.016" x2="47.364" xlink:href="#lg3" y1="332.47" y2="401.223"/><linearGradient id="SVGID_16_" gradientUnits="userSpaceOnUse" x1="186.177" x2="-194.769" xlink:href="#lg3" y1="396.2" y2="475.476"/><g><path d="m417.96 201.939c-7.665 5.549-16.446 10.684-26.176 15.333-35.395 16.893-83.399 27.265-136.262 27.265s-100.867-10.372-136.262-27.265c-9.73-4.649-18.511-9.785-26.176-15.333 1.189-11.264 2.044-23.718 2.513-36.963 8.041 5.556 17.207 10.669 27.355 15.268 34.999 15.885 81.521 25.56 132.57 25.56s97.571-9.676 132.57-25.56c10.147-4.599 19.314-9.712 27.355-15.268.469 13.245 1.324 25.699 2.513 36.963z" fill="url(#SVGID_1_)"/><g><g><path d="m71.588.007c-15.551-.289-28.984 8.172-31.531 19.829-8.826 40.397-14.181 93.424-14.181 151.498s5.355 111.102 14.181 151.498c2.547 11.657 15.98 20.117 31.531 19.829l24.455-.454v-341.746zm9.787 299.326s-7.497-37.658-7.497-127.999c0-90.339 7.496-128.002 7.496-128.002 4.586 31.307 7.477 77.045 7.477 128.002.001 50.956-2.891 96.693-7.476 127.999z" fill="url(#SVGID_2_)"/><path d="m96.043.461c-5.627 0-10.762 16.199-14.669 42.871 4.586 31.307 7.477 77.045 7.477 128.002 0 50.955-2.892 96.692-7.477 127.999 3.907 26.672 9.042 42.874 14.668 42.874 12.231 0 22.146-76.502 22.146-170.873s-9.914-170.873-22.145-170.873z" fill="url(#SVGID_3_)"/></g><g><path d="m415.001.461v341.746l24.455.454c15.552.289 28.984-8.172 31.531-19.829 8.826-40.397 14.181-93.424 14.181-151.498s-5.355-111.102-14.181-151.498c-2.547-11.657-15.98-20.117-31.531-19.829zm7.191 170.873c0-50.957 2.892-96.696 7.477-128.002 0 0 7.496 37.663 7.496 128.002 0 90.34-7.497 127.999-7.497 127.999-4.584-31.306-7.476-77.043-7.476-127.999z" fill="url(#SVGID_4_)"/><path d="m415.001.461c5.627 0 10.762 16.199 14.669 42.871-4.586 31.307-7.477 77.045-7.477 128.002 0 50.955 2.892 96.692 7.477 127.999-3.907 26.672-9.042 42.874-14.668 42.874-12.231 0-22.146-76.502-22.146-170.873s9.914-170.873 22.145-170.873z" fill="url(#SVGID_5_)"/></g></g><g><g><path d="m504.854 340.445c-.646-7.975-5.435-15.059-12.638-18.542-16.752-8.101-24.795-14.454-46.183-18.55-17.742-3.399-36.769-5.241-56.563-5.241-53.122 0-87.219 29.657-107.154 56.365-.489.656-.971 1.316-1.446 1.98-5.806 8.128-15.254 12.863-25.243 12.863-9.989 0-19.438-4.734-25.243-12.863-.475-.665-.957-1.325-1.446-1.98-19.935-26.708-54.032-56.365-107.154-56.365-19.794 0-38.821 1.842-56.563 5.241-21.388 4.096-30.474 10.449-47.226 18.55-7.203 3.483-11.992 10.567-12.638 18.542-1.415 17.478-2.186 36.254-2.186 55.809 0 19.544.771 46.749 2.186 64.222.646 7.975 5.435 15.058 12.638 18.542 16.752 8.101 25.839 14.454 47.227 18.55 17.742 3.399 36.769 5.241 56.563 5.241 45.206 0 74.846-4.403 94.249-12.139 11.936-4.759 24.603-7.422 37.453-7.422h4.284c12.85 0 25.517 2.663 37.453 7.422 19.403 7.736 49.042 12.139 94.249 12.139 19.794 0 38.821-1.842 56.563-5.241 21.388-4.096 29.431-10.449 46.183-18.55 7.203-3.483 11.992-10.567 12.638-18.542 1.415-17.473 2.186-44.678 2.186-64.222-.002-19.555-.773-38.332-2.189-55.809z" fill="url(#SVGID_6_)"/><path d="m507.04 396.254c0 19.542-.768 46.75-2.189 64.219-.642 7.977-5.43 15.059-12.639 18.542-16.743 8.103-24.796 14.459-46.179 18.553-17.395 3.336-36.022 5.167-55.395 5.23-.389.011-.779.011-1.168.011-45.208 0-74.842-4.399-94.247-12.144-11.934-4.757-24.604-7.419-37.453-7.419h-4.283c-12.849 0-25.519 2.662-37.453 7.419-16.837 6.724-41.399 10.923-77.147 11.913l-59.236-67.66c-26.76-25.258-41.661-60.869-42.103-100.247-.095-8.324.537-16.469 1.842-24.404 8.84-2.736 16.142-5.062 25.834-6.914 17.742-3.399 36.769-5.241 56.563-5.241 53.122 0 87.218 29.655 107.149 56.363.495.652.968 1.315 1.452 1.978 2.894 4.062 6.714 7.282 11.05 9.482 4.336 2.199 9.187 3.388 14.186 3.388 2.989 0 5.925-.421 8.734-1.242 6.577-1.894 12.439-5.925 16.511-11.628.474-.663.958-1.326 1.452-1.978 19.931-26.708 54.027-56.363 107.149-56.363 19.794 0 38.821 1.842 56.563 5.241 21.384 4.094 29.436 10.45 46.179 18.553 7.208 3.483 11.997 10.565 12.639 18.542 1.421 17.479 2.189 36.253 2.189 55.806z" fill="url(#SVGID_7_)"/><path d="m389.471 502.808c19.794 0 38.821-1.842 56.563-5.241 21.388-4.096 29.431-10.449 46.183-18.55 7.203-3.483 11.992-10.567 12.638-18.541 1.415-17.473 2.186-44.678 2.186-64.222 0-19.555-.771-38.331-2.186-55.809-.646-7.975-5.435-15.059-12.638-18.542-16.752-8.101-24.795-14.454-46.183-18.55-17.742-3.399-36.769-5.241-56.563-5.241-53.122 0-87.219 29.657-107.154 56.365-.489.656-.971 1.316-1.446 1.98-2.851 3.991-6.583 7.159-10.824 9.355-7.147 18.727-11.074 39.024-11.069 60.217.001 3.013.08 6.007.236 8.98.437 8.326 4.414 24.378 10.699 29.539l26.631 26.631c19.418 7.418 48.73 11.629 92.927 11.629z" fill="url(#SVGID_8_)"/><path d="m41.5 321.243c19.953-3.399 41.349-5.241 63.61-5.241 59.74 0 98.084 29.657 120.503 56.365.55.656 1.092 1.316 1.626 1.98 6.529 8.128 17.155 12.863 28.388 12.863 11.233 0 21.859-4.734 28.388-12.863.534-.665 1.076-1.325 1.626-1.98 22.419-26.708 60.763-56.365 120.503-56.365 22.26 0 43.657 1.842 63.61 5.241 14.991 2.553 17.685 5.984 30.797 10.169 5.392 1.721 9.063-5.392 4.256-8.3-.728-.44-1.485-.844-2.27-1.209-17.449-8.101-26.304-14.454-48.582-18.55-18.481-3.399-38.298-5.241-58.916-5.241-55.332 0-90.847 29.657-111.612 56.365-.51.656-1.012 1.316-1.506 1.981-6.047 8.128-15.889 12.863-26.293 12.863-10.404 0-20.247-4.734-26.294-12.863-.494-.665-.996-1.325-1.506-1.98-20.765-26.708-56.28-56.365-111.612-56.365-20.618 0-40.436 1.842-58.916 5.241-22.278 4.096-32.176 10.449-49.625 18.55-.785.364-1.542.768-2.27 1.209-4.807 2.909-1.136 10.021 4.256 8.3 13.111-4.186 16.848-7.617 31.839-10.17z" fill="url(#SVGID_9_)"/></g><g><path d="m428.466 256.505c3.023 0 6.028.079 9.013.236 10.779.565 20.408 7.044 24.999 16.814 8.701 18.517 13.472 39.247 13.228 61.117-.844 75.825-62.737 137.717-138.561 138.562-21.871.244-42.601-4.527-61.118-13.228-9.768-4.59-16.248-14.217-16.813-24.995-.156-2.974-.235-5.968-.236-8.981-.021-93.398 76.09-169.526 169.488-169.525z" fill="url(#SVGID_10_)"/><path d="m434.558 256.626c-13.607 23.97-32.626 48.953-56.148 72.475-39.128 39.128-82.298 65.802-118.119 75.807 10.428-83.486 81.929-148.404 168.176-148.404 2.039.001 4.068.05 6.091.122z" fill="url(#SVGID_11_)"/><path d="m260.302 404.905c35.741-9.986 78.796-36.567 117.852-75.552 17.138 18.012 27.674 42.364 27.674 69.191 0 6.601-.637 13.053-1.852 19.298-6.179 31.746-34.047 54.923-66.385 55.386-.148.002-.297.004-.446.006-21.872.244-42.603-4.528-61.122-13.23-9.793-4.602-16.243-14.186-16.81-24.992-.156-2.974-.235-5.969-.236-8.982-.001-7.154.459-14.201 1.325-21.125z" fill="url(#SVGID_12_)"/></g><path d="m470.22 483.618c-20.006 3.399-41.46 5.241-63.779 5.241-50.973 0-84.395-4.403-106.273-12.139-13.459-4.759-27.742-7.422-42.231-7.422h-4.83c-14.489 0-28.772 2.663-42.231 7.422-21.878 7.736-55.299 12.139-106.273 12.139-22.32 0-43.773-1.842-63.779-5.241-12.076-2.051-18.462-6.602-31.272-10.32-8.525-2.474-13.483 9.045-5.499 12.806.076.036.152.071.228.106 17.671 8.101 27.829 14.454 50.39 18.55 18.716 3.398 38.786 5.24 59.666 5.24 47.686 0 78.951-4.403 99.418-12.139 12.591-4.759 25.953-7.422 39.507-7.422h4.519c13.554 0 26.917 2.663 39.507 7.422 20.468 7.736 51.733 12.139 99.419 12.139 20.88 0 40.95-1.842 59.666-5.241 22.561-4.096 31.675-10.449 49.346-18.55.076-.035.152-.07.227-.106 7.984-3.761 3.026-15.28-5.499-12.806-12.809 3.719-18.151 8.27-30.227 10.321z" fill="url(#SVGID_13_)"/><g><path d="m82.789 256.505c-3.023 0-6.028.079-9.013.236-10.779.565-20.408 7.044-24.999 16.814-8.701 18.517-13.472 39.247-13.228 61.117.844 75.825 62.737 137.717 138.561 138.562 21.871.244 42.601-4.527 61.118-13.228 9.768-4.59 16.248-14.217 16.813-24.995.156-2.974.235-5.968.236-8.981.021-93.398-76.09-169.526-169.488-169.525z" fill="url(#SVGID_14_)"/><path d="m76.697 256.626c13.607 23.97 32.626 48.953 56.148 72.475 39.128 39.128 82.298 65.802 118.119 75.807-10.428-83.486-81.929-148.404-168.176-148.404-2.039.001-4.068.05-6.091.122z" fill="url(#SVGID_15_)"/><path d="m250.953 404.905c-35.741-9.986-78.796-36.567-117.852-75.552-17.138 18.012-27.674 42.364-27.674 69.191 0 6.601.637 13.053 1.852 19.298 6.179 31.746 34.047 54.923 66.385 55.386.148.002.297.004.446.006 21.872.244 42.604-4.528 61.122-13.23 9.793-4.602 16.243-14.186 16.81-24.992.156-2.974.235-5.969.236-8.982.001-7.154-.459-14.201-1.325-21.125z" fill="url(#SVGID_16_)"/></g></g></g></svg>