<svg id="Capa_1" enable-background="new 0 0 510 510" height="512" viewBox="0 0 510 510" width="512" xmlns="http://www.w3.org/2000/svg" xmlns:xlink="http://www.w3.org/1999/xlink"><linearGradient id="lg1"><stop offset="0" stop-color="#b063de"/><stop offset="1" stop-color="#793981"/></linearGradient><linearGradient id="SVGID_1_" gradientUnits="userSpaceOnUse" x1="182.024" x2="283.382" xlink:href="#lg1" y1="275.255" y2="486.331"/><linearGradient id="lg2"><stop offset="0" stop-color="#662d90" stop-opacity="0"/><stop offset=".1835" stop-color="#5c2d85" stop-opacity=".184"/><stop offset=".6917" stop-color="#442d6c" stop-opacity=".692"/><stop offset="1" stop-color="#3b2d63"/></linearGradient><linearGradient id="SVGID_2_" gradientUnits="userSpaceOnUse" x1="130.498" x2="261.067" xlink:href="#lg2" y1="291.22" y2="397.643"/><linearGradient id="SVGID_3_" gradientUnits="userSpaceOnUse" x1="156.094" x2="354" xlink:href="#lg1" y1="236.629" y2="534.001"/><linearGradient id="SVGID_4_" gradientUnits="userSpaceOnUse" x1="350.457" x2="260.351" xlink:href="#lg2" y1="297.679" y2="341.151"/><linearGradient id="SVGID_5_" gradientUnits="userSpaceOnUse" x1="223.091" x2="317.282" xlink:href="#lg1" y1="306.022" y2="337.002"/><linearGradient id="SVGID_6_" gradientUnits="userSpaceOnUse" x1="398.136" x2="337.428" xlink:href="#lg2" y1="276.33" y2="318.608"/><linearGradient id="SVGID_7_" gradientUnits="userSpaceOnUse" x1="212.55" x2="307.468" xlink:href="#lg1" y1="52.725" y2="100.184"/><linearGradient id="SVGID_8_" gradientUnits="userSpaceOnUse" x1="284.283" x2="202.309" xlink:href="#lg2" y1="88.985" y2="-30.021"/><linearGradient id="SVGID_9_" gradientUnits="userSpaceOnUse" x1="249.914" x2="289.283" xlink:href="#lg1" y1="5.102" y2="115.12"/><linearGradient id="SVGID_10_" gradientUnits="userSpaceOnUse" x1="305.23" x2="328.959" xlink:href="#lg2" y1="31.544" y2="127.18"/><linearGradient id="SVGID_11_" gradientUnits="userSpaceOnUse" x1="326.872" x2="326.872" xlink:href="#lg2" y1="223.921" y2="49.165"/><linearGradient id="SVGID_12_" gradientUnits="userSpaceOnUse" x1="255" x2="255" y1="111.386" y2="139.049"><stop offset="0" stop-color="#ffda2d"/><stop offset="1" stop-color="#fdbf00"/></linearGradient><g><g><path d="m478.123 419.79c4.221 6.699 2.655 14.226-3.706 17.384-47.061 23.362-126.808 38.964-219.417 38.964s-172.356-15.602-219.417-38.963c-6.361-3.158-7.928-10.685-3.706-17.384l147.155-299.683h151.936z" fill="url(#SVGID_1_)"/><path d="m195.008 120.108-123.222 331.452c-13.6-4.362-25.731-9.19-36.199-14.388-6.365-3.158-7.929-10.684-3.707-17.378l147.152-299.686z" fill="url(#SVGID_2_)"/><path d="m436.84 465.648c-53.02 27.536-310.659 27.536-363.679 0-3.669-1.906-4.894-6.242-3.051-10.352l124.897-335.188h119.987l124.897 335.188c1.842 4.111.618 8.447-3.051 10.352z" fill="url(#SVGID_3_)"/><path d="m436.843 465.645c-15.417 8.006-48.741 13.719-89.765 17.049.128-.238.239-.467.348-.704l-63.494-361.882h31.059l124.899 335.186c1.839 4.112.621 8.445-3.047 10.351z" fill="url(#SVGID_4_)"/><path d="m347.431 481.992c-17.317 37.343-167.546 37.343-184.863 0l63.498-361.885h57.867z" fill="url(#SVGID_5_)"/><path d="m474.413 437.172c-10.469 5.197-22.599 10.026-36.199 14.388l-123.222-331.452h15.976l147.152 299.686c4.223 6.694 2.658 14.22-3.707 17.378z" fill="url(#SVGID_6_)"/></g><path d="m178.995 27.792h152.009v92.316h-152.009z" fill="url(#SVGID_7_)"/><path d="m331.009 27.797v92.308h-97.053l-54.965-54.956v-37.352z" fill="url(#SVGID_8_)"/><path d="m353.983 3.041c-.799-2.582-3.774-3.791-6.175-2.55-19.771 10.22-50.794 17.055-86.067 17.826-2.233.054-4.476.076-6.741.076s-4.509-.022-6.741-.076c-35.273-.771-66.296-7.605-86.067-17.826-2.401-1.241-5.376-.032-6.175 2.55-1.422 4.595-2.246 9.451-2.385 14.476-.85 30.737 22.662 55.234 53.409 55.589 11.667.135 22.495-3.423 31.387-9.579 9.917-6.866 23.228-6.866 33.144 0 8.892 6.156 19.72 9.714 31.387 9.579 30.747-.356 54.259-24.852 53.409-55.589-.139-5.025-.963-9.881-2.385-14.476z" fill="url(#SVGID_9_)"/><path d="m356.368 17.517c-.139-5.025-.963-9.881-2.385-14.476-.799-2.582-3.774-3.791-6.175-2.55-19.771 10.221-50.794 17.055-86.067 17.826-2.233.054-4.476.076-6.741.076-2.25 0-4.479-.022-6.698-.075-.026.701-.053 1.401-.053 2.108 0 13.031 4.501 25.005 12.026 34.469 2.363 2.972 5.438 5.261 8.772 7.078.863.47 1.706.988 2.526 1.555 8.688 6.015 19.223 9.55 30.584 9.583 30.298.087 55.048-25.308 54.211-55.594z" fill="url(#SVGID_10_)"/><path d="m476.913 435.5-303.65-303.65 5.771-11.746h151.933l147.154 299.691c3.602 5.717 2.988 12.016-1.208 15.705z" fill="url(#SVGID_11_)"/><path d="m170.609 123.195c-1.069 5.19 2.342 10.219 7.55 11.197 22.269 4.179 48.696 6.594 76.841 6.594 28.146 0 54.573-2.415 76.841-6.594 5.208-.977 8.62-6.007 7.55-11.197l-2.241-10.875c-1.006-4.882-5.629-8.122-10.567-7.446-15.377 2.107-34.534 3.546-55.554 4.039-8.891.204-23.168.204-32.059 0-21.02-.494-40.177-1.933-55.554-4.039-4.938-.677-9.562 2.564-10.567 7.446z" fill="url(#SVGID_12_)"/></g></svg>