<svg id="Capa_1" enable-background="new 0 0 509.997 509.997" height="512" viewBox="0 0 509.997 509.997" width="512" xmlns="http://www.w3.org/2000/svg" xmlns:xlink="http://www.w3.org/1999/xlink"><linearGradient id="lg1"><stop offset="0" stop-color="#0b799d"/><stop offset="1" stop-color="#07485e"/></linearGradient><linearGradient id="SVGID_1_" gradientUnits="userSpaceOnUse" x1="173.62" x2="407.606" xlink:href="#lg1" y1="254.999" y2="254.999"/><linearGradient id="SVGID_2_" gradientUnits="userSpaceOnUse" x1="258.401" x2="299.735" xlink:href="#lg1" y1="68.973" y2="194.973"/><linearGradient id="lg2"><stop offset="0" stop-color="#07485e" stop-opacity="0"/><stop offset="1" stop-color="#03232e"/></linearGradient><linearGradient id="SVGID_3_" gradientUnits="userSpaceOnUse" x1="360.888" x2="251.399" xlink:href="#lg2" y1="128.631" y2="-5.044"/><linearGradient id="lg3"><stop offset="0" stop-color="#ffda2d"/><stop offset="1" stop-color="#fdbf00"/></linearGradient><linearGradient id="SVGID_4_" gradientUnits="userSpaceOnUse" x1="276.227" x2="307.561" xlink:href="#lg3" y1="65.602" y2="102.268"/><linearGradient id="SVGID_5_" gradientUnits="userSpaceOnUse" x1="288.972" x2="223.639" xlink:href="#lg2" y1="229.444" y2="53.444"/><linearGradient id="SVGID_6_" gradientUnits="userSpaceOnUse" x1="266.938" x2="266.938" xlink:href="#lg2" y1="363.442" y2="165.802"/><linearGradient id="SVGID_7_" gradientUnits="userSpaceOnUse" x1="254.999" x2="254.999" xlink:href="#lg3" y1="273.594" y2="294.951"/><linearGradient id="SVGID_8_" gradientUnits="userSpaceOnUse" x1="254.994" x2="254.994" xlink:href="#lg2" y1="481.275" y2="519.571"/><linearGradient id="SVGID_9_" gradientUnits="userSpaceOnUse" x1="205.519" x2="212.147" xlink:href="#lg1" y1="36.721" y2="84.223"/><linearGradient id="SVGID_10_" gradientUnits="userSpaceOnUse" x1="307.042" x2="332.45" xlink:href="#lg1" y1="31.042" y2="65.84"/><g><path d="m419.52 75.114-34.201 14.217c-10.483 4.364-18.515 13.135-21.928 23.961l-14.427 45.712c-5.612 17.299-8.396 35.228-8.396 53.124 0 23.132 4.651 46.209 13.908 67.806 26.855 62.669 31.682 132.596 13.698 198.369l-5.678 20.735c-1.767 6.473-7.644 10.958-14.361 10.958h-186.273c-6.717 0-12.593-4.485-14.361-10.958l-5.678-20.735c-7.136-26.104-10.682-52.859-10.682-79.56 0-40.575 8.186-81.018 24.38-118.809 16.416-38.311 18.371-81.283 5.512-120.93l-14.427-45.712c-3.414-10.826-11.445-19.597-21.928-23.961l-34.201-14.217c-11.732-4.883-14.748-20.116-5.767-29.109l20.018-20.005c4.673-4.684 9.699-8.948 14.991-12.792 8.575-6.202 18.316-10.539 28.579-12.933 4.396-1.025 9.002.876 11.22 4.808 17.167 30.444 53.468 51.44 95.481 51.44s78.314-20.997 95.481-51.44c2.217-3.932 6.823-5.833 11.22-4.808 10.264 2.394 20.005 6.731 28.58 12.933 5.291 3.844 10.318 8.108 14.991 12.792l20.017 20.006c8.98 8.992 5.964 24.226-5.768 29.108z" fill="url(#SVGID_1_)"/><path d="m419.519 75.117-34.2 14.21c-10.48 4.37-18.51 13.14-21.93 23.97l-7.69 24.38s0 .01-.01.01c-10.6 14.6-27.77 24.03-47.71 24.26-12.89.15-24.85-3.78-34.67-10.58-10.96-7.59-25.66-7.59-36.62 0-9.82 6.8-21.78 10.73-34.67 10.58-19.94-.23-37.11-9.66-47.71-24.26-.01 0-.01-.01-.01-.01l-7.69-24.38c-3.42-10.83-11.45-19.6-21.93-23.97l-34.2-14.21c-11.73-4.89-14.75-20.12-5.77-29.11l20.02-20.01c4.67-4.68 9.7-8.95 14.99-12.79 8.57-6.2 18.32-10.54 28.58-12.93 4.4-1.03 9 .87 11.22 4.81 17.17 30.44 53.47 51.44 95.48 51.44s78.31-21 95.48-51.44c2.22-3.94 6.82-5.84 11.22-4.81 10.26 2.39 20.01 6.73 28.58 12.93 5.29 3.84 10.32 8.11 14.99 12.79l20.02 20.01c8.98 8.99 5.96 24.22-5.77 29.11z" fill="url(#SVGID_2_)"/><path d="m419.519 75.117-20.52 8.52-3.42 1.43-1.03.42-9.23 3.84c-10.48 4.37-18.51 13.14-21.93 23.97l-14.43 45.71c-5.61 17.3-8.39 35.23-8.39 53.12 0 9.12.72 18.23 2.17 27.24l-125.44-125.45c-6.23-5.84-11-13.07-16.17-21.58-9.72-16.02-17.412-34.622-21.179-55.623-.487-2.713 2.601-4.706 4.808-3.054.021.015.041.031.062.047.45.35.91.69 1.38 1.03 1.38 1.02 2.79 2 4.23 2.95 17.89 11.82 40.27 18.84 64.57 18.84 28.08 0 53.62-9.38 72.59-24.7.01-.01.01-.01.02-.01.51-.42 1.01-.83 1.51-1.25.55-.46 1.09-.93 1.63-1.41.42-.36.84-.73 1.25-1.1 1.17-1.07 2.31-2.16 3.43-3.27.543-.543 1.068-1.087 1.6-1.63.642-.656 1.297-1.303 1.871-2.02.04-.05.08-.09.13-.14 4.41-4.93 8.26-10.26 11.45-15.91 2.22-3.94 6.82-5.84 11.22-4.81 10.26 2.39 20.01 6.73 28.58 12.93 5.29 3.84 10.32 8.11 14.99 12.79l20.02 20.01c8.978 8.99 5.958 24.22-5.772 29.11z" fill="url(#SVGID_3_)"/><path d="m327.589 31.827c-3.28 20.78-9.85 39.8-19.27 55.32-13.51 22.25-31.2 34.5-49.82 34.5s-36.31-12.25-49.82-34.5c-8.53-14.05-14.72-30.97-18.25-49.46-4.1-2.71-7.97-5.67-11.56-8.86 3.21 23.84 10.49 45.76 21.26 63.51 15.39 25.35 36.12 39.31 58.37 39.31s42.98-13.96 58.37-39.31c11.94-19.68 19.59-44.48 22.16-71.34-3.48 3.87-7.3 7.49-11.44 10.83z" fill="url(#SVGID_4_)"/><path d="m354.478 279.931c-16.417-38.311-18.375-81.277-5.511-120.922l6.73-21.33c-10.601 14.612-27.779 24.038-47.719 24.269-12.888.149-24.85-3.781-34.673-10.582-10.955-7.585-25.659-7.585-36.614 0-9.823 6.801-21.784 10.731-34.673 10.582-19.939-.231-37.118-9.656-47.719-24.269l1.024 3.246 221.301 221.301c-3.43-28.15-10.822-55.868-22.146-82.295z" fill="url(#SVGID_5_)"/><path d="m365.463 488.204 2.711-9.901c17.984-65.773 13.157-135.7-13.698-198.369-.204-.477-.395-.959-.595-1.438h-197.763c-.2.479-.392.96-.597 1.438-.172.402-.331.809-.501 1.212.569.553 134.425 130.521 210.443 207.058z" fill="url(#SVGID_6_)"/><path d="m254.999 293.437c36.308 0 69.222-3.044 93.278-7.981 5.898-1.21 9.751-6.897 8.672-12.821-1.12-6.156-7.109-10.146-13.225-8.826-3.685.796-8.235 1.535-13.513 2.203-15.098 1.91-36.164 3.241-60.019 3.647-8.424.14-21.964.14-30.388 0-23.855-.406-44.921-1.737-60.019-3.647-5.278-.668-9.828-1.407-13.513-2.203-6.116-1.321-12.104 2.67-13.225 8.826-1.078 5.923 2.775 11.61 8.672 12.821 24.058 4.937 56.972 7.981 93.28 7.981z" fill="url(#SVGID_7_)"/><path d="m135.468 449.608c1.648 9.629 3.761 19.206 6.356 28.696l5.678 20.735c1.767 6.473 7.644 10.958 14.361 10.958h186.273c6.717 0 12.593-4.485 14.361-10.958l5.678-20.735c2.595-9.49 4.699-19.068 6.346-28.696z" fill="url(#SVGID_8_)"/><g><path d="m254.999 56.522s-24.855 43.083-64.624 15.466c-30.677-21.298-35.494-56.394-36.09-71.341 2.165.806 4.043 2.331 5.236 4.43 17.166 30.445 53.466 51.445 95.478 51.445z" fill="url(#SVGID_9_)"/><path d="m355.713.647c-.596 14.946-5.413 50.042-36.09 71.341-39.769 27.617-64.624-15.466-64.624-15.466 42.011 0 78.311-21 95.478-51.445 1.193-2.099 3.071-3.623 5.236-4.43z" fill="url(#SVGID_10_)"/></g></g></svg>