<svg id="Capa_1" enable-background="new 0 0 510 510" height="512" viewBox="0 0 510 510" width="512" xmlns="http://www.w3.org/2000/svg" xmlns:xlink="http://www.w3.org/1999/xlink"><linearGradient id="lg1"><stop offset="0" stop-color="#0b799d"/><stop offset="1" stop-color="#07485e"/></linearGradient><linearGradient id="SVGID_1_" gradientUnits="userSpaceOnUse" x1="88.928" x2="111.83" xlink:href="#lg1" y1="167.29" y2="181.864"/><linearGradient id="lg2"><stop offset="0" stop-color="#b5dbff"/><stop offset="1" stop-color="#48b2e3"/></linearGradient><linearGradient id="SVGID_2_" gradientUnits="userSpaceOnUse" x1="158.656" x2="178.087" xlink:href="#lg2" y1="67.577" y2="97.071"/><linearGradient id="SVGID_3_" gradientTransform="matrix(-1 0 0 1 -1863.595 0)" gradientUnits="userSpaceOnUse" x1="-2284.666" x2="-2261.765" xlink:href="#lg1" y1="167.29" y2="181.864"/><linearGradient id="SVGID_4_" gradientTransform="matrix(-1 0 0 1 -1863.595 0)" gradientUnits="userSpaceOnUse" x1="-2214.939" x2="-2195.508" xlink:href="#lg2" y1="67.577" y2="97.071"/><linearGradient id="SVGID_5_" gradientUnits="userSpaceOnUse" x1="255" x2="255" xlink:href="#lg2" y1="324.183" y2="396.326"/><linearGradient id="SVGID_6_" gradientUnits="userSpaceOnUse" x1="255" x2="255" xlink:href="#lg2" y1="297.568" y2="317.668"/><linearGradient id="lg3"><stop offset="0" stop-color="#edf5ff"/><stop offset="1" stop-color="#b5dbff"/></linearGradient><linearGradient id="SVGID_7_" gradientUnits="userSpaceOnUse" x1="99.138" x2="181.848" xlink:href="#lg3" y1="340.152" y2="422.862"/><linearGradient id="SVGID_8_" gradientUnits="userSpaceOnUse" x1="63.114" x2="206.909" xlink:href="#lg2" y1="304.128" y2="447.923"/><linearGradient id="SVGID_9_" gradientUnits="userSpaceOnUse" x1="208.08" x2="47.906" xlink:href="#lg2" y1="449.095" y2="288.92"/><linearGradient id="SVGID_10_" gradientUnits="userSpaceOnUse" x1="362.686" x2="445.397" xlink:href="#lg3" y1="340.152" y2="422.862"/><linearGradient id="SVGID_11_" gradientUnits="userSpaceOnUse" x1="326.662" x2="470.458" xlink:href="#lg2" y1="304.128" y2="447.923"/><linearGradient id="SVGID_12_" gradientUnits="userSpaceOnUse" x1="471.629" x2="311.454" xlink:href="#lg2" y1="449.095" y2="288.92"/><g><g><g><path d="m26.233 308.595c-2.307 0-4.643-.615-6.757-1.905-6.13-3.742-8.068-11.749-4.33-17.884l122.576-202.794c9.518-15.561 25.34-25.704 43.419-27.849 18.082-2.141 35.831 4.015 48.704 16.9l.707.706c5.08 5.078 5.086 13.317.012 18.402-5.071 5.085-13.304 5.091-18.385.013l-.712-.713c-7.212-7.219-17.15-10.669-27.265-9.465-10.119 1.201-18.974 6.878-24.295 15.576l-122.563 202.775c-2.45 4.019-6.728 6.238-11.111 6.238z" fill="url(#SVGID_1_)"/><path d="m136.902 127.793c-12.054 0-19.463-13.191-13.191-23.484l11.923-19.567c9.909-16.199 26.39-26.77 45.218-29.004 2.437-.289 4.908-.435 7.347-.435 16.351 0 31.754 6.405 43.374 18.034l.705.704c6.025 6.022 6.031 15.826.015 21.856-2.917 2.925-6.798 4.535-10.928 4.535-4.122 0-7.997-1.605-10.914-4.52l-.713-.714c-5.788-5.794-13.451-8.984-21.578-8.984-1.218 0-2.453.073-3.67.218-9.371 1.112-17.571 6.37-22.499 14.425l-11.899 19.527c-2.803 4.601-7.801 7.409-13.19 7.409z" fill="url(#SVGID_2_)"/></g><g><path d="m483.767 308.595c2.307 0 4.643-.615 6.757-1.905 6.13-3.742 8.068-11.749 4.33-17.884l-122.576-202.794c-9.518-15.561-25.34-25.704-43.419-27.849-18.082-2.141-35.831 4.015-48.704 16.9l-.707.706c-5.08 5.078-5.086 13.317-.012 18.402 5.071 5.085 13.304 5.091 18.385.013l.712-.713c7.212-7.219 17.15-10.669 27.265-9.465 10.119 1.201 18.974 6.878 24.295 15.576l122.564 202.774c2.449 4.02 6.727 6.239 11.11 6.239z" fill="url(#SVGID_3_)"/><path d="m373.098 127.793c12.054 0 19.463-13.191 13.191-23.484l-11.923-19.567c-9.909-16.199-26.39-26.77-45.218-29.004-2.437-.289-4.908-.435-7.347-.435-16.351 0-31.754 6.405-43.374 18.034l-.705.704c-6.025 6.022-6.031 15.826-.015 21.856 2.917 2.925 6.798 4.535 10.928 4.535 4.122 0 7.997-1.605 10.914-4.52l.713-.714c5.788-5.794 13.451-8.984 21.578-8.984 1.218 0 2.453.073 3.67.218 9.371 1.112 17.571 6.37 22.499 14.425l11.899 19.527c2.803 4.601 7.801 7.409 13.19 7.409z" fill="url(#SVGID_4_)"/></g></g><path d="m255 347.558c15.611 0 28.582 12.893 31.183 29.856.549 3.582 3.162 6.267 6.349 6.267h.281c3.944 0 6.995-4.031 6.346-8.47-3.536-24.183-21.961-42.616-44.158-42.616s-40.622 18.433-44.158 42.616c-.649 4.439 2.402 8.47 6.346 8.47h.281c3.187 0 5.8-2.685 6.349-6.267 2.599-16.963 15.57-29.856 31.181-29.856z" fill="url(#SVGID_5_)"/><path d="m232.224 296.822h45.552v20.746h-45.552z" fill="url(#SVGID_6_)"/><g><g><path d="m223.558 416.746c0 8.222-6.533 14.911-14.563 14.911h-171.538c-8.03 0-14.563-6.689-14.563-14.911v-105.012c0-8.222 6.533-14.911 14.563-14.911h171.537c8.03 0 14.563 6.689 14.563 14.911v105.012z" fill="url(#SVGID_7_)"/><g><path d="m204.71 454.698h-162.969c-23.016 0-41.741-18.724-41.741-41.74v-97.436c0-23.016 18.725-41.741 41.741-41.741h162.969c23.016 0 41.741 18.725 41.741 41.741v97.436c0 23.016-18.725 41.74-41.741 41.74zm-162.969-153.012c-7.629 0-13.836 6.206-13.836 13.835v97.436c0 7.629 6.207 13.835 13.836 13.835h162.969c7.629 0 13.836-6.206 13.836-13.835v-97.436c0-7.629-6.207-13.835-13.836-13.835z" fill="url(#SVGID_8_)"/><path d="m205.517 288.141h-164.583c-14.597 0-26.431 11.283-26.431 25.201v101.795c0 13.918 11.834 25.201 26.431 25.201h164.584c14.597 0 26.431-11.283 26.431-25.201v-101.795c-.001-13.918-11.834-25.201-26.432-25.201zm13.029 124.817c0 7.629-6.207 13.835-13.836 13.835h-162.969c-7.629 0-13.836-6.206-13.836-13.835v-97.436c0-7.629 6.207-13.835 13.836-13.835h162.969c7.629 0 13.836 6.206 13.836 13.835z" fill="url(#SVGID_9_)"/></g></g><g><path d="m487.106 416.746c0 8.222-6.533 14.911-14.563 14.911h-171.537c-8.03 0-14.563-6.689-14.563-14.911v-105.012c0-8.222 6.533-14.911 14.563-14.911h171.537c8.03 0 14.563 6.689 14.563 14.911z" fill="url(#SVGID_10_)"/><g><path d="m468.259 454.698h-162.969c-23.016 0-41.741-18.725-41.741-41.741v-97.436c0-23.016 18.725-41.741 41.741-41.741h162.969c23.016 0 41.741 18.725 41.741 41.741v97.436c0 23.017-18.725 41.741-41.741 41.741zm-162.969-153.012c-7.629 0-13.836 6.206-13.836 13.835v97.436c0 7.629 6.207 13.835 13.836 13.835h162.969c7.629 0 13.836-6.206 13.836-13.835v-97.436c0-7.629-6.207-13.835-13.836-13.835z" fill="url(#SVGID_11_)"/><path d="m469.066 288.141h-164.583c-14.597 0-26.431 11.283-26.431 25.201v101.795c0 13.918 11.834 25.201 26.431 25.201h164.584c14.597 0 26.431-11.283 26.431-25.201v-101.795c-.001-13.918-11.835-25.201-26.432-25.201zm13.029 124.817c0 7.629-6.207 13.835-13.836 13.835h-162.969c-7.629 0-13.836-6.206-13.836-13.835v-97.436c0-7.629 6.207-13.835 13.836-13.835h162.969c7.629 0 13.836 6.206 13.836 13.835z" fill="url(#SVGID_12_)"/></g></g></g></g></svg>