<svg id="Capa_1" enable-background="new 0 0 510 510" height="512" viewBox="0 0 510 510" width="512" xmlns="http://www.w3.org/2000/svg" xmlns:xlink="http://www.w3.org/1999/xlink"><linearGradient id="lg1"><stop offset="0" stop-color="#ffda2d"/><stop offset="1" stop-color="#fdbf00"/></linearGradient><linearGradient id="SVGID_1_" gradientUnits="userSpaceOnUse" x1="88.928" x2="111.83" xlink:href="#lg1" y1="163.222" y2="177.795"/><linearGradient id="lg2"><stop offset="0" stop-color="#0b799d"/><stop offset="1" stop-color="#07485e"/></linearGradient><linearGradient id="SVGID_2_" gradientUnits="userSpaceOnUse" x1="158.656" x2="178.087" xlink:href="#lg2" y1="63.509" y2="93.003"/><linearGradient id="SVGID_3_" gradientTransform="matrix(-1 0 0 1 264.405 0)" gradientUnits="userSpaceOnUse" x1="-156.666" x2="-133.765" xlink:href="#lg1" y1="163.222" y2="177.795"/><linearGradient id="SVGID_4_" gradientTransform="matrix(-1 0 0 1 264.405 0)" gradientUnits="userSpaceOnUse" x1="-86.939" x2="-67.508" xlink:href="#lg2" y1="63.509" y2="93.003"/><linearGradient id="lg3"><stop offset="0" stop-color="#edf5ff"/><stop offset="1" stop-color="#b5dbff"/></linearGradient><linearGradient id="SVGID_5_" gradientTransform="matrix(.707 .707 -.707 .707 -425.754 -366.114)" gradientUnits="userSpaceOnUse" x1="963.693" x2="988.471" xlink:href="#lg3" y1="43.941" y2="50.548"/><linearGradient id="SVGID_6_" gradientTransform="matrix(-.707 .707 .707 .707 883.878 -366.114)" gradientUnits="userSpaceOnUse" x1="927.011" x2="951.789" xlink:href="#lg3" y1="80.622" y2="87.23"/><linearGradient id="SVGID_7_" gradientUnits="userSpaceOnUse" x1="101.924" x2="173.685" xlink:href="#lg3" y1="324.386" y2="396.147"/><linearGradient id="SVGID_8_" gradientUnits="userSpaceOnUse" x1="64.513" x2="192.216" xlink:href="#lg1" y1="286.975" y2="414.678"/><linearGradient id="SVGID_9_" gradientUnits="userSpaceOnUse" x1="171.618" x2="82.06" xlink:href="#lg1" y1="394.082" y2="304.524"/><linearGradient id="SVGID_10_" gradientUnits="userSpaceOnUse" x1="375.62" x2="447.38" xlink:href="#lg3" y1="324.386" y2="396.147"/><linearGradient id="SVGID_11_" gradientUnits="userSpaceOnUse" x1="355.273" x2="216.273" y1="372.953" y2="312.953"><stop offset="0" stop-color="#b5dbff" stop-opacity="0"/><stop offset=".1734" stop-color="#8fc5e9" stop-opacity=".173"/><stop offset=".4541" stop-color="#56a4c8" stop-opacity=".454"/><stop offset=".6955" stop-color="#2d8db1" stop-opacity=".696"/><stop offset=".8853" stop-color="#147ea2" stop-opacity=".885"/><stop offset="1" stop-color="#0b799d"/></linearGradient><linearGradient id="SVGID_12_" gradientUnits="userSpaceOnUse" x1="338.208" x2="465.911" xlink:href="#lg1" y1="286.975" y2="414.678"/><linearGradient id="SVGID_14_" gradientUnits="userSpaceOnUse" x1="445.313" x2="355.756" xlink:href="#lg1" y1="394.082" y2="304.524"/><linearGradient id="lg4"><stop offset="0" stop-color="#ff9100" stop-opacity="0"/><stop offset="1" stop-color="#ff9100"/></linearGradient><linearGradient id="SVGID_15_" gradientUnits="userSpaceOnUse" x1="307.246" x2="278.58" xlink:href="#lg4" y1="331.122" y2="292.455"/><linearGradient id="SVGID_16_" gradientUnits="userSpaceOnUse" x1="237.005" x2="220.178" xlink:href="#lg4" y1="311.389" y2="305.582"/><linearGradient id="SVGID_17_" gradientUnits="userSpaceOnUse" x1="255" x2="255" y1="254.03" y2="326.172"><stop offset="0" stop-color="#ffd945"/><stop offset=".3043" stop-color="#ffcd3e"/><stop offset=".8558" stop-color="#ffad2b"/><stop offset="1" stop-color="#ffa325"/></linearGradient><g><g><g><path d="m26.233 304.527c-2.307 0-4.643-.615-6.757-1.905-6.13-3.742-8.068-11.749-4.33-17.884l122.576-202.794c9.518-15.561 25.34-25.704 43.419-27.849 18.082-2.141 35.831 4.015 48.704 16.9l.707.706c5.08 5.078 5.086 13.317.012 18.402-5.071 5.085-13.304 5.091-18.385.013l-.712-.713c-7.212-7.219-17.15-10.669-27.265-9.465-10.119 1.201-18.974 6.878-24.295 15.576l-122.563 202.774c-2.45 4.02-6.728 6.239-11.111 6.239z" fill="url(#SVGID_1_)"/><path d="m136.902 123.724c-12.054 0-19.463-13.191-13.191-23.484l11.923-19.567c9.909-16.199 26.39-26.77 45.218-29.004 2.437-.289 4.908-.435 7.347-.435 16.351 0 31.754 6.405 43.374 18.034l.705.704c6.025 6.022 6.031 15.826.015 21.856-2.917 2.925-6.798 4.535-10.928 4.535-4.122 0-7.997-1.605-10.914-4.52l-.713-.714c-5.788-5.794-13.451-8.984-21.578-8.984-1.218 0-2.453.073-3.67.218-9.371 1.112-17.571 6.37-22.499 14.425l-11.899 19.527c-2.803 4.601-7.801 7.409-13.19 7.409z" fill="url(#SVGID_2_)"/></g><g><path d="m483.767 304.527c2.307 0 4.643-.615 6.757-1.905 6.13-3.742 8.068-11.749 4.33-17.884l-122.576-202.794c-9.518-15.561-25.34-25.704-43.419-27.849-18.082-2.141-35.831 4.015-48.704 16.9l-.707.706c-5.08 5.078-5.086 13.317-.012 18.402 5.071 5.085 13.304 5.091 18.385.013l.712-.713c7.212-7.219 17.15-10.669 27.265-9.465 10.119 1.201 18.974 6.878 24.295 15.576l122.564 202.774c2.449 4.02 6.727 6.239 11.11 6.239z" fill="url(#SVGID_3_)"/><path d="m373.098 123.724c12.054 0 19.463-13.191 13.191-23.484l-11.923-19.567c-9.909-16.199-26.39-26.77-45.218-29.004-2.437-.289-4.908-.435-7.347-.435-16.351 0-31.754 6.405-43.374 18.034l-.705.704c-6.025 6.022-6.031 15.826-.015 21.856 2.917 2.925 6.798 4.535 10.928 4.535 4.122 0 7.997-1.605 10.914-4.52l.713-.714c5.788-5.794 13.451-8.984 21.578-8.984 1.218 0 2.453.073 3.67.218 9.371 1.112 17.571 6.37 22.499 14.425l11.899 19.527c2.803 4.601 7.801 7.409 13.19 7.409z" fill="url(#SVGID_4_)"/></g></g><g><g><g><path d="m240.861 367.773c-8.875 9.515-20.64 12.328-26.279 6.282s-3.016-18.661 5.859-28.177c8.875-9.515 20.64-12.328 26.279-6.282s3.016 18.662-5.859 28.177z" fill="url(#SVGID_5_)"/><path d="m269.139 367.773c8.875 9.515 20.64 12.328 26.279 6.282s3.016-18.661-5.859-28.177c-8.875-9.515-20.64-12.328-26.279-6.282s-3.016 18.662 5.859 28.177z" fill="url(#SVGID_6_)"/></g></g><g><g><circle cx="118.152" cy="340.614" fill="url(#SVGID_7_)" r="93.458"/><g><path d="m118.152 222.462c-65.259 0-118.152 52.893-118.152 118.153 0 65.248 52.893 118.152 118.152 118.152 65.248 0 118.152-52.904 118.152-118.152 0-65.26-52.904-118.153-118.152-118.153zm0 207.949c-49.593 0-89.796-40.203-89.796-89.796s40.203-89.796 89.796-89.796 89.796 40.203 89.796 89.796-40.203 89.796-89.796 89.796z" fill="url(#SVGID_8_)"/><path d="m118.141 440.548c55.198 0 99.944-44.747 99.944-99.944 0-55.187-44.747-99.933-99.944-99.933s-99.933 44.747-99.933 99.933c0 55.197 44.736 99.944 99.933 99.944zm0-189.74c49.593 0 89.796 40.203 89.796 89.796s-40.203 89.796-89.796 89.796-89.796-40.203-89.796-89.796c0-49.594 40.203-89.796 89.796-89.796z" fill="url(#SVGID_9_)"/></g></g><g><circle cx="391.848" cy="340.614" fill="url(#SVGID_10_)" r="93.458"/><path d="m433.528 424.279-125.345-125.345c-6.264 12.549-9.794 26.701-9.794 41.68 0 51.615 41.843 93.458 93.458 93.458 14.98 0 29.132-3.529 41.681-9.793z" fill="url(#SVGID_11_)"/><g><path d="m391.848 222.462c-65.259 0-118.152 52.893-118.152 118.152 0 65.248 52.893 118.152 118.152 118.152 65.248 0 118.152-52.904 118.152-118.152 0-65.259-52.904-118.152-118.152-118.152zm0 207.949c-49.593 0-89.796-40.203-89.796-89.796s40.203-89.796 89.796-89.796 89.796 40.203 89.796 89.796-40.203 89.796-89.796 89.796z" fill="url(#SVGID_12_)"/><path d="m391.848 222.462c-65.259 0-118.152 52.893-118.152 118.152 0 65.248 52.893 118.152 118.152 118.152 65.248 0 118.152-52.904 118.152-118.152 0-65.259-52.904-118.152-118.152-118.152zm0 207.949c-49.593 0-89.796-40.203-89.796-89.796s40.203-89.796 89.796-89.796 89.796 40.203 89.796 89.796-40.203 89.796-89.796 89.796z" fill="url(#SVGID_12_)"/><path d="m391.837 440.548c55.198 0 99.944-44.747 99.944-99.944 0-55.187-44.747-99.933-99.944-99.933s-99.933 44.747-99.933 99.933c0 55.197 44.736 99.944 99.933 99.944zm0-189.74c49.593 0 89.796 40.203 89.796 89.796s-40.203 89.796-89.796 89.796-89.796-40.203-89.796-89.796c0-49.594 40.203-89.796 89.796-89.796z" fill="url(#SVGID_14_)"/><path d="m289.981 280.731c-10.344 17.56-16.285 38.026-16.285 59.883 0 12.766 2.033 25.056 5.779 36.573l75.801 75.801c11.517 3.746 23.806 5.779 36.573 5.779 21.854 0 42.319-5.942 59.88-16.288l-20.931-20.931c-11.782 5.68-24.993 8.864-38.948 8.864-49.593 0-89.796-40.203-89.796-89.796 0-13.955 3.184-27.167 8.864-38.948z" fill="url(#SVGID_15_)"/></g></g></g><path d="m221.314 283.235c-4.817 6.729-7.165 12.88-8.473 21.822-.557 3.808-.387 7.308 2.731 8.228l20.533 20.533c-1.083-19.095-5.699-34.975-14.791-50.583z" fill="url(#SVGID_16_)"/><path d="m255 277.404c15.611 0 28.582 12.893 31.183 29.856.549 3.582 3.162 6.267 6.349 6.267h.281c3.944 0 6.995-4.031 6.346-8.47-3.536-24.183-21.961-42.616-44.158-42.616s-40.622 18.433-44.158 42.616c-.649 4.439 2.402 8.47 6.346 8.47h.281c3.187 0 5.8-2.685 6.349-6.267 2.599-16.963 15.57-29.856 31.181-29.856z" fill="url(#SVGID_17_)"/></g></g></svg>