<svg id="Capa_1" enable-background="new 0 0 510 510" height="512" viewBox="0 0 510 510" width="512" xmlns="http://www.w3.org/2000/svg" xmlns:xlink="http://www.w3.org/1999/xlink"><linearGradient id="lg1"><stop offset="0" stop-color="#edf5ff"/><stop offset="1" stop-color="#b5dbff"/></linearGradient><linearGradient id="SVGID_1_" gradientUnits="userSpaceOnUse" x1="195.712" x2="364.468" xlink:href="#lg1" y1="248.058" y2="536.631"/><linearGradient id="SVGID_2_" gradientUnits="userSpaceOnUse" x1="200.532" x2="336.75" xlink:href="#lg1" y1="253.356" y2="510.244"/><linearGradient id="SVGID_3_" gradientUnits="userSpaceOnUse" x1="219.075" x2="355.292" xlink:href="#lg1" y1="294.522" y2="394.464"/><linearGradient id="lg2"><stop offset="0" stop-color="#b5dbff" stop-opacity="0"/><stop offset=".1734" stop-color="#8fc5e9" stop-opacity=".173"/><stop offset=".4541" stop-color="#56a4c8" stop-opacity=".454"/><stop offset=".6955" stop-color="#2d8db1" stop-opacity=".696"/><stop offset=".8853" stop-color="#147ea2" stop-opacity=".885"/><stop offset="1" stop-color="#0b799d"/></linearGradient><linearGradient id="SVGID_4_" gradientUnits="userSpaceOnUse" x1="373.261" x2="180.039" xlink:href="#lg2" y1="243.983" y2="471.628"/><linearGradient id="lg3"><stop offset="0" stop-color="#b5dbff" stop-opacity="0"/><stop offset=".2466" stop-color="#80bce0" stop-opacity=".286"/><stop offset=".5263" stop-color="#499cc0" stop-opacity=".61"/><stop offset=".662" stop-color="#3390b4" stop-opacity=".767"/><stop offset=".6987" stop-color="#2d8db1" stop-opacity=".792"/><stop offset=".8863" stop-color="#147ea2" stop-opacity=".922"/><stop offset="1" stop-color="#0b799d"/></linearGradient><linearGradient id="SVGID_5_" gradientUnits="userSpaceOnUse" x1="354.237" x2="38.864" xlink:href="#lg3" y1="282.872" y2="430.564"/><linearGradient id="SVGID_6_" gradientUnits="userSpaceOnUse" x1="86.434" x2="241.9" xlink:href="#lg2" y1="335.146" y2="375.864"/><linearGradient id="SVGID_7_" gradientUnits="userSpaceOnUse" x1="309.443" x2="220.639" xlink:href="#lg3" y1="208.068" y2="-21.939"/><linearGradient id="SVGID_8_" gradientUnits="userSpaceOnUse" x1="255" x2="255" xlink:href="#lg1" y1="130.744" y2="151.599"/><linearGradient id="SVGID_9_" gradientUnits="userSpaceOnUse" x1="255" x2="255" xlink:href="#lg1" y1="113.889" y2="134.744"/><linearGradient id="SVGID_10_" gradientUnits="userSpaceOnUse" x1="255" x2="255" xlink:href="#lg1" y1="97.033" y2="117.889"/><linearGradient id="SVGID_11_" gradientUnits="userSpaceOnUse" x1="267.303" x2="237.32" xlink:href="#lg3" y1="139.329" y2="34.204"/><linearGradient id="SVGID_12_" gradientUnits="userSpaceOnUse" x1="178.453" x2="119.228" xlink:href="#lg1" y1="23.886" y2="94.956"/><linearGradient id="SVGID_13_" gradientTransform="matrix(-1 0 0 1 349.514 0)" gradientUnits="userSpaceOnUse" x1="17.967" x2="-41.258" xlink:href="#lg1" y1="23.886" y2="94.956"/><linearGradient id="SVGID_14_" gradientUnits="userSpaceOnUse" x1="251.384" x2="271.373" xlink:href="#lg1" y1="51.208" y2="126.72"/><g><g><path d="m447.857 383.948c0 142.603-385.714 142.603-385.714 0s86.345-258.206 192.857-258.206 192.857 115.603 192.857 258.206z" fill="url(#SVGID_1_)"/><path d="m408.952 397.453c0 150.062-307.903 150.062-307.903 0s68.926-271.711 153.951-271.711 153.952 121.649 153.952 271.711z" fill="url(#SVGID_2_)"/><path d="m317.343 397.453c0 150.062-124.685 150.062-124.685 0s27.911-271.711 62.342-271.711 62.343 121.649 62.343 271.711z" fill="url(#SVGID_3_)"/><path d="m447.855 383.951c0 38.755-28.495 66.983-69.993 84.662 19.167-17.901 31.093-41.62 31.093-71.159 0-148.88-67.85-269.81-151.967-271.687 105.605 1.421 190.867 116.466 190.867 258.184z" fill="url(#SVGID_4_)"/><path d="m408.955 397.454c0 75.034-76.977 112.546-153.955 112.546 31.171 0 62.342-37.512 62.342-112.546 0-150.057-27.906-271.709-62.342-271.709 85.029 0 153.955 121.652 153.955 271.709z" fill="url(#SVGID_5_)"/><path d="m101.045 397.454c0 29.538 11.926 53.258 31.093 71.159-41.498-17.679-69.993-45.907-69.993-84.662 0-141.718 87.788-204.796 61.122-127.196-14.103 41.041-22.222 89.198-22.222 140.699z" fill="url(#SVGID_6_)"/></g><path d="m255 125.742c-19.795 0-52.728 12.13-63.317 16.239-1.609.624-2.038 2.694-.817 3.914l255.049 255.049c1.271-5.422 1.942-11.085 1.942-16.997 0-142.602-86.345-258.205-192.857-258.205z" fill="url(#SVGID_7_)"/><g><path d="m188.448 139.647c-.843 3.912 1.847 7.704 5.954 8.441 17.561 3.15 38.402 4.971 60.597 4.971 22.196 0 43.036-1.821 60.597-4.971 4.107-.737 6.797-4.529 5.954-8.441l-1.767-8.199c-.793-3.68-4.439-6.123-8.334-5.613-12.126 1.588-27.234 2.673-43.81 3.045-7.011.154-18.27.154-25.282 0-16.576-.372-31.684-1.457-43.81-3.045-3.894-.51-7.54 1.933-8.334 5.613z" fill="url(#SVGID_8_)"/><path d="m188.448 122.791c-.843 3.912 1.847 7.704 5.954 8.441 17.561 3.15 38.402 4.971 60.597 4.971 22.196 0 43.036-1.821 60.597-4.971 4.107-.737 6.797-4.529 5.954-8.441l-1.767-8.199c-.793-3.68-4.439-6.123-8.334-5.613-12.126 1.588-27.234 2.673-43.81 3.045-7.011.154-18.27.154-25.282 0-16.576-.372-31.684-1.457-43.81-3.045-3.894-.51-7.54 1.933-8.334 5.613z" fill="url(#SVGID_9_)"/><path d="m188.448 105.936c-.843 3.912 1.847 7.704 5.954 8.441 17.561 3.15 38.402 4.971 60.597 4.971 22.196 0 43.036-1.821 60.597-4.971 4.107-.737 6.797-4.529 5.954-8.441l-1.767-8.199c-.793-3.68-4.439-6.123-8.334-5.613-12.126 1.588-27.234 2.673-43.81 3.045-7.011.154-18.27.154-25.282 0-16.576-.372-31.684-1.457-43.81-3.045-3.894-.51-7.54 1.933-8.334 5.613z" fill="url(#SVGID_10_)"/></g><path d="m315.598 148.087c-17.557 3.154-38.4 4.975-60.598 4.975-2.576 0-5.141-.022-7.673-.078l-56.645-56.644c1.299-2.887 4.497-4.664 7.862-4.22 12.126 1.588 27.24 2.676 43.819 3.054 7.007.144 18.267.144 25.274 0 16.579-.378 31.693-1.466 43.819-3.054 3.887-.511 7.54 1.932 8.328 5.619l1.766 8.195c.566 2.632-.466 5.197-2.443 6.829.3.566.533 1.177.677 1.832l1.766 8.195c.566 2.632-.466 5.197-2.443 6.829.3.566.533 1.177.677 1.832l1.766 8.195c.844 3.911-1.843 7.709-5.952 8.441z" fill="url(#SVGID_11_)"/><g><path d="m203.049 52.212s-40.921 0-40.921-29.495c0-9.678-3.401-15.773-8.584-19.345-16.491-11.367-36.85 8.259-26.571 25.449 8.68 14.515 19.745 30.885 27.89 35.518 15.524 8.83 49.567 4.95 49.567 4.95z" fill="url(#SVGID_12_)"/><path d="m306.951 52.212s40.921 0 40.921-29.495c0-9.678 3.401-15.773 8.584-19.345 16.491-11.367 36.85 8.259 26.571 25.449-8.68 14.515-19.745 30.885-27.89 35.518-15.524 8.83-49.567 4.95-49.567 4.95z" fill="url(#SVGID_13_)"/></g><path d="m297.302 22.648c-13.986 0-26.536 6.708-35.111 17.341-3.671 4.551-10.711 4.551-14.381 0-8.575-10.633-21.125-17.341-35.111-17.341-25.85 0-46.805 15.133-46.805 43.395 0 28.66 32.975 35.176 59.004 34.987h60.206c26.028.189 59.004-6.328 59.004-34.987-.001-28.262-20.956-43.395-46.806-43.395z" fill="url(#SVGID_14_)"/></g></svg>