<svg id="Capa_1" enable-background="new 0 0 510 510" height="512" viewBox="0 0 510 510" width="512" xmlns="http://www.w3.org/2000/svg" xmlns:xlink="http://www.w3.org/1999/xlink"><linearGradient id="lg1"><stop offset="0" stop-color="#8c6239"/><stop offset=".5765" stop-color="#704721"/><stop offset="1" stop-color="#603813"/></linearGradient><linearGradient id="SVGID_1_" gradientUnits="userSpaceOnUse" x1="255" x2="255" xlink:href="#lg1" y1="334.864" y2="439.328"/><linearGradient id="SVGID_2_" gradientUnits="userSpaceOnUse" x1="255" x2="255" xlink:href="#lg1" y1="254.675" y2="432.131"/><linearGradient id="lg2"><stop offset="0" stop-color="#42210b" stop-opacity="0"/><stop offset="1" stop-color="#42210b"/></linearGradient><linearGradient id="SVGID_3_" gradientUnits="userSpaceOnUse" x1="324.215" x2="275.701" xlink:href="#lg2" y1="430.994" y2="228.468"/><linearGradient id="SVGID_4_" gradientUnits="userSpaceOnUse" x1="255" x2="255" xlink:href="#lg1" y1="108.564" y2="380.853"/><linearGradient id="SVGID_5_" gradientUnits="userSpaceOnUse" x1="209.181" x2="286.203" y1="308.194" y2="308.194"><stop offset="0" stop-color="#ffda2d"/><stop offset="1" stop-color="#fdbf00"/></linearGradient><linearGradient id="SVGID_6_" gradientUnits="userSpaceOnUse" x1="304.978" x2="8.504" xlink:href="#lg2" y1="123.685" y2="74.401"/><g><path d="m500.584 324.863h-491.168-9.414v15.467c0 48.144 114.169 87.175 254.998 87.175s254.998-39.031 254.998-87.175v-15.467z" fill="url(#SVGID_1_)"/><ellipse cx="255" cy="324.866" fill="url(#SVGID_2_)" rx="255" ry="87.18"/><path d="m510 324.866c0-48.148-114.167-87.18-255-87.18-70.277 0-133.912 9.721-180.036 25.442l3.961 26.71c0 7.982 4.555 15.599 12.807 22.57l96.625 96.625c21.246 1.962 43.583 3.014 66.643 3.014 140.833-.001 255-39.033 255-87.181z" fill="url(#SVGID_3_)"/><path d="m344.471 94.371c-51.242 44.783-127.7 44.783-178.941 0-19.694-17.212-49.535-15.518-67.156 3.81-26.056 28.581-37.882 67.362-32.208 105.618l12.76 86.038c0 33.246 78.831 60.197 176.075 60.197s176.075-26.951 176.075-60.197l12.76-86.038c5.674-38.257-6.152-77.037-32.208-105.618-17.622-19.329-47.463-21.022-67.157-3.81z" fill="url(#SVGID_4_)"/><path d="m255 307.361c-80.947 0-150.227-18.186-178.77-43.955-1.061-.958-2.739-.047-2.541 1.369l3.304 23.744c0 35.821 79.697 64.86 178.007 64.86s178.007-29.039 178.007-64.86l3.304-23.744c.197-1.416-1.48-2.327-2.541-1.369-28.543 25.768-97.823 43.955-178.77 43.955z" fill="url(#SVGID_5_)"/><path d="m445.069 191.058c1.627-33.997-10.278-67.468-33.442-92.877-17.621-19.329-47.462-21.022-67.156-3.81-51.241 44.782-127.7 44.782-178.941 0-.001 0 49.54 96.687 279.539 96.687z" fill="url(#SVGID_6_)"/></g></svg>