<svg id="Capa_1" enable-background="new 0 0 510 510" height="512" viewBox="0 0 510 510" width="512" xmlns="http://www.w3.org/2000/svg" xmlns:xlink="http://www.w3.org/1999/xlink"><linearGradient id="lg1"><stop offset="0" stop-color="#ff637b"/><stop offset="1" stop-color="#e63950"/></linearGradient><linearGradient id="SVGID_1_" gradientUnits="userSpaceOnUse" x1="252.796" x2="256.918" xlink:href="#lg1" y1="66.596" y2="87.464"/><linearGradient id="SVGID_2_" gradientUnits="userSpaceOnUse" x1="220.418" x2="250.611" xlink:href="#lg1" y1="168.015" y2="320.867"/><linearGradient id="SVGID_3_" gradientUnits="userSpaceOnUse" x1="185.522" x2="251.33" y1="161.671" y2="282.673"><stop offset="0" stop-color="#edf5ff"/><stop offset="1" stop-color="#b5dbff"/></linearGradient><linearGradient id="SVGID_4_" gradientUnits="userSpaceOnUse" x1="317.588" x2="206.712" y1="247.482" y2="136.606"><stop offset="0" stop-color="#b5dbff" stop-opacity="0"/><stop offset=".1734" stop-color="#8fc5e9" stop-opacity=".173"/><stop offset=".4541" stop-color="#56a4c8" stop-opacity=".454"/><stop offset=".6955" stop-color="#2d8db1" stop-opacity=".696"/><stop offset=".8853" stop-color="#147ea2" stop-opacity=".885"/><stop offset="1" stop-color="#0b799d"/></linearGradient><linearGradient id="lg2"><stop offset="0" stop-color="#0b799d"/><stop offset="1" stop-color="#07485e"/></linearGradient><linearGradient id="SVGID_5_" gradientUnits="userSpaceOnUse" x1="202.841" x2="238.695" xlink:href="#lg2" y1="310.452" y2="393.483"/><linearGradient id="SVGID_6_" gradientUnits="userSpaceOnUse" x1="228.885" x2="258.135" xlink:href="#lg2" y1="353.831" y2="452.902"/><linearGradient id="lg3"><stop offset="0" stop-color="#ffda2d"/><stop offset="1" stop-color="#fdbf00"/></linearGradient><linearGradient id="SVGID_7_" gradientUnits="userSpaceOnUse" x1="238.193" x2="266.133" xlink:href="#lg3" y1="168.767" y2="196.708"/><linearGradient id="SVGID_8_" gradientUnits="userSpaceOnUse" x1="276.676" x2="199.508" xlink:href="#lg3" y1="207.25" y2="130.082"/><g><circle cx="255" cy="77.752" fill="url(#SVGID_1_)" r="23.851"/><path d="m487.693 378.236c.543-3.756.831-7.604.831-11.553 0-161.694-59.443-292.773-233.524-292.773s-233.524 131.079-233.524 292.773c0 3.948.287 7.797.831 11.553 114.551-56.112 350.835-56.112 465.386 0z" fill="url(#SVGID_2_)"/><path d="m373.107 378.236c.276-3.756.422-7.604.422-11.553 0-161.694-30.171-292.773-118.529-292.773s-118.529 131.079-118.529 292.773c0 3.948.146 7.797.422 11.553 58.142-56.112 178.072-56.112 236.214 0z" fill="url(#SVGID_3_)"/><path d="m430.316 378.068c-23.307 14.919-53.856 11.606-73.423-7.961l-141.614-141.613c-11.345-10.742-17.511-25.944-17.512-42.802-.002-31.859 26.172-58.032 58.031-58.031 16.858.001 32.06 6.167 42.802 17.512l141.613 141.613c26.608 26.607 21.794 70.997-9.897 91.282z" fill="url(#SVGID_4_)"/><path d="m509.569 441.862c-1.741 7.713-8.478 11.351-13.346 6.128-34.392-36.769-129.386-63.207-241.223-63.207s-206.831 26.438-241.223 63.207c-4.869 5.222-11.605 1.585-13.346-6.128.41-5.902 1.118-11.704 2.165-17.394 12.54-68.019 73.737-141.826 252.404-141.826s239.864 73.807 252.404 141.826c1.047 5.689 1.755 11.492 2.165 17.394z" fill="url(#SVGID_5_)"/><path d="m255 390.448c111.831 0 206.834 26.432 241.223 63.208 5.618 6.008 13.715.267 13.777-9.946 0-.07.001-.139.001-.209 0-51.706-114.167-93.622-255-93.622s-255.001 41.916-255.001 93.622c0 .07 0 .139.001.209.061 10.213 8.159 15.954 13.777 9.946 34.388-36.775 129.39-63.208 241.222-63.208z" fill="url(#SVGID_6_)"/><g><circle cx="255" cy="185.575" fill="url(#SVGID_7_)" r="58.941"/><circle cx="255" cy="185.575" fill="url(#SVGID_8_)" r="41.465"/></g></g></svg>