<svg id="Capa_1" enable-background="new 0 0 510 510" height="512" viewBox="0 0 510 510" width="512" xmlns="http://www.w3.org/2000/svg" xmlns:xlink="http://www.w3.org/1999/xlink"><linearGradient id="lg1"><stop offset="0" stop-color="#ffda2d"/><stop offset="1" stop-color="#fdbf00"/></linearGradient><linearGradient id="SVGID_1_" gradientUnits="userSpaceOnUse" x1="255" x2="255" xlink:href="#lg1" y1="285.42" y2="391.462"/><linearGradient id="lg2"><stop offset="0" stop-color="#ff9100" stop-opacity="0"/><stop offset="1" stop-color="#ff9100"/></linearGradient><linearGradient id="SVGID_2_" gradientUnits="userSpaceOnUse" x1="214.555" x2="104.555" xlink:href="#lg2" y1="252.099" y2="124.099"/><linearGradient id="SVGID_3_" gradientTransform="matrix(-1 0 0 1 530.674 0)" gradientUnits="userSpaceOnUse" x1="235.229" x2="125.229" xlink:href="#lg2" y1="252.099" y2="124.099"/><linearGradient id="SVGID_4_" gradientUnits="userSpaceOnUse" x1="129.99" x2="135.99" xlink:href="#lg2" y1="270.507" y2="244.007"/><linearGradient id="SVGID_5_" gradientUnits="userSpaceOnUse" x1="127.523" x2="127.856" xlink:href="#lg2" y1="281.91" y2="265.244"/><linearGradient id="SVGID_6_" gradientUnits="userSpaceOnUse" x1="366.432" x2="441.099" xlink:href="#lg2" y1="306.127" y2="278.127"/><linearGradient id="SVGID_7_" gradientUnits="userSpaceOnUse" x1="349.446" x2="296.446" xlink:href="#lg2" y1="379.028" y2="190.528"/><linearGradient id="SVGID_8_" gradientUnits="userSpaceOnUse" x1="255" x2="255" xlink:href="#lg2" y1="336.42" y2="395.056"/><linearGradient id="SVGID_9_" gradientUnits="userSpaceOnUse" x1="214.367" x2="305.636" xlink:href="#lg1" y1="189.576" y2="280.845"/><linearGradient id="SVGID_10_" gradientUnits="userSpaceOnUse" x1="211.378" x2="334.378" xlink:href="#lg2" y1="150.382" y2="390.382"/><linearGradient id="SVGID_11_" gradientUnits="userSpaceOnUse" x1="221.364" x2="329.861" xlink:href="#lg2" y1="157.999" y2="369.701"/><linearGradient id="lg3"><stop offset="0" stop-color="#b063de"/><stop offset="1" stop-color="#793981"/></linearGradient><linearGradient id="SVGID_12_" gradientUnits="userSpaceOnUse" x1="250.862" x2="300.862" xlink:href="#lg3" y1="246.649" y2="282.149"/><linearGradient id="SVGID_13_" gradientTransform="matrix(.906 .423 -.423 .906 -1653.652 -108.657)" gradientUnits="userSpaceOnUse" x1="1921.194" x2="1964.27" xlink:href="#lg3" y1="-496.065" y2="-452.989"/><linearGradient id="SVGID_14_" gradientTransform="matrix(-.423 .906 .906 .423 1375.059 -1210.13)" gradientUnits="userSpaceOnUse" x1="1721.377" x2="1764.453" xlink:href="#lg3" y1="-296.248" y2="-253.172"/><linearGradient id="SVGID_15_" gradientTransform="matrix(.94 -.342 .342 .94 -86.825 135.213)" gradientUnits="userSpaceOnUse" x1="349.375" x2="378.62" xlink:href="#lg3" y1="258.39" y2="287.636"/><g><ellipse cx="255" cy="300.285" fill="url(#SVGID_1_)" rx="255" ry="87.18"/><path d="m20.674 334.716c39.054 31.025 129.263 52.75 234.326 52.75 140.833 0 255-39.032 255-87.18 0-31.105-47.658-58.401-119.362-73.831z" fill="url(#SVGID_2_)"/><path d="m489.326 334.716c-39.054 31.025-129.263 52.75-234.326 52.75-140.833 0-255-39.032-255-87.18 0-31.105 47.658-58.401 119.362-73.831z" fill="url(#SVGID_3_)"/><path d="m255 266.146-215.896-12.268c-24.77 13.438-39.104 29.35-39.104 46.407 0 1.726.164 3.438.453 5.139z" fill="url(#SVGID_4_)"/><path d="m255 266.146-248.829 15.005c-4.035 6.158-6.171 12.561-6.171 19.134 0 9.516 4.475 18.673 12.718 27.245z" fill="url(#SVGID_5_)"/><path d="m255 266.146v121.324c77.321 0 146.591-11.768 193.356-30.351z" fill="url(#SVGID_6_)"/><path d="m510 300.29c0 12.6-7.83 24.59-21.91 35.4-39.71 30.51-129.13 51.78-233.09 51.78-2.1 0-4.19-.01-6.27-.03l-112.41-112.41s-.46-45.65-.43-51.85c9.06-1.63 18.45-3.09 28.11-4.36 28.26-3.69 58.94-5.71 91-5.71 140.83 0 255 39.03 255 87.18z" fill="url(#SVGID_7_)"/><path d="m255 371.126c-132.773 0-241.827-34.694-253.877-79.011-.731 2.691-1.123 5.415-1.123 8.17 0 48.148 114.167 87.18 255 87.18s255-39.032 255-87.18c0-2.756-.392-5.479-1.123-8.17-12.05 44.317-121.104 79.011-253.877 79.011z" fill="url(#SVGID_8_)"/><path d="m383.092 250.623c0 70.743-256.185 70.743-256.185 0s57.35-128.093 128.093-128.093 128.092 57.349 128.092 128.093z" fill="url(#SVGID_9_)"/><path d="m353.106 250.623c0 70.743-196.211 70.743-196.211 0s43.923-128.093 98.105-128.093 98.106 57.349 98.106 128.093z" fill="url(#SVGID_10_)"/><path d="m295.016 250.623c0 70.743-80.032 70.743-80.032 0s17.916-128.093 40.016-128.093 40.016 57.349 40.016 128.093z" fill="url(#SVGID_11_)"/><path d="m132.479 231.089c-2.418-2.723-6.91-1.375-7.38 2.236-.724 5.564-1.099 11.238-1.099 17 0 72.349 262 72.349 262 0 0-5.762-.375-11.436-1.099-17-.47-3.611-4.962-4.959-7.38-2.236-39.53 44.517-205.512 44.517-245.042 0z" fill="url(#SVGID_12_)"/><g><g><path d="m297.823 325.707c-24.229-13.468-35.832-45.371-25.915-71.258 4.258-11.114 16.142-15.436 26.544-9.654l43.871 24.386-17.956 46.871c-4.257 11.115-16.142 15.437-26.544 9.655z" fill="url(#SVGID_13_)"/><path d="m424.092 279.786c9.917-25.886-1.686-57.789-25.915-71.258-10.402-5.782-22.287-1.46-26.544 9.654l-17.956 46.871 43.871 24.386c10.402 5.782 22.286 1.46 26.544-9.653z" fill="url(#SVGID_14_)"/></g><path d="m369.98 248.34c-3.907-7.243-11.409-11.189-18.485-9.914-8.701 1.567-16.929 4.56-24.604 8.948-6.242 3.569-9.457 11.412-7.798 19.473 1.375 6.682 3.689 13.045 6.928 19.049 3.907 7.243 11.408 11.188 18.485 9.913 8.701-1.567 16.929-4.56 24.604-8.948 6.242-3.569 9.457-11.411 7.798-19.472-1.375-6.682-3.689-13.045-6.928-19.049z" fill="url(#SVGID_15_)"/></g></g></svg>