<svg id="Capa_1" enable-background="new 0 0 510 510" height="512" viewBox="0 0 510 510" width="512" xmlns="http://www.w3.org/2000/svg" xmlns:xlink="http://www.w3.org/1999/xlink"><linearGradient id="lg1"><stop offset="0" stop-color="#e63950"/><stop offset="1" stop-color="#c50000"/></linearGradient><linearGradient id="SVGID_1_" gradientUnits="userSpaceOnUse" x1="460.912" x2="490.778" xlink:href="#lg1" y1="329.518" y2="329.518"/><linearGradient id="SVGID_2_" gradientUnits="userSpaceOnUse" x1="511.787" x2="457.828" y1="279.297" y2="225.339"><stop offset="0" stop-color="#c50000" stop-opacity="0"/><stop offset="1" stop-color="#c50000"/></linearGradient><linearGradient id="SVGID_3_" gradientUnits="userSpaceOnUse" x1="265.754" x2="321.273" xlink:href="#lg1" y1="316.429" y2="387.138"/><linearGradient id="SVGID_4_" gradientUnits="userSpaceOnUse" x1="229.482" x2="340.521" y1="224.003" y2="352.85"><stop offset="0" stop-color="#ff637b"/><stop offset="1" stop-color="#e63950"/></linearGradient><linearGradient id="lg2"><stop offset="0" stop-color="#e63950" stop-opacity="0"/><stop offset=".0467" stop-color="#e4354b" stop-opacity=".047"/><stop offset=".4669" stop-color="#d31822" stop-opacity=".467"/><stop offset=".7991" stop-color="#c90709" stop-opacity=".799"/><stop offset="1" stop-color="#c50000"/></linearGradient><linearGradient id="SVGID_5_" gradientUnits="userSpaceOnUse" x1="282.656" x2="357.294" xlink:href="#lg2" y1="185.983" y2="294.404"/><linearGradient id="SVGID_6_" gradientUnits="userSpaceOnUse" x1="159.224" x2="159.224" xlink:href="#lg2" y1="367.883" y2="461.068"/><g><path d="m472.199 204.37h-67.854c32.977 32.977 51.504 77.704 51.504 124.341v109.044c0 8.709 6.572 16.312 15.262 16.875 9.523.617 17.439-6.925 17.439-16.315v-217.594c0-9.03-7.321-16.351-16.351-16.351z" fill="url(#SVGID_1_)"/><path d="m472.199 204.37h-67.854c11.666 11.666 21.513 24.807 29.382 38.978h.001l54.822 54.822v-77.45c0-9.029-7.321-16.35-16.351-16.35z" fill="url(#SVGID_2_)"/><path d="m502.552 201.573v.591c0 17.253-13.21 31.765-30.02 32.259-.122.004-.244.007-.366.009-11.701.22-23.295 2.31-34.093 6.945-35.073 15.069-57.501 42.52-74.639 77.371l-34.981 71.102c-19.543 39.754-59.257 64.817-102.646 64.817h-178.361c-24.615 0-44.57-19.955-44.57-44.57v-11.714c15.514 15.916 36.574 24.857 58.521 24.857h158.12c31.841 0 60.957-18.384 75.308-47.548l34.966-71.102c20.538-41.765 55.045-74.606 97.163-92.503 14.182-6.018 29.161-9.082 44.508-9.082h.031c1.654 0 3.124-1.1 3.86-2.624l18.011-37.947 3.903 10.277c3.492 9.2 5.285 18.988 5.285 28.862z" fill="url(#SVGID_3_)"/><path d="m510 148.198c0 14.44-2.577 28.943-7.809 42.834-1.713 4.51-4.714 8.281-8.517 10.905-3.787 2.624-8.375 4.117-13.199 4.117-6.804 0-13.576.676-20.207 1.996-6.647 1.32-13.152 3.284-19.453 5.892-39.754 16.452-72.265 46.636-91.655 85.055l-35.889 71.102c-17.379 34.459-52.686 56.19-91.277 56.19h-188.164c-9.334 0-17.803-3.787-23.915-9.915-6.128-6.113-9.915-14.582-9.915-23.916 0-3.488.534-6.945 1.587-10.229 1.037-3.284 2.577-6.427 4.588-9.271 25.691-36.423 67.472-58.091 112.034-58.091h48.789c39.848 0 77.277-19.139 100.595-51.445l90.429-125.265v-.016c.047-.063.094-.11.126-.173l18.007-24.952c22.042-27.528 43.805-43.76 60.42-53.186 15.592-8.846 35.367-4.261 45.649 10.424l5.824 8.319c14.488 20.694 21.952 45.05 21.952 69.625z" fill="url(#SVGID_4_)"/><path d="m128.847 323.65c0 14.459 12.042 25.975 26.489 25.393 32.093-1.294 68.469-5.72 91.878-19.524 30.232-17.819 56.19-51.263 73.789-83.066l78.503-141.921c11.232-20.335 27.77-37.058 47.67-48.558-3.636.689-7.218 1.939-10.6 3.857-16.614 9.426-38.378 25.658-60.42 53.186l-18.007 24.952c-.031.063-.079.11-.126.173v.016l-90.429 125.265c-23.318 32.306-60.747 51.445-100.595 51.445h-20.82-8.549c-4.85-.001-8.783 3.931-8.783 8.782z" fill="url(#SVGID_5_)"/><path d="m16.687 359.844c-3.743 4.126-7.258 8.5-10.512 13.114-2.011 2.844-3.551 5.987-4.588 9.271-1.053 3.284-1.587 6.741-1.587 10.229 0 9.334 3.787 17.803 9.915 23.915 6.112 6.128 14.582 9.915 23.915 9.915h188.164c38.591 0 73.899-21.731 91.277-56.19l5.176-10.254z" fill="url(#SVGID_6_)"/></g></svg>