<svg id="Capa_1" enable-background="new 0 0 510 510" height="512" viewBox="0 0 510 510" width="512" xmlns="http://www.w3.org/2000/svg" xmlns:xlink="http://www.w3.org/1999/xlink"><linearGradient id="lg1"><stop offset="0" stop-color="#0b799d"/><stop offset="1" stop-color="#07485e"/></linearGradient><linearGradient id="SVGID_1_" gradientUnits="userSpaceOnUse" x1="165.258" x2="165.258" xlink:href="#lg1" y1="425.238" y2="529.165"/><linearGradient id="SVGID_2_" gradientUnits="userSpaceOnUse" x1="165.258" x2="165.258" xlink:href="#lg1" y1="344.245" y2="448.171"/><linearGradient id="SVGID_3_" gradientUnits="userSpaceOnUse" x1="165.258" x2="165.258" xlink:href="#lg1" y1="263.252" y2="367.178"/><linearGradient id="SVGID_4_" gradientUnits="userSpaceOnUse" x1="165.258" x2="165.258" xlink:href="#lg1" y1="182.259" y2="286.185"/><linearGradient id="SVGID_5_" gradientUnits="userSpaceOnUse" x1="157.819" x2="157.819" xlink:href="#lg1" y1="60.875" y2="204.115"/><linearGradient id="lg2"><stop offset="0" stop-color="#07485e"/><stop offset="1" stop-color="#03232e"/></linearGradient><linearGradient id="SVGID_6_" gradientUnits="userSpaceOnUse" x1="61.636" x2="79.228" xlink:href="#lg2" y1="125.849" y2="120.718"/><linearGradient id="SVGID_7_" gradientTransform="matrix(-1 0 0 1 317.07 0)" gradientUnits="userSpaceOnUse" x1="-27.672" x2="-27.672" xlink:href="#lg1" y1="425.238" y2="529.165"/><linearGradient id="SVGID_8_" gradientTransform="matrix(-1 0 0 1 317.07 0)" gradientUnits="userSpaceOnUse" x1="-27.672" x2="-27.672" xlink:href="#lg1" y1="344.245" y2="448.171"/><linearGradient id="SVGID_9_" gradientTransform="matrix(-1 0 0 1 317.07 0)" gradientUnits="userSpaceOnUse" x1="-27.672" x2="-27.672" xlink:href="#lg1" y1="263.252" y2="367.178"/><linearGradient id="SVGID_10_" gradientTransform="matrix(-1 0 0 1 317.07 0)" gradientUnits="userSpaceOnUse" x1="-27.672" x2="-27.672" xlink:href="#lg1" y1="182.259" y2="286.185"/><linearGradient id="SVGID_11_" gradientTransform="matrix(-1 0 0 1 317.07 0)" gradientUnits="userSpaceOnUse" x1="-35.11" x2="-35.11" xlink:href="#lg1" y1="60.875" y2="204.115"/><linearGradient id="SVGID_12_" gradientTransform="matrix(-1 0 0 1 317.07 0)" gradientUnits="userSpaceOnUse" x1="-131.294" x2="-113.701" xlink:href="#lg2" y1="125.849" y2="120.718"/><linearGradient id="SVGID_13_" gradientUnits="userSpaceOnUse" x1="254.159" x2="254.159" xlink:href="#lg2" y1="2.281" y2="44.064"/><linearGradient id="lg3"><stop offset="0" stop-color="#07485e" stop-opacity="0"/><stop offset="1" stop-color="#03232e"/></linearGradient><linearGradient id="SVGID_14_" gradientUnits="userSpaceOnUse" x1="165.255" x2="165.255" xlink:href="#lg3" y1="468.003" y2="519.144"/><linearGradient id="SVGID_15_" gradientUnits="userSpaceOnUse" x1="344.74" x2="344.74" xlink:href="#lg3" y1="468.003" y2="519.144"/><linearGradient id="SVGID_16_" gradientUnits="userSpaceOnUse" x1="326.729" x2="246.342" xlink:href="#lg3" y1="266.763" y2="266.763"/><linearGradient id="SVGID_17_" gradientUnits="userSpaceOnUse" x1="248.295" x2="261.856" xlink:href="#lg2" y1="281.525" y2="281.525"/><linearGradient id="SVGID_18_" gradientUnits="userSpaceOnUse" x1="297.739" x2="227.333" xlink:href="#lg3" y1="171.869" y2="47.925"/><linearGradient id="SVGID_19_" gradientUnits="userSpaceOnUse" x1="373.907" x2="303.536" xlink:href="#lg3" y1="127.358" y2="3.475"/><linearGradient id="SVGID_20_" gradientUnits="userSpaceOnUse" x1="254.159" x2="254.159" xlink:href="#lg2" y1="51.824" y2="100.803"/><g><g><g><path d="m254.159 398.145v67.146c0 18.195-10.491 33.747-24.82 36.712-29.449 6.095-80.38 13.172-126.506 2.461-15.329-3.56-26.477-20.256-26.477-39.788v-26.094c0-22.333 14.45-40.437 32.275-40.437z" fill="url(#SVGID_1_)"/><path d="m254.159 317.152v67.146c0 18.195-10.491 33.747-24.82 36.712-29.449 6.095-80.38 13.172-126.506 2.461-15.329-3.56-26.477-20.256-26.477-39.788v-26.094c0-22.333 14.45-40.437 32.275-40.437z" fill="url(#SVGID_2_)"/><path d="m254.159 236.159v67.146c0 18.195-10.491 33.747-24.82 36.712-29.449 6.095-80.38 13.172-126.506 2.461-15.329-3.559-26.477-20.256-26.477-39.788v-26.094c0-22.333 14.45-40.437 32.275-40.437z" fill="url(#SVGID_3_)"/><path d="m254.159 155.166v67.146c0 18.195-10.491 33.747-24.82 36.712-29.449 6.095-80.38 13.172-126.506 2.461-15.329-3.559-26.477-20.256-26.477-39.788v-26.094c0-22.333 14.45-40.437 32.275-40.437z" fill="url(#SVGID_4_)"/><path d="m234.367 167.936c-31.997 9.951-94.704 16.174-144.909-1.001-16.68-5.707-28.819-32.491-28.819-63.818v-41.848c0-.019 0-.037 0-.056.002-3.455 1.89-6.633 4.863-8.393 32.123-19.014 69.024-29.288 106.983-29.288h81.674v80.575c0 29.182 7.07 55.473-19.792 63.829z" fill="url(#SVGID_5_)"/></g><path d="m76.356 199.746c-6.073 0-10.995-4.923-10.995-10.995v-13.634c0-11.016-1.367-22.017-4.064-32.697l-19.777-78.321c-1.487-5.888 2.082-11.866 7.969-13.352 5.89-1.489 11.866 2.081 13.353 7.969l19.776 78.321c3.141 12.439 4.733 25.251 4.733 38.08v13.634c.001 6.072-4.922 10.995-10.995 10.995z" fill="url(#SVGID_6_)"/></g><g><g><path d="m255.841 398.145v67.146c0 18.195 10.491 33.747 24.82 36.712 29.449 6.095 80.38 13.172 126.506 2.461 15.329-3.56 26.477-20.256 26.477-39.788v-26.094c0-22.333-14.45-40.437-32.275-40.437z" fill="url(#SVGID_7_)"/><path d="m255.841 317.152v67.146c0 18.195 10.491 33.747 24.82 36.712 29.449 6.095 80.38 13.172 126.506 2.461 15.329-3.56 26.477-20.256 26.477-39.788v-26.094c0-22.333-14.45-40.437-32.275-40.437z" fill="url(#SVGID_8_)"/><path d="m255.841 236.159v67.146c0 18.195 10.491 33.747 24.82 36.712 29.449 6.095 80.38 13.172 126.506 2.461 15.329-3.559 26.477-20.256 26.477-39.788v-26.094c0-22.333-14.45-40.437-32.275-40.437z" fill="url(#SVGID_9_)"/><path d="m255.841 155.166v67.146c0 18.195 10.491 33.747 24.82 36.712 29.449 6.095 80.38 13.172 126.506 2.461 15.329-3.559 26.477-20.256 26.477-39.788v-26.094c0-22.333-14.45-40.437-32.275-40.437z" fill="url(#SVGID_10_)"/><path d="m275.633 167.936c31.997 9.951 94.704 16.174 144.909-1.001 16.68-5.707 28.819-32.491 28.819-63.818v-41.848c0-.019 0-.037 0-.056-.002-3.455-1.89-6.633-4.863-8.393-32.123-19.014-69.024-29.288-106.983-29.288h-81.674v80.575c0 29.182-7.07 55.473 19.792 63.829z" fill="url(#SVGID_11_)"/></g><path d="m433.644 199.746c6.073 0 10.995-4.923 10.995-10.995v-13.634c0-11.016 1.367-22.017 4.064-32.697l19.776-78.321c1.487-5.888-2.082-11.866-7.969-13.352-5.89-1.489-11.866 2.081-13.353 7.969l-19.776 78.321c-3.141 12.439-4.733 25.251-4.733 38.08v13.634c0 6.072 4.923 10.995 10.996 10.995z" fill="url(#SVGID_12_)"/></g><path d="m322.53 10.132c-44.575-13.51-92.166-13.51-136.741 0-7.935 2.405-11.943 11.186-8.633 18.788 13.249 30.434 42.744 51.612 77.004 51.612 34.261 0 63.755-21.178 77.004-51.612 3.309-7.602-.699-16.383-8.634-18.788z" fill="url(#SVGID_13_)"/><path d="m254.159 454.072v11.215c0 18.198-10.49 33.745-24.817 36.714-29.457 6.103-80.388 13.173-126.514 2.463-15.328-3.563-26.477-20.254-26.477-39.793v-10.6h177.808z" fill="url(#SVGID_14_)"/><path d="m433.638 454.072v10.6c0 19.539-11.138 36.23-26.477 39.793-46.126 10.71-97.046 3.64-126.503-2.463-14.327-2.969-24.817-18.516-24.817-36.714v-11.215h177.797z" fill="url(#SVGID_15_)"/><path d="m377.689 27.433c-13.144-2.561-26.588-3.9-40.174-3.9h-81.675v80.575c0 19.988-3.312 38.617 3.23 51.058h-3.23v67.146c0 4.87.758 9.547 2.133 13.847h-2.133v67.146c0 4.87.758 9.546 2.133 13.847h-2.133v67.146c0 4.87.758 9.547 2.133 13.847h-2.133v67.146c0 18.195 10.491 33.747 24.82 36.712 23.26 4.814 59.92 10.232 97.029 7.023z" fill="url(#SVGID_16_)"/><path d="m254.159 491.024c-5.263 0-9.529-4.266-9.529-9.529v-399.939c0-5.263 4.266-9.529 9.529-9.529 5.263 0 9.529 4.266 9.529 9.529v399.939c.001 5.263-4.266 9.529-9.529 9.529z" fill="url(#SVGID_17_)"/><g><path d="m255.369 120.172-59.321-59.321c-10.402-9.423-16.494-21.342-21.332-34.812-.297-.825-.495-1.671-.605-2.507h81.73c0 .001-.692 91.692-.472 96.64z" fill="url(#SVGID_18_)"/><path d="m449.362 61.214v41.904c0 8.862-.968 17.362-2.749 25.125-4.156 18.187-12.7 32.316-23.42 37.582 6.421 7.389 10.446 17.989 10.446 29.776v26.092c0 10.501-3.222 20.188-8.588 27.445 5.333 7.213 8.588 16.856 8.588 27.456v21.848l-178.27-178.27c.22-5.19.473-10.578.473-16.064v-80.575h81.674c1.616 0 3.233.022 4.838.066 36.252.825 71.383 11.017 102.148 29.226 2.969 1.759 4.86 4.936 4.86 8.389z" fill="url(#SVGID_19_)"/></g><path d="m325.857 9.496c-6.988-3.36-15.421-.09-18.18 7.157-7.948 20.869-20.774 41.257-53.517 41.257s-45.57-20.388-53.517-41.257c-2.76-7.247-11.192-10.517-18.18-7.157l-3.728 1.793c-5.493 2.641-8.085 9.011-6.023 14.747 12.002 33.373 43.944 57.231 81.449 57.231s69.447-23.858 81.449-57.231c2.063-5.735-.53-12.105-6.023-14.747z" fill="url(#SVGID_20_)"/></g></svg>