<svg id="Capa_1" enable-background="new 0 0 510 510" height="512" viewBox="0 0 510 510" width="512" xmlns="http://www.w3.org/2000/svg" xmlns:xlink="http://www.w3.org/1999/xlink"><linearGradient id="lg1"><stop offset="0" stop-color="#ffda2d"/><stop offset="1" stop-color="#fdbf00"/></linearGradient><linearGradient id="SVGID_1_" gradientTransform="matrix(.707 .707 -.707 .707 -3888.998 1277.719)" gradientUnits="userSpaceOnUse" x1="2153.145" x2="2153.145" xlink:href="#lg1" y1="-3584.093" y2="-3524.056"/><linearGradient id="lg2"><stop offset="0" stop-color="#ff9100" stop-opacity="0"/><stop offset="1" stop-color="#ff9100"/></linearGradient><linearGradient id="SVGID_2_" gradientTransform="matrix(.707 .707 -.707 .707 -2094.96 869.687)" gradientUnits="userSpaceOnUse" x1="1170.802" x2="1207.648" xlink:href="#lg2" y1="-2010.558" y2="-1875.231"/><linearGradient id="SVGID_3_" gradientTransform="matrix(.707 .707 -.707 .707 -2094.96 869.687)" gradientUnits="userSpaceOnUse" x1="1175.486" x2="1158.068" xlink:href="#lg2" y1="-2018.082" y2="-1902.183"/><linearGradient id="SVGID_4_" gradientTransform="matrix(.707 .707 -.707 .707 -2094.96 869.687)" gradientUnits="userSpaceOnUse" x1="1173.091" x2="1173.091" xlink:href="#lg2" y1="-1991.913" y2="-1914.302"/><linearGradient id="lg3"><stop offset="0" stop-color="#b9dd39"/><stop offset=".1209" stop-color="#acd640"/><stop offset=".343" stop-color="#8bc353"/><stop offset=".6417" stop-color="#55a373"/><stop offset="1" stop-color="#0b799d"/></linearGradient><linearGradient id="SVGID_5_" gradientTransform="matrix(.707 .707 -.707 .707 260.102 -68.094)" gradientUnits="userSpaceOnUse" x1="60.311" x2="439.602" xlink:href="#lg3" y1="73.615" y2="419.311"/><linearGradient id="lg4"><stop offset="0" stop-color="#0b799d" stop-opacity="0"/><stop offset=".309" stop-color="#0a6d8d" stop-opacity=".309"/><stop offset=".9063" stop-color="#074d65" stop-opacity=".906"/><stop offset="1" stop-color="#07485e"/></linearGradient><linearGradient id="SVGID_6_" gradientTransform="matrix(.707 .707 -.707 .707 260.102 -68.094)" gradientUnits="userSpaceOnUse" x1="148.087" x2="148.087" xlink:href="#lg4" y1="279.284" y2="321.909"/><linearGradient id="SVGID_7_" gradientUnits="userSpaceOnUse" x1="117.059" x2="337.409" xlink:href="#lg4" y1="138.999" y2="124.55"/><linearGradient id="SVGID_8_" gradientUnits="userSpaceOnUse" x1="260.345" x2="357.682" xlink:href="#lg4" y1="172.726" y2="75.39"/><linearGradient id="SVGID_9_" gradientTransform="matrix(.707 .707 -.707 .707 -3888.998 1277.719)" gradientUnits="userSpaceOnUse" x1="2255.569" x2="2255.569" xlink:href="#lg1" y1="-3529.253" y2="-3469.215"/><linearGradient id="SVGID_10_" gradientTransform="matrix(.707 .707 -.707 .707 -2094.96 869.687)" gradientUnits="userSpaceOnUse" x1="1273.225" x2="1310.072" xlink:href="#lg2" y1="-1955.717" y2="-1820.39"/><linearGradient id="SVGID_11_" gradientTransform="matrix(.707 .707 -.707 .707 -2094.96 869.687)" gradientUnits="userSpaceOnUse" x1="1277.91" x2="1260.492" xlink:href="#lg2" y1="-1963.242" y2="-1847.343"/><linearGradient id="SVGID_12_" gradientTransform="matrix(.707 .707 -.707 .707 -2094.96 869.687)" gradientUnits="userSpaceOnUse" x1="1275.515" x2="1275.515" xlink:href="#lg2" y1="-1937.073" y2="-1859.461"/><linearGradient id="SVGID_13_" gradientTransform="matrix(.707 .707 -.707 .707 260.102 -68.094)" gradientUnits="userSpaceOnUse" x1="162.735" x2="542.026" xlink:href="#lg3" y1="128.455" y2="474.151"/><linearGradient id="SVGID_14_" gradientTransform="matrix(.707 .707 -.707 .707 260.102 -68.094)" gradientUnits="userSpaceOnUse" x1="122.717" x2="170.4" xlink:href="#lg4" y1="274.452" y2="216.655"/><linearGradient id="SVGID_15_" gradientTransform="matrix(.707 .707 -.707 .707 260.102 -68.094)" gradientUnits="userSpaceOnUse" x1="250.511" x2="250.511" xlink:href="#lg4" y1="334.124" y2="376.749"/><linearGradient id="SVGID_16_" gradientUnits="userSpaceOnUse" x1="238.63" x2="187.048" xlink:href="#lg4" y1="364.91" y2="313.328"/><linearGradient id="SVGID_17_" gradientUnits="userSpaceOnUse" x1="305.271" x2="266.81" xlink:href="#lg4" y1="430.84" y2="392.38"/><linearGradient id="SVGID_18_" gradientUnits="userSpaceOnUse" x1="381.977" x2="343.517" xlink:href="#lg4" y1="354.134" y2="315.674"/><linearGradient id="SVGID_19_" gradientUnits="userSpaceOnUse" x1="253.917" x2="238.745" y1="204.964" y2="642.774"><stop offset="0" stop-color="#6b0"/><stop offset=".5317" stop-color="#358031"/><stop offset="1" stop-color="#07485e"/></linearGradient><linearGradient id="SVGID_20_" gradientUnits="userSpaceOnUse" x1="85.116" x2="102.489" xlink:href="#lg4" y1="304.181" y2="286.808"/><linearGradient id="SVGID_21_" gradientUnits="userSpaceOnUse" x1="123.59" x2="151.23" xlink:href="#lg4" y1="441.813" y2="414.173"/><linearGradient id="SVGID_22_" gradientUnits="userSpaceOnUse" x1="344.63" x2="298.028" xlink:href="#lg4" y1="321.49" y2="368.092"/><linearGradient id="SVGID_23_" gradientUnits="userSpaceOnUse" x1="275.816" x2="302.367" xlink:href="#lg4" y1="385.429" y2="358.878"/><g><g><g><g><path d="m188.168 370.93-125.37-125.37c-7.75-7.75-7.75-20.316 0-28.067l21.513-21.513c7.75-7.75 20.316-7.75 28.067 0l125.37 125.37c7.75 7.75 7.75 20.316 0 28.067l-21.513 21.513c-7.751 7.75-20.317 7.75-28.067 0z" fill="url(#SVGID_1_)"/><path d="m166.347 349.109-81.728-81.728c-6.41-6.41-6.41-16.802 0-23.211l26.369-26.369c6.41-6.41 16.802-6.41 23.211 0l81.728 81.728c6.41 6.41 6.41 16.802 0 23.211l-26.369 26.369c-6.409 6.41-16.801 6.41-23.211 0z" fill="url(#SVGID_2_)"/><path d="m110.664 293.426 29.639 29.639c4.188 4.188 10.979 4.188 15.167 0l34.413-34.413c4.188-4.188 4.188-10.979 0-15.167l-29.639-29.639c-4.188-4.188-10.979-4.188-15.167 0l-34.413 34.413c-4.188 4.188-4.188 10.979 0 15.167z" fill="url(#SVGID_3_)"/><path d="m73.555 206.737-10.068 10.068c-8.131 8.131-8.733 20.711-1.345 28.099l126.682 126.682c7.388 7.388 19.968 6.786 28.099-1.345l10.068-10.068z" fill="url(#SVGID_4_)"/></g><path d="m224.983 35.815-68.206 68.206v-35.761c0-21.797-17.67-39.466-39.466-39.466-21.797 0-39.466 17.67-39.466 39.466v83.516c0 19.963 7.93 39.109 22.046 53.225l131.783 131.783c10.549 10.549 27.653 10.549 38.202 0l128.038-128.038c47.753-47.753 47.753-125.177 0-172.93-47.754-47.754-125.178-47.754-172.931-.001z" fill="url(#SVGID_5_)"/><path d="m77.844 118.367v33.408c0 19.963 7.93 39.109 22.046 53.225l131.783 131.783c10.549 10.549 27.653 10.549 38.202 0l13.192-13.192z" fill="url(#SVGID_6_)"/></g><path d="m156.777 68.26c0-21.797-17.67-39.466-39.466-39.466-21.797 0-39.466 17.67-39.466 39.466v83.516c0 19.963 7.93 39.109 22.046 53.225l36.165 36.165c7.85 7.85 20.577 7.85 28.427 0 35.743-35.743 35.743-93.695 0-129.439l-7.705-7.705z" fill="url(#SVGID_7_)"/><path d="m342.811 262.535c-13.684 13.684-63.341-13.788-110.913-61.361s-75.044-97.23-61.36-110.913c13.684-13.684 63.341 13.788 110.913 61.36s75.044 97.23 61.36 110.914z" fill="url(#SVGID_8_)"/></g><g><g><path d="m221.815 482.132-125.37-125.37c-7.75-7.75-7.75-20.316 0-28.067l21.513-21.513c7.75-7.75 20.316-7.75 28.067 0l125.37 125.37c7.75 7.75 7.75 20.316 0 28.067l-21.513 21.513c-7.751 7.751-20.317 7.751-28.067 0z" fill="url(#SVGID_9_)"/><path d="m199.994 460.312-81.728-81.728c-6.41-6.41-6.41-16.802 0-23.211l26.369-26.369c6.41-6.41 16.802-6.41 23.211 0l81.728 81.728c6.41 6.41 6.41 16.802 0 23.211l-26.369 26.369c-6.41 6.409-16.802 6.409-23.211 0z" fill="url(#SVGID_10_)"/><path d="m144.31 404.628 29.639 29.639c4.188 4.188 10.979 4.188 15.167 0l34.413-34.413c4.188-4.188 4.188-10.979 0-15.167l-29.639-29.639c-4.188-4.188-10.979-4.188-15.167 0l-34.413 34.413c-4.188 4.189-4.188 10.979 0 15.167z" fill="url(#SVGID_11_)"/><path d="m107.202 317.939-10.068 10.068c-8.131 8.131-8.733 20.711-1.345 28.099l126.682 126.682c7.388 7.388 19.968 6.786 28.099-1.345l10.068-10.068z" fill="url(#SVGID_12_)"/></g><path d="m258.629 147.018-68.206 68.206v-35.761c0-21.797-17.67-39.466-39.466-39.466-21.797 0-39.466 17.67-39.466 39.466v83.516c0 19.963 7.93 39.109 22.046 53.225l131.783 131.782c10.549 10.549 27.653 10.549 38.202 0l128.038-128.038c47.753-47.753 47.753-125.177 0-172.93-47.754-47.754-125.177-47.754-172.931 0z" fill="url(#SVGID_13_)"/><path d="m150.957 139.996c-21.797 0-39.466 17.67-39.466 39.466v83.516c0 9.099 1.665 18.022 4.795 26.383l74.138-74.138v-35.761c-.001-21.796-17.67-39.466-39.467-39.466z" fill="url(#SVGID_14_)"/><path d="m111.491 229.57v33.408c0 19.963 7.93 39.108 22.046 53.225l131.783 131.783c10.549 10.549 27.653 10.549 38.202 0l13.192-13.192z" fill="url(#SVGID_15_)"/></g><g><path d="m283.621 353.516-56.384 56.384-70.44-70.44 7.651-7.651c13.015-13.015 30.322-20.189 48.733-20.189 18.412 0 35.718 7.174 48.734 20.189z" fill="url(#SVGID_16_)"/><path d="m332.496 402.38c2.828 2.839 5.852 5.364 9.016 7.608l-37.994 37.994c-10.544 10.555-27.645 10.555-38.2 0l-22.747-22.747 56.384-56.395z" fill="url(#SVGID_17_)"/><path d="m422.182 329.317-65.01 65.01c-3.338-1.972-6.48-4.4-9.352-7.272l-33.54-33.54 33.54-33.54c18.488-18.488 48.582-18.488 67.08 0 2.839 2.84 5.277 5.983 7.282 9.342z" fill="url(#SVGID_18_)"/></g><g><path d="m147.493 510c-12.302 0-23.868-4.791-32.566-13.489-8.699-8.699-13.489-20.264-13.489-32.567s4.79-23.868 13.489-32.567l28.067-28.067 15.326 15.326-28.067 28.067c-9.507 9.507-9.507 24.975 0 34.481 9.507 9.508 24.976 9.508 34.481 0l123.279-123.278-21.708-21.709c-13.018-13.018-30.325-20.187-48.735-20.187s-35.717 7.169-48.735 20.187l-47.077 47.078c-18.075 18.073-47.481 18.073-65.555 0-8.756-8.755-13.577-20.396-13.578-32.778 0-12.382 4.822-24.022 13.577-32.777l39.377-39.378 15.326 15.326-39.378 39.378c-4.662 4.661-7.229 10.859-7.229 17.451 0 6.593 2.567 12.79 7.229 17.452 9.624 9.623 25.281 9.623 34.904 0l47.077-47.078c17.111-17.11 39.862-26.534 64.06-26.534 24.199 0 46.949 9.424 64.06 26.534l21.709 21.709 33.54-33.54c26.944-26.944 70.787-26.944 97.731 0 13.053 13.053 20.241 30.407 20.241 48.865 0 18.46-7.188 35.814-20.241 48.867-26.944 26.944-70.787 26.944-97.731 0l-33.54-33.54-123.277 123.279c-8.699 8.698-20.265 13.489-32.567 13.489zm171.172-152.093 33.54 33.539c18.495 18.495 48.587 18.495 67.08 0 8.959-8.958 13.893-20.869 13.893-33.54 0-12.67-4.934-24.581-13.893-33.539-18.495-18.495-48.587-18.495-67.08 0z" fill="url(#SVGID_19_)"/><path d="m55.245 318.725 15.35 15.35c.309-.345.603-.699.933-1.029l39.378-39.378-15.326-15.325-39.378 39.377c-.328.329-.64.669-.957 1.005z" fill="url(#SVGID_20_)"/><path d="m123.291 461.211c.594-5.303 2.904-10.449 6.962-14.507l28.067-28.067-15.326-15.326-28.067 28.067c-3.713 3.713-6.706 7.951-8.926 12.543z" fill="url(#SVGID_21_)"/><path d="m352.205 324.366c6.365-6.366 14.105-10.539 22.272-12.523l-16.988-16.988c-7.477 3.34-14.483 8.058-20.61 14.185l-33.54 33.54v.001l15.326 15.326z" fill="url(#SVGID_22_)"/><path d="m238.002 407.917 15.326 15.326 50.01-50.011-15.325-15.325z" fill="url(#SVGID_23_)"/></g></g></svg>