<svg id="Capa_1" enable-background="new 0 0 510 510" height="512" viewBox="0 0 510 510" width="512" xmlns="http://www.w3.org/2000/svg" xmlns:xlink="http://www.w3.org/1999/xlink"><linearGradient id="lg1"><stop offset="0" stop-color="#ff637b"/><stop offset="1" stop-color="#e63950"/></linearGradient><linearGradient id="SVGID_1_" gradientUnits="userSpaceOnUse" x1="255" x2="255" xlink:href="#lg1" y1="215.298" y2="243.462"/><linearGradient id="SVGID_2_" gradientUnits="userSpaceOnUse" x1="153.967" x2="386.362" xlink:href="#lg1" y1="215.464" y2="512.099"/><linearGradient id="lg2"><stop offset="0" stop-color="#c50000" stop-opacity="0"/><stop offset="1" stop-color="#c50000"/></linearGradient><linearGradient id="SVGID_4_" gradientUnits="userSpaceOnUse" x1="240.795" x2="148.778" xlink:href="#lg2" y1="157.524" y2="65.507"/><linearGradient id="SVGID_5_" gradientUnits="userSpaceOnUse" x1="145.032" x2="136.624" xlink:href="#lg2" y1="466.632" y2="489.643"/><linearGradient id="SVGID_6_" gradientUnits="userSpaceOnUse" x1="364.68" x2="371.317" xlink:href="#lg2" y1="465.2" y2="481.573"/><linearGradient id="SVGID_7_" gradientUnits="userSpaceOnUse" x1="280.168" x2="38.606" xlink:href="#lg2" y1="320.719" y2="460.679"/><linearGradient id="SVGID_8_" gradientUnits="userSpaceOnUse" x1="357.375" x2="284.817" xlink:href="#lg2" y1="158.425" y2="121.211"/><linearGradient id="SVGID_9_" gradientUnits="userSpaceOnUse" x1="339.736" x2="226.646" xlink:href="#lg2" y1="292.026" y2="180.486"/><linearGradient id="SVGID_10_" gradientUnits="userSpaceOnUse" x1="238.244" x2="70.484" xlink:href="#lg2" y1="430.985" y2="318.572"/><linearGradient id="SVGID_11_" gradientUnits="userSpaceOnUse" x1="407.09" x2="271.276" xlink:href="#lg2" y1="423.99" y2="337.94"/><linearGradient id="SVGID_12_" gradientUnits="userSpaceOnUse" x1="152.175" x2="191.571" xlink:href="#lg1" y1="340.519" y2="412.573"/><linearGradient id="lg3"><stop offset="0" stop-color="#edf5ff"/><stop offset="1" stop-color="#d5e8fe"/></linearGradient><linearGradient id="SVGID_13_" gradientUnits="userSpaceOnUse" x1="168.965" x2="168.965" xlink:href="#lg3" y1="334.87" y2="347.141"/><linearGradient id="SVGID_14_" gradientUnits="userSpaceOnUse" x1="324.245" x2="363.641" xlink:href="#lg1" y1="340.519" y2="412.573"/><linearGradient id="SVGID_15_" gradientUnits="userSpaceOnUse" x1="341.035" x2="341.035" xlink:href="#lg3" y1="334.87" y2="347.141"/><linearGradient id="lg4"><stop offset="0" stop-color="#ffda2d"/><stop offset="1" stop-color="#fdbf00"/></linearGradient><linearGradient id="SVGID_16_" gradientUnits="userSpaceOnUse" x1="239.302" x2="314.611" xlink:href="#lg4" y1="191.081" y2="266.39"/><linearGradient id="SVGID_17_" gradientUnits="userSpaceOnUse" x1="180.148" x2="248.661" xlink:href="#lg4" y1="70.412" y2="70.412"/><linearGradient id="SVGID_18_" gradientUnits="userSpaceOnUse" x1="290.735" x2="359.247" xlink:href="#lg4" y1="70.412" y2="70.412"/><linearGradient id="SVGID_19_" gradientUnits="userSpaceOnUse" x1="219.945" x2="181.816" xlink:href="#lg2" y1="141.703" y2="103.573"/><linearGradient id="SVGID_20_" gradientUnits="userSpaceOnUse" x1="195.694" x2="202.365" xlink:href="#lg1" y1="117.534" y2="124.206"/><linearGradient id="SVGID_21_" gradientTransform="matrix(-1 0 0 -1 419.439 -7946.28)" gradientUnits="userSpaceOnUse" x1="217.453" x2="221.241" xlink:href="#lg1" y1="-8070.106" y2="-8066.317"/><linearGradient id="SVGID_22_" gradientUnits="userSpaceOnUse" x1="328.718" x2="293.055" xlink:href="#lg2" y1="139.768" y2="104.105"/><linearGradient id="SVGID_23_" gradientUnits="userSpaceOnUse" x1="306.402" x2="313.073" xlink:href="#lg1" y1="117.534" y2="124.206"/><linearGradient id="SVGID_24_" gradientTransform="matrix(-1 0 0 -1 419.439 -7946.28)" gradientUnits="userSpaceOnUse" x1="106.745" x2="110.534" xlink:href="#lg1" y1="-8070.106" y2="-8066.317"/><g><ellipse cx="255" cy="268.779" fill="url(#SVGID_1_)" rx="136.82" ry="12.732"/><path d="m452.16 437.667-60.34-168.889c0 .746-.691 1.477-2.016 2.188-7.086 3.802-15.793-.879-16.919-8.841l-20.967-148.281c-.819-5.793-5.778-10.1-11.628-10.1h-170.579c-5.851 0-10.809 4.307-11.628 10.1l-20.967 148.281c-1.126 7.962-9.833 12.643-16.919 8.841-1.325-.711-2.016-1.442-2.016-2.188l-60.341 168.889c-2.935 8.215 1.345 17.253 9.56 20.188l143.361 51.219c8.215 2.935 17.253-1.345 20.188-9.56l18.837-52.725c1.75-4.898 8.677-4.898 10.427 0l18.837 52.725c2.935 8.215 11.973 12.495 20.188 9.56l143.362-51.218c8.215-2.935 12.495-11.974 9.56-20.189z" fill="url(#SVGID_2_)"/><path d="m452.16 437.667-60.34-168.889c0 .746-.691 1.477-2.016 2.188-7.086 3.802-15.793-.879-16.919-8.841l-20.967-148.281c-.819-5.793-5.778-10.1-11.628-10.1h-170.579c-5.851 0-10.809 4.307-11.628 10.1l-20.967 148.281c-1.126 7.962-9.833 12.643-16.919 8.841-1.325-.711-2.016-1.442-2.016-2.188l-60.341 168.889c-2.935 8.215 1.345 17.253 9.56 20.188l143.361 51.219c8.215 2.935 17.253-1.345 20.188-9.56l18.837-52.725c1.75-4.898 8.677-4.898 10.427 0l18.837 52.725c2.935 8.215 11.973 12.495 20.188 9.56l143.362-51.218c8.215-2.935 12.495-11.974 9.56-20.189z" fill="url(#SVGID_2_)"/><path d="m219.651 103.746h-37.814v17.134c0 6.773 1.31 12.747 6.472 16.352l66.428 66.429c3.605 5.161 9.579 8.545 16.353 8.545 11.015 0 19.944-8.929 19.944-19.944v-17.134z" fill="url(#SVGID_4_)"/><path d="m67.401 420.091 170.368 60.332-6.824 19.09c-2.929 8.213-11.966 12.497-20.187 9.558l-143.357-51.216c-8.213-2.938-12.497-11.974-9.558-20.188l6.753-18.904c.866.531 1.805.974 2.805 1.328z" fill="url(#SVGID_5_)"/><path d="m442.599 457.855-143.357 51.216c-8.222 2.938-17.258-1.345-20.188-9.558l-6.832-19.108 170.377-60.315c1-.354 1.938-.797 2.806-1.328l6.753 18.904c2.938 8.214-1.346 17.25-9.559 20.189z" fill="url(#SVGID_6_)"/><path d="m391.82 268.779c0 .746-.691 1.477-2.016 2.188-7.086 3.802-15.793-.879-16.919-8.84l-20.968-148.281c-.819-5.793-5.778-10.1-11.628-10.1h-85.289v339.371c2.169 0 4.339 1.225 5.214 3.674l18.837 52.725c2.935 8.215 11.973 12.495 20.188 9.56l143.361-51.22c8.215-2.935 12.495-11.974 9.56-20.188z" fill="url(#SVGID_7_)"/><path d="m298.894 137.232 65.607 65.608-10.677-75.506-23.588-23.588h-37.814v17.134c.001 6.773 1.311 12.747 6.472 16.352z" fill="url(#SVGID_8_)"/><path d="m442.6 457.856c8.215-2.935 12.495-11.974 9.56-20.188l-60.34-168.889c0 .746-.691 1.477-2.016 2.188-7.086 3.802-15.793-.879-16.919-8.84l-6.282-44.424-36.179-36.179c-2.036-3.933-6.131-4.585-10.911-4.585h-129.026c-7.145 0-10.71 4-10.181 11.125l1.665 22.411c1.316 17.712 7.45 33.357 19.792 44.421l212.93 212.93z" fill="url(#SVGID_9_)"/><path d="m299.239 509.075 70.539-25.202-151.365-151.365c-1.771-3.127-5.122-3.168-8.972-3.168h-80.951c-5.694 0-8.236 2.542-8.236 8.236v4.262c0 3.847 2.114 7.189 5.238 8.959.475.84 1.062 1.607 1.745 2.279v46.846c0 6.842 1.186 12.908 6.222 16.778l90.924 90.924c2.941-1.817 5.314-4.6 6.568-8.109l18.837-52.725c1.75-4.898 8.677-4.898 10.427 0l18.837 52.725c2.934 8.215 11.972 12.495 20.187 9.56z" fill="url(#SVGID_10_)"/><path d="m381.236 329.34h-80.951c-5.694 0-8.236 2.542-8.236 8.236v4.262c0 3.847 2.114 7.189 5.238 8.959.475.84 1.062 1.607 1.745 2.279v46.846c0 6.842 1.186 12.908 6.222 16.778l66.476 66.476 70.871-25.32c8.215-2.935 12.495-11.974 9.56-20.188l-24.018-67.225-37.934-37.934c-1.772-3.128-5.123-3.169-8.973-3.169z" fill="url(#SVGID_11_)"/><g><path d="m191.598 421.092h-45.265c-11.692 0-21.17-9.478-21.17-21.17v-62.806h87.605v62.806c0 11.692-9.478 21.17-21.17 21.17z" fill="url(#SVGID_12_)"/><path d="m209.441 352.149h-80.951c-5.694 0-10.31-4.616-10.31-10.31v-4.263c0-5.694 4.616-10.31 10.31-10.31h80.951c5.694 0 10.31 4.616 10.31 10.31v4.263c0 5.694-4.616 10.31-10.31 10.31z" fill="url(#SVGID_13_)"/></g><g><path d="m363.667 421.092h-45.265c-11.692 0-21.17-9.478-21.17-21.17v-62.806h87.605v62.806c0 11.692-9.478 21.17-21.17 21.17z" fill="url(#SVGID_14_)"/><path d="m381.51 352.149h-80.951c-5.694 0-10.31-4.616-10.31-10.31v-4.263c0-5.694 4.616-10.31 10.31-10.31h80.951c5.694 0 10.31 4.616 10.31 10.31v4.263c0 5.694-4.616 10.31-10.31 10.31z" fill="url(#SVGID_15_)"/></g><path d="m264.022 271.827h-18.044c-34.691 0-63.51-26.757-66.08-61.352l-1.665-22.411c-.529-7.126 5.109-13.199 12.254-13.199h129.027c7.145 0 12.784 6.073 12.254 13.199l-1.665 22.411c-2.571 34.595-31.39 61.352-66.081 61.352z" fill="url(#SVGID_16_)"/><g><path d="m199.707 140.824c-11.015 0-19.944-8.929-19.944-19.944v-111.77c0-5.031 4.079-9.11 9.11-9.11h21.669c5.031 0 9.11 4.079 9.11 9.11v111.77c-.001 11.015-8.93 19.944-19.945 19.944z" fill="url(#SVGID_17_)"/><path d="m310.293 140.824c-11.015 0-19.944-8.929-19.944-19.944v-111.77c0-5.031 4.079-9.11 9.11-9.11h21.669c5.031 0 9.11 4.079 9.11 9.11v111.77c-.001 11.015-8.93 19.944-19.945 19.944z" fill="url(#SVGID_18_)"/></g><g><path d="m241.488 167.51c-5.565 3.562-12.859 2.771-17.532-1.901l-33.814-33.814c-2.709-2.565-4.181-6.195-4.181-10.22 0-7.607 6.249-13.857 13.856-13.856 4.025 0 7.655 1.473 10.22 4.181l33.814 33.814c6.353 6.353 5.204 16.952-2.363 21.796z" fill="url(#SVGID_19_)"/><g><circle cx="199.707" cy="121.547" fill="url(#SVGID_20_)" r="14.074"/><circle cx="199.707" cy="121.547" fill="url(#SVGID_21_)" r="7.992"/></g></g><g><path d="m348.714 164.028c-5.565 3.562-12.859 2.771-17.532-1.901l-30.332-30.332c-2.709-2.565-4.181-6.195-4.181-10.22 0-7.607 6.249-13.857 13.856-13.856 4.025 0 7.655 1.473 10.22 4.181l30.332 30.332c6.353 6.353 5.204 16.953-2.363 21.796z" fill="url(#SVGID_22_)"/><g><circle cx="310.415" cy="121.547" fill="url(#SVGID_23_)" r="14.074"/><circle cx="310.415" cy="121.547" fill="url(#SVGID_24_)" r="7.992"/></g></g></g></svg>