<svg id="Capa_1" enable-background="new 0 0 510 510" height="512" viewBox="0 0 510 510" width="512" xmlns="http://www.w3.org/2000/svg" xmlns:xlink="http://www.w3.org/1999/xlink"><linearGradient id="lg1"><stop offset="0" stop-color="#edf5ff"/><stop offset="1" stop-color="#d5e8fe"/></linearGradient><linearGradient id="SVGID_1_" gradientUnits="userSpaceOnUse" x1="212.321" x2="357.464" xlink:href="#lg1" y1="175.334" y2="376.092"/><linearGradient id="lg2"><stop offset="0" stop-color="#b5dbff"/><stop offset="1" stop-color="#48b2e3"/></linearGradient><linearGradient id="SVGID_2_" gradientUnits="userSpaceOnUse" x1="442.424" x2="390.575" xlink:href="#lg2" y1="141.477" y2="151.787"/><linearGradient id="SVGID_3_" gradientUnits="userSpaceOnUse" x1="352.073" x2="249.589" xlink:href="#lg2" y1="262.677" y2="283.054"/><linearGradient id="SVGID_4_" gradientUnits="userSpaceOnUse" x1="270.993" x2="166.389" xlink:href="#lg2" y1="262.355" y2="283.153"/><linearGradient id="SVGID_5_" gradientUnits="userSpaceOnUse" x1="189.163" x2="84.559" xlink:href="#lg2" y1="262.355" y2="283.153"/><linearGradient id="SVGID_6_" gradientUnits="userSpaceOnUse" x1="108.527" x2="4.55" xlink:href="#lg2" y1="267.278" y2="287.952"/><linearGradient id="SVGID_7_" gradientUnits="userSpaceOnUse" x1="43.495" x2="-7.79" xlink:href="#lg2" y1="148.546" y2="158.743"/><linearGradient id="lg3"><stop offset="0" stop-color="#b5dbff" stop-opacity="0"/><stop offset=".1734" stop-color="#8fc5e9" stop-opacity=".173"/><stop offset=".4541" stop-color="#56a4c8" stop-opacity=".454"/><stop offset=".6955" stop-color="#2d8db1" stop-opacity=".696"/><stop offset=".8853" stop-color="#147ea2" stop-opacity=".885"/><stop offset="1" stop-color="#0b799d"/></linearGradient><linearGradient id="SVGID_8_" gradientUnits="userSpaceOnUse" x1="346.446" x2="253.089" xlink:href="#lg3" y1="152.802" y2="-49.47"/><linearGradient id="SVGID_9_" gradientUnits="userSpaceOnUse" x1="255" x2="255" xlink:href="#lg3" y1="428.47" y2="498.8"/><linearGradient id="SVGID_10_" gradientUnits="userSpaceOnUse" x1="291.681" x2="22.707" xlink:href="#lg3" y1="261.515" y2="314.995"/><linearGradient id="SVGID_11_" gradientUnits="userSpaceOnUse" x1="255" x2="255" y1="27.609" y2="57.212"><stop offset="0" stop-color="#edf5ff"/><stop offset="1" stop-color="#b5dbff"/></linearGradient><linearGradient id="SVGID_12_" gradientUnits="userSpaceOnUse" x1="200.262" x2="209.997" xlink:href="#lg1" y1="72.806" y2="96.17"/><linearGradient id="SVGID_13_" gradientUnits="userSpaceOnUse" x1="298.606" x2="327.467" xlink:href="#lg1" y1="65.748" y2="94.609"/><linearGradient id="SVGID_14_" gradientUnits="userSpaceOnUse" x1="53.657" x2="53.657" xlink:href="#lg3" y1="137.691" y2="281.795"/><linearGradient id="SVGID_15_" gradientTransform="matrix(-1 0 0 1 243.678 0)" gradientUnits="userSpaceOnUse" x1="-212.665" x2="-212.665" xlink:href="#lg3" y1="137.691" y2="281.795"/><linearGradient id="SVGID_16_" gradientUnits="userSpaceOnUse" x1="283.027" x2="236.176" xlink:href="#lg3" y1="168.148" y2="121.297"/><linearGradient id="lg4"><stop offset="0" stop-color="#0b799d"/><stop offset="1" stop-color="#07485e"/></linearGradient><linearGradient id="SVGID_17_" gradientUnits="userSpaceOnUse" x1="251.32" x2="257.438" xlink:href="#lg4" y1="136.704" y2="142.821"/><linearGradient id="SVGID_18_" gradientTransform="matrix(-1 0 0 -1 -644.562 -1562.28)" gradientUnits="userSpaceOnUse" x1="-901.651" x2="-898.177" xlink:href="#lg4" y1="-1704.753" y2="-1701.279"/><linearGradient id="SVGID_19_" gradientUnits="userSpaceOnUse" x1="283.027" x2="236.176" xlink:href="#lg3" y1="233.96" y2="187.109"/><linearGradient id="SVGID_20_" gradientUnits="userSpaceOnUse" x1="251.32" x2="257.438" xlink:href="#lg4" y1="202.516" y2="208.633"/><linearGradient id="SVGID_21_" gradientTransform="matrix(-1 0 0 -1 -644.562 -1562.28)" gradientUnits="userSpaceOnUse" x1="-901.651" x2="-898.177" xlink:href="#lg4" y1="-1770.565" y2="-1767.091"/><linearGradient id="SVGID_22_" gradientUnits="userSpaceOnUse" x1="283.027" x2="236.176" xlink:href="#lg3" y1="299.772" y2="252.921"/><linearGradient id="SVGID_23_" gradientUnits="userSpaceOnUse" x1="251.32" x2="257.438" xlink:href="#lg4" y1="268.328" y2="274.445"/><linearGradient id="SVGID_24_" gradientTransform="matrix(-1 0 0 -1 -644.562 -1562.28)" gradientUnits="userSpaceOnUse" x1="-901.651" x2="-898.177" xlink:href="#lg4" y1="-1836.377" y2="-1832.903"/><linearGradient id="SVGID_25_" gradientUnits="userSpaceOnUse" x1="283.027" x2="236.176" xlink:href="#lg3" y1="365.584" y2="318.733"/><linearGradient id="SVGID_26_" gradientUnits="userSpaceOnUse" x1="251.32" x2="257.438" xlink:href="#lg4" y1="334.14" y2="340.257"/><linearGradient id="SVGID_27_" gradientTransform="matrix(-1 0 0 -1 -644.562 -1562.28)" gradientUnits="userSpaceOnUse" x1="-901.651" x2="-898.177" xlink:href="#lg4" y1="-1902.189" y2="-1898.715"/><linearGradient id="SVGID_28_" gradientUnits="userSpaceOnUse" x1="283.027" x2="236.176" xlink:href="#lg3" y1="431.397" y2="384.546"/><linearGradient id="SVGID_29_" gradientUnits="userSpaceOnUse" x1="251.32" x2="257.438" xlink:href="#lg4" y1="399.952" y2="406.07"/><linearGradient id="SVGID_30_" gradientTransform="matrix(-1 0 0 -1 -644.562 -1562.28)" gradientUnits="userSpaceOnUse" x1="-901.651" x2="-898.177" xlink:href="#lg4" y1="-1968.002" y2="-1964.528"/><linearGradient id="SVGID_31_" gradientUnits="userSpaceOnUse" x1="51.294" x2="41.381" xlink:href="#lg1" y1="171.521" y2="181.434"/><linearGradient id="SVGID_32_" gradientTransform="matrix(-1 0 0 1 -2048.007 0)" gradientUnits="userSpaceOnUse" x1="-2506.713" x2="-2516.626" xlink:href="#lg1" y1="171.521" y2="181.434"/><linearGradient id="SVGID_33_" gradientUnits="userSpaceOnUse" x1="255" x2="255" xlink:href="#lg1" y1="462.847" y2="484.494"/><linearGradient id="SVGID_34_" gradientUnits="userSpaceOnUse" x1="323.584" x2="314.918" y1="466.637" y2="536.637"><stop offset="0" stop-color="#b5dbff" stop-opacity="0"/><stop offset=".2428" stop-color="#93cef6" stop-opacity=".243"/><stop offset=".5763" stop-color="#6abfec" stop-opacity=".576"/><stop offset=".8403" stop-color="#51b5e5" stop-opacity=".84"/><stop offset="1" stop-color="#48b2e3"/></linearGradient><linearGradient id="SVGID_35_" gradientUnits="userSpaceOnUse" x1="386.588" x2="266.635" xlink:href="#lg3" y1="246.502" y2="194.738"/><linearGradient id="SVGID_36_" gradientUnits="userSpaceOnUse" x1="318.513" x2="364.513" xlink:href="#lg1" y1="156.739" y2="236.739"/><g><g><g><path d="m498.143 128.53-32.365-32.365c-36.066-36.066-84.982-56.328-135.987-56.328h-149.582c-51.005 0-99.921 20.262-135.987 56.328l-32.365 32.365c-6.791 6.791-6.791 17.802 0 24.593l56.236 56.236c6.791 6.791 17.802 6.791 24.593 0l7.865-4.811v253.087c0 9.604 7.785 17.39 17.389 17.39h274.122c9.604 0 17.39-7.785 17.39-17.39v-253.088l7.865 4.811c6.791 6.791 17.801 6.791 24.593 0l56.236-56.236c6.788-6.791 6.788-17.801-.003-24.592z" fill="url(#SVGID_1_)"/><g><path d="m482.142 112.527v56.598l-40.234 40.234c-1.558 1.558-3.329 2.745-5.218 3.592v-140.667c10.377 6.941 20.132 14.923 29.088 23.879z" fill="url(#SVGID_2_)"/><path d="m400.311 53.243v419.695c-2.463 1.334-5.267 2.083-8.255 2.083h-37.187v-433.538c15.634 2.054 30.889 6.016 45.442 11.76z" fill="url(#SVGID_3_)"/><path d="m273.039 39.838h45.452v435.183h-45.452z" fill="url(#SVGID_4_)"/><path d="m191.208 39.838h45.452v435.183h-45.452z" fill="url(#SVGID_5_)"/><path d="m154.829 41.522v433.499h-36.895c-3.105 0-6.026-.818-8.547-2.249v-419.413c14.554-5.772 29.808-9.754 45.442-11.837z" fill="url(#SVGID_6_)"/><path d="m73.31 72.284v140.667c-1.889-.847-3.66-2.035-5.218-3.592l-40.234-40.234v-56.598l16.364-16.364c8.957-8.956 18.711-16.938 29.088-23.879z" fill="url(#SVGID_7_)"/></g><path d="m498.145 153.121-24.843 24.843-31.395 31.395c-6.795 6.785-17.805 6.785-24.59 0l-7.866-4.809v158.813c-47.915-47.983-240.059-239.943-240.906-240.809-1.003-1.042-.671-2.463-.671-4.089v-62.555c0-6.474 3.144-12.354 8.138-16.004 1.713-.049 2.472-.068 4.195-.068h149.584c1.723 0 3.436.019 5.15.068 49.141 1.314 95.985 21.407 130.835 56.257l32.368 32.368c6.787 6.785 6.787 17.805.001 24.59z" fill="url(#SVGID_8_)"/><path d="m100.55 368.87v88.764c0 9.604 7.785 17.39 17.389 17.39h274.122c9.604 0 17.39-7.785 17.39-17.39v-88.764z" fill="url(#SVGID_9_)"/><path d="m465.778 96.164c-36.066-36.066-84.982-56.328-135.987-56.328h-99.128v435.186h161.398c9.604 0 17.39-7.785 17.39-17.39v-253.085l7.865 4.811c6.791 6.791 17.802 6.791 24.593 0l56.235-56.236c6.791-6.791 6.791-17.801 0-24.592z" fill="url(#SVGID_10_)"/><path d="m315.532 34.964c-39.464-11.961-81.599-11.961-121.063 0-7.025 2.129-10.574 9.903-7.643 16.634 11.729 26.944 37.842 31.452 68.174 31.452s56.445-4.508 68.175-31.452c2.93-6.731-.618-14.505-7.643-16.634z" fill="url(#SVGID_11_)"/><g><g><path d="m255 77.263c-28.989 0-40.345-18.051-47.381-36.527-1.409-3.7-2.108-6.158-2.448-7.576-.202-.842-1.036-1.361-1.881-1.174l-21.203 4.677c-8.903 2.134-15.182 10.096-15.182 19.251v62.549c0 4.348 4.541 7.204 8.46 5.32l77.424-37.216c1.351-.65 2.211-2.017 2.211-3.517z" fill="url(#SVGID_12_)"/><path d="m255 83.05c0 1.5.86 2.867 2.212 3.517l77.423 37.216c3.919 1.884 8.46-.972 8.46-5.32v-62.549c0-9.156-6.278-17.117-15.182-19.251l-21.203-4.677c-.845-.186-1.68.333-1.881 1.174-.34 1.418-1.039 3.877-2.448 7.576-7.036 18.476-18.392 36.527-47.381 36.527z" fill="url(#SVGID_13_)"/></g></g><g><path d="m44.222 96.164-32.366 32.366c-6.791 6.791-6.791 17.801 0 24.593l56.236 56.236c6.791 6.791 17.802 6.791 24.593 0l7.865-4.811v-147.422c-20.766 9.45-39.885 22.596-56.328 39.038z" fill="url(#SVGID_14_)"/></g><g><path d="m465.778 96.164 32.365 32.365c6.791 6.791 6.791 17.801 0 24.593l-56.236 56.236c-6.791 6.791-17.802 6.791-24.593 0l-7.865-4.811v-147.421c20.766 9.45 39.886 22.596 56.329 39.038z" fill="url(#SVGID_15_)"/></g></g><g><g><path d="m293.497 182.529c-5.103 3.266-11.791 2.541-16.076-1.743l-31.005-31.005c-2.484-2.352-3.834-5.68-3.834-9.371 0-6.975 5.73-12.706 12.705-12.705 3.691 0 7.019 1.35 9.371 3.834l31.005 31.005c5.827 5.824 4.773 15.543-2.166 19.985z" fill="url(#SVGID_16_)"/><g><circle cx="255" cy="140.383" fill="url(#SVGID_17_)" r="12.905"/><circle cx="255" cy="140.383" fill="url(#SVGID_18_)" r="7.328"/></g></g><g><path d="m293.497 248.341c-5.103 3.266-11.791 2.541-16.076-1.743l-31.005-31.005c-2.484-2.352-3.834-5.68-3.834-9.371 0-6.975 5.73-12.706 12.705-12.705 3.691 0 7.019 1.35 9.371 3.834l31.005 31.005c5.827 5.825 4.773 15.543-2.166 19.985z" fill="url(#SVGID_19_)"/><g><circle cx="255" cy="206.196" fill="url(#SVGID_20_)" r="12.905"/><circle cx="255" cy="206.196" fill="url(#SVGID_21_)" r="7.328"/></g></g><g><path d="m293.497 314.153c-5.103 3.266-11.791 2.541-16.076-1.743l-31.005-31.005c-2.484-2.352-3.834-5.68-3.834-9.371 0-6.975 5.73-12.706 12.705-12.705 3.691 0 7.019 1.35 9.371 3.834l31.005 31.005c5.827 5.825 4.773 15.544-2.166 19.985z" fill="url(#SVGID_22_)"/><g><circle cx="255" cy="272.008" fill="url(#SVGID_23_)" r="12.905"/><circle cx="255" cy="272.008" fill="url(#SVGID_24_)" r="7.328"/></g></g><g><path d="m293.497 379.965c-5.103 3.266-11.791 2.541-16.076-1.743l-31.005-31.005c-2.484-2.352-3.834-5.68-3.834-9.371 0-6.975 5.73-12.706 12.705-12.705 3.691 0 7.019 1.35 9.371 3.834l31.005 31.005c5.827 5.825 4.773 15.544-2.166 19.985z" fill="url(#SVGID_25_)"/><g><circle cx="255" cy="337.82" fill="url(#SVGID_26_)" r="12.905"/><circle cx="255" cy="337.82" fill="url(#SVGID_27_)" r="7.328"/></g></g><g><path d="m293.497 445.777c-5.103 3.266-11.791 2.541-16.076-1.743l-31.005-31.005c-2.484-2.352-3.834-5.68-3.834-9.371 0-6.975 5.73-12.706 12.705-12.705 3.691 0 7.019 1.35 9.371 3.834l31.005 31.005c5.827 5.825 4.773 15.544-2.166 19.985z" fill="url(#SVGID_28_)"/><g><circle cx="255" cy="403.632" fill="url(#SVGID_29_)" r="12.905"/><circle cx="255" cy="403.632" fill="url(#SVGID_30_)" r="7.328"/></g></g></g></g><g><path d="m75.75 220.793-73.728-73.728c-2.696-2.696-2.696-7.066 0-9.762l5.761-5.761c2.696-2.696 7.066-2.696 9.762 0l73.728 73.728c2.696 2.696 2.696 7.066 0 9.762l-5.761 5.761c-2.696 2.696-7.066 2.696-9.762 0z" fill="url(#SVGID_31_)"/><path d="m434.25 220.793 73.728-73.728c2.696-2.696 2.696-7.066 0-9.762l-5.761-5.761c-2.696-2.696-7.066-2.696-9.762 0l-73.728 73.728c-2.696 2.696-2.696 7.066 0 9.762l5.761 5.761c2.696 2.696 7.066 2.696 9.762 0z" fill="url(#SVGID_32_)"/></g><path d="m408.853 484.007h-307.706c-4.337 0-7.853-3.516-7.853-7.853v-13.294c0-4.337 3.516-7.853 7.853-7.853h307.705c4.337 0 7.853 3.516 7.853 7.853v13.295c0 4.336-3.515 7.852-7.852 7.852z" fill="url(#SVGID_33_)"/><path d="m416.71 462.864v13.29c0 4.335-3.515 7.85-7.85 7.85h-171.035c-3.957 0-7.165-3.208-7.165-7.165v-21.835h178.19c.2 0 .41.01.6.03 4.06.3 7.26 3.69 7.26 7.83z" fill="url(#SVGID_34_)"/><path d="m438.304 212.104-54.791-54.791c-.847-1.875-2.724-2.185-4.916-2.185h-79.698c-2.984 0-4.402 1.418-4.402 4.402v59.739c0 7.408 2.313 14.037 7.534 18.501l107.419 107.419v-140.642l7.865 4.811c5.691 5.691 14.338 6.594 20.989 2.746z" fill="url(#SVGID_35_)"/><path d="m359.663 243.607h-41.829c-13.441 0-24.337-10.896-24.337-24.337v-59.74c0-2.984 2.419-5.402 5.402-5.402h79.698c2.984 0 5.402 2.419 5.402 5.402v59.739c.001 13.442-10.895 24.338-24.336 24.338z" fill="url(#SVGID_36_)"/></g></svg>