<svg id="Capa_1" enable-background="new 0 0 510 510" height="512" viewBox="0 0 510 510" width="512" xmlns="http://www.w3.org/2000/svg" xmlns:xlink="http://www.w3.org/1999/xlink"><linearGradient id="lg1"><stop offset="0" stop-color="#ffda2d"/><stop offset="1" stop-color="#fdbf00"/></linearGradient><linearGradient id="SVGID_1_" gradientUnits="userSpaceOnUse" x1="141.744" x2="259.252" xlink:href="#lg1" y1="159.146" y2="265.831"/><linearGradient id="SVGID_2_" gradientUnits="userSpaceOnUse" x1="272.275" x2="429.983" xlink:href="#lg1" y1="156.248" y2="337.149"/><linearGradient id="lg2"><stop offset="0" stop-color="#ff9100" stop-opacity="0"/><stop offset="1" stop-color="#ff9100"/></linearGradient><linearGradient id="SVGID_3_" gradientUnits="userSpaceOnUse" x1="255" x2="255" xlink:href="#lg2" y1="65.966" y2="172.485"/><linearGradient id="lg3"><stop offset="0" stop-color="#fdbf00"/><stop offset="1" stop-color="#ff9100"/></linearGradient><linearGradient id="SVGID_4_" gradientUnits="userSpaceOnUse" x1="255" x2="255" xlink:href="#lg3" y1="35.728" y2="94.829"/><linearGradient id="SVGID_5_" gradientUnits="userSpaceOnUse" x1="255" x2="255" xlink:href="#lg2" y1="77.649" y2="39.627"/><linearGradient id="SVGID_6_" gradientUnits="userSpaceOnUse" x1="300.758" x2="264.843" xlink:href="#lg2" y1="104.778" y2="68.863"/><linearGradient id="lg4"><stop offset="0" stop-color="#0b799d"/><stop offset="1" stop-color="#07485e"/></linearGradient><linearGradient id="SVGID_7_" gradientUnits="userSpaceOnUse" x1="277.974" x2="284.258" xlink:href="#lg4" y1="82.013" y2="88.297"/><linearGradient id="SVGID_8_" gradientTransform="matrix(-1 0 0 -1 419.439 -498.28)" gradientUnits="userSpaceOnUse" x1="135.538" x2="139.107" xlink:href="#lg4" y1="-586.22" y2="-582.651"/><linearGradient id="SVGID_9_" gradientUnits="userSpaceOnUse" x1="238.055" x2="158.506" xlink:href="#lg2" y1="143.324" y2="197.154"/><linearGradient id="SVGID_10_" gradientUnits="userSpaceOnUse" x1="200.17" x2="144.849" xlink:href="#lg2" y1="94.316" y2="71.981"/><linearGradient id="lg5"><stop offset="0" stop-color="#ff637b"/><stop offset="1" stop-color="#f90217"/></linearGradient><linearGradient id="SVGID_11_" gradientUnits="userSpaceOnUse" x1="161.195" x2="184.411" xlink:href="#lg5" y1="82.966" y2="82.966"/><linearGradient id="SVGID_12_" gradientUnits="userSpaceOnUse" x1="370.006" x2="316.403" xlink:href="#lg2" y1="91.729" y2="70.769"/><linearGradient id="SVGID_13_" gradientUnits="userSpaceOnUse" x1="335.405" x2="358.621" xlink:href="#lg5" y1="82.966" y2="82.966"/><linearGradient id="SVGID_14_" gradientUnits="userSpaceOnUse" x1="111.821" x2="97.676" xlink:href="#lg2" y1="420.887" y2="462.232"/><linearGradient id="SVGID_15_" gradientTransform="matrix(-1 0 0 1 243.477 0)" gradientUnits="userSpaceOnUse" x1="-154.702" x2="-168.846" xlink:href="#lg2" y1="420.887" y2="462.232"/><linearGradient id="SVGID_16_" gradientUnits="userSpaceOnUse" x1="136.406" x2="-1.725" xlink:href="#lg2" y1="349.252" y2="239.984"/><linearGradient id="SVGID_17_" gradientUnits="userSpaceOnUse" x1="46.489" x2="102.841" xlink:href="#lg3" y1="261.468" y2="330.19"/><linearGradient id="SVGID_18_" gradientUnits="userSpaceOnUse" x1="71.304" x2="66.15" xlink:href="#lg5" y1="217.202" y2="251.219"/><linearGradient id="SVGID_19_" gradientUnits="userSpaceOnUse" x1="523.014" x2="438.13" xlink:href="#lg2" y1="346.859" y2="261.975"/><linearGradient id="SVGID_20_" gradientUnits="userSpaceOnUse" x1="446.596" x2="487.637" xlink:href="#lg3" y1="269.647" y2="310.688"/><linearGradient id="SVGID_21_" gradientUnits="userSpaceOnUse" x1="437.255" x2="446.532" xlink:href="#lg5" y1="222.158" y2="249.99"/><linearGradient id="SVGID_22_" gradientUnits="userSpaceOnUse" x1="63.644" x2="120.886" xlink:href="#lg2" y1="99.903" y2="157.145"/><linearGradient id="SVGID_23_" gradientUnits="userSpaceOnUse" x1="445.669" x2="398.583" xlink:href="#lg2" y1="100.59" y2="147.676"/><g><path d="m509.421 390.001-72.861-339.615c0 4.226-16.679 8.092-44.243 11.051-27.564 2.958-66.025 5.02-109.577 5.649-15.38.217-40.099.217-55.479 0-43.552-.629-82.013-2.69-109.577-5.649-27.565-2.959-44.244-6.825-44.244-11.051l-72.861 339.615c-2.807 13.082 4.829 26.146 17.605 30.12l177.468 55.208c15.489 4.818 31.539-5.646 33.378-21.763l19.053-166.957c1.155-3.247 4.041-4.876 6.917-4.876s5.762 1.629 6.917 4.876l19.053 166.957c1.839 16.116 17.889 26.581 33.378 21.763l177.468-55.208c12.776-3.974 20.411-17.037 17.605-30.12z" fill="url(#SVGID_1_)"/><path d="m491.816 420.122-177.468 55.208c-15.489 4.818-31.539-5.646-33.378-21.763l-19.053-166.957c-1.155-3.247-4.041-4.876-6.917-4.876v-186.518c0-15.38 12.36-27.915 27.74-28.131 43.552-.629 82.013-2.69 109.577-5.649 27.564-2.958 44.243-6.824 44.243-11.051l72.861 339.616c2.806 13.083-4.829 26.146-17.605 30.121z" fill="url(#SVGID_2_)"/><path d="m255 103.917c76.599 0 144.923-6.296 189.582-16.138l-8.022-37.394c0 4.226-16.679 8.092-44.243 11.051-27.564 2.958-66.025 5.02-109.577 5.649-15.38.217-40.099.217-55.479 0-43.552-.629-82.013-2.69-109.577-5.649-27.565-2.958-44.244-6.824-44.244-11.05l-8.022 37.394c44.659 9.841 112.983 16.137 189.582 16.137z" fill="url(#SVGID_3_)"/><ellipse cx="255" cy="50.386" fill="url(#SVGID_4_)" rx="181.562" ry="16.896"/><path d="m118.991 61.577c33.265 3.498 81.865 5.705 136.009 5.705s102.745-2.206 136.009-5.705c-33.265-3.498-81.865-5.705-136.009-5.705s-102.745 2.206-136.009 5.705z" fill="url(#SVGID_5_)"/><g><path d="m321.05 129.087c-5.242 3.355-12.113 2.61-16.514-1.791l-31.85-31.85c-2.552-2.416-3.938-5.835-3.939-9.627 0-7.165 5.886-13.052 13.052-13.052 3.792 0 7.211 1.387 9.627 3.939l31.85 31.85c5.984 5.985 4.902 15.968-2.226 20.531z" fill="url(#SVGID_6_)"/><g><circle cx="281.754" cy="85.793" fill="url(#SVGID_7_)" r="13.256"/><circle cx="281.754" cy="85.793" fill="url(#SVGID_8_)" r="7.528"/></g></g><path d="m282.647 67.086c-15.339.268-27.647 12.772-27.647 28.131v122.922l-15.437-10.793c-10.191-7.125-16.261-18.776-16.261-31.211v-109.111c10.288.165 20.885.258 31.698.258 9.401 0 18.637-.062 27.647-.196z" fill="url(#SVGID_9_)"/><path d="m176.51 65.625c-2.27-.101-4.509-.208-6.725-.318v35.881c14.219.946 29.072 1.658 44.406 2.119z" fill="url(#SVGID_10_)"/><path d="m170.73 103.917h-5.67c-3.558 0-6.443-2.884-6.443-6.443v-29.017c0-3.558 2.884-6.443 6.443-6.443h5.67c3.558 0 6.443 2.884 6.443 6.443v29.017c0 3.559-2.885 6.443-6.443 6.443z" fill="url(#SVGID_11_)"/><path d="m382.905 97.464c-12.184 1.34-25.08 2.495-38.563 3.443v-35.811c1.979-.103 3.938-.206 5.876-.32z" fill="url(#SVGID_12_)"/><path d="m344.94 103.917h-5.67c-3.558 0-6.443-2.884-6.443-6.443v-29.017c0-3.558 2.884-6.443 6.443-6.443h5.67c3.558 0 6.443 2.884 6.443 6.443v29.017c-.001 3.559-2.885 6.443-6.443 6.443z" fill="url(#SVGID_13_)"/><path d="m12.734 333.347-12.155 56.654c-2.807 13.082 4.829 26.146 17.605 30.12l177.468 55.208c15.489 4.818 31.539-5.646 33.378-21.763l6.231-54.599c-39.365-11.648-155.041-45.738-222.527-65.62z" fill="url(#SVGID_14_)"/><path d="m497.266 333.347 12.155 56.655c2.807 13.082-4.829 26.146-17.605 30.12l-177.468 55.208c-15.489 4.818-31.539-5.646-33.378-21.763l-6.231-54.599c39.365-11.649 155.041-45.739 222.527-65.621z" fill="url(#SVGID_15_)"/><path d="m108.808 230.666c-1.978-3-4.952-5.359-8.623-6.501l-52.22-16.245c-2.784-.866-5.611-.932-8.249-.344l-12.443 58-12.02 56.029 141.679 141.679 38.719 12.045c15.489 4.818 31.539-5.646 33.378-21.763l10.517-92.161z" fill="url(#SVGID_16_)"/><g><path d="m32.254 219.936-19.98 93.132c-.941 4.387 1.611 8.77 5.892 10.117l44.809 14.095c11.595 3.607 23.785-3.518 26.332-15.39l17.265-80.475c.943-4.398-1.623-8.789-5.918-10.125l-57.317-17.831c-4.88-1.518-10.01 1.48-11.083 6.477z" fill="url(#SVGID_17_)"/><path d="m109.676 249.591 1.442-6.721c1.743-8.124-2.999-16.237-10.933-18.705l-52.22-16.245c-9.016-2.805-18.494 2.735-20.475 11.967l-1.071 4.994c-.684 3.19 1.177 6.376 4.293 7.345l70.924 22.064c3.54 1.101 7.262-1.074 8.04-4.699z" fill="url(#SVGID_18_)"/></g><path d="m509.421 390.001-37.893-176.625c-1.539-.424-3.215-.43-4.864.083l-57.317 17.831c-4.295 1.336-5.83 5.727-4.886 10.125l17.265 80.475c1.004 4.68 2.478 8.617 5.852 11.455l77.394 77.394c4.237-5.775 6.055-13.252 4.449-20.738z" fill="url(#SVGID_19_)"/><g><path d="m477.746 219.936 19.98 93.132c.941 4.387-1.611 8.77-5.892 10.117l-44.809 14.095c-11.595 3.607-23.785-3.518-26.332-15.39l-17.265-80.475c-.943-4.398 1.623-8.789 5.918-10.125l57.317-17.831c4.88-1.518 10.01 1.48 11.083 6.477z" fill="url(#SVGID_20_)"/><path d="m400.324 249.591-1.442-6.721c-1.743-8.124 2.999-16.237 10.933-18.705l52.219-16.245c9.016-2.805 18.494 2.735 20.475 11.967l1.071 4.994c.684 3.19-1.177 6.376-4.293 7.345l-70.924 22.064c-3.539 1.101-7.261-1.074-8.039-4.699z" fill="url(#SVGID_21_)"/></g><g><path d="m122.693 96.958c-4.525 30.461-30.801 53.83-62.52 53.83-2.763 0-5.494-.175-8.164-.526l13.411-62.478c16.215 3.567 35.554 6.669 57.273 9.174z" fill="url(#SVGID_22_)"/><path d="m457.991 150.263c-2.67.35-5.402.526-8.164.526-31.719 0-57.994-23.369-62.52-53.83 21.72-2.505 41.058-5.608 57.273-9.174z" fill="url(#SVGID_23_)"/></g></g></svg>