<svg id="Capa_1" enable-background="new 0 0 510 510" height="512" viewBox="0 0 510 510" width="512" xmlns="http://www.w3.org/2000/svg" xmlns:xlink="http://www.w3.org/1999/xlink"><linearGradient id="lg1"><stop offset="0" stop-color="#ff637b"/><stop offset="1" stop-color="#e63950"/></linearGradient><linearGradient id="SVGID_1_" gradientUnits="userSpaceOnUse" x1="212.613" x2="356.763" xlink:href="#lg1" y1="180.34" y2="379.726"/><linearGradient id="lg2"><stop offset="0" stop-color="#e63950" stop-opacity="0"/><stop offset=".0467" stop-color="#e4354b" stop-opacity=".047"/><stop offset=".4669" stop-color="#d31822" stop-opacity=".467"/><stop offset=".7991" stop-color="#c90709" stop-opacity=".799"/><stop offset="1" stop-color="#c50000"/></linearGradient><linearGradient id="SVGID_2_" gradientUnits="userSpaceOnUse" x1="345.821" x2="253.102" xlink:href="#lg2" y1="157.962" y2="-42.929"/><linearGradient id="SVGID_3_" gradientUnits="userSpaceOnUse" x1="324.27" x2="114.146" xlink:href="#lg2" y1="168.011" y2="86.797"/><linearGradient id="SVGID_4_" gradientUnits="userSpaceOnUse" x1="255" x2="255" xlink:href="#lg2" y1="431.746" y2="501.595"/><linearGradient id="SVGID_5_" gradientUnits="userSpaceOnUse" x1="255" x2="255" xlink:href="#lg1" y1="33.625" y2="63.025"/><linearGradient id="lg3"><stop offset="0" stop-color="#edf5ff"/><stop offset="1" stop-color="#d5e8fe"/></linearGradient><linearGradient id="SVGID_6_" gradientUnits="userSpaceOnUse" x1="244.865" x2="261.224" xlink:href="#lg3" y1="105.848" y2="142.971"/><linearGradient id="SVGID_7_" gradientUnits="userSpaceOnUse" x1="260.495" x2="217.955" y1="129.086" y2="118.451"><stop offset="0" stop-color="#b5dbff" stop-opacity="0"/><stop offset=".2428" stop-color="#93cef6" stop-opacity=".243"/><stop offset=".5763" stop-color="#6abfec" stop-opacity=".576"/><stop offset=".8403" stop-color="#51b5e5" stop-opacity=".84"/><stop offset="1" stop-color="#48b2e3"/></linearGradient><linearGradient id="SVGID_8_" gradientUnits="userSpaceOnUse" x1="200.636" x2="210.305" xlink:href="#lg3" y1="78.513" y2="101.716"/><linearGradient id="SVGID_9_" gradientUnits="userSpaceOnUse" x1="298.308" x2="326.971" xlink:href="#lg3" y1="71.503" y2="100.166"/><linearGradient id="SVGID_10_" gradientUnits="userSpaceOnUse" x1="55.032" x2="55.032" xlink:href="#lg2" y1="142.954" y2="286.074"/><linearGradient id="SVGID_11_" gradientTransform="matrix(-1 0 0 1 2371.679 0)" gradientUnits="userSpaceOnUse" x1="1916.711" x2="1916.711" xlink:href="#lg2" y1="142.954" y2="286.074"/><linearGradient id="SVGID_12_" gradientUnits="userSpaceOnUse" x1="51.294" x2="41.381" xlink:href="#lg3" y1="176.013" y2="185.926"/><linearGradient id="SVGID_13_" gradientTransform="matrix(-1 0 0 1 79.993 0)" gradientUnits="userSpaceOnUse" x1="-378.713" x2="-388.626" xlink:href="#lg3" y1="176.013" y2="185.926"/><g><path d="m496.482 133.855-32.144-32.144c-35.82-35.82-84.401-55.943-135.058-55.943h-148.56c-50.657 0-99.238 20.123-135.058 55.943l-32.144 32.144c-6.745 6.745-6.745 17.68 0 24.425l55.851 55.851c6.745 6.745 17.68 6.745 24.425 0l7.811-4.778v251.357c0 9.538 7.732 17.271 17.271 17.271h272.248c9.538 0 17.271-7.732 17.271-17.271v-251.357l7.811 4.778c6.745 6.745 17.68 6.745 24.425 0l55.851-55.851c6.744-6.745 6.744-17.68 0-24.425z" fill="url(#SVGID_1_)"/><path d="m496.484 158.279-24.673 24.673-31.18 31.18c-6.748 6.739-17.683 6.739-24.422 0l-7.812-4.776v157.728c-47.587-47.655-238.419-238.303-239.26-239.163-.996-1.035-.667-2.446-.667-4.061v-62.128c0-6.43 3.123-12.269 8.083-15.895 1.702-.048 2.455-.068 4.167-.068h148.562c1.711 0 3.413.019 5.114.068 48.805 1.305 95.329 21.26 129.941 55.873l32.147 32.147c6.739 6.739 6.739 17.683 0 24.422z" fill="url(#SVGID_2_)"/><path d="m496.484 158.279-24.673 24.673-31.18 31.18c-6.748 6.739-17.683 6.739-24.422 0l-7.812-4.776v129.119l-165.086-165.085c-.725-.774-1.17-1.808-1.17-2.949v-124.671h87.14c1.711 0 3.413.019 5.114.068 48.805 1.305 95.329 21.26 129.941 55.873l32.147 32.147c6.74 6.738 6.74 17.682.001 24.421z" fill="url(#SVGID_3_)"/><path d="m101.605 372.553v88.157c0 9.538 7.732 17.271 17.271 17.271h272.248c9.538 0 17.271-7.732 17.271-17.271v-88.157z" fill="url(#SVGID_4_)"/><path d="m315.118 40.929c-39.194-11.879-81.041-11.879-120.236 0-6.977 2.115-10.501 9.835-7.591 16.52 11.65 26.76 37.584 31.237 67.709 31.237s56.059-4.477 67.709-31.237c2.91-6.685-.614-14.406-7.591-16.52z" fill="url(#SVGID_5_)"/><g><g><path d="m263.539 174.754h-17.078c-2.383 0-4.316-1.932-4.316-4.316v-83.183c0-2.383 1.932-4.316 4.316-4.316h17.078c2.383 0 4.316 1.932 4.316 4.316v83.183c0 2.383-1.933 4.316-4.316 4.316z" fill="url(#SVGID_6_)"/><path d="m263.539 82.939h-8.539v91.815h8.539c2.383 0 4.316-1.932 4.316-4.316v-83.184c0-2.383-1.933-4.315-4.316-4.315z" fill="url(#SVGID_7_)"/></g><g><path d="m255 82.939c-28.791 0-40.069-17.927-47.057-36.277-1.399-3.674-2.094-6.116-2.431-7.525-.2-.836-1.029-1.351-1.868-1.166l-21.058 4.645c-8.843 2.12-15.078 10.027-15.078 19.12v62.122c0 4.318 4.51 7.155 8.402 5.284l76.894-36.962c1.343-.645 2.197-2.003 2.197-3.493v-5.748z" fill="url(#SVGID_8_)"/><path d="m255 88.686c0 1.49.854 2.848 2.197 3.493l76.894 36.962c3.892 1.871 8.402-.965 8.402-5.284v-62.121c0-9.093-6.235-17-15.078-19.12l-21.058-4.645c-.839-.185-1.668.331-1.868 1.166-.337 1.409-1.032 3.85-2.431 7.525-6.988 18.35-18.267 36.277-47.057 36.277v5.747z" fill="url(#SVGID_9_)"/></g></g><g><path d="m45.662 101.711-32.144 32.144c-6.744 6.745-6.744 17.68 0 24.425l55.851 55.851c6.745 6.744 17.68 6.744 24.425 0l7.811-4.778v-146.414c-20.623 9.386-39.612 22.442-55.943 38.772z" fill="url(#SVGID_10_)"/></g><g><path d="m464.338 101.711 32.144 32.144c6.744 6.745 6.744 17.68 0 24.425l-55.851 55.851c-6.745 6.744-17.68 6.744-24.425 0l-7.811-4.778v-146.414c20.623 9.386 39.612 22.442 55.943 38.772z" fill="url(#SVGID_11_)"/></g><g><path d="m75.75 225.285-73.728-73.728c-2.696-2.696-2.696-7.066 0-9.762l5.761-5.761c2.696-2.696 7.066-2.696 9.762 0l73.728 73.728c2.696 2.696 2.696 7.066 0 9.762l-5.761 5.761c-2.696 2.696-7.066 2.696-9.762 0z" fill="url(#SVGID_12_)"/><path d="m434.25 225.285 73.728-73.728c2.696-2.696 2.696-7.066 0-9.762l-5.761-5.761c-2.696-2.696-7.066-2.696-9.762 0l-73.728 73.728c-2.696 2.696-2.696 7.066 0 9.762l5.761 5.761c2.696 2.696 7.066 2.696 9.762 0z" fill="url(#SVGID_13_)"/></g></g></svg>