<svg id="Capa_1" enable-background="new 0 0 510 510" height="512" viewBox="0 0 510 510" width="512" xmlns="http://www.w3.org/2000/svg" xmlns:xlink="http://www.w3.org/1999/xlink"><linearGradient id="lg1"><stop offset="0" stop-color="#edf5ff"/><stop offset="1" stop-color="#d5e8fe"/></linearGradient><linearGradient id="SVGID_1_" gradientUnits="userSpaceOnUse" x1="211.158" x2="360.255" xlink:href="#lg1" y1="177.778" y2="384.006"/><linearGradient id="lg2"><stop offset="0" stop-color="#b5dbff" stop-opacity="0"/><stop offset=".2428" stop-color="#93cef6" stop-opacity=".243"/><stop offset=".5763" stop-color="#6abfec" stop-opacity=".576"/><stop offset=".8403" stop-color="#51b5e5" stop-opacity=".84"/><stop offset="1" stop-color="#48b2e3"/></linearGradient><linearGradient id="SVGID_2_" gradientUnits="userSpaceOnUse" x1="348.937" x2="253.037" xlink:href="#lg2" y1="154.632" y2="-53.152"/><linearGradient id="SVGID_3_" gradientUnits="userSpaceOnUse" x1="255" x2="255" xlink:href="#lg2" y1="437.811" y2="510.057"/><linearGradient id="SVGID_4_" gradientUnits="userSpaceOnUse" x1="309.872" x2="53.385" xlink:href="#lg2" y1="265.374" y2="316.371"/><linearGradient id="SVGID_5_" gradientUnits="userSpaceOnUse" x1="385.95" x2="124.956" xlink:href="#lg2" y1="262.11" y2="262.11"/><linearGradient id="SVGID_6_" gradientUnits="userSpaceOnUse" x1="255" x2="255" y1="26.028" y2="56.438"><stop offset="0" stop-color="#edf5ff"/><stop offset="1" stop-color="#b5dbff"/></linearGradient><linearGradient id="lg3"><stop offset="0" stop-color="#ff637b"/><stop offset="1" stop-color="#f90217"/></linearGradient><linearGradient id="SVGID_7_" gradientUnits="userSpaceOnUse" x1="226" x2="308.314" xlink:href="#lg3" y1="260.554" y2="260.554"/><linearGradient id="lg4"><stop offset="0" stop-color="#e63950" stop-opacity="0"/><stop offset=".0467" stop-color="#e4354b" stop-opacity=".047"/><stop offset=".4669" stop-color="#d31822" stop-opacity=".467"/><stop offset=".7991" stop-color="#c90709" stop-opacity=".799"/><stop offset="1" stop-color="#c50000"/></linearGradient><linearGradient id="SVGID_8_" gradientUnits="userSpaceOnUse" x1="304.663" x2="59.663" xlink:href="#lg4" y1="193.511" y2="50.511"/><linearGradient id="SVGID_9_" gradientUnits="userSpaceOnUse" x1="282.643" x2="237.876" xlink:href="#lg4" y1="145.024" y2="100.256"/><linearGradient id="SVGID_10_" gradientUnits="userSpaceOnUse" x1="242.202" x2="268.59" xlink:href="#lg3" y1="85.218" y2="111.606"/><linearGradient id="SVGID_11_" gradientUnits="userSpaceOnUse" x1="198.771" x2="208.771" xlink:href="#lg1" y1="72.457" y2="96.457"/><linearGradient id="SVGID_12_" gradientUnits="userSpaceOnUse" x1="299.794" x2="329.441" xlink:href="#lg1" y1="65.206" y2="94.853"/><linearGradient id="SVGID_13_" gradientUnits="userSpaceOnUse" x1="48.171" x2="48.171" xlink:href="#lg2" y1="139.109" y2="287.14"/><linearGradient id="SVGID_14_" gradientTransform="matrix(-1 0 0 1 1307.678 0)" gradientUnits="userSpaceOnUse" x1="845.849" x2="845.849" xlink:href="#lg2" y1="139.109" y2="287.14"/><linearGradient id="SVGID_15_" gradientUnits="userSpaceOnUse" x1="262.997" x2="186.33" xlink:href="#lg4" y1="258.77" y2="280.104"/><linearGradient id="SVGID_16_" gradientUnits="userSpaceOnUse" x1="287.698" x2="268.364" xlink:href="#lg4" y1="328.942" y2="295.609"/><linearGradient id="SVGID_17_" gradientUnits="userSpaceOnUse" x1="274.491" x2="274.491" y1="302.456" y2="314.931"><stop offset="0" stop-color="#ffda2d"/><stop offset="1" stop-color="#fdbf00"/></linearGradient><g><path d="m504.768 129.698-33.247-33.247c-37.049-37.049-87.298-57.862-139.692-57.862h-153.658c-52.395 0-102.644 20.814-139.692 57.862l-33.247 33.247c-6.976 6.976-6.976 18.287 0 25.263l57.768 57.768c6.976 6.976 18.287 6.976 25.263 0l8.079-4.942v259.982c0 9.866 7.998 17.863 17.863 17.863h281.59c9.866 0 17.863-7.998 17.863-17.863v-259.982l8.079 4.942c6.976 6.976 18.286 6.976 25.263 0l57.768-57.768c6.976-6.976 6.976-18.286 0-25.263z" fill="url(#SVGID_1_)"/><path d="m504.77 154.96-25.52 25.52-32.25 32.25c-6.98 6.97-18.29 6.97-25.26 0l-8.08-4.94v163.14c-49.22-49.29-246.6-246.48-247.47-247.37-1.03-1.07-.689-2.53-.689-4.2v-64.26c0-6.65 3.23-12.69 8.36-16.44 1.76-.05 2.539-.07 4.309-.07h153.66c1.77 0 3.53.02 5.29.07 50.48 1.35 98.6 21.99 134.4 57.79l33.25 33.25c6.97 6.97 6.97 18.29 0 25.26z" fill="url(#SVGID_2_)"/><path d="m96.342 376.586v91.182c0 9.866 7.998 17.863 17.863 17.863h281.59c9.866 0 17.863-7.998 17.863-17.863v-91.182z" fill="url(#SVGID_3_)"/><path d="m471.521 96.451c-37.049-37.048-87.298-57.862-139.692-57.862h-76.829v447.043h140.795c9.866 0 17.863-7.998 17.863-17.863v-259.982l8.079 4.942c6.976 6.976 18.286 6.976 25.263 0l57.768-57.768c6.976-6.976 6.976-18.286 0-25.262z" fill="url(#SVGID_4_)"/><path d="m471.521 96.451c-37.049-37.048-87.298-57.862-139.692-57.862h-76.829v39.114c-5.779 0-11.557.633-17.197 1.9-8.717 1.958-10.616 10.78-8.314 19.84 1.533 6.035 2.664 9.097 5.246 13.379 1.197 1.985 1.885 5.645 3.821 6.932 1.136 1.764 3.654 4.265 5.391 5.455l-29.011 223.536c-2.012 15.056 2.896 29.214 13.351 40.233l9.951 13.595 83.06 83.06h74.498c9.866 0 17.863-7.998 17.863-17.863v-259.983l8.079 4.942c6.976 6.976 18.286 6.976 25.263 0l57.768-57.768c6.976-6.976 6.976-18.286 0-25.262z" fill="url(#SVGID_5_)"/><path d="m317.181 33.583c-40.539-12.287-83.822-12.287-124.361 0-7.217 2.187-10.862 10.173-7.852 17.087 12.05 27.679 38.874 32.309 70.032 32.309 31.159 0 57.983-4.631 70.032-32.309 3.01-6.914-.635-14.9-7.851-17.087z" fill="url(#SVGID_6_)"/><path d="m265.333 111.333h-10.333-10.333l-31.732 237.411c-2.012 15.056 2.896 30.214 13.351 41.233l11.951 12.595c9.112 9.603 24.414 9.603 33.526 0l11.951-12.595c10.455-11.019 15.364-26.177 13.351-41.233z" fill="url(#SVGID_7_)"/><path d="m282.504 239.798-17.171-128.465h-10.333-10.333l-10.689 79.972c15.104 15.093 31.666 31.644 48.526 48.493z" fill="url(#SVGID_8_)"/><path d="m265.333 111.333h-10.333-10.333l-1.426 10.669 27.147 27.147z" fill="url(#SVGID_9_)"/><path d="m282.512 99.444c2.301-9.061-1.597-17.882-10.314-19.84-11.28-2.534-23.115-2.534-34.395 0-8.717 1.958-12.616 10.78-10.314 19.84 1.533 6.035 3.664 11.097 6.246 15.379 2.638 4.376 7.621 7.278 12.516 7.803 5.865.628 11.635.628 17.5 0 4.895-.525 9.878-3.427 12.516-7.803 2.581-4.283 4.712-9.344 6.245-15.379z" fill="url(#SVGID_10_)"/><g><g><path d="m255 77.035c-29.779 0-41.444-18.542-48.672-37.522-1.447-3.8-2.166-6.326-2.515-7.783-.207-.864-1.064-1.398-1.933-1.206l-21.78 4.804c-9.146 2.193-15.595 10.371-15.595 19.776v64.253c0 4.467 4.665 7.4 8.691 5.465l79.533-38.23c1.389-.668 2.272-2.072 2.272-3.613v-5.944z" fill="url(#SVGID_11_)"/><path d="m255 82.979c0 1.541.883 2.945 2.272 3.613l79.533 38.23c4.026 1.935 8.691-.999 8.691-5.465v-64.253c0-9.405-6.449-17.583-15.595-19.776l-21.781-4.804c-.868-.191-1.726.342-1.933 1.206-.349 1.457-1.067 3.982-2.515 7.783-7.228 18.979-18.893 37.522-48.672 37.522z" fill="url(#SVGID_12_)"/></g></g><g><path d="m38.479 96.451-33.247 33.247c-6.976 6.976-6.976 18.286 0 25.263l57.768 57.768c6.976 6.976 18.287 6.976 25.263 0l8.079-4.942v-151.438c-21.331 9.708-40.972 23.211-57.863 40.102z" fill="url(#SVGID_13_)"/></g><g><path d="m471.521 96.451 33.247 33.247c6.976 6.976 6.976 18.286 0 25.263l-57.768 57.768c-6.976 6.976-18.287 6.976-25.263 0l-8.079-4.942v-151.438c21.331 9.708 40.972 23.211 57.863 40.102z" fill="url(#SVGID_14_)"/></g><path d="m271.763 402.572 11.951-12.595c10.455-11.019 15.364-26.177 13.351-41.233l-31.732-237.411h-10.333v298.442c6.103 0 12.207-2.401 16.763-7.203z" fill="url(#SVGID_15_)"/><g><path d="m297.066 348.744-7.049-52.739h-33.337c-2.022 0-3.142 1.121-3.142 3.143v6.285c0 1.336.194 2.499 1.257 3.143l42.517 42.513c-.067-.781-.142-1.563-.246-2.345z" fill="url(#SVGID_16_)"/><path d="m292.3 309.101h-35.618c-2.025 0-3.667-1.642-3.667-3.667v-6.286c0-2.025 1.642-3.667 3.667-3.667h35.618c2.025 0 3.667 1.642 3.667 3.667v6.286c-.001 2.025-1.642 3.667-3.667 3.667z" fill="url(#SVGID_17_)"/></g></g></svg>