<svg id="Capa_1" enable-background="new 0 0 510 510" height="512" viewBox="0 0 510 510" width="512" xmlns="http://www.w3.org/2000/svg" xmlns:xlink="http://www.w3.org/1999/xlink"><linearGradient id="SVGID_1_" gradientUnits="userSpaceOnUse" x1="211.158" x2="360.255" y1="177.778" y2="384.006"><stop offset="0" stop-color="#edf5ff"/><stop offset="1" stop-color="#d5e8fe"/></linearGradient><linearGradient id="lg1"><stop offset="0" stop-color="#b5dbff" stop-opacity="0"/><stop offset=".2428" stop-color="#93cef6" stop-opacity=".243"/><stop offset=".5763" stop-color="#6abfec" stop-opacity=".576"/><stop offset=".8403" stop-color="#51b5e5" stop-opacity=".84"/><stop offset="1" stop-color="#48b2e3"/></linearGradient><linearGradient id="SVGID_2_" gradientUnits="userSpaceOnUse" x1="255" x2="255" xlink:href="#lg1" y1="437.811" y2="510.057"/><linearGradient id="lg2"><stop offset="0" stop-color="#ff637b"/><stop offset="1" stop-color="#e63950"/></linearGradient><linearGradient id="SVGID_3_" gradientUnits="userSpaceOnUse" x1="255" x2="255" xlink:href="#lg2" y1="26.443" y2="64.443"/><linearGradient id="SVGID_4_" gradientUnits="userSpaceOnUse" x1="230.945" x2="294.284" xlink:href="#lg2" y1="15.098" y2="98.869"/><linearGradient id="SVGID_5_" gradientUnits="userSpaceOnUse" x1="48.171" x2="48.171" xlink:href="#lg1" y1="139.109" y2="287.14"/><linearGradient id="SVGID_6_" gradientTransform="matrix(-1 0 0 1 -1884.322 0)" gradientUnits="userSpaceOnUse" x1="-2346.151" x2="-2346.151" xlink:href="#lg1" y1="139.109" y2="287.14"/><linearGradient id="SVGID_7_" gradientUnits="userSpaceOnUse" x1="377.465" x2="310.75" xlink:href="#lg1" y1="225.242" y2="123.677"/><linearGradient id="SVGID_8_" gradientUnits="userSpaceOnUse" x1="339.553" x2="339.553" xlink:href="#lg2" y1="176.976" y2="200.791"/><g><path d="m504.768 129.698-33.247-33.247c-37.049-37.049-87.298-57.862-139.692-57.862h-153.658c-52.395 0-102.644 20.814-139.692 57.862l-33.247 33.247c-6.976 6.976-6.976 18.287 0 25.263l57.768 57.768c6.976 6.976 18.287 6.976 25.263 0l8.079-4.942v259.982c0 9.866 7.998 17.863 17.863 17.863h281.59c9.866 0 17.863-7.998 17.863-17.863v-259.982l8.079 4.942c6.976 6.976 18.286 6.976 25.263 0l57.768-57.768c6.976-6.976 6.976-18.286 0-25.263z" fill="url(#SVGID_1_)"/><path d="m96.342 376.586v91.182c0 9.866 7.998 17.863 17.863 17.863h281.59c9.866 0 17.863-7.998 17.863-17.863v-91.182z" fill="url(#SVGID_2_)"/><path d="m317.181 33.583c-40.539-12.287-83.822-12.287-124.361 0-7.217 2.187-10.862 10.173-7.852 17.087 12.05 27.679 38.874 46.939 70.032 46.939 31.159 0 57.983-19.261 70.032-46.939 3.01-6.914-.635-14.9-7.851-17.087z" fill="url(#SVGID_3_)"/><path d="m320.207 33.004c-6.356-3.056-14.025-.082-16.534 6.509-7.229 18.979-18.894 37.522-48.673 37.522s-41.444-18.542-48.672-37.522c-2.51-6.59-10.179-9.565-16.534-6.509l-3.391 1.63c-4.996 2.402-7.353 8.196-5.477 13.411 10.915 30.351 39.965 52.049 74.075 52.049 34.109 0 63.159-21.698 74.075-52.049 1.876-5.216-.482-11.009-5.477-13.411z" fill="url(#SVGID_4_)"/><g><path d="m38.479 96.451-33.247 33.247c-6.976 6.976-6.976 18.286 0 25.263l57.768 57.768c6.976 6.976 18.287 6.976 25.263 0l8.079-4.942v-151.438c-21.331 9.708-40.972 23.211-57.863 40.102z" fill="url(#SVGID_5_)"/></g><g><path d="m471.521 96.451 33.247 33.247c6.976 6.976 6.976 18.286 0 25.263l-57.768 57.768c-6.976 6.976-18.287 6.976-25.263 0l-8.079-4.942v-151.438c21.331 9.708 40.972 23.211 57.863 40.102z" fill="url(#SVGID_6_)"/></g><path d="m413.66 201.169v99.19l-111.71-111.7c-2.03-1.23-2.399-3.45-2.399-6v-12c0-3.86 2.139-5.999 5.999-5.999h68c2.55 0 4.77.369 6 2.399z" fill="url(#SVGID_7_)"/><path d="m373.553 189.662h-68c-3.866 0-7-3.134-7-7v-12c0-3.866 3.134-7 7-7h68c3.866 0 7 3.134 7 7v12c0 3.866-3.134 7-7 7z" fill="url(#SVGID_8_)"/></g></svg>