<svg id="Capa_1" enable-background="new 0 0 510 510" height="512" viewBox="0 0 510 510" width="512" xmlns="http://www.w3.org/2000/svg" xmlns:xlink="http://www.w3.org/1999/xlink"><linearGradient id="SVGID_1_" gradientUnits="userSpaceOnUse" x1="251.792" x2="278.79" y1="336.92" y2="399.917"><stop offset="0" stop-color="#0b799d"/><stop offset="1" stop-color="#07485e"/></linearGradient><linearGradient id="SVGID_2_" gradientUnits="userSpaceOnUse" x1="267.872" x2="293.421" y1="101.089" y2="109.976"><stop offset="0" stop-color="#b5dbff"/><stop offset="1" stop-color="#48b2e3"/></linearGradient><linearGradient id="SVGID_3_" gradientUnits="userSpaceOnUse" x1="174.863" x2="275.761" y1="174.626" y2="343.37"><stop offset="0" stop-color="#edf5ff"/><stop offset="1" stop-color="#b5dbff"/></linearGradient><linearGradient id="lg1"><stop offset="0" stop-color="#b5dbff" stop-opacity="0"/><stop offset=".0228" stop-color="#b1d8fc" stop-opacity=".023"/><stop offset=".5017" stop-color="#58a5c9" stop-opacity=".502"/><stop offset=".8381" stop-color="#2185a9" stop-opacity=".838"/><stop offset="1" stop-color="#0b799d"/></linearGradient><linearGradient id="SVGID_4_" gradientUnits="userSpaceOnUse" x1="247.327" x2="274.327" xlink:href="#lg1" y1="306.146" y2="369.146"/><linearGradient id="lg2"><stop offset="0" stop-color="#ff637b"/><stop offset="1" stop-color="#e63950"/></linearGradient><linearGradient id="SVGID_5_" gradientUnits="userSpaceOnUse" x1="125.054" x2="125.054" xlink:href="#lg2" y1="325.402" y2="437.777"/><linearGradient id="SVGID_6_" gradientUnits="userSpaceOnUse" x1="210.741" x2="392.915" xlink:href="#lg1" y1="188.22" y2="310.41"/><linearGradient id="SVGID_7_" gradientUnits="userSpaceOnUse" x1="203.089" x2="79.765" xlink:href="#lg1" y1="323.298" y2="199.974"/><linearGradient id="SVGID_8_" gradientTransform="matrix(-.707 .707 -.707 -.707 -2096.859 1404.607)" gradientUnits="userSpaceOnUse" x1="-2396.835" x2="-2371.656" xlink:href="#lg2" y1="-785.351" y2="-785.351"/><linearGradient id="SVGID_9_" gradientUnits="userSpaceOnUse" x1="253.848" x2="96.21" xlink:href="#lg1" y1="311.695" y2="154.057"/><linearGradient id="SVGID_10_" gradientTransform="matrix(-.635 .773 -.773 -.635 -1979.474 1465.135)" gradientUnits="userSpaceOnUse" x1="-2323.923" x2="-2298.744" xlink:href="#lg2" y1="-902.354" y2="-902.354"/><linearGradient id="SVGID_11_" gradientUnits="userSpaceOnUse" x1="286.812" x2="126.362" xlink:href="#lg1" y1="281.044" y2="120.594"/><linearGradient id="SVGID_12_" gradientTransform="matrix(-.525 .851 -.851 -.525 -1802.638 1536.715)" gradientUnits="userSpaceOnUse" x1="-2192.831" x2="-2167.652" xlink:href="#lg2" y1="-1029.919" y2="-1029.919"/><linearGradient id="SVGID_13_" gradientUnits="userSpaceOnUse" x1="303.254" x2="126.754" xlink:href="#lg1" y1="235.722" y2="59.222"/><linearGradient id="SVGID_14_" gradientTransform="matrix(-.302 .953 -.953 -.302 -1458.865 1599.876)" gradientUnits="userSpaceOnUse" x1="-1877.036" x2="-1851.857" xlink:href="#lg2" y1="-1193.701" y2="-1193.701"/><linearGradient id="SVGID_15_" gradientUnits="userSpaceOnUse" x1="125.054" x2="125.054" y1="366.546" y2="407.283"><stop offset="0" stop-color="#e63950" stop-opacity="0"/><stop offset=".0467" stop-color="#e4354b" stop-opacity=".047"/><stop offset=".4669" stop-color="#d31822" stop-opacity=".467"/><stop offset=".7991" stop-color="#c90709" stop-opacity=".799"/><stop offset="1" stop-color="#c50000"/></linearGradient><linearGradient id="SVGID_16_" gradientUnits="userSpaceOnUse" x1="459.779" x2="249.747" xlink:href="#lg1" y1="240.949" y2="154.9"/><linearGradient id="SVGID_17_" gradientUnits="userSpaceOnUse" x1="440.785" x2="466.933" xlink:href="#lg2" y1="233.423" y2="286.372"/><g><path d="m158.432 437.934h-130.905c-15.203 0-27.527-12.325-27.527-27.528s12.324-27.527 27.527-27.527h130.905c34.935 0 68.334-10.864 96.586-31.416l16.51-12.011c37.725-27.444 82.323-41.951 128.974-41.951 15.443 0 29.961-6.014 40.88-16.933l21.626-21.626c10.75-10.75 28.179-10.75 38.93 0 10.75 10.75 10.75 28.179 0 38.93l-21.626 21.626c-21.318 21.318-49.661 33.059-79.81 33.059-34.936 0-68.334 10.864-96.586 31.416l-16.51 12.011c-37.725 27.444-82.323 41.95-128.974 41.95z" fill="url(#SVGID_1_)"/><path d="m247.996 126.366s11.642-13.878 13.943-43.857c.451-5.882 5.323-10.443 11.223-10.443 12.423 0 22.494 10.071 22.494 22.494v31.806z" fill="url(#SVGID_2_)"/><path d="m492.014 259.446c-9.493 32.126-38.997 54.172-72.496 54.172h-15.48c-35.245 0-68.938 10.96-97.439 31.694l-16.656 12.118c-38.058 27.687-83.05 42.321-130.113 42.321l-132.062-.001c-15.335-.001-27.768-12.434-27.768-27.771v-.033c0-60.424 48.984-109.408 109.408-109.408h.033c1.018 0 2.035-.013 3.05-.038 48.158-1.198 90.454-32.422 107.2-77.591l14.236-38.4c12.279-33.121 46.081-53.111 81.02-47.916l44.227 5.471c9.315 1.152 18.448-3.228 23.381-11.213 9.846-15.937 33.336-14.969 41.835 1.726l64.024 125.749c6.159 12.1 7.448 26.099 3.6 39.12z" fill="url(#SVGID_3_)"/><path d="m492.014 259.446c-9.493 32.126-38.997 54.172-72.496 54.172h-15.48c-35.245 0-68.938 10.96-97.439 31.694l-16.656 12.118c-38.058 27.687-83.05 42.321-130.113 42.321l-132.062-.001c-15.335-.001-27.768-12.434-27.768-27.771v-.033c0-60.424 48.984-109.408 109.408-109.408h.033c1.018 0 2.035-.013 3.05-.038 48.158-1.198 90.454-32.422 107.2-77.591l14.236-38.4c12.279-33.121 46.081-53.111 81.02-47.916l44.227 5.471c9.315 1.152 18.448-3.228 23.381-11.213 9.846-15.937 33.336-14.969 41.835 1.726l64.024 125.749c6.159 12.1 7.448 26.099 3.6 39.12z" fill="url(#SVGID_4_)"/><path d="m250.107 380.537-9.307-9.307c-24.811-24.811-58.462-38.749-93.55-38.749-26.584 0-48.135-21.551-48.135-48.135 0-11.761-11.398-20.291-22.615-16.755-44.344 13.978-76.5 55.425-76.5 104.388 0 15.337 12.433 27.77 27.77 27.77h132.061c31.508.001 62.084-6.568 90.276-19.212z" fill="url(#SVGID_5_)"/><path d="m233.926 146.51-14.236 38.4c-15.682 42.299-53.77 72.366-98.096 77.001 32.385 22.294 74.967 23.045 108.118 1.905l5.59-3.564c28.186-17.974 45.248-49.09 45.248-82.519v-76.183c-21.014 6.946-38.514 23.086-46.624 44.96z" fill="url(#SVGID_6_)"/><path d="m125.231 261.463c.436 2.861 1.741 5.615 3.944 7.818l114.159 114.159c9.152-3.74 18.069-8.11 26.706-13.091l-116.534-116.533c-8.974 3.699-18.455 6.303-28.275 7.647z" fill="url(#SVGID_7_)"/><path d="m129.175 249.383c5.495-5.495 14.404-5.495 19.898 0l19.945 19.945c5.495 5.495 5.495 14.404 0 19.898-5.495 5.495-14.404 5.495-19.898 0l-19.945-19.945c-5.495-5.494-5.495-14.403 0-19.898z" fill="url(#SVGID_8_)"/><path d="m211.746 248.029c-.695-.962-1.508-1.86-2.468-2.649l-18.992-15.609c-6.905 6.635-14.573 12.415-22.842 17.192.63.81 1.348 1.568 2.174 2.247l113.277 113.141c2.374-1.593 4.724-3.233 7.048-4.923l16.656-12.118c.47-.342.945-.674 1.418-1.011z" fill="url(#SVGID_9_)"/><path d="m167.683 229.407c4.934-6.003 13.801-6.87 19.804-1.936l21.792 17.91c6.003 4.934 6.87 13.801 1.936 19.804-4.934 6.003-13.801 6.87-19.804 1.936l-21.792-17.91c-6.003-4.934-6.87-13.801-1.936-19.804z" fill="url(#SVGID_10_)"/><path d="m202.191 220.635 116.6 116.6c10.519-6.334 21.617-11.438 33.138-15.256l-106.064-106.065c-1.065-1.516-2.445-2.848-4.122-3.882l-24.004-14.814c-.894-.552-1.827-.982-2.779-1.313-4.054 8.299-9 16.026-14.713 23.054.589.606 1.235 1.171 1.944 1.676z" fill="url(#SVGID_11_)"/><path d="m198.377 201.802c4.081-6.613 12.75-8.665 19.363-4.584l24.004 14.814c6.613 4.081 8.665 12.75 4.584 19.363-4.081 6.613-12.75 8.665-19.363 4.584l-24.004-14.814c-6.613-4.081-8.665-12.75-4.584-19.363z" fill="url(#SVGID_12_)"/><path d="m269.472 173.272c-1.713-2.586-4.283-4.63-7.47-5.64l-26.889-8.521c-1.881-.596-3.794-.773-5.64-.588l-8.785 23.696c.715.751 1.512 1.433 2.393 2.018l135.648 135.648c14.597-4.143 29.803-6.267 45.311-6.267h5.779z" fill="url(#SVGID_13_)"/><path d="m217.449 168.274c2.347-7.408 10.256-11.51 17.663-9.163l26.889 8.521c7.408 2.347 11.51 10.256 9.162 17.663-2.347 7.408-10.256 11.51-17.663 9.162l-26.889-8.521c-7.407-2.346-11.509-10.255-9.162-17.662z" fill="url(#SVGID_14_)"/><path d="m0 371.979c0 15.337 12.433 27.771 27.77 27.771h132.061c31.508 0 62.084-6.569 90.276-19.213l-9.307-9.306c-13.249-13.249-29.021-23.395-46.184-29.977h-190.241c-2.846 9.748-4.375 20.058-4.375 30.725z" fill="url(#SVGID_15_)"/><path d="m440.74 126.694c-44.981 54.588-67.498 122.127-59.605 188.49 7.535-1.04 15.182-1.566 22.904-1.566h15.48c33.499 0 63.003-22.046 72.496-54.172 3.848-13.02 2.559-27.02-3.601-39.119z" fill="url(#SVGID_16_)"/><path d="m492.014 259.446c3.848-13.02 2.559-27.02-3.601-39.119l-20.286-39.844c-38.801 30.883-56.641 83.153-41.985 132.839 30.709-2.688 57.01-23.887 65.872-53.876z" fill="url(#SVGID_17_)"/></g></svg>