<svg id="Capa_1" enable-background="new 0 0 510 510" height="512" viewBox="0 0 510 510" width="512" xmlns="http://www.w3.org/2000/svg" xmlns:xlink="http://www.w3.org/1999/xlink"><linearGradient id="lg1"><stop offset="0" stop-color="#ffdecf"/><stop offset="1" stop-color="#faa68e"/></linearGradient><linearGradient id="SVGID_1_" gradientUnits="userSpaceOnUse" x1="33.412" x2="39.22" xlink:href="#lg1" y1="462.975" y2="483.186"/><linearGradient id="SVGID_2_" gradientUnits="userSpaceOnUse" x1="75.918" x2="81.725" xlink:href="#lg1" y1="462.975" y2="483.186"/><linearGradient id="SVGID_3_" gradientUnits="userSpaceOnUse" x1="118.423" x2="124.231" xlink:href="#lg1" y1="462.975" y2="483.186"/><linearGradient id="SVGID_4_" gradientUnits="userSpaceOnUse" x1="160.928" x2="166.736" xlink:href="#lg1" y1="462.975" y2="483.186"/><linearGradient id="SVGID_5_" gradientTransform="matrix(.947 -.323 .323 .947 -82.507 429.221)" gradientUnits="userSpaceOnUse" x1="259.189" x2="265.122" xlink:href="#lg1" y1="117.057" y2="137.706"/><linearGradient id="SVGID_6_" gradientTransform="matrix(.908 -.419 .419 .908 -77.219 571.409)" gradientUnits="userSpaceOnUse" x1="338.862" x2="344.835" xlink:href="#lg1" y1="14.576" y2="35.364"/><linearGradient id="SVGID_7_" gradientTransform="matrix(.829 -.56 .56 .829 -36.199 796.464)" gradientUnits="userSpaceOnUse" x1="461.75" x2="467.776" xlink:href="#lg1" y1="-136.521" y2="-115.549"/><linearGradient id="SVGID_8_" gradientTransform="matrix(.882 -.471 .471 .882 -68.916 649.669)" gradientUnits="userSpaceOnUse" x1="446.171" x2="452.165" xlink:href="#lg1" y1="-39.757" y2="-18.897"/><linearGradient id="SVGID_9_" gradientTransform="matrix(.971 -.24 .24 .971 -88.366 278.873)" gradientUnits="userSpaceOnUse" x1="393.069" x2="398.967" xlink:href="#lg1" y1="211.829" y2="232.354"/><linearGradient id="SVGID_10_" gradientTransform="matrix(.995 -.099 .099 .995 -58.898 61.416)" gradientUnits="userSpaceOnUse" x1="409.89" x2="415.728" xlink:href="#lg1" y1="364.552" y2="384.87"/><linearGradient id="SVGID_11_" gradientTransform="matrix(.917 -.398 .398 .917 -79.714 549.155)" gradientUnits="userSpaceOnUse" x1="530.733" x2="536.698" xlink:href="#lg1" y1="39.641" y2="60.399"/><linearGradient id="SVGID_12_" gradientTransform="matrix(.713 -.702 .702 .713 97.817 1114.528)" gradientUnits="userSpaceOnUse" x1="786.261" x2="792.327" xlink:href="#lg1" y1="-290.254" y2="-269.142"/><linearGradient id="SVGID_13_" gradientTransform="matrix(.713 -.702 .702 .713 97.817 1114.528)" gradientUnits="userSpaceOnUse" x1="827.613" x2="833.68" xlink:href="#lg1" y1="-289.083" y2="-267.971"/><linearGradient id="SVGID_14_" gradientUnits="userSpaceOnUse" x1="245.835" x2="279.749" xlink:href="#lg1" y1="360.178" y2="438.328"/><linearGradient id="SVGID_15_" gradientUnits="userSpaceOnUse" x1="256.731" x2="282.155" y1="381.495" y2="469.971"><stop offset="0" stop-color="#faa68e" stop-opacity="0"/><stop offset="1" stop-color="#c9766e"/></linearGradient><linearGradient id="SVGID_16_" gradientTransform="matrix(.776 -.631 .631 .776 253.769 804.129)" gradientUnits="userSpaceOnUse" x1="428.506" x2="457.73" xlink:href="#lg1" y1="-582.502" y2="-572.337"/><linearGradient id="SVGID_17_" gradientUnits="userSpaceOnUse" x1="144.33" x2="320.408" y1="174.609" y2="364.231"><stop offset="0" stop-color="#fcb37e"/><stop offset=".151" stop-color="#e2a06e"/><stop offset=".4015" stop-color="#bd8557"/><stop offset=".6346" stop-color="#a27247"/><stop offset=".8412" stop-color="#92663d"/><stop offset="1" stop-color="#8c6239"/></linearGradient><linearGradient id="lg2"><stop offset="0" stop-color="#8c6239" stop-opacity="0"/><stop offset=".3549" stop-color="#80572f" stop-opacity=".355"/><stop offset=".9948" stop-color="#603813" stop-opacity=".995"/><stop offset="1" stop-color="#603813"/></linearGradient><linearGradient id="SVGID_18_" gradientUnits="userSpaceOnUse" x1="210.859" x2="291.795" xlink:href="#lg2" y1="216.561" y2="256.694"/><linearGradient id="SVGID_19_" gradientUnits="userSpaceOnUse" x1="320.585" x2="102.859" xlink:href="#lg2" y1="213.994" y2="129.713"/><linearGradient id="SVGID_20_" gradientUnits="userSpaceOnUse" x1="300.4" x2="168.962" xlink:href="#lg2" y1="229.834" y2="164.115"/><linearGradient id="SVGID_21_" gradientUnits="userSpaceOnUse" x1="222.637" x2="83.521" xlink:href="#lg2" y1="371.709" y2="232.593"/><linearGradient id="SVGID_22_" gradientTransform="matrix(-.707 .707 -.707 -.707 627.683 276.065)" gradientUnits="userSpaceOnUse" x1="348.097" x2="373.36" xlink:href="#lg1" y1="322.078" y2="322.078"/><linearGradient id="SVGID_23_" gradientUnits="userSpaceOnUse" x1="262.952" x2="144.038" xlink:href="#lg2" y1="349.454" y2="230.54"/><linearGradient id="SVGID_24_" gradientTransform="matrix(-.635 .773 -.773 -.635 629.899 232.134)" gradientUnits="userSpaceOnUse" x1="307.655" x2="332.918" xlink:href="#lg1" y1="311.562" y2="311.562"/><linearGradient id="SVGID_25_" gradientUnits="userSpaceOnUse" x1="277.805" x2="181.484" xlink:href="#lg2" y1="301.385" y2="228.141"/><linearGradient id="SVGID_26_" gradientTransform="matrix(-.525 .851 -.851 -.525 631.568 178.545)" gradientUnits="userSpaceOnUse" x1="265.801" x2="291.064" xlink:href="#lg1" y1="312.291" y2="312.291"/><linearGradient id="SVGID_27_" gradientUnits="userSpaceOnUse" x1="291.717" x2="189.878" xlink:href="#lg2" y1="259.717" y2="192.494"/><linearGradient id="SVGID_28_" gradientTransform="matrix(-.302 .953 -.953 -.302 619.267 78.441)" gradientUnits="userSpaceOnUse" x1="228.524" x2="253.786" xlink:href="#lg1" y1="318.179" y2="318.179"/><linearGradient id="SVGID_29_" gradientTransform="matrix(.05 .999 -.999 .05 643.427 322.499)" gradientUnits="userSpaceOnUse" x1="-185.587" x2="-160.324" xlink:href="#lg1" y1="386.868" y2="386.868"/><linearGradient id="SVGID_30_" gradientTransform="matrix(.246 .969 -.969 .246 703.483 448.232)" gradientUnits="userSpaceOnUse" x1="-435.761" x2="-410.498" xlink:href="#lg1" y1="365.96" y2="365.96"/><linearGradient id="SVGID_31_" gradientUnits="userSpaceOnUse" x1="469.474" x2="365.126" xlink:href="#lg2" y1="262.78" y2="239.703"/><linearGradient id="lg3"><stop offset="0" stop-color="#8c6239"/><stop offset=".5765" stop-color="#704721"/><stop offset="1" stop-color="#603813"/></linearGradient><linearGradient id="SVGID_32_" gradientUnits="userSpaceOnUse" x1="415.567" x2="479.781" xlink:href="#lg3" y1="242.61" y2="307.827"/><linearGradient id="SVGID_33_" gradientUnits="userSpaceOnUse" x1="49.459" x2="114.342" xlink:href="#lg3" y1="345.892" y2="464.955"/><g><g><path d="m43.579 482.416h-18.986c-6.495 0-11.76-5.265-11.76-11.76v-12.338h42.505v12.338c.001 6.495-5.264 11.76-11.759 11.76z" fill="url(#SVGID_1_)"/><path d="m86.085 482.416h-18.986c-6.495 0-11.76-5.265-11.76-11.76v-12.338h42.505v12.338c0 6.495-5.265 11.76-11.759 11.76z" fill="url(#SVGID_2_)"/><path d="m128.59 482.416h-18.986c-6.495 0-11.76-5.265-11.76-11.76v-12.338h42.505v12.338c.001 6.495-5.264 11.76-11.759 11.76z" fill="url(#SVGID_3_)"/><path d="m171.095 482.416h-18.986c-6.495 0-11.76-5.265-11.76-11.76v-12.338h42.505v12.338c.001 6.495-5.264 11.76-11.759 11.76z" fill="url(#SVGID_4_)"/><path d="m216.603 471.85-17.33 5.585c-6.324 2.038-13.198-1.153-15.355-7.129l-4.328-11.989 40.229-12.966 4.328 11.989c2.158 5.975-1.22 12.471-7.544 14.51z" fill="url(#SVGID_5_)"/><path d="m254.192 456.529-16.625 7.25c-6.066 2.645-13.254.143-16.054-5.589l-5.617-11.501 38.594-16.83 5.617 11.501c2.8 5.733.152 12.524-5.915 15.169z" fill="url(#SVGID_6_)"/><path d="m289.691 435.809-15.17 9.688c-5.536 3.535-13.056 2.16-16.797-3.07l-7.506-10.495 35.217-22.489 7.506 10.495c3.741 5.23 2.286 12.336-3.25 15.871z" fill="url(#SVGID_7_)"/><path d="m324.274 417.149-16.148 8.156c-5.892 2.976-13.222.876-16.372-4.692l-6.32-11.171 37.485-18.935 6.32 11.171c3.15 5.569.927 12.495-4.965 15.471z" fill="url(#SVGID_8_)"/><path d="m358.555 407.014-17.776 4.149c-6.486 1.514-13.043-2.228-14.646-8.357l-3.215-12.297 41.265-9.631 3.214 12.297c1.604 6.129-2.355 12.325-8.842 13.839z" fill="url(#SVGID_9_)"/><path d="m396.971 402.008-18.22 1.715c-6.648.626-12.575-3.959-13.238-10.241l-1.329-12.604 42.296-3.982 1.329 12.604c.663 6.282-4.19 11.882-10.838 12.508z" fill="url(#SVGID_10_)"/><path d="m440.171 388.347-16.794 6.892c-6.128 2.515-13.254-.141-15.916-5.931l-5.34-11.618 38.987-15.999 5.34 11.618c2.662 5.79-.149 12.523-6.277 15.038z" fill="url(#SVGID_11_)"/><path d="m476.095 363.519-13.049 12.136c-4.762 4.429-12.421 4.371-17.108-.128l-9.404-9.028 30.293-28.174 9.404 9.028c4.687 4.499 4.626 11.737-.136 16.166z" fill="url(#SVGID_12_)"/><path d="m506.389 335.345-13.049 12.136c-4.762 4.429-12.421 4.371-17.108-.128l-9.404-9.028 30.293-28.173 9.404 9.028c4.686 4.499 4.625 11.736-.136 16.165z" fill="url(#SVGID_13_)"/></g><path d="m156.469 467.858h-129.283c-15.014 0-27.186-12.365-27.186-27.619s12.172-27.619 27.186-27.619h129.283c34.503 0 67.488-10.9 95.389-31.521l16.305-12.052c37.257-27.536 81.304-42.091 127.376-42.091 15.252 0 29.59-6.034 40.374-16.99l21.358-21.698c10.616-10.786 27.83-10.786 38.447 0s10.617 28.274 0 39.06l-21.358 21.698c-21.053 21.389-49.046 33.169-78.822 33.169-34.503 0-67.488 10.9-95.389 31.521l-16.305 12.052c-37.256 27.536-81.302 42.09-127.375 42.09z" fill="url(#SVGID_14_)"/><path d="m457.273 288.268-21.358 21.698c-10.784 10.956-25.122 16.99-40.374 16.99-46.073 0-90.119 14.555-127.376 42.091l-16.305 12.052c-27.902 20.621-60.887 31.521-95.389 31.521h-129.285c-11.71 0-21.689 7.522-25.516 18.069 3.826 10.547 13.806 18.069 25.516 18.069h129.283c46.073 0 90.119-14.555 127.376-42.091l16.305-12.052c27.902-20.621 60.886-31.521 95.389-31.521 29.775 0 57.768-11.78 78.822-33.169l21.358-21.698c2.877-2.923 4.967-6.339 6.285-9.979-1.318-3.64-3.408-7.057-6.285-9.979-10.616-10.786-27.83-10.786-38.446-.001z" fill="url(#SVGID_15_)"/><path d="m219.681 118.6s.327-20.717-19.25-48.992c-3.841-5.548-2.805-13.111 2.432-17.365 11.029-8.959 27.234-7.281 36.193 3.748l22.938 28.238z" fill="url(#SVGID_16_)"/><path d="m493.658 288.774c-9.525 32.233-39.127 54.353-72.738 54.353h-15.531c-35.362 0-69.168 10.996-97.764 31.799l-16.711 12.158c-38.185 27.779-83.328 42.463-130.548 42.463l-132.503-.001c-15.389 0-27.863-12.475-27.863-27.863v-.033c0-60.626 49.147-109.774 109.774-109.774h.033c1.022 0 2.042-.013 3.06-.038 48.319-1.202 90.756-32.531 107.558-77.851l5.523-14.898c5.7-15.375 6.498-32.138 2.285-47.985l-11.633-43.752c-3.997-15.035 7.3-29.789 22.857-29.85l33.94-.135c26.654-.106 51.331-14.077 65.136-36.877 10.89-17.986 37.314-16.974 46.796 1.792l104.717 207.241c6.18 12.14 7.473 26.187 3.612 39.251z" fill="url(#SVGID_17_)"/><path d="m243.702 115.417h-24.959l9.489 35.688c4.214 15.847 3.415 32.61-2.285 47.985l-5.523 14.898c-13.436 36.243-43.275 63.519-79.399 73.614l-.004.021 30.2 30.2c7.707 7.707 19.722 9.052 28.942 3.24 53.053-33.443 85.235-91.77 85.235-154.484v-9.466c0-23.028-18.668-41.696-41.696-41.696z" fill="url(#SVGID_18_)"/><path d="m269.052 110.783c-3.104-5.258-9.397-8.082-15.615-6.506l-27.435 6.949c-2.908.737-5.368 2.332-7.193 4.44l5.935 22.323 204.639 204.639c18.466-2.066 35.229-10.795 47.428-24.086z" fill="url(#SVGID_19_)"/><path d="m230.701 176.668.014.001 166.67 166.671c2.659-.127 5.325-.214 8.004-.214h15.531c12.304 0 24.066-2.975 34.508-8.315-.646-.572-181.057-180.539-181.057-180.539-2.596-4.315-7.42-7.101-12.802-6.834l-28.267 1.402c-1.903.094-3.696.566-5.318 1.331l.248.933c2.228 8.38 3.029 17.014 2.469 25.564z" fill="url(#SVGID_20_)"/><path d="m125.649 290.798c.438 2.871 1.746 5.634 3.957 7.845l114.541 114.541c9.182-3.752 18.129-8.137 26.795-13.135l-116.923-116.924c-9.004 3.712-18.517 6.324-28.37 7.673z" fill="url(#SVGID_21_)"/><path d="m129.606 278.678c5.513-5.513 14.452-5.513 19.965 0l20.012 20.012c5.513 5.513 5.513 14.452 0 19.965-5.513 5.513-14.452 5.513-19.965 0l-20.012-20.012c-5.513-5.513-5.513-14.452 0-19.965z" fill="url(#SVGID_22_)"/><path d="m212.454 277.319c-.697-.965-1.513-1.866-2.476-2.658l-19.055-15.661c-6.928 6.657-14.622 12.456-22.918 17.25.632.812 1.353 1.573 2.181 2.254l113.656 113.519c2.382-1.598 4.74-3.243 7.071-4.939l16.711-12.158c.472-.343.948-.676 1.423-1.014z" fill="url(#SVGID_23_)"/><path d="m168.243 258.634c4.951-6.023 13.847-6.893 19.87-1.943l21.864 17.97c6.023 4.951 6.893 13.847 1.943 19.87-4.951 6.023-13.847 6.893-19.87 1.943l-21.864-17.97c-6.023-4.95-6.893-13.846-1.943-19.87z" fill="url(#SVGID_24_)"/><path d="m202.867 249.833 116.99 116.99c10.554-6.356 21.689-11.476 33.249-15.307l-106.419-106.419c-1.068-1.521-2.453-2.857-4.135-3.895l-24.084-14.864c-.897-.553-1.833-.985-2.788-1.317-4.067 8.327-9.03 16.079-14.762 23.131.59.608 1.237 1.174 1.949 1.681z" fill="url(#SVGID_25_)"/><path d="m199.04 230.937c4.095-6.635 12.793-8.694 19.428-4.599l24.084 14.864c6.635 4.095 8.694 12.793 4.599 19.428-4.095 6.635-12.793 8.694-19.428 4.599l-24.084-14.864c-6.635-4.095-8.694-12.793-4.599-19.428z" fill="url(#SVGID_26_)"/><path d="m270.373 202.312c-1.719-2.595-4.297-4.645-7.495-5.659l-26.979-8.549c-1.887-.598-3.806-.775-5.659-.59l-8.814 23.775c.717.753 1.517 1.438 2.401 2.024l136.101 136.101c14.645-4.156 29.903-6.288 45.462-6.288h5.798z" fill="url(#SVGID_27_)"/><path d="m218.176 197.297c2.355-7.433 10.29-11.548 17.722-9.193l26.979 8.549c7.433 2.355 11.548 10.29 9.193 17.722-2.355 7.433-10.29 11.548-17.722 9.193l-26.979-8.549c-7.433-2.355-11.549-10.289-9.193-17.722z" fill="url(#SVGID_28_)"/><path d="m219.902 163.64c-.386-7.787 5.614-14.413 13.401-14.799l28.267-1.402c7.787-.386 14.413 5.613 14.799 13.401.386 7.787-5.613 14.413-13.401 14.799l-28.267 1.402c-7.787.386-14.413-5.614-14.799-13.401z" fill="url(#SVGID_29_)"/><path d="m215.783 128.377c-1.915-7.558 2.661-15.237 10.219-17.152l27.435-6.949c7.558-1.914 15.237 2.661 17.152 10.219 1.914 7.558-2.661 15.237-10.219 17.152l-27.435 6.949c-7.558 1.914-15.237-2.661-17.152-10.219z" fill="url(#SVGID_30_)"/><path d="m442.213 155.578c-45.131 54.771-67.723 122.535-59.805 189.12 7.56-1.043 15.233-1.571 22.98-1.571h15.531c33.611 0 63.213-22.12 72.738-54.353 3.86-13.064 2.567-27.11-3.613-39.25z" fill="url(#SVGID_31_)"/><path d="m493.658 288.774c3.86-13.064 2.567-27.11-3.613-39.25l-20.354-39.977c-38.931 30.986-56.83 83.431-42.125 133.283 30.812-2.697 57.201-23.967 66.092-54.056z" fill="url(#SVGID_32_)"/><path d="m95.806 292.758c-54.031 6.861-95.806 52.998-95.806 108.893v.033c0 15.388 12.474 27.862 27.862 27.862l109.189.001c2.589-10.684 3.971-21.84 3.971-33.321-.001-40.891-17.411-77.71-45.216-103.468z" fill="url(#SVGID_33_)"/></g></svg>