<svg id="Capa_1" enable-background="new 0 0 510 510" height="512" viewBox="0 0 510 510" width="512" xmlns="http://www.w3.org/2000/svg" xmlns:xlink="http://www.w3.org/1999/xlink"><linearGradient id="lg1"><stop offset="0" stop-color="#0b799d"/><stop offset="1" stop-color="#07485e"/></linearGradient><linearGradient id="SVGID_1_" gradientUnits="userSpaceOnUse" x1="315.591" x2="441.103" xlink:href="#lg1" y1="271.497" y2="277.412"/><linearGradient id="SVGID_2_" gradientUnits="userSpaceOnUse" x1="244.569" x2="269.406" xlink:href="#lg1" y1="295.679" y2="353.631"/><linearGradient id="SVGID_3_" gradientUnits="userSpaceOnUse" x1="188.623" x2="272.88" xlink:href="#lg1" y1="192.346" y2="318.278"/><linearGradient id="lg2"><stop offset="0" stop-color="#07485e"/><stop offset="1" stop-color="#03232e"/></linearGradient><linearGradient id="SVGID_4_" gradientUnits="userSpaceOnUse" x1="159.86" x2="191.402" xlink:href="#lg2" y1="297.431" y2="383.187"/><linearGradient id="SVGID_5_" gradientUnits="userSpaceOnUse" x1="371.048" x2="371.048" xlink:href="#lg1" y1="86.057" y2="148.156"/><linearGradient id="lg3"><stop offset="0" stop-color="#07485e" stop-opacity="0"/><stop offset="1" stop-color="#03232e"/></linearGradient><linearGradient id="SVGID_6_" gradientUnits="userSpaceOnUse" x1="203.14" x2="110.751" xlink:href="#lg3" y1="315.487" y2="223.098"/><linearGradient id="SVGID_7_" gradientTransform="matrix(-.707 .707 -.707 -.707 -1188.679 1028.427)" gradientUnits="userSpaceOnUse" x1="-1494.128" x2="-1469.31" xlink:href="#lg2" y1="-422.837" y2="-422.837"/><linearGradient id="SVGID_8_" gradientUnits="userSpaceOnUse" x1="249.615" x2="126.132" xlink:href="#lg3" y1="300.447" y2="176.964"/><linearGradient id="SVGID_9_" gradientTransform="matrix(-.635 .773 -.773 -.635 -1109.683 1054.135)" gradientUnits="userSpaceOnUse" x1="-1458.296" x2="-1433.477" xlink:href="#lg2" y1="-498.549" y2="-498.549"/><linearGradient id="SVGID_10_" gradientUnits="userSpaceOnUse" x1="279.683" x2="147.862" xlink:href="#lg3" y1="267.722" y2="135.901"/><linearGradient id="SVGID_11_" gradientTransform="matrix(-.525 .851 -.851 -.525 -991.236 1083.992)" gradientUnits="userSpaceOnUse" x1="-1384.758" x2="-1359.94" xlink:href="#lg2" y1="-581.376" y2="-581.376"/><linearGradient id="SVGID_12_" gradientUnits="userSpaceOnUse" x1="297.416" x2="150.979" xlink:href="#lg3" y1="224.675" y2="78.238"/><linearGradient id="SVGID_13_" gradientTransform="matrix(-.302 .953 -.953 -.302 -766.154 1092.731)" gradientUnits="userSpaceOnUse" x1="-1185.897" x2="-1161.078" xlink:href="#lg2" y1="-691.315" y2="-691.315"/><g><path d="m498.552 284.523-89.364 43.319c-9.956 4.826-21.821.48-26.502-9.707l-14.607-31.788 125.416-60.796 14.607 31.788c4.681 10.188.405 22.358-9.55 27.184z" fill="url(#SVGID_1_)"/><path d="m154.234 398.321h-126.879c-14.602 0-26.945-11.832-27.345-26.917-.415-15.651 11.737-28.473 26.788-28.473h127.436c34.01 0 66.524-10.93 94.026-31.608l16.072-12.085c36.725-27.612 80.142-42.206 125.556-42.206 15.034 0 29.167-6.05 39.797-17.036l21.053-21.758c10.465-10.815 27.432-10.815 37.898 0 .327.338.644.683.95 1.033 11.294 12.919 7.329 33.521-7.5 41.783l-62.379 34.754c-16.761 9.338-34.976 15.534-53.806 18.456-25.219 3.914-49.084 14.01-70.04 29.765l-16.072 12.085c-36.724 27.612-80.141 42.207-125.555 42.207z" fill="url(#SVGID_2_)"/><path d="m467.298 244.255-47.308 29.132c-12.508 7.702-26.497 12.792-41.086 14.511-27.66 3.258-53.863 13.503-76.688 30.105l-16.422 11.947c-37.506 27.294-81.863 41.715-128.25 41.715h-130.171c-15.128 0-27.381-12.276-27.373-27.403.008-15.542 6.315-29.626 16.51-39.812 10.192-10.202 24.278-16.51 39.842-16.51h6.575c41.843 0 82.898-12.38 117.249-36.284 16.461-11.464 30.774-25.126 36.372-40.236l14.036-37.851c11.525-31.109 42.329-50.466 75.004-47.785 4.919.403 9.855.56 14.79.56h57.082c7.017 0 13.783-2.613 18.978-7.33 13.172-11.959 33.988-8.902 43.165 6.339l41.821 69.458c.061.119.121.239.181.358 8.747 17.507 2.358 38.824-14.307 49.086z" fill="url(#SVGID_3_)"/><path d="m265.407 256.806-61.457 33.16c-25.876 13.961-57.847 9.283-78.637-11.507-20.075 6.278-41.128 9.481-62.385 9.481h-6.575c-15.564 0-29.65 6.309-39.842 16.51-10.196 10.185-16.503 24.268-16.511 39.811-.008 15.128 12.245 27.403 27.373 27.403h130.172c46.387 0 90.744-14.421 128.25-41.715l16.422-11.947c10.634-7.735 22.002-14.087 33.908-18.998-.001-36.3-38.772-59.435-70.718-42.198z" fill="url(#SVGID_4_)"/><path d="m412.118 126.678c4.034-10.46 17.072-12.536 24.389-5.536-10.183-11.488-28.216-12.889-40.067-2.13-5.195 4.717-11.961 7.33-18.978 7.33h-57.082c-4.935 0-9.872-.157-14.79-.56l53.666 23.12c20.734 8.933 44.739-1.159 52.862-22.224z" fill="url(#SVGID_5_)"/><g><path d="m141.232 272.744c.519.803 1.119 1.568 1.823 2.271l85 85c9.436-3.226 18.651-7.108 27.596-11.632l-88.438-88.438c-8.361 4.902-17.048 9.168-25.981 12.799z" fill="url(#SVGID_6_)"/><path d="m143.054 255.401c5.416-5.416 14.198-5.416 19.614 0l19.66 19.66c5.416 5.416 5.416 14.198 0 19.614-5.416 5.416-14.198 5.416-19.614 0l-19.66-19.66c-5.416-5.416-5.416-14.197 0-19.614z" fill="url(#SVGID_7_)"/><path d="m219.684 249.305c-.685-.948-1.486-1.833-2.433-2.611l-15.687-12.893c-6.167 6.397-13.525 12.379-21.387 17.854-.164.114-.33.223-.494.336l89.211 89.104c5.769-3.439 11.41-7.15 16.901-11.146l8.413-6.121z" fill="url(#SVGID_8_)"/><path d="m176.25 230.948c4.864-5.918 13.603-6.772 19.521-1.909l21.48 17.654c5.918 4.864 6.772 13.603 1.909 19.521-4.863 5.918-13.603 6.772-19.521 1.909l-21.48-17.654c-5.918-4.863-6.772-13.603-1.909-19.521z" fill="url(#SVGID_9_)"/><path d="m335.099 299.434-84.22-84.22c-1.049-1.495-2.41-2.807-4.063-3.827l-23.661-14.602c-.321-.198-.653-.364-.984-.532l-5.624 15.165c-1.43 3.858-3.434 7.621-5.89 11.278l93.746 93.746c9.694-6.814 19.973-12.498 30.696-17.008z" fill="url(#SVGID_10_)"/><path d="m204.07 201.303c4.023-6.518 12.568-8.541 19.086-4.518l23.661 14.602c6.518 4.023 8.541 12.568 4.518 19.086-4.023 6.518-12.568 8.541-19.086 4.518l-23.661-14.602c-6.518-4.022-8.541-12.568-4.518-19.086z" fill="url(#SVGID_11_)"/><path d="m227.096 182.977c.419.361.858.702 1.324 1.012l112.956 112.956c14.901-5.546 30.581-8.873 46.674-9.862l-113.901-113.902c-1.688-2.549-4.222-4.564-7.364-5.559l-26.505-8.399c-.727-.23-1.459-.379-2.19-.486-3.001 4.571-5.539 9.525-7.505 14.831z" fill="url(#SVGID_12_)"/><path d="m222.869 168.254c2.314-7.302 10.109-11.345 17.411-9.032l26.505 8.399c7.302 2.314 11.345 10.109 9.031 17.411-2.314 7.302-10.109 11.345-17.411 9.031l-26.505-8.399c-7.301-2.313-11.345-10.108-9.031-17.41z" fill="url(#SVGID_13_)"/></g></g></svg>