<svg id="Capa_1" enable-background="new 0 0 510 510" height="512" viewBox="0 0 510 510" width="512" xmlns="http://www.w3.org/2000/svg" xmlns:xlink="http://www.w3.org/1999/xlink"><linearGradient id="lg1"><stop offset="0" stop-color="#b5dbff"/><stop offset="1" stop-color="#48b2e3"/></linearGradient><linearGradient id="SVGID_1_" gradientUnits="userSpaceOnUse" x1="162.235" x2="362.901" xlink:href="#lg1" y1="212.493" y2="278.493"/><linearGradient id="SVGID_2_" gradientUnits="userSpaceOnUse" x1="296.45" x2="460.45" xlink:href="#lg1" y1="178.033" y2="387.367"/><linearGradient id="lg2"><stop offset="0" stop-color="#48b2e3" stop-opacity="0"/><stop offset="1" stop-color="#0b799d"/></linearGradient><linearGradient id="SVGID_3_" gradientUnits="userSpaceOnUse" x1="255" x2="255" xlink:href="#lg2" y1="123.044" y2="226.378"/><linearGradient id="SVGID_4_" gradientUnits="userSpaceOnUse" x1="450.532" x2="404.532" xlink:href="#lg2" y1="160.582" y2="208.582"/><linearGradient id="SVGID_5_" gradientUnits="userSpaceOnUse" x1="66.785" x2="97.451" xlink:href="#lg2" y1="154.886" y2="222.886"/><linearGradient id="lg3"><stop offset="0" stop-color="#edf5ff"/><stop offset="1" stop-color="#d5e8fe"/></linearGradient><linearGradient id="SVGID_6_" gradientUnits="userSpaceOnUse" x1="455.008" x2="463.938" xlink:href="#lg3" y1="216.631" y2="216.631"/><linearGradient id="SVGID_7_" gradientUnits="userSpaceOnUse" x1="460.99" x2="496.365" xlink:href="#lg3" y1="273.225" y2="273.225"/><linearGradient id="SVGID_8_" gradientUnits="userSpaceOnUse" x1="493.415" x2="502.345" xlink:href="#lg3" y1="329.818" y2="329.818"/><linearGradient id="SVGID_9_" gradientTransform="matrix(-1 0 0 1 959.667 0)" gradientUnits="userSpaceOnUse" x1="904.675" x2="913.605" xlink:href="#lg3" y1="216.631" y2="216.631"/><linearGradient id="SVGID_10_" gradientTransform="matrix(-1 0 0 1 959.667 0)" gradientUnits="userSpaceOnUse" x1="910.657" x2="946.032" xlink:href="#lg3" y1="273.225" y2="273.225"/><linearGradient id="SVGID_11_" gradientTransform="matrix(-1 0 0 1 959.667 0)" gradientUnits="userSpaceOnUse" x1="943.082" x2="952.012" xlink:href="#lg3" y1="329.818" y2="329.818"/><linearGradient id="SVGID_12_" gradientUnits="userSpaceOnUse" x1="113.435" x2="102.612" xlink:href="#lg2" y1="362.632" y2="392.254"/><linearGradient id="SVGID_13_" gradientUnits="userSpaceOnUse" x1="396.194" x2="404.738" xlink:href="#lg2" y1="360.788" y2="381.865"/><linearGradient id="SVGID_14_" gradientUnits="userSpaceOnUse" x1="255" x2="255" y1="101" y2="144"><stop offset="0" stop-color="#48b2e3"/><stop offset="1" stop-color="#0b799d"/></linearGradient><linearGradient id="SVGID_15_" gradientUnits="userSpaceOnUse" x1="255" x2="255" y1="134.378" y2="97.493"><stop offset="0" stop-color="#0b799d" stop-opacity="0"/><stop offset="1" stop-color="#0b799d"/></linearGradient><linearGradient id="SVGID_16_" gradientUnits="userSpaceOnUse" x1="299.389" x2="264.549" xlink:href="#lg2" y1="160.696" y2="125.855"/><linearGradient id="lg4"><stop offset="0" stop-color="#ffda2d"/><stop offset="1" stop-color="#fdbf00"/></linearGradient><linearGradient id="SVGID_17_" gradientUnits="userSpaceOnUse" x1="277.287" x2="283.383" xlink:href="#lg4" y1="138.611" y2="144.708"/><linearGradient id="SVGID_18_" gradientTransform="matrix(-1 0 0 -1 -1708.561 -498.28)" gradientUnits="userSpaceOnUse" x1="-1991.597" x2="-1988.136" xlink:href="#lg4" y1="-642.641" y2="-639.179"/><linearGradient id="SVGID_19_" gradientUnits="userSpaceOnUse" x1="240.922" x2="174.422" xlink:href="#lg2" y1="182.513" y2="227.513"/><linearGradient id="SVGID_20_" gradientUnits="userSpaceOnUse" x1="201.81" x2="148.143" xlink:href="#lg2" y1="150.547" y2="128.88"/><linearGradient id="SVGID_21_" gradientUnits="userSpaceOnUse" x1="164" x2="186.522" xlink:href="#lg1" y1="139.536" y2="139.536"/><linearGradient id="SVGID_22_" gradientUnits="userSpaceOnUse" x1="366.567" x2="314.567" xlink:href="#lg2" y1="148.037" y2="127.703"/><linearGradient id="SVGID_23_" gradientUnits="userSpaceOnUse" x1="333" x2="355.522" xlink:href="#lg1" y1="139.536" y2="139.536"/><g><path d="m508.809 325.345-77.677-217.415h-352.264l-77.677 217.415c-3.778 10.575 1.732 22.211 12.307 25.989l184.552 65.936c10.575 3.778 22.211-1.732 25.989-12.307l24.25-67.874c2.253-6.306 11.171-6.306 13.423 0l24.25 67.874c3.778 10.575 15.414 16.085 25.989 12.307l184.552-65.936c10.574-3.778 16.084-15.414 12.306-25.989z" fill="url(#SVGID_1_)"/><path d="m311.95 417.27 184.552-65.936c10.575-3.778 16.085-15.414 12.307-25.989l-77.677-217.415h-.002v.001c0 8.199-64.715 14.994-149.22 16.2-14.919.213-26.91 12.365-26.91 27.286v180.943c2.793 0 5.585 1.576 6.712 4.729l24.25 67.874c3.777 10.575 15.413 16.085 25.988 12.307z" fill="url(#SVGID_2_)"/><path d="m66.296 143.117c43.139 10.17 111.606 16.743 188.704 16.743s145.565-6.574 188.704-16.743l-12.572-35.187h-352.264z" fill="url(#SVGID_3_)"/><g><path d="m467.12 208.651c-31.44-7.02-57.4-28.54-70.52-57.17 17.81-2.38 33.68-5.19 47.1-8.36z" fill="url(#SVGID_4_)"/><path d="m113.4 151.481c-13.12 28.63-39.08 50.15-70.52 57.17l23.42-65.53c13.42 3.17 29.29 5.98 47.1 8.36z" fill="url(#SVGID_5_)"/></g><g><g><path d="m460.437 222.974c-1.459 0-2.819-.918-3.314-2.376l-1.928-5.682c-.621-1.831.359-3.818 2.189-4.439 1.836-.624 3.817.36 4.439 2.19l1.928 5.682c.621 1.831-.359 3.818-2.189 4.439-.373.126-.753.186-1.125.186z" fill="url(#SVGID_6_)"/><path d="m492.864 318.533c-1.459 0-2.819-.918-3.314-2.376l-4.054-11.945c-.621-1.831.359-3.818 2.189-4.439 1.831-.621 3.818.359 4.439 2.189l4.054 11.945c.621 1.831-.359 3.818-2.189 4.439-.373.127-.753.187-1.125.187zm-8.107-23.889c-1.459 0-2.819-.918-3.314-2.376l-4.054-11.945c-.621-1.83.359-3.818 2.189-4.439 1.835-.624 3.817.36 4.439 2.19l4.054 11.945c.621 1.83-.359 3.818-2.189 4.439-.373.125-.753.186-1.125.186zm-8.106-23.891c-1.459 0-2.819-.918-3.314-2.376l-4.054-11.945c-.621-1.831.359-3.818 2.189-4.439 1.832-.623 3.817.359 4.439 2.189l4.054 11.945c.621 1.831-.359 3.818-2.189 4.439-.373.127-.752.187-1.125.187zm-8.107-23.89c-1.459 0-2.819-.918-3.314-2.376l-4.054-11.945c-.621-1.831.359-3.818 2.189-4.439 1.835-.622 3.817.36 4.439 2.189l4.054 11.945c.621 1.831-.359 3.818-2.189 4.439-.373.127-.753.187-1.125.187z" fill="url(#SVGID_7_)"/><path d="m498.844 336.16c-1.459 0-2.819-.918-3.314-2.376l-1.928-5.682c-.621-1.831.359-3.818 2.189-4.439 1.835-.624 3.817.36 4.439 2.19l1.928 5.682c.621 1.831-.359 3.818-2.189 4.439-.373.126-.753.186-1.125.186z" fill="url(#SVGID_8_)"/></g><g><path d="m49.563 222.974c1.459 0 2.819-.918 3.314-2.376l1.928-5.682c.621-1.831-.359-3.818-2.189-4.439-1.836-.624-3.817.36-4.439 2.19l-1.928 5.682c-.621 1.831.359 3.818 2.189 4.439.373.126.753.186 1.125.186z" fill="url(#SVGID_9_)"/><path d="m16.011 318.347c-1.83-.621-2.811-2.609-2.189-4.439l4.054-11.945c.621-1.831 2.608-2.81 4.439-2.189 1.83.621 2.811 2.609 2.189 4.439l-4.054 11.945c-.495 1.458-1.855 2.376-3.314 2.376-.372-.001-.752-.061-1.125-.187zm8.107-23.89c-1.83-.621-2.811-2.609-2.189-4.439l4.054-11.945c.622-1.83 2.604-2.813 4.439-2.19 1.83.621 2.811 2.609 2.189 4.439l-4.054 11.945c-.495 1.458-1.855 2.376-3.314 2.376-.372.001-.752-.06-1.125-.186zm8.106-23.89c-1.83-.621-2.811-2.609-2.189-4.439l4.054-11.945c.622-1.831 2.607-2.812 4.439-2.189 1.83.621 2.811 2.609 2.189 4.439l-4.054 11.945c-.495 1.458-1.855 2.376-3.314 2.376-.373-.001-.752-.061-1.125-.187zm8.107-23.89c-1.83-.621-2.811-2.609-2.189-4.439l4.054-11.945c.622-1.83 2.604-2.812 4.439-2.189 1.83.621 2.811 2.609 2.189 4.439l-4.054 11.945c-.495 1.458-1.855 2.376-3.314 2.376-.372-.001-.752-.061-1.125-.187z" fill="url(#SVGID_10_)"/><path d="m11.156 336.16c1.459 0 2.819-.918 3.314-2.376l1.928-5.682c.621-1.831-.359-3.818-2.189-4.439-1.835-.624-3.817.36-4.439 2.19l-1.928 5.682c-.621 1.831.359 3.818 2.189 4.439.373.126.753.186 1.125.186z" fill="url(#SVGID_11_)"/></g></g><path d="m13.498 302.718 219.319 77.667-8.784 24.575c-3.771 10.573-15.404 16.087-25.988 12.305l-184.547-65.933c-10.573-3.782-16.087-15.415-12.304-25.987l8.693-24.336c1.116.683 2.324 1.253 3.611 1.709z" fill="url(#SVGID_12_)"/><path d="m496.502 351.332-184.547 65.932c-10.584 3.783-22.217-1.732-25.988-12.305l-8.796-24.598 219.331-77.645c1.287-.456 2.495-1.025 3.612-1.709l8.693 24.336c3.782 10.574-1.732 22.207-12.305 25.989z" fill="url(#SVGID_13_)"/><ellipse cx="255" cy="107.93" fill="url(#SVGID_14_)" rx="176.132" ry="16.39"/><path d="m123.058 118.786c32.27 3.394 79.416 5.534 131.942 5.534s99.672-2.14 131.942-5.534c-32.27-3.394-79.416-5.534-131.942-5.534s-99.672 2.14-131.942 5.534z" fill="url(#SVGID_15_)"/><g><path d="m319.075 184.277c-5.085 3.255-11.75 2.532-16.02-1.737l-30.898-30.898c-2.475-2.344-3.821-5.661-3.821-9.339 0-6.951 5.71-12.662 12.661-12.661 3.678 0 6.995 1.346 9.339 3.821l30.898 30.898c5.805 5.805 4.755 15.49-2.159 19.916z" fill="url(#SVGID_16_)"/><g><circle cx="280.954" cy="142.278" fill="url(#SVGID_17_)" r="12.86"/><circle cx="280.954" cy="142.278" fill="url(#SVGID_18_)" r="7.303"/></g></g><path d="m281.82 124.131c-14.88.26-26.82 12.39-26.82 27.29v91.29l-14.975-10.471c-9.886-6.912-15.775-18.215-15.775-30.277v-77.892c9.98.16 20.26.25 30.75.25 9.12 0 18.08-.06 26.82-.19z" fill="url(#SVGID_19_)"/><path d="m178.857 122.714c-2.202-.098-4.374-.202-6.524-.308v34.807c13.793.917 28.202 1.608 43.078 2.055z" fill="url(#SVGID_20_)"/><path d="m173.25 159.86h-5.5c-3.452 0-6.25-2.798-6.25-6.25v-28.15c0-3.452 2.798-6.25 6.25-6.25h5.5c3.452 0 6.25 2.798 6.25 6.25v28.15c0 3.452-2.798 6.25-6.25 6.25z" fill="url(#SVGID_21_)"/><path d="m379.08 153.601c-11.82 1.3-24.33 2.42-37.41 3.34v-34.74c1.92-.1 3.82-.2 5.7-.31z" fill="url(#SVGID_22_)"/><path d="m342.25 159.86h-5.5c-3.452 0-6.25-2.798-6.25-6.25v-28.15c0-3.452 2.798-6.25 6.25-6.25h5.5c3.452 0 6.25 2.798 6.25 6.25v28.15c0 3.452-2.798 6.25-6.25 6.25z" fill="url(#SVGID_23_)"/></g></svg>