<svg id="Capa_1" enable-background="new 0 0 510 510" height="512" viewBox="0 0 510 510" width="512" xmlns="http://www.w3.org/2000/svg" xmlns:xlink="http://www.w3.org/1999/xlink"><linearGradient id="lg1"><stop offset="0" stop-color="#ff7bab"/><stop offset="1" stop-color="#ff637b"/></linearGradient><linearGradient id="SVGID_1_" gradientUnits="userSpaceOnUse" x1="209.371" x2="292.296" xlink:href="#lg1" y1="291.216" y2="463.905"/><linearGradient id="lg2"><stop offset="0" stop-color="#e63950" stop-opacity="0"/><stop offset=".0467" stop-color="#e4354b" stop-opacity=".047"/><stop offset=".4669" stop-color="#d31822" stop-opacity=".467"/><stop offset=".7991" stop-color="#c90709" stop-opacity=".799"/><stop offset="1" stop-color="#c50000"/></linearGradient><linearGradient id="SVGID_2_" gradientUnits="userSpaceOnUse" x1="82.987" x2="167.172" xlink:href="#lg2" y1="313.652" y2="382.268"/><linearGradient id="SVGID_3_" gradientUnits="userSpaceOnUse" x1="173.454" x2="342.287" xlink:href="#lg1" y1="266.064" y2="519.751"/><linearGradient id="lg3"><stop offset="0" stop-color="#e63950" stop-opacity="0"/><stop offset="1" stop-color="#e63950"/></linearGradient><linearGradient id="SVGID_4_" gradientUnits="userSpaceOnUse" x1="380.907" x2="300.829" xlink:href="#lg3" y1="323.454" y2="362.088"/><linearGradient id="SVGID_5_" gradientUnits="userSpaceOnUse" x1="217.166" x2="310.612" xlink:href="#lg1" y1="331.382" y2="362.117"/><linearGradient id="SVGID_6_" gradientUnits="userSpaceOnUse" x1="439.348" x2="399.494" xlink:href="#lg3" y1="303.691" y2="331.446"/><linearGradient id="SVGID_7_" gradientUnits="userSpaceOnUse" x1="275.824" x2="275.824" xlink:href="#lg2" y1="426.28" y2="240.163"/><linearGradient id="SVGID_8_" gradientUnits="userSpaceOnUse" x1="208.347" x2="289.894" xlink:href="#lg1" y1="197.161" y2="366.98"/><linearGradient id="SVGID_9_" gradientUnits="userSpaceOnUse" x1="92.034" x2="185.117" xlink:href="#lg2" y1="220.711" y2="296.58"/><linearGradient id="SVGID_10_" gradientUnits="userSpaceOnUse" x1="176.825" x2="342.099" xlink:href="#lg1" y1="169.953" y2="418.292"/><linearGradient id="SVGID_11_" gradientUnits="userSpaceOnUse" x1="375.987" x2="292.941" xlink:href="#lg3" y1="228.873" y2="268.939"/><linearGradient id="SVGID_12_" gradientUnits="userSpaceOnUse" x1="216.847" x2="307.048" xlink:href="#lg1" y1="236.536" y2="266.204"/><linearGradient id="SVGID_13_" gradientUnits="userSpaceOnUse" x1="431.914" x2="386.751" xlink:href="#lg3" y1="209.633" y2="241.086"/><linearGradient id="SVGID_14_" gradientUnits="userSpaceOnUse" x1="275.497" x2="275.497" xlink:href="#lg3" y1="348.906" y2="117.706"/><linearGradient id="SVGID_15_" gradientUnits="userSpaceOnUse" x1="214.54" x2="289.587" xlink:href="#lg1" y1="108.218" y2="264.501"/><linearGradient id="SVGID_16_" gradientUnits="userSpaceOnUse" x1="103.298" x2="206.86" xlink:href="#lg2" y1="136.943" y2="221.353"/><linearGradient id="SVGID_17_" gradientUnits="userSpaceOnUse" x1="188.04" x2="338.788" xlink:href="#lg1" y1="79.729" y2="306.241"/><linearGradient id="SVGID_18_" gradientUnits="userSpaceOnUse" x1="370.204" x2="283.316" xlink:href="#lg3" y1="140.791" y2="182.711"/><linearGradient id="SVGID_19_" gradientUnits="userSpaceOnUse" x1="215.61" x2="297.567" xlink:href="#lg1" y1="146.192" y2="173.148"/><linearGradient id="SVGID_20_" gradientUnits="userSpaceOnUse" x1="255" x2="255" xlink:href="#lg2" y1="56.629" y2="143.467"/><linearGradient id="SVGID_21_" gradientUnits="userSpaceOnUse" x1="255" x2="255" y1="38.104" y2="74.24"><stop offset="0" stop-color="#ff637b"/><stop offset="1" stop-color="#e63950"/></linearGradient><linearGradient id="SVGID_22_" gradientUnits="userSpaceOnUse" x1="255" x2="255" xlink:href="#lg2" y1="66.153" y2="35.157"/><linearGradient id="SVGID_23_" gradientUnits="userSpaceOnUse" x1="422.893" x2="370.164" xlink:href="#lg3" y1="124.395" y2="161.117"/><g><g><path d="m507.33 377.828c4.774 7.576 3.002 16.089-4.191 19.66-53.221 26.42-143.408 44.064-248.14 44.064s-194.918-17.644-248.139-44.064c-7.194-3.571-8.965-12.084-4.191-19.66l104.318-165.553h296.025z" fill="url(#SVGID_1_)"/><path d="m138.114 212.275-90.312 201.481c-15.38-4.933-29.099-10.393-40.938-16.271-7.198-3.571-8.967-12.083-4.192-19.652l104.315-165.558z" fill="url(#SVGID_2_)"/><path d="m460.643 429.689c-59.961 31.141-351.326 31.141-411.286 0-4.15-2.155-5.534-7.059-3.451-11.707l92.206-205.707h233.776l92.206 205.707c2.083 4.648.698 9.551-3.451 11.707z" fill="url(#SVGID_3_)"/><path d="m460.647 429.685c-17.435 9.054-55.121 15.515-101.516 19.28.145-.269.27-.528.394-.797l-48.154-235.894h60.514l92.208 205.704c2.079 4.651.702 9.551-3.446 11.707z" fill="url(#SVGID_4_)"/><path d="m359.53 448.172c-19.584 42.232-189.478 42.232-209.062 0l48.158-235.898h112.745z" fill="url(#SVGID_5_)"/><path d="m503.135 397.485c-11.839 5.878-25.558 11.338-40.938 16.271l-90.312-201.481h31.127l104.315 165.558c4.775 7.569 3.006 16.081-4.192 19.652z" fill="url(#SVGID_6_)"/></g><path d="m503.14 397.491c-11.886 5.893-25.623 11.356-40.932 16.279l1.881 4.212c2.091 4.652.7 9.555-3.452 11.706-17.689 9.185-55.519 15.668-101.604 19.43-15.148 28.835-101.393 37.37-158.643 25.604l-158.743-158.744 65.344-103.705h296.016l104.325 165.557c4.773 7.575 3.002 16.089-4.192 19.661z" fill="url(#SVGID_7_)"/><g><path d="m492.981 286.638c4.161 7.472 2.113 15.842-4.806 19.345-50.904 25.777-135.557 42.851-233.176 42.851s-182.271-17.074-233.175-42.851c-6.919-3.504-8.967-11.874-4.806-19.345l93.952-168.694h288.059z" fill="url(#SVGID_8_)"/><path d="m141.259 117.943-80.377 203.942c-14.599-4.811-27.688-10.148-39.055-15.905-6.923-3.503-8.969-11.873-4.806-19.338l93.949-168.699z" fill="url(#SVGID_9_)"/><path d="m447.095 337.367c-56.787 29.998-327.405 29.998-384.192 0-3.954-2.089-5.426-6.848-3.645-11.367l81.999-208.056h227.486l81.998 208.056c1.781 4.519.309 9.278-3.646 11.367z" fill="url(#SVGID_10_)"/><path d="m447.1 337.363c-16.579 8.757-51.891 14.989-95.173 18.613.14-.259.261-.508.381-.766l-42.454-237.267h58.886l82.001 208.054c1.777 4.522.311 9.276-3.641 11.366z" fill="url(#SVGID_11_)"/><path d="m352.313 355.213c-18.84 40.325-175.787 40.325-194.627 0l42.458-237.27h109.712z" fill="url(#SVGID_12_)"/><path d="m488.172 305.98c-11.367 5.757-24.455 11.093-39.055 15.905l-80.377-203.942h30.289l93.949 168.699c4.162 7.465 2.116 15.835-4.806 19.338z" fill="url(#SVGID_13_)"/></g><path d="m488.172 305.983c-11.396 5.773-24.503 11.106-39.051 15.908l1.621 4.112c1.781 4.512.31 9.275-3.652 11.366-16.769 8.855-52.187 15.098-95.24 18.72-12.897 24.553-77.721 33.708-129.338 27.455l-166.647-166.648 55.109-98.952h288.052l93.959 168.689c4.162 7.474 2.111 15.848-4.813 19.35z" fill="url(#SVGID_14_)"/><g><path d="m467.849 196.123c2.485 6.956-.693 14.654-7.354 17.848-47.937 22.983-122.169 37.729-205.496 37.729s-157.558-14.746-205.495-37.729c-6.661-3.193-9.839-10.892-7.354-17.848l64.837-152.195h296.025z" fill="url(#SVGID_15_)"/><path d="m138.114 43.928-52.153 184.326c-13.37-4.286-25.589-9.076-36.455-14.286-6.664-3.193-9.841-10.891-7.353-17.841l64.834-152.199z" fill="url(#SVGID_16_)"/><path d="m420.361 241.838c-51.412 25.453-279.311 25.453-330.724 0-3.665-1.814-5.537-5.97-4.567-9.942l53.041-187.967h233.776l53.041 187.967c.97 3.972-.902 8.127-4.567 9.942z" fill="url(#SVGID_17_)"/><path d="m420.365 241.834c-15.244 7.546-45.993 12.858-83.061 15.925.134-.219.252-.429.37-.647l-26.303-213.184h60.514l53.043 187.965c.967 3.975-.899 8.126-4.563 9.941z" fill="url(#SVGID_18_)"/><path d="m337.678 257.115c-17.914 33.095-147.443 33.095-165.357 0l26.306-213.187h112.745z" fill="url(#SVGID_19_)"/><path d="m96.421 73.498c36.252 8.546 93.789 14.07 158.579 14.07s122.326-5.524 158.579-14.07l-10.565-29.57h-296.029z" fill="url(#SVGID_20_)"/><ellipse cx="254.999" cy="43.928" fill="url(#SVGID_21_)" rx="148.014" ry="13.774"/><path d="m144.121 53.051c27.118 2.852 66.738 4.651 110.879 4.651s83.76-1.799 110.879-4.651c-27.119-2.852-66.739-4.651-110.88-4.651s-83.76 1.799-110.878 4.651z" fill="url(#SVGID_22_)"/><path d="m460.492 213.968c-10.866 5.21-23.085 10-36.455 14.286l-52.152-184.326h31.127l64.834 152.199c2.487 6.95-.69 14.648-7.354 17.841z" fill="url(#SVGID_23_)"/></g></g></svg>