<svg id="Capa_1" enable-background="new 0 0 510 510" height="512" viewBox="0 0 510 510" width="512" xmlns="http://www.w3.org/2000/svg" xmlns:xlink="http://www.w3.org/1999/xlink"><linearGradient id="SVGID_1_" gradientUnits="userSpaceOnUse" x1="438.749" x2="438.749" y1="419.67" y2="419.67"><stop offset="0" stop-color="#e63950" stop-opacity="0"/><stop offset=".0467" stop-color="#e4354b" stop-opacity=".047"/><stop offset=".4669" stop-color="#d31822" stop-opacity=".467"/><stop offset=".7991" stop-color="#c90709" stop-opacity=".799"/><stop offset="1" stop-color="#c50000"/></linearGradient><linearGradient id="lg1"><stop offset="0" stop-color="#b5dbff"/><stop offset="1" stop-color="#48b2e3"/></linearGradient><linearGradient id="SVGID_2_" gradientUnits="userSpaceOnUse" x1="137.86" x2="369.142" xlink:href="#lg1" y1="217.815" y2="293.885"/><linearGradient id="lg2"><stop offset="0" stop-color="#48b2e3" stop-opacity="0"/><stop offset="1" stop-color="#0b799d"/></linearGradient><linearGradient id="SVGID_3_" gradientUnits="userSpaceOnUse" x1="329.588" x2="51.724" xlink:href="#lg2" y1="245.779" y2="21.695"/><linearGradient id="SVGID_4_" gradientUnits="userSpaceOnUse" x1="255" x2="255" xlink:href="#lg2" y1="43.259" y2="159.036"/><linearGradient id="SVGID_5_" gradientUnits="userSpaceOnUse" x1="255" x2="255" y1="18.56" y2="66.738"><stop offset="0" stop-color="#48b2e3"/><stop offset="1" stop-color="#0b799d"/></linearGradient><linearGradient id="SVGID_6_" gradientUnits="userSpaceOnUse" x1="255" x2="255" y1="55.957" y2="14.631"><stop offset="0" stop-color="#0b799d" stop-opacity="0"/><stop offset="1" stop-color="#0b799d"/></linearGradient><linearGradient id="SVGID_7_" gradientUnits="userSpaceOnUse" x1="320.59" x2="268.487" xlink:href="#lg2" y1="101.299" y2="49.197"/><linearGradient id="lg3"><stop offset="0" stop-color="#0b799d"/><stop offset="1" stop-color="#07485e"/></linearGradient><linearGradient id="SVGID_8_" gradientUnits="userSpaceOnUse" x1="279.97" x2="286.801" xlink:href="#lg3" y1="60.7" y2="67.531"/><linearGradient id="SVGID_9_" gradientTransform="matrix(-1 0 0 -1 1483.439 -498.28)" gradientUnits="userSpaceOnUse" x1="1197.027" x2="1200.905" xlink:href="#lg3" y1="-565.422" y2="-561.543"/><linearGradient id="SVGID_10_" gradientUnits="userSpaceOnUse" x1="251.079" x2="112.412" xlink:href="#lg2" y1="131.345" y2="152.678"/><linearGradient id="SVGID_11_" gradientUnits="userSpaceOnUse" x1="195.405" x2="135.275" xlink:href="#lg2" y1="74.073" y2="49.797"/><linearGradient id="SVGID_12_" gradientUnits="userSpaceOnUse" x1="153.042" x2="178.276" xlink:href="#lg1" y1="61.736" y2="61.736"/><linearGradient id="SVGID_13_" gradientUnits="userSpaceOnUse" x1="380.002" x2="321.74" xlink:href="#lg2" y1="71.261" y2="48.479"/><linearGradient id="SVGID_14_" gradientUnits="userSpaceOnUse" x1="342.393" x2="367.627" xlink:href="#lg1" y1="61.736" y2="61.736"/><linearGradient id="SVGID_15_" gradientUnits="userSpaceOnUse" x1="51.445" x2="95.142" xlink:href="#lg2" y1="72.387" y2="136.251"/><linearGradient id="SVGID_16_" gradientUnits="userSpaceOnUse" x1="468.459" x2="414.676" xlink:href="#lg2" y1="71.799" y2="125.583"/><linearGradient id="SVGID_17_" gradientUnits="userSpaceOnUse" x1="255" x2="255" xlink:href="#lg2" y1="462.246" y2="505.942"/><linearGradient id="SVGID_19_" gradientUnits="userSpaceOnUse" x1="255" x2="255" xlink:href="#lg2" y1="444.38" y2="485.403"/><g><g><path d="" fill="url(#SVGID_1_)"/></g><path d="m477.116 128.184-25.117-101.86h-393.998l-25.117 101.86c-24.77 100.453-35.847 207.078-32.207 316.296.505 15.162 11.183 28.071 25.981 31.41l6.16 1.39c146.282 33.012 298.082 33.012 444.364 0l6.16-1.39c14.798-3.34 25.476-16.249 25.981-31.41 3.64-109.218-7.437-215.843-32.207-316.296z" fill="url(#SVGID_2_)"/><path d="m451.999 26.324h-199.201v475.7c75.254.164 150.522-8.075 224.383-24.744l6.16-1.39c14.798-3.34 25.476-16.249 25.981-31.41 3.641-109.218-7.436-215.843-32.206-316.296z" fill="url(#SVGID_3_)"/><path d="m255 84.508c83.775 0 158.453-6.928 206.972-17.739l-9.973-40.444h-393.998l-9.973 40.444c48.52 10.811 123.197 17.739 206.972 17.739z" fill="url(#SVGID_4_)"/><ellipse cx="255" cy="26.324" fill="url(#SVGID_5_)" rx="197.342" ry="18.364"/><path d="m107.17 38.488c36.156 3.802 88.98 6.201 147.83 6.201s111.674-2.398 147.83-6.201c-36.156-3.802-88.98-6.2-147.83-6.2s-111.674 2.397-147.83 6.2z" fill="url(#SVGID_6_)"/><g><path d="m326.79 111.865c-5.698 3.647-13.165 2.837-17.949-1.946l-34.618-34.618c-2.773-2.626-4.281-6.342-4.281-10.463 0-7.788 6.398-14.186 14.186-14.186 4.121 0 7.837 1.508 10.463 4.281l34.618 34.618c6.505 6.504 5.329 17.355-2.419 22.314z" fill="url(#SVGID_7_)"/><g><circle cx="284.079" cy="64.809" fill="url(#SVGID_8_)" r="14.409"/><circle cx="284.079" cy="64.809" fill="url(#SVGID_9_)" r="8.182"/></g></g><path d="m283.048 44.476c-16.672.291-30.05 13.882-30.05 30.576v147.938l-16.779-11.731c-11.076-7.744-17.674-20.408-17.674-33.923v-132.927c11.182.179 22.7.28 34.453.28 10.219 0 20.258-.067 30.05-.213z" fill="url(#SVGID_10_)"/><path d="m169.688 42.888c-2.467-.11-4.901-.226-7.31-.345v38.999c15.454 1.028 31.598 1.802 48.266 2.303z" fill="url(#SVGID_11_)"/><path d="m163.406 84.508h-6.162c-3.867 0-7.003-3.135-7.003-7.003v-31.539c0-3.867 3.135-7.003 7.003-7.003h6.162c3.867 0 7.003 3.135 7.003 7.003v31.539c-.001 3.868-3.136 7.003-7.003 7.003z" fill="url(#SVGID_12_)"/><path d="m394.022 77.495c-13.243 1.456-27.26 2.711-41.915 3.742v-38.923c2.151-.112 4.28-.224 6.386-.347z" fill="url(#SVGID_13_)"/><path d="m352.757 84.508h-6.162c-3.867 0-7.003-3.135-7.003-7.003v-31.539c0-3.867 3.135-7.003 7.003-7.003h6.162c3.867 0 7.003 3.135 7.003 7.003v31.539c-.001 3.868-3.136 7.003-7.003 7.003z" fill="url(#SVGID_14_)"/><g><path d="m106.063 76.351c-4.269 27.551-28.089 48.649-56.839 48.649-5.21 0-10.263-.706-15.058-2.006l13.86-56.223c16.525 3.687 36.099 6.913 58.037 9.58z" fill="url(#SVGID_15_)"/><path d="m475.913 123.285c-4.47 1.12-9.131 1.714-13.938 1.714-28.806 0-52.66-21.176-56.861-48.794 21.456-2.633 40.626-5.815 56.861-9.434z" fill="url(#SVGID_16_)"/></g><path d="m.02 408.61c.046 11.923.258 23.88.658 35.87.505 15.162 11.183 28.071 25.981 31.41l6.16 1.39c146.282 33.012 298.082 33.012 444.364 0l6.16-1.39c14.798-3.34 25.476-16.249 25.981-31.41.4-11.99.611-23.947.657-35.87-168.069 36.13-341.893 36.13-509.961 0z" fill="url(#SVGID_17_)"/><path d="m.02 408.61c.046 11.923.258 23.88.658 35.87.505 15.162 11.183 28.071 25.981 31.41l6.16 1.39c146.282 33.012 298.082 33.012 444.364 0l6.16-1.39c14.798-3.34 25.476-16.249 25.981-31.41.4-11.99.611-23.947.657-35.87-168.069 36.13-341.893 36.13-509.961 0z" fill="url(#SVGID_17_)"/><path d="m.043 394.027c-.137 16.747.072 33.569.635 50.453.143 4.298 1.128 8.402 2.769 12.171l1.639.329c164.541 33.012 335.289 33.012 499.83 0l1.639-.329c1.64-3.769 2.625-7.873 2.769-12.171.563-16.884.772-33.706.635-50.453-168.464 28.483-341.453 28.483-509.916 0z" fill="url(#SVGID_19_)"/></g></svg>