<svg id="Capa_1" enable-background="new 0 0 510 510" height="512" viewBox="0 0 510 510" width="512" xmlns="http://www.w3.org/2000/svg" xmlns:xlink="http://www.w3.org/1999/xlink"><linearGradient id="lg1"><stop offset="0" stop-color="#ff637b"/><stop offset="1" stop-color="#e63950"/></linearGradient><linearGradient id="SVGID_1_" gradientUnits="userSpaceOnUse" x1="204.554" x2="301.826" xlink:href="#lg1" y1="193.417" y2="395.984"/><linearGradient id="lg2"><stop offset="0" stop-color="#e63950" stop-opacity="0"/><stop offset=".0467" stop-color="#e4354b" stop-opacity=".047"/><stop offset=".4669" stop-color="#d31822" stop-opacity=".467"/><stop offset=".7991" stop-color="#c90709" stop-opacity=".799"/><stop offset="1" stop-color="#c50000"/></linearGradient><linearGradient id="SVGID_2_" gradientUnits="userSpaceOnUse" x1="74.969" x2="221.379" xlink:href="#lg2" y1="233.017" y2="352.351"/><linearGradient id="SVGID_3_" gradientUnits="userSpaceOnUse" x1="169.922" x2="363.463" xlink:href="#lg1" y1="156.155" y2="446.968"/><linearGradient id="SVGID_4_" gradientUnits="userSpaceOnUse" x1="394.506" x2="280.186" xlink:href="#lg2" y1="235.817" y2="290.971"/><linearGradient id="SVGID_5_" gradientUnits="userSpaceOnUse" x1="205.32" x2="307.624" xlink:href="#lg1" y1="242.362" y2="276.01"/><linearGradient id="SVGID_6_" gradientUnits="userSpaceOnUse" x1="255" x2="255" xlink:href="#lg2" y1="118.894" y2="222.518"/><linearGradient id="SVGID_7_" gradientUnits="userSpaceOnUse" x1="255" x2="255" xlink:href="#lg1" y1="96.788" y2="139.908"/><linearGradient id="SVGID_8_" gradientUnits="userSpaceOnUse" x1="255" x2="255" xlink:href="#lg2" y1="130.259" y2="93.271"/><linearGradient id="SVGID_9_" gradientUnits="userSpaceOnUse" x1="458.022" x2="383.146" xlink:href="#lg2" y1="215.369" y2="267.515"/><g><path d="m508.995 320.298c2.966 8.301-.827 17.487-8.775 21.298-57.205 27.426-145.786 45.022-245.22 45.022s-188.015-17.596-245.219-45.022c-7.948-3.811-11.741-12.997-8.775-21.298l77.371-216.561h353.248z" fill="url(#SVGID_1_)"/><path d="m115.52 103.737-62.234 254.903c-15.955-5.114-30.535-10.83-43.502-17.048-7.952-3.811-11.743-12.996-8.775-21.289l77.366-216.566z" fill="url(#SVGID_2_)"/><path d="m452.327 374.849c-61.351 30.373-333.304 30.373-394.654 0-4.374-2.165-6.607-7.124-5.45-11.864l63.294-259.248h278.966l63.294 259.248c1.157 4.741-1.076 9.699-5.45 11.864z" fill="url(#SVGID_3_)"/><path d="m452.332 374.845c-18.191 9.005-54.883 15.343-99.117 19.003.16-.261.301-.511.441-.772l-31.388-289.339h72.212l63.297 259.245c1.153 4.743-1.073 9.697-5.445 11.863z" fill="url(#SVGID_4_)"/><path d="m353.661 393.08c-21.377 39.493-175.945 39.493-197.322 0l31.391-289.342h134.54z" fill="url(#SVGID_5_)"/><path d="m65.767 139.023c43.26 10.198 111.919 16.79 189.233 16.79s145.973-6.592 189.233-16.79l-12.607-35.286h-353.252z" fill="url(#SVGID_6_)"/><ellipse cx="255" cy="103.737" fill="url(#SVGID_7_)" rx="176.626" ry="16.436"/><path d="m122.688 114.624c32.361 3.403 79.639 5.55 132.312 5.55s99.952-2.146 132.312-5.55c-32.361-3.403-79.639-5.55-132.312-5.55s-99.952 2.147-132.312 5.55z" fill="url(#SVGID_8_)"/><path d="m500.216 341.592c-12.966 6.217-27.547 11.933-43.502 17.048l-62.234-254.903h37.144l77.366 216.566c2.969 8.293-.822 17.479-8.774 21.289z" fill="url(#SVGID_9_)"/></g></svg>