<svg id="Capa_1" enable-background="new 0 0 510 510" height="512" viewBox="0 0 510 510" width="512" xmlns="http://www.w3.org/2000/svg" xmlns:xlink="http://www.w3.org/1999/xlink"><linearGradient id="lg1"><stop offset="0" stop-color="#ffda2d"/><stop offset="1" stop-color="#fdbf00"/></linearGradient><linearGradient id="SVGID_1_" gradientUnits="userSpaceOnUse" x1="334.723" x2="422.408" xlink:href="#lg1" y1="286.417" y2="352.648"/><linearGradient id="lg2"><stop offset="0" stop-color="#ff7bab"/><stop offset="1" stop-color="#ff637b"/></linearGradient><linearGradient id="SVGID_2_" gradientUnits="userSpaceOnUse" x1="389.422" x2="438.257" xlink:href="#lg2" y1="332.811" y2="363.802"/><linearGradient id="SVGID_3_" gradientUnits="userSpaceOnUse" x1="360.668" x2="376.794" xlink:href="#lg2" y1="141.261" y2="192.392"/><linearGradient id="SVGID_4_" gradientUnits="userSpaceOnUse" x1="360.668" x2="376.794" xlink:href="#lg2" y1="94.85" y2="145.981"/><linearGradient id="lg3"><stop offset="0" stop-color="#e63950" stop-opacity="0"/><stop offset=".9663" stop-color="#e63950" stop-opacity=".966"/><stop offset="1" stop-color="#e63950"/></linearGradient><linearGradient id="SVGID_5_" gradientUnits="userSpaceOnUse" x1="434.895" x2="386.999" xlink:href="#lg3" y1="111.031" y2="92.562"/><linearGradient id="SVGID_6_" gradientUnits="userSpaceOnUse" x1="401.84" x2="336.727" xlink:href="#lg3" y1="111.626" y2="93.157"/><linearGradient id="SVGID_7_" gradientUnits="userSpaceOnUse" x1="355.595" x2="322.725" xlink:href="#lg3" y1="106.206" y2="85.858"/><linearGradient id="SVGID_8_" gradientUnits="userSpaceOnUse" x1="322.229" x2="273.395" xlink:href="#lg3" y1="108.595" y2="82.612"/><linearGradient id="SVGID_9_" gradientUnits="userSpaceOnUse" x1="286.892" x2="223.971" xlink:href="#lg3" y1="109.318" y2="82.71"/><linearGradient id="SVGID_10_" gradientUnits="userSpaceOnUse" x1="197.29" x2="278.439" xlink:href="#lg2" y1="416.579" y2="497.728"/><linearGradient id="SVGID_11_" gradientUnits="userSpaceOnUse" x1="340.815" x2="381.51" xlink:href="#lg3" y1="402.14" y2="451.601"/><linearGradient id="SVGID_12_" gradientUnits="userSpaceOnUse" x1="393.574" x2="233.923" xlink:href="#lg3" y1="325.772" y2="266.607"/><linearGradient id="SVGID_13_" gradientUnits="userSpaceOnUse" x1="224.909" x2="312.594" xlink:href="#lg1" y1="224.992" y2="291.222"/><linearGradient id="SVGID_14_" gradientUnits="userSpaceOnUse" x1="279.608" x2="328.443" xlink:href="#lg2" y1="271.386" y2="302.377"/><linearGradient id="SVGID_15_" gradientUnits="userSpaceOnUse" x1="250.854" x2="266.98" xlink:href="#lg2" y1="79.836" y2="130.967"/><linearGradient id="SVGID_16_" gradientUnits="userSpaceOnUse" x1="250.854" x2="266.98" xlink:href="#lg2" y1="33.424" y2="84.555"/><linearGradient id="SVGID_17_" gradientUnits="userSpaceOnUse" x1="325.08" x2="277.185" xlink:href="#lg3" y1="49.606" y2="31.136"/><linearGradient id="SVGID_18_" gradientUnits="userSpaceOnUse" x1="292.026" x2="226.913" xlink:href="#lg3" y1="50.201" y2="31.731"/><linearGradient id="SVGID_19_" gradientUnits="userSpaceOnUse" x1="245.781" x2="212.911" xlink:href="#lg3" y1="44.781" y2="24.433"/><linearGradient id="SVGID_20_" gradientUnits="userSpaceOnUse" x1="212.415" x2="163.581" xlink:href="#lg3" y1="47.169" y2="21.187"/><linearGradient id="SVGID_21_" gradientUnits="userSpaceOnUse" x1="177.078" x2="114.157" xlink:href="#lg3" y1="47.893" y2="21.284"/><linearGradient id="SVGID_22_" gradientUnits="userSpaceOnUse" x1="87.476" x2="168.625" xlink:href="#lg2" y1="355.154" y2="436.303"/><linearGradient id="SVGID_23_" gradientUnits="userSpaceOnUse" x1="231.001" x2="271.696" xlink:href="#lg3" y1="340.715" y2="390.175"/><g><g><path d="m458.098 80.378v218.103c0 44.721-20.144 87.066-54.854 115.278l-93.471 75.975c-16.83 13.636-37.049 20.266-57.146 20.266-26.465 0-52.694-11.504-70.65-33.658-31.583-38.993-25.591-96.204 13.401-127.796l67.749-55.061c8.386-6.827 13.26-17.064 13.26-27.873v-184.734c0-10.466 8.27-19.328 18.735-19.45 5.321-.062 10.141 2.072 13.628 5.549.02.02.041.041.061.062 2.503 2.526 6.502 2.547 9.001.017 3.435-3.477 8.208-5.629 13.486-5.629 5.231 0 9.964 2.122 13.401 5.55.02.02.041.041.061.062 2.503 2.526 6.502 2.547 9.001.017 3.435-3.477 8.208-5.629 13.486-5.629 5.231 0 9.964 2.122 13.401 5.55.02.02.041.041.061.062 2.503 2.526 6.502 2.547 9.001.017 3.435-3.477 8.208-5.629 13.486-5.629 5.231 0 9.964 2.122 13.401 5.55.021.02.041.041.061.062 2.503 2.526 6.502 2.547 9.001.017 3.435-3.477 8.208-5.629 13.486-5.629 5.231 0 9.974 2.122 13.401 5.55 3.43 3.428 5.552 8.17 5.552 13.401z" fill="url(#SVGID_1_)"/><path d="m333.003 368.904c0 29.999 10.509 57.54 28.037 79.157l42.201-34.301c34.708-28.21 54.859-70.557 54.859-115.283v-55.342c-69.151.367-125.097 56.531-125.097 125.769z" fill="url(#SVGID_2_)"/><g><path d="m458.1 147.521-3.501 2.987c-2.531 2.159-6.257 2.159-8.788 0l-8.436-7.198c-8.596-7.331-21.071-7.33-29.66.002l-8.432 7.194c-2.531 2.16-6.257 2.16-8.788-.001l-8.43-7.194c-8.594-7.329-21.069-7.331-29.662.002l-12.823 10.942-12.823-10.941c-8.596-7.335-21.072-7.335-29.663 0l-8.425 7.19c-2.531 2.16-6.258 2.16-8.789 0l-3.492-2.981v29.179c7.563 2.803 16.243 1.446 22.718-4.082l8.426-7.19c2.531-2.16 6.257-2.16 8.788 0l8.427 7.191c8.595 7.337 21.071 7.335 29.663 0l8.428-7.192c2.531-2.16 6.257-2.16 8.789 0l8.428 7.192c8.595 7.334 21.07 7.335 29.662.001l8.433-7.195c2.531-2.159 6.257-2.159 8.788.001l8.434 7.196c4.297 3.667 9.563 5.5 14.831 5.499 2.674 0 5.347-.478 7.895-1.423v-29.179z" fill="url(#SVGID_3_)"/><path d="m458.1 101.11-3.501 2.987c-2.531 2.159-6.257 2.159-8.788 0l-8.436-7.198c-8.596-7.331-21.071-7.33-29.66.002l-8.432 7.194c-2.531 2.16-6.257 2.16-8.788-.001l-8.43-7.194c-8.594-7.329-21.069-7.331-29.662.002l-12.823 10.942-12.823-10.941c-8.596-7.335-21.072-7.335-29.663 0l-8.425 7.19c-2.531 2.16-6.258 2.16-8.789 0l-3.492-2.981v29.179c7.563 2.803 16.243 1.446 22.718-4.082l8.426-7.19c2.531-2.16 6.257-2.16 8.788 0l8.427 7.191c8.595 7.337 21.071 7.335 29.663 0l8.428-7.192c2.531-2.16 6.257-2.16 8.789 0l8.428 7.192c8.595 7.334 21.07 7.335 29.662.001l8.433-7.195c2.531-2.159 6.257-2.159 8.788.001l8.434 7.196c4.297 3.667 9.563 5.5 14.831 5.499 2.674 0 5.347-.478 7.895-1.423v-29.179z" fill="url(#SVGID_4_)"/></g><g><path d="m458.098 80.378v77.591h-37.912v-89.105c.648.103 1.315.103 1.963 0 1.287-.197 2.517-.798 3.512-1.813 3.437-3.475 8.208-5.625 13.486-5.625 5.231 0 9.974 2.122 13.401 5.55 3.428 3.429 5.55 8.171 5.55 13.402z" fill="url(#SVGID_5_)"/><path d="m422.148 68.864v89.104h-37.913v-89.104c.648.103 1.315.103 1.963 0 1.287-.197 2.517-.798 3.512-1.813 3.437-3.475 8.208-5.625 13.486-5.625 5.231 0 9.964 2.122 13.401 5.55l.066.066c.995 1.014 2.235 1.625 3.522 1.822.648.104 1.315.104 1.963 0z" fill="url(#SVGID_6_)"/><path d="m386.198 68.864v89.104h-37.913v-89.104c.648.103 1.315.103 1.963 0 1.287-.197 2.517-.798 3.512-1.813 3.437-3.475 8.208-5.625 13.486-5.625 5.231 0 9.964 2.122 13.401 5.55.019.019.038.038.066.066.995 1.014 2.235 1.625 3.522 1.822.649.104 1.315.104 1.963 0z" fill="url(#SVGID_7_)"/><path d="m350.249 68.864v89.104h-37.913v-89.104c.648.103 1.315.103 1.963 0 1.287-.197 2.517-.798 3.512-1.813 3.437-3.475 8.208-5.625 13.486-5.625 5.231 0 9.964 2.122 13.401 5.55l.066.066c.995 1.014 2.235 1.625 3.522 1.822.648.104 1.315.104 1.963 0z" fill="url(#SVGID_8_)"/><path d="m314.299 68.864v89.104h-37.913v-77.092c0-10.462 8.274-19.327 18.736-19.449 5.315-.056 10.143 2.076 13.627 5.55.019.019.038.038.066.066.995 1.014 2.235 1.625 3.522 1.822.647.103 1.314.103 1.962-.001z" fill="url(#SVGID_9_)"/></g><path d="m301.949 492.655c0-62.935-51.019-113.954-113.954-113.954-5.934 0-11.762.455-17.451 1.329-14.575 30.623-11.337 68.201 11.431 96.312 17.957 22.154 44.187 33.658 70.652 33.658 17.06 0 34.2-4.797 49.287-14.583.022-.918.035-1.839.035-2.762z" fill="url(#SVGID_10_)"/><path d="m458.098 298.481v-18.097l-262.54 209.515c16.434 13.265 36.68 20.101 57.069 20.101 20.097 0 40.317-6.63 57.146-20.266l93.471-75.975c34.71-28.212 54.854-70.557 54.854-115.278z" fill="url(#SVGID_11_)"/></g><path d="m458.101 178.685v119.795c0 44.721-20.144 87.066-54.854 115.278l-93.471 75.975c-16.829 13.636-37.049 20.266-57.146 20.266-26.465 0-52.694-11.504-70.65-33.658-31.583-38.992-25.591-96.204 13.401-127.796l67.749-55.061c8.386-6.827 13.26-17.064 13.26-27.873v-184.736c0-10.462 8.264-19.327 18.736-19.449 5.315-.056 10.133 2.076 13.627 5.55.019.019.038.038.056.066 2.508 2.526 6.508 2.545 9.006.009 3.428-3.475 8.208-5.625 13.486-5.625 5.231 0 9.964 2.122 13.401 5.55.019.019.038.038.056.066 1.005 1.014 2.245 1.625 3.531 1.822z" fill="url(#SVGID_12_)"/><g><path d="m348.284 18.953v218.103c0 44.721-20.144 87.066-54.854 115.278l-93.471 75.975c-16.829 13.636-37.049 20.266-57.146 20.266-26.465 0-52.694-11.504-70.65-33.658-31.583-38.993-25.591-96.204 13.401-127.796l67.749-55.061c8.386-6.827 13.26-17.064 13.26-27.873v-184.734c0-10.466 8.27-19.328 18.735-19.45 5.321-.062 10.141 2.072 13.628 5.549.02.02.041.041.061.062 2.503 2.526 6.502 2.547 9.001.017 3.435-3.477 8.208-5.629 13.486-5.629 5.231 0 9.964 2.122 13.401 5.55.02.02.041.041.061.062 2.503 2.526 6.502 2.547 9.001.017 3.435-3.477 8.208-5.629 13.486-5.629 5.231 0 9.964 2.122 13.401 5.55.02.02.041.041.061.062 2.503 2.526 6.502 2.547 9.001.017 3.435-3.477 8.208-5.629 13.486-5.629 5.231 0 9.964 2.122 13.401 5.55.02.02.041.041.061.062 2.503 2.526 6.502 2.547 9.001.017 3.435-3.477 8.208-5.629 13.486-5.629 5.231 0 9.974 2.122 13.401 5.55 3.429 3.427 5.552 8.17 5.552 13.401z" fill="url(#SVGID_13_)"/><path d="m223.189 307.479c0 29.999 10.509 57.54 28.037 79.157l42.201-34.301c34.708-28.21 54.859-70.557 54.859-115.283v-55.342c-69.151.366-125.097 56.531-125.097 125.769z" fill="url(#SVGID_14_)"/><g><path d="m348.286 86.096-3.501 2.987c-2.531 2.159-6.257 2.159-8.788 0l-8.436-7.198c-8.596-7.331-21.071-7.33-29.66.002l-8.432 7.194c-2.531 2.16-6.257 2.16-8.788-.001l-8.43-7.194c-8.594-7.329-21.069-7.331-29.662.002l-12.823 10.942-12.823-10.941c-8.596-7.335-21.072-7.335-29.663 0l-8.425 7.19c-2.531 2.16-6.258 2.16-8.789 0l-3.492-2.981v29.179c7.563 2.803 16.243 1.446 22.718-4.082l8.426-7.19c2.531-2.16 6.257-2.16 8.788 0l8.427 7.191c8.595 7.337 21.071 7.335 29.663 0l8.428-7.192c2.531-2.16 6.257-2.16 8.789 0l8.428 7.192c8.595 7.334 21.07 7.335 29.662.001l8.433-7.195c2.531-2.159 6.257-2.159 8.788.001l8.434 7.196c4.297 3.667 9.563 5.5 14.831 5.499 2.674 0 5.347-.478 7.895-1.423v-29.179z" fill="url(#SVGID_15_)"/><path d="m348.286 39.685-3.501 2.987c-2.531 2.159-6.257 2.159-8.788 0l-8.436-7.198c-8.596-7.331-21.071-7.33-29.66.002l-8.432 7.194c-2.531 2.16-6.257 2.16-8.788-.001l-8.43-7.194c-8.594-7.329-21.069-7.331-29.662.002l-12.823 10.942-12.823-10.941c-8.596-7.335-21.072-7.335-29.663 0l-8.425 7.19c-2.531 2.16-6.258 2.16-8.789 0l-3.492-2.981v29.179c7.563 2.803 16.243 1.446 22.718-4.082l8.426-7.19c2.531-2.16 6.257-2.16 8.788 0l8.427 7.191c8.595 7.337 21.071 7.335 29.663 0l8.428-7.192c2.531-2.16 6.257-2.16 8.789 0l8.428 7.192c8.595 7.334 21.07 7.335 29.662.001l8.433-7.195c2.531-2.159 6.257-2.159 8.788.001l8.434 7.196c4.297 3.667 9.563 5.5 14.831 5.499 2.674 0 5.347-.478 7.895-1.423v-29.179z" fill="url(#SVGID_16_)"/></g><g><path d="m348.284 18.953v77.591h-37.912v-89.105c.648.103 1.315.103 1.963 0 1.287-.197 2.517-.798 3.512-1.813 3.437-3.475 8.208-5.625 13.486-5.625 5.231 0 9.974 2.122 13.401 5.55s5.55 8.171 5.55 13.402z" fill="url(#SVGID_17_)"/><path d="m312.334 7.439v89.104h-37.913v-89.104c.648.103 1.315.103 1.963 0 1.287-.197 2.517-.798 3.512-1.813 3.437-3.475 8.208-5.625 13.486-5.625 5.231 0 9.964 2.122 13.401 5.55l.066.066c.995 1.014 2.235 1.625 3.522 1.822.648.103 1.315.103 1.963 0z" fill="url(#SVGID_18_)"/><path d="m276.384 7.439v89.104h-37.913v-89.104c.648.103 1.315.103 1.963 0 1.287-.197 2.517-.798 3.512-1.813 3.437-3.475 8.208-5.625 13.486-5.625 5.231 0 9.964 2.122 13.401 5.55.019.019.038.038.066.066.995 1.014 2.235 1.625 3.522 1.822.649.103 1.315.103 1.963 0z" fill="url(#SVGID_19_)"/><path d="m240.435 7.439v89.104h-37.913v-89.104c.648.103 1.315.103 1.963 0 1.287-.197 2.517-.798 3.512-1.813 3.437-3.475 8.208-5.625 13.486-5.625 5.231 0 9.964 2.122 13.401 5.55l.066.066c.995 1.014 2.235 1.625 3.522 1.822.648.103 1.315.103 1.963 0z" fill="url(#SVGID_20_)"/><path d="m204.485 7.439v89.104h-37.913v-77.093c0-10.462 8.274-19.327 18.736-19.449 5.315-.056 10.143 2.076 13.627 5.55.019.019.038.038.066.066.995 1.014 2.235 1.625 3.522 1.822.647.103 1.314.103 1.962 0z" fill="url(#SVGID_21_)"/></g><path d="m192.135 431.229c0-62.935-51.019-113.954-113.954-113.954-5.934 0-11.762.455-17.451 1.329-14.575 30.623-11.337 68.201 11.431 96.312 17.956 22.154 44.186 33.658 70.65 33.658 17.06 0 34.2-4.797 49.287-14.583.024-.917.037-1.838.037-2.762z" fill="url(#SVGID_22_)"/><path d="m348.284 237.055v-18.097l-262.54 209.515c16.434 13.266 36.68 20.102 57.069 20.102 20.097 0 40.317-6.63 57.146-20.266l93.471-75.975c34.71-28.212 54.854-70.558 54.854-115.279z" fill="url(#SVGID_23_)"/></g></g></svg>