<svg id="Capa_1" enable-background="new 0 0 510 510" height="512" viewBox="0 0 510 510" width="512" xmlns="http://www.w3.org/2000/svg" xmlns:xlink="http://www.w3.org/1999/xlink"><linearGradient id="lg1"><stop offset="0" stop-color="#b063de"/><stop offset="1" stop-color="#793981"/></linearGradient><linearGradient id="SVGID_1_" gradientUnits="userSpaceOnUse" x1="254.999" x2="254.999" xlink:href="#lg1" y1="546.139" y2="463.522"/><linearGradient id="SVGID_2_" gradientUnits="userSpaceOnUse" x1="104.217" x2="235.328" y1="145.283" y2="230.001"><stop offset="0" stop-color="#ffdecf"/><stop offset="1" stop-color="#faa68e"/></linearGradient><linearGradient id="SVGID_3_" gradientUnits="userSpaceOnUse" x1="257.875" x2="302.398" xlink:href="#lg1" y1="250.041" y2="537.537"/><linearGradient id="lg2"><stop offset="0" stop-color="#662d90" stop-opacity="0"/><stop offset=".1835" stop-color="#5c2d85" stop-opacity=".184"/><stop offset=".6917" stop-color="#442d6c" stop-opacity=".692"/><stop offset="1" stop-color="#3b2d63"/></linearGradient><linearGradient id="SVGID_4_" gradientUnits="userSpaceOnUse" x1="254.999" x2="254.999" xlink:href="#lg2" y1="439.981" y2="304.884"/><linearGradient id="SVGID_5_" gradientUnits="userSpaceOnUse" x1="254.999" x2="254.999" xlink:href="#lg1" y1="249.991" y2="-22.393"/><linearGradient id="SVGID_6_" gradientUnits="userSpaceOnUse" x1="254.999" x2="254.999" xlink:href="#lg2" y1="222.921" y2="308.31"/><g><path d="m43.021 416.029s23.052 24.325 29.291 54.272c1.914 9.186 8.973 16.424 18.101 18.598 30.182 7.191 97.26 21.1 164.587 21.1s134.405-13.909 164.587-21.1c9.128-2.175 16.187-9.412 18.101-18.598 6.239-29.947 29.291-54.272 29.291-54.272z" fill="url(#SVGID_1_)"/><path d="m472.287 239.706c-29.847-42.223-48.289-91.404-51.916-142.984-3.264-46.429-35.206-97.106-56.294-96.713l-25.135.61 19.881 58.098 5.902 70.038c3.568 42.342 4.523 84.874 2.74 127.328-.009.218-.018.436-.028.654-6.779 32.161-35.31 59.307-69.488 59.307l-81.902-3c-34.178 0-62.71-24.145-69.488-56.307-.009-.218-.018-.435-.028-.654-1.783-42.455-.828-84.986 2.74-127.328l5.902-70.038 19.881-58.098-33.135-.61c-21.087-.393-53.029 50.284-56.294 96.713-3.625 51.58-22.067 100.76-51.914 142.984-16.586 23.464-26.28 52.147-26.131 83.106.22 45.729 22.254 86.638 56.21 112.709 23.509 18.05 52.733 18.988 84.389 19.49 15.257.242 29.977-1.908 43.809-6.098 41.024-12.428 85-12.428 126.023 0 13.832 4.19 28.551 6.34 43.809 6.098 77.38-1.228 136.227-54.81 136.599-132.199.148-30.959-9.545-59.642-26.132-83.106z" fill="url(#SVGID_2_)"/><path d="m502.42 322.814c-.379 77.383-63.221 140.969-140.603 142.203-15.26.23-29.977-1.911-43.801-6.098-41.036-12.428-84.999-12.428-126.035 0-13.823 4.187-28.541 6.329-43.801 6.098-30.798-.495-59.289-10.863-82.457-28.045-23.668-17.553-26.06-52.124-5.224-72.961 32.843-32.843 77.387-51.293 123.833-51.293h24.981c2.222.217 4.459.325 6.735.325h77.898c34.178 0 62.706-24.15 69.495-56.309 0-.217.014-.434.027-.65 1.775-42.459.827-84.985-2.751-127.336l-5.895-70.037-19.879-58.099 33.135-.61c21.087-.393 53.03 50.292 56.296 96.721 3.618 51.579 22.063 100.76 51.918 142.989 16.588 23.459 26.277 52.135 26.128 83.102z" fill="url(#SVGID_3_)"/><path d="m254.999 387.265c-51.947 0-95.012 33.665-103.005 77.732 13.895-.143 27.32-2.245 39.994-6.084 41.024-12.428 85-12.428 126.023 0 12.674 3.84 26.098 5.941 39.994 6.084-7.994-44.066-51.059-77.732-103.006-77.732z" fill="url(#SVGID_4_)"/><path d="m354.824 58.716c-5.299-36.143-12.251-58.098-19.881-58.098-16.574 0-30.018 50.665-30.018 178.556 0 6.841.039 13.611.114 20.301.314 27.837-22.201 50.55-50.04 50.55-27.839 0-50.354-22.713-50.04-50.55.076-6.689.114-13.46.114-20.301 0-127.891-13.444-178.556-30.018-178.556-7.63 0-14.582 21.954-19.881 58.098 6.22 42.432 10.137 51.411 10.137 120.459 0 39.274-1.26 76.271-3.51 108.674 6.884 8.139 15.57 14.698 25.437 19.083v.006c.075.034.154.062.229.095.936.412 1.882.804 2.838 1.176.149.058.298.118.448.175 2.13.812 4.307 1.529 6.53 2.135.308.084.621.158.931.239.502.129 1 .268 1.506.386.001-.007.001-.014.002-.021 5.244 1.239 10.703 1.918 16.326 1.918h77.902c5.623 0 11.083-.679 16.326-1.918 0 .007.001.014.002.021.506-.119 1.004-.257 1.506-.386.31-.081.623-.155.931-.239 2.223-.607 4.4-1.323 6.53-2.135.15-.057.298-.117.448-.175.957-.372 1.902-.764 2.838-1.176.075-.033.154-.061.229-.095v-.006c9.867-4.385 18.553-10.944 25.437-19.083-2.25-32.403-3.51-69.4-3.51-108.674 0-69.048 3.917-78.027 10.137-120.459z" fill="url(#SVGID_5_)"/><path d="m305.077 156.359c-.1 7.316-.152 14.917-.152 22.816 0 6.841.039 13.611.114 20.301.314 27.837-22.202 50.55-50.04 50.55-27.839 0-50.355-22.713-50.04-50.55.076-6.689.114-13.46.114-20.301 0-7.899-.052-15.5-.152-22.816h-39.783c.114 6.822.173 14.367.173 22.816 0 39.274-1.26 76.271-3.51 108.674 6.884 8.139 15.57 14.698 25.437 19.083v.006c.075.034.154.062.229.095.936.412 1.882.804 2.838 1.176.149.058.298.118.448.175 2.13.812 4.307 1.529 6.53 2.135.308.084.621.158.931.239.502.129 1 .268 1.506.386.001-.007.001-.014.002-.021 5.244 1.239 10.703 1.918 16.326 1.918h77.902c5.623 0 11.083-.679 16.326-1.918 0 .007.001.014.002.021.506-.119 1.004-.257 1.506-.386.31-.081.623-.155.931-.239 2.223-.607 4.4-1.323 6.53-2.135.15-.057.298-.117.448-.175.957-.372 1.902-.764 2.838-1.176.075-.033.154-.061.229-.095v-.006c9.867-4.385 18.553-10.944 25.437-19.083-2.25-32.403-3.51-69.4-3.51-108.674 0-8.449.059-15.994.173-22.816z" fill="url(#SVGID_6_)"/></g></svg>