<svg id="Capa_1" enable-background="new 0 0 510 510" height="512" viewBox="0 0 510 510" width="512" xmlns="http://www.w3.org/2000/svg" xmlns:xlink="http://www.w3.org/1999/xlink"><linearGradient id="lg1"><stop offset="0" stop-color="#0b799d"/><stop offset="1" stop-color="#07485e"/></linearGradient><linearGradient id="SVGID_1_" gradientUnits="userSpaceOnUse" x1="255" x2="255" xlink:href="#lg1" y1="269.055" y2="293.445"/><linearGradient id="SVGID_2_" gradientUnits="userSpaceOnUse" x1="88.928" x2="111.83" xlink:href="#lg1" y1="158.992" y2="173.565"/><linearGradient id="lg2"><stop offset="0" stop-color="#07485e"/><stop offset="1" stop-color="#03232e"/></linearGradient><linearGradient id="SVGID_3_" gradientUnits="userSpaceOnUse" x1="158.656" x2="178.087" xlink:href="#lg2" y1="59.279" y2="88.773"/><linearGradient id="SVGID_4_" gradientTransform="matrix(-1 0 0 1 2392.405 0)" gradientUnits="userSpaceOnUse" x1="1971.334" x2="1994.235" xlink:href="#lg1" y1="158.992" y2="173.565"/><linearGradient id="SVGID_5_" gradientTransform="matrix(-1 0 0 1 2392.405 0)" gradientUnits="userSpaceOnUse" x1="2041.061" x2="2060.492" xlink:href="#lg2" y1="59.279" y2="88.773"/><linearGradient id="SVGID_6_" gradientUnits="userSpaceOnUse" x1="61.513" x2="178.976" xlink:href="#lg1" y1="285.149" y2="402.612"/><linearGradient id="SVGID_7_" gradientUnits="userSpaceOnUse" x1="201.78" x2="53.832" xlink:href="#lg1" y1="427.201" y2="279.253"/><linearGradient id="SVGID_8_" gradientUnits="userSpaceOnUse" x1="98.796" x2="164.151" xlink:href="#lg1" y1="325.125" y2="390.481"/><linearGradient id="SVGID_9_" gradientUnits="userSpaceOnUse" x1="346.255" x2="450.537" xlink:href="#lg1" y1="307.537" y2="411.819"/><linearGradient id="SVGID_10_" gradientUnits="userSpaceOnUse" x1="466.003" x2="326.502" xlink:href="#lg1" y1="428.685" y2="289.184"/><linearGradient id="SVGID_11_" gradientUnits="userSpaceOnUse" x1="346.076" x2="421.756" xlink:href="#lg1" y1="309.472" y2="385.151"/><g><path d="m221.16 309.705c3.834 0 7.309-2.236 8.915-5.718 4.344-9.422 45.508-9.422 49.852 0 1.605 3.482 5.08 5.718 8.915 5.718 7.174 0 11.925-7.44 8.919-13.953-7.457-16.159-23.795-27.374-42.76-27.374s-35.303 11.215-42.76 27.374c-3.007 6.513 1.745 13.953 8.919 13.953z" fill="url(#SVGID_1_)"/><g><g><path d="m26.233 300.297c-2.307 0-4.643-.615-6.757-1.905-6.13-3.742-8.068-11.749-4.33-17.884l122.576-202.794c9.518-15.561 25.34-25.704 43.419-27.849 18.082-2.141 35.831 4.015 48.704 16.9l.707.706c5.08 5.078 5.086 13.317.012 18.402-5.071 5.085-13.304 5.091-18.385.013l-.712-.713c-7.212-7.219-17.15-10.669-27.265-9.465-10.119 1.201-18.974 6.878-24.295 15.576l-122.563 202.774c-2.45 4.02-6.728 6.239-11.111 6.239z" fill="url(#SVGID_2_)"/><path d="m136.902 119.494c-12.054 0-19.463-13.191-13.191-23.484l11.923-19.567c9.909-16.199 26.39-26.77 45.218-29.004 2.437-.289 4.908-.435 7.347-.435 16.351 0 31.754 6.405 43.374 18.034l.705.704c6.025 6.022 6.031 15.826.015 21.856-2.917 2.925-6.798 4.535-10.928 4.535-4.122 0-7.997-1.605-10.914-4.52l-.713-.714c-5.788-5.794-13.451-8.984-21.578-8.984-1.218 0-2.453.073-3.67.218-9.371 1.112-17.571 6.37-22.499 14.425l-11.899 19.527c-2.803 4.602-7.801 7.409-13.19 7.409z" fill="url(#SVGID_3_)"/></g><g><path d="m483.767 300.297c2.307 0 4.643-.615 6.757-1.905 6.13-3.742 8.068-11.749 4.33-17.884l-122.576-202.794c-9.518-15.561-25.34-25.704-43.419-27.849-18.082-2.141-35.831 4.015-48.704 16.9l-.707.706c-5.08 5.078-5.086 13.317-.012 18.402 5.071 5.085 13.304 5.091 18.385.013l.712-.713c7.212-7.219 17.15-10.669 27.265-9.465 10.119 1.201 18.974 6.878 24.295 15.576l122.564 202.774c2.449 4.02 6.727 6.239 11.11 6.239z" fill="url(#SVGID_4_)"/><path d="m373.098 119.494c12.054 0 19.463-13.191 13.191-23.484l-11.923-19.567c-9.909-16.199-26.39-26.77-45.218-29.004-2.437-.289-4.908-.435-7.347-.435-16.351 0-31.754 6.405-43.374 18.034l-.705.704c-6.025 6.022-6.031 15.826-.015 21.856 2.917 2.925 6.798 4.535 10.928 4.535 4.122 0 7.997-1.605 10.914-4.52l.713-.714c5.788-5.794 13.451-8.984 21.578-8.984 1.218 0 2.453.073 3.67.218 9.371 1.112 17.571 6.37 22.499 14.425l11.899 19.527c2.803 4.602 7.801 7.409 13.19 7.409z" fill="url(#SVGID_5_)"/></g></g><g><g><path d="m235.804 286.382c-3.047-7.954-9.157-13.886-16.517-16.292-65.656-21.463-131.081-21.574-196.731-.339-8.189 2.649-14.724 9.71-17.402 18.858-13.06 44.612.582 89.068 19.888 129.977 10.792 22.868 30.689 38.486 53.436 41.579 37.822 5.143 75.324 3.267 113.019-5.524 11.348-2.646 21.072-10.815 26.786-22.22 23.237-46.371 36.799-95.707 17.521-146.039z" fill="url(#SVGID_6_)"/><path d="m219.387 296.824c-2.605-6.802-7.83-11.875-14.124-13.932-56.144-18.353-112.089-18.448-168.228-.29-7.002 2.265-12.591 8.303-14.881 16.126-11.168 38.148.498 76.163 17.007 111.145 9.229 19.555 26.243 32.91 45.694 35.555 32.342 4.398 64.411 2.793 96.645-4.723 9.704-2.263 18.019-9.248 22.905-19 19.87-39.654 31.468-81.841 14.982-124.881z" fill="url(#SVGID_7_)"/><path d="m211.029 302.14c-2.38-6.215-7.155-10.85-12.905-12.73-51.3-16.77-102.42-16.857-153.715-.265-6.398 2.07-11.505 7.587-13.597 14.735-10.204 34.857.455 69.593 15.54 101.557 8.432 17.868 23.979 30.071 41.752 32.488 29.552 4.018 58.854 2.552 88.307-4.316 8.867-2.068 16.464-8.45 20.929-17.361 18.155-36.233 28.752-74.781 13.689-114.108z" fill="url(#SVGID_8_)"/></g><g><path d="m274.196 286.382c3.047-7.954 9.157-13.886 16.517-16.292 65.656-21.463 131.081-21.574 196.731-.339 8.189 2.649 14.724 9.71 17.402 18.858 13.06 44.612-.582 89.068-19.888 129.977-10.792 22.868-30.689 38.486-53.436 41.579-37.822 5.143-75.324 3.267-113.019-5.524-11.348-2.646-21.072-10.815-26.786-22.22-23.237-46.371-36.799-95.707-17.521-146.039z" fill="url(#SVGID_9_)"/><path d="m290.613 296.824c2.605-6.802 7.83-11.875 14.124-13.932 56.144-18.353 112.089-18.448 168.228-.29 7.002 2.265 12.591 8.303 14.881 16.126 11.168 38.148-.498 76.163-17.007 111.145-9.229 19.555-26.243 32.91-45.694 35.555-32.342 4.398-64.411 2.793-96.645-4.723-9.704-2.263-18.019-9.248-22.905-19-19.87-39.654-31.468-81.841-14.982-124.881z" fill="url(#SVGID_10_)"/><path d="m298.971 302.14c2.38-6.215 7.155-10.85 12.905-12.73 51.3-16.77 102.42-16.857 153.715-.265 6.398 2.07 11.505 7.587 13.597 14.735 10.204 34.857-.455 69.593-15.54 101.557-8.432 17.868-23.979 30.071-41.752 32.488-29.552 4.018-58.854 2.552-88.307-4.316-8.866-2.068-16.464-8.45-20.929-17.361-18.155-36.233-28.752-74.781-13.689-114.108z" fill="url(#SVGID_11_)"/></g></g></g></svg>