<svg id="Capa_1" enable-background="new 0 0 510 510" height="512" viewBox="0 0 510 510" width="512" xmlns="http://www.w3.org/2000/svg" xmlns:xlink="http://www.w3.org/1999/xlink"><linearGradient id="lg1"><stop offset="0" stop-color="#ff7bab"/><stop offset="1" stop-color="#ff637b"/></linearGradient><linearGradient id="SVGID_1_" gradientUnits="userSpaceOnUse" x1="189.422" x2="284.088" xlink:href="#lg1" y1="65.696" y2="121.029"/><linearGradient id="SVGID_2_" gradientUnits="userSpaceOnUse" x1="304.63" x2="172.63" y1="171.077" y2="10.41"><stop offset="0" stop-color="#c50000" stop-opacity="0"/><stop offset="1" stop-color="#c50000"/></linearGradient><linearGradient id="SVGID_3_" gradientUnits="userSpaceOnUse" x1="237.142" x2="390.901" xlink:href="#lg1" y1="187.388" y2="671.812"/><linearGradient id="lg2"><stop offset="0" stop-color="#e63950" stop-opacity="0"/><stop offset="1" stop-color="#e63950"/></linearGradient><linearGradient id="SVGID_4_" gradientUnits="userSpaceOnUse" x1="355.939" x2="226.101" xlink:href="#lg2" y1="255.806" y2="47.574"/><linearGradient id="SVGID_5_" gradientUnits="userSpaceOnUse" x1="255" x2="255" xlink:href="#lg2" y1="467.827" y2="535.872"/><linearGradient id="SVGID_6_" gradientUnits="userSpaceOnUse" x1="93.184" x2="89.882" xlink:href="#lg2" y1="258.916" y2="367.324"/><linearGradient id="SVGID_7_" gradientUnits="userSpaceOnUse" x1="163.558" x2="-33.729" xlink:href="#lg2" y1="293.613" y2="391.053"/><linearGradient id="SVGID_8_" gradientUnits="userSpaceOnUse" x1="342.833" x2="483.053" xlink:href="#lg2" y1="292.95" y2="372.044"/><linearGradient id="SVGID_9_" gradientUnits="userSpaceOnUse" x1="252.781" x2="163.537" xlink:href="#lg2" y1="466.716" y2="377.472"/><linearGradient id="lg3"><stop offset="0" stop-color="#edf5ff"/><stop offset="1" stop-color="#d5e8fe"/></linearGradient><linearGradient id="SVGID_10_" gradientTransform="matrix(.613 -.613 .707 .707 1107.816 2377.248)" gradientUnits="userSpaceOnUse" x1="862.897" x2="862.897" xlink:href="#lg3" y1="-2029.382" y2="-2001.962"/><linearGradient id="SVGID_11_" gradientUnits="userSpaceOnUse" x1="379.78" x2="337.344" xlink:href="#lg2" y1="436.975" y2="394.539"/><linearGradient id="SVGID_12_" gradientTransform="matrix(-.613 -.613 -.707 .707 -532.929 2377.248)" gradientUnits="userSpaceOnUse" x1="915.804" x2="915.804" xlink:href="#lg3" y1="-1983.492" y2="-1956.072"/><linearGradient id="SVGID_13_" gradientUnits="userSpaceOnUse" x1="100.964" x2="254.414" xlink:href="#lg1" y1="231.072" y2="714.523"/><linearGradient id="SVGID_14_" gradientUnits="userSpaceOnUse" x1="320.61" x2="472.907" xlink:href="#lg1" y1="164.214" y2="644.03"/><linearGradient id="SVGID_15_" gradientUnits="userSpaceOnUse" x1="386.06" x2="298.215" y1="334.292" y2="323.863"><stop offset="0" stop-color="#ff637b" stop-opacity="0"/><stop offset="1" stop-color="#ffa1ce"/></linearGradient><linearGradient id="SVGID_16_" gradientUnits="userSpaceOnUse" x1="322.152" x2="84.682" xlink:href="#lg2" y1="290.38" y2="230.176"/><linearGradient id="SVGID_17_" gradientUnits="userSpaceOnUse" x1="240.833" x2="247.873" xlink:href="#lg3" y1="246.276" y2="246.276"/><linearGradient id="SVGID_18_" gradientUnits="userSpaceOnUse" x1="260.142" x2="267.182" xlink:href="#lg3" y1="265.406" y2="265.406"/><linearGradient id="SVGID_19_" gradientUnits="userSpaceOnUse" x1="221.432" x2="207.83" xlink:href="#lg1" y1="180.906" y2="199.505"/><linearGradient id="SVGID_20_" gradientTransform="matrix(-1 0 0 1 433.016 0)" gradientUnits="userSpaceOnUse" x1="144.448" x2="130.846" xlink:href="#lg1" y1="180.906" y2="199.505"/><g><path d="m333.916 87.739c0 48.457-35.332 125.375-78.916 125.375s-78.916-76.918-78.916-125.375 35.332-87.739 78.916-87.739 78.916 39.282 78.916 87.739z" fill="url(#SVGID_1_)"/><path d="m316 99.271c0 44-27.311 113.843-61 113.843s-61-69.843-61-113.843 27.311-79.669 61-79.669 61 35.669 61 79.669z" fill="url(#SVGID_2_)"/><path d="m452.273 248.819-45.62 45.628c-5.516 5.516-14.448 5.516-19.956 0l-6.38-3.904v181.548c0 20.934-16.971 37.905-37.905 37.905h-174.824c-20.934 0-37.905-16.971-37.905-37.905v-181.547l-6.38 3.904c-5.507 5.516-14.44 5.516-19.956 0l-45.62-45.628c-5.516-5.507 5.465-25.413 5.465-25.413l20.787-20.795c29.266-29.266 68.951-45.704 110.339-45.704 1.799 0 3.377 1.173 3.919 2.888.036.112.072.224.11.336 9.747 28.175 31.449 47.786 56.651 47.786 25.203 0 46.905-19.611 56.652-47.786.038-.112.075-.224.11-.336.543-1.715 2.12-2.888 3.919-2.888 41.38 0 81.073 16.438 110.331 45.704l20.77 20.762c.002-.001 11.008 19.938 5.493 25.445z" fill="url(#SVGID_3_)"/><path d="m465.999 298.461c-3.451 11.77-9.823 22.869-19.108 32.154l-28.964 28.972-1.293 1.284-22.441 22.449-188.347-188.34c-13.088-11.896-14.381-38.073-11.527-38.073 1.797 0 3.375 1.175 3.921 2.888.034.109.067.227.109.336 9.747 28.175 31.449 47.786 56.651 47.786 25.203 0 46.905-19.611 56.652-47.786.042-.109.076-.227.109-.336.546-1.713 2.124-2.888 3.921-2.888 2.854 0 5.7.076 8.53.235 38.274 2.09 74.559 18.218 101.801 45.469l20.77 20.762s.008.008.008.017l.101.092c20.299 20.3 26.671 49.247 19.107 74.979z" fill="url(#SVGID_4_)"/><path d="m129.685 423.872v48.223c0 20.934 16.971 37.905 37.905 37.905h174.819c20.934 0 37.905-16.971 37.905-37.905v-48.223z" fill="url(#SVGID_5_)"/><path d="m83.983 202.61-20.767 20.767s-11.003 19.936-5.493 25.446l45.627 45.627c5.51 5.51 14.443 5.51 19.953 0l6.381-3.904v-119.61c-16.847 7.668-32.36 18.333-45.701 31.674z" fill="url(#SVGID_6_)"/><path d="m236.581 204.291v192.664h-106.898v-226.019c20.107-9.151 42.119-14.029 64.635-14.029 1.799 0 3.377 1.173 3.919 2.888.036.112.072.224.11.336 7.272 21.005 21.183 37.25 38.234 44.16z" fill="url(#SVGID_7_)"/><path d="m380.317 170.936v226.018h-106.898v-192.663c17.051-6.909 30.962-23.154 38.232-44.159.038-.112.075-.224.11-.336.543-1.715 2.12-2.888 3.919-2.888 22.517 0 44.53 4.877 64.637 14.028z" fill="url(#SVGID_8_)"/><path d="m349.044 509.409-120.263-120.271-53.579 53.579 67.28 67.28h100.062c2.218-.008 4.388-.215 6.5-.588z" fill="url(#SVGID_9_)"/><g><g><g><path d="m234.1 410.134-35.623 35.626c-2.601 2.602-6.819 2.602-9.421.001l-5.53-5.529c-2.602-2.601-2.602-6.819-.001-9.421l35.623-35.627c2.601-2.602 6.819-2.602 9.421 0l5.53 5.529c2.602 2.602 2.602 6.82.001 9.421z" fill="url(#SVGID_10_)"/></g></g><path d="m380.317 361.307v110.784c0 11.418-5.046 21.651-13.03 28.594l-63.175-63.175z" fill="url(#SVGID_11_)"/><g><g><path d="m275.9 410.134 35.623 35.626c2.601 2.602 6.819 2.602 9.421.001l5.53-5.529c2.602-2.601 2.602-6.819 0-9.421l-35.623-35.627c-2.601-2.602-6.819-2.602-9.421 0l-5.53 5.529c-2.601 2.602-2.601 6.82 0 9.421z" fill="url(#SVGID_12_)"/></g></g></g><path d="m63.218 223.379-.107.107c-29.586 29.581-29.588 77.546-.005 107.131l111.006 111.012c4.912 4.912 12.877 4.912 17.789 0l35.788-35.788c4.91-4.91 4.912-12.87.005-17.783z" fill="url(#SVGID_13_)"/><path d="m446.889 223.486-.107-.107-164.319 164.522c-4.993 5-4.991 13.1.006 18.097l35.474 35.474c4.999 4.999 13.104 4.999 18.102 0l110.849-110.855c29.583-29.584 29.581-77.549-.005-107.131z" fill="url(#SVGID_14_)"/><path d="m446.889 223.486-.107-.107-164.476 164.679c-4.907 4.913-4.905 12.873.006 17.783l35.788 35.788c4.912 4.912 12.877 4.912 17.789 0l111.006-111.012c29.582-29.584 29.58-77.549-.006-107.131z" fill="url(#SVGID_15_)"/><path d="m446.891 330.615-28.981 28.981-37.594 37.603v44.697l-120.463-120.474c-2.812-1.646-3.752-4.659-3.853-8.068-.05-1.948.47-3.761 1.41-5.297 1.167-1.897 1.998-2.971 2.535-5.12-.285-.369-19.402-19.772-19.402-19.772-2.812-1.646-3.752-4.668-3.853-8.076-.05-1.939.47-3.761 1.41-5.289 2.309-3.753 3.308-8.169 3.308-12.568v-51.572c3.115.982 5.322 1.662 8.596 1.998 1.645.176 3.316.26 4.995.26 25.203 0 46.905-19.611 56.652-47.786.042-.109.076-.227.109-.336.546-1.713 2.124-2.888 3.921-2.888 41.38 0 81.073 16.438 110.331 45.704l20.77 20.762s.008.008.008.017l.101.092c29.585 29.584 29.585 77.547 0 107.132z" fill="url(#SVGID_16_)"/><g><path d="m250.278 258.177v-50.1h-9.864v49.153c0 4.405-1.007 8.813-3.309 12.569-.94 1.533-1.463 3.348-1.409 5.291.137 5.01 4.264 9.186 9.272 9.377 5.505.21 10.033-4.19 10.033-9.647 0-1.764-.474-3.415-1.302-4.835-2.105-3.613-3.421-7.628-3.421-11.808z" fill="url(#SVGID_17_)"/><path d="m269.587 296.438v-88.361h-9.864v87.413c0 4.405-1.007 8.813-3.309 12.569-.94 1.533-1.463 3.348-1.409 5.291.137 5.01 4.264 9.186 9.272 9.377 5.505.21 10.033-4.19 10.033-9.647 0-1.764-.474-3.415-1.302-4.835-2.105-3.612-3.421-7.627-3.421-11.807z" fill="url(#SVGID_18_)"/></g><g><path d="m208.618 158.156c2.872 10.927 15.27 49.761 46.382 49.761 0 0-19.611 8.695-43.145-8.096-17.543-12.517-24.097-30.181-26.296-38.362-.881-3.275.714-6.71 3.933-8.285 3.398-1.662 8.504-2.626 15.159.399 1.988.904 3.443 2.59 3.967 4.583z" fill="url(#SVGID_19_)"/><path d="m301.382 158.156c-2.872 10.927-15.27 49.761-46.382 49.761 0 0 19.611 8.695 43.145-8.096 17.543-12.517 24.097-30.181 26.296-38.362.881-3.275-.714-6.71-3.933-8.285-3.398-1.662-8.504-2.626-15.159.399-1.988.904-3.443 2.59-3.967 4.583z" fill="url(#SVGID_20_)"/></g></g></svg>