<svg id="Capa_1" enable-background="new 0 0 510 510" height="512" viewBox="0 0 510 510" width="512" xmlns="http://www.w3.org/2000/svg" xmlns:xlink="http://www.w3.org/1999/xlink"><linearGradient id="lg1"><stop offset="0" stop-color="#b9dd39"/><stop offset="1" stop-color="#0b799d"/></linearGradient><linearGradient id="SVGID_1_" gradientUnits="userSpaceOnUse" x1="232.683" x2="418.683" xlink:href="#lg1" y1="88.55" y2="674.55"/><linearGradient id="lg2"><stop offset="0" stop-color="#ffda2d"/><stop offset="1" stop-color="#fdbf00"/></linearGradient><linearGradient id="SVGID_2_" gradientUnits="userSpaceOnUse" x1="155.433" x2="155.433" xlink:href="#lg2" y1="186.098" y2="276.108"/><linearGradient id="SVGID_3_" gradientUnits="userSpaceOnUse" x1="255" x2="255" xlink:href="#lg2" y1="186.098" y2="276.108"/><linearGradient id="SVGID_4_" gradientUnits="userSpaceOnUse" x1="354.567" x2="354.567" xlink:href="#lg2" y1="186.098" y2="276.108"/><linearGradient id="lg3"><stop offset="0" stop-color="#0b799d" stop-opacity="0"/><stop offset=".3645" stop-color="#096380" stop-opacity=".365"/><stop offset=".76" stop-color="#084f67" stop-opacity=".76"/><stop offset="1" stop-color="#07485e"/></linearGradient><linearGradient id="SVGID_5_" gradientUnits="userSpaceOnUse" x1="255" x2="255" xlink:href="#lg3" y1="421.299" y2="502.351"/><linearGradient id="SVGID_6_" gradientUnits="userSpaceOnUse" x1="60.62" x2="56.687" xlink:href="#lg3" y1="172.407" y2="301.536"/><linearGradient id="SVGID_7_" gradientUnits="userSpaceOnUse" x1="155.497" x2="-106.71" xlink:href="#lg3" y1="209.133" y2="338.638"/><linearGradient id="SVGID_8_" gradientUnits="userSpaceOnUse" x1="348.849" x2="536.575" xlink:href="#lg3" y1="206.919" y2="312.809"/><linearGradient id="SVGID_9_" gradientUnits="userSpaceOnUse" x1="74.119" x2="260.119" xlink:href="#lg1" y1="138.879" y2="724.879"/><linearGradient id="SVGID_10_" gradientUnits="userSpaceOnUse" x1="407.82" x2="351.704" xlink:href="#lg3" y1="390.216" y2="334.101"/><linearGradient id="SVGID_11_" gradientUnits="userSpaceOnUse" x1="329.764" x2="515.764" xlink:href="#lg1" y1="57.736" y2="643.736"/><linearGradient id="SVGID_12_" gradientUnits="userSpaceOnUse" x1="408.146" x2="300.484" y1="264.939" y2="252.158"><stop offset="0" stop-color="#6b0" stop-opacity="0"/><stop offset="1" stop-color="#b9dd39"/></linearGradient><linearGradient id="SVGID_13_" gradientUnits="userSpaceOnUse" x1="249.921" x2="100.068" xlink:href="#lg3" y1="419.14" y2="269.287"/><linearGradient id="lg4"><stop offset="0" stop-color="#edf5ff"/><stop offset="1" stop-color="#d5e8fe"/></linearGradient><linearGradient id="SVGID_14_" gradientTransform="matrix(.707 -.707 .707 .707 -1168.796 2488.298)" gradientUnits="userSpaceOnUse" x1="2466.399" x2="2466.399" xlink:href="#lg4" y1="-548.417" y2="-509.123"/><linearGradient id="SVGID_15_" gradientTransform="matrix(.707 .707 -.707 .707 301.023 1016.325)" gradientUnits="userSpaceOnUse" x1="-451.174" x2="-451.174" xlink:href="#lg4" y1="-482.227" y2="-442.932"/><linearGradient id="SVGID_16_" gradientUnits="userSpaceOnUse" x1="255" x2="255" y1="40.541" y2="78.541"><stop offset="0" stop-color="#edf5ff"/><stop offset="1" stop-color="#b5dbff"/></linearGradient><linearGradient id="SVGID_17_" gradientUnits="userSpaceOnUse" x1="230.945" x2="294.284" xlink:href="#lg4" y1="29.196" y2="112.967"/><g><path d="m489.984 136.668-31.279-31.279c-34.856-34.856-82.13-54.437-131.424-54.437h-144.563c-49.294 0-96.568 19.582-131.424 54.437l-31.279 31.279c-6.563 6.563-6.563 17.204 0 23.767l54.348 54.348c6.563 6.563 17.204 6.563 23.767 0l7.601-4.65v244.594c0 9.282 7.524 16.806 16.806 16.806h264.923c9.282 0 16.806-7.524 16.806-16.806v-244.593l7.601 4.65c6.563 6.563 17.204 6.563 23.767 0l54.348-54.348c6.565-6.564 6.565-17.205.002-23.768z" fill="url(#SVGID_1_)"/><g><path d="m145.068 165.452-36.793 49.586c-3.389 4.568-3.389 10.815 0 15.383l36.793 49.586c5.161 6.955 15.571 6.955 20.731 0l36.793-49.586c3.389-4.568 3.389-10.815 0-15.383l-36.793-49.586c-5.16-6.954-15.571-6.954-20.731 0z" fill="url(#SVGID_2_)"/><path d="m244.634 165.452-36.793 49.586c-3.389 4.568-3.389 10.815 0 15.383l36.793 49.586c5.161 6.955 15.571 6.955 20.731 0l36.793-49.586c3.389-4.568 3.389-10.815 0-15.383l-36.793-49.586c-5.16-6.954-15.57-6.954-20.731 0z" fill="url(#SVGID_3_)"/><path d="m344.201 165.452-36.793 49.586c-3.389 4.568-3.389 10.815 0 15.383l36.793 49.586c5.161 6.955 15.571 6.955 20.731 0l36.793-49.586c3.389-4.568 3.389-10.815 0-15.383l-36.793-49.586c-5.16-6.954-15.57-6.954-20.731 0z" fill="url(#SVGID_4_)"/></g><path d="m105.732 368.943v85.785c0 9.282 7.524 16.806 16.806 16.806h264.923c9.282 0 16.806-7.524 16.806-16.806v-85.785z" fill="url(#SVGID_5_)"/><g><path d="m51.295 105.389-31.279 31.279c-6.563 6.563-6.563 17.204 0 23.767l54.348 54.348c6.563 6.563 17.204 6.563 23.767 0l7.601-4.65v-142.473c-20.068 9.134-38.546 21.838-54.437 37.729z" fill="url(#SVGID_6_)"/><path d="m105.732 67.66v142.474 126.744h127.323v-285.926h-50.337c-26.82 0-53.036 5.809-76.986 16.708z" fill="url(#SVGID_7_)"/></g><path d="m327.28 50.951h-50.337v285.927h127.323v-126.744-142.474c-23.949-10.899-50.166-16.709-76.986-16.709z" fill="url(#SVGID_8_)"/><path d="m26.561 130.128-.128.128c-35.241 35.236-35.244 92.369-.006 127.608l142.819 142.825 63.811-63.811z" fill="url(#SVGID_9_)"/><path d="m312.022 386.663 83.04 83.04c5.458-2.776 9.205-8.432 9.205-14.975v-160.31z" fill="url(#SVGID_10_)"/><path d="m483.567 130.255-.128-.128-206.494 206.751 63.811 63.811 142.819-142.825c35.236-35.24 35.233-92.373-.008-127.609z" fill="url(#SVGID_11_)"/><path d="m483.567 130.255-.128-.128-206.494 206.751 63.811 63.811 142.819-142.825c35.236-35.24 35.233-92.373-.008-127.609z" fill="url(#SVGID_12_)"/><path d="m242.523 337.298-74.443 74.444 59.791 59.792h148.888z" fill="url(#SVGID_13_)"/><g><g><g><path d="m242.524 342.881-68.858 68.865c-1.541 1.542-4.041 1.542-5.583 0l-15.842-15.841c-1.542-1.542-1.542-4.041 0-5.583l68.858-68.865c1.542-1.542 4.041-1.542 5.583 0l15.842 15.841c1.541 1.542 1.542 4.041 0 5.583z" fill="url(#SVGID_14_)"/></g></g><g><g><path d="m336.336 411.731-68.865-68.858c-1.542-1.542-1.542-4.041 0-5.583l15.841-15.842c1.542-1.542 4.041-1.542 5.582 0l68.865 68.858c1.542 1.542 1.542 4.041 0 5.582l-15.841 15.842c-1.541 1.542-4.041 1.542-5.582.001z" fill="url(#SVGID_15_)"/></g></g></g><path d="m317.181 47.681c-40.539-12.287-83.822-12.287-124.361 0-7.217 2.187-10.862 10.173-7.852 17.087 12.05 27.679 38.874 46.939 70.032 46.939 31.159 0 57.983-19.261 70.032-46.939 3.01-6.914-.635-14.9-7.851-17.087z" fill="url(#SVGID_16_)"/><path d="m320.207 47.102c-6.356-3.056-14.025-.082-16.534 6.509-7.229 18.979-18.894 37.522-48.673 37.522s-41.444-18.542-48.672-37.522c-2.51-6.59-10.179-9.565-16.534-6.509l-3.391 1.63c-4.996 2.402-7.353 8.196-5.477 13.411 10.915 30.351 39.965 52.049 74.075 52.049 34.109 0 63.159-21.698 74.075-52.049 1.876-5.216-.482-11.009-5.477-13.411z" fill="url(#SVGID_17_)"/></g></svg>