<svg id="Capa_1" enable-background="new 0 0 510 510" height="512" viewBox="0 0 510 510" width="512" xmlns="http://www.w3.org/2000/svg" xmlns:xlink="http://www.w3.org/1999/xlink"><linearGradient id="SVGID_1_" gradientUnits="userSpaceOnUse" x1="255" x2="255" y1="107.664" y2="182.9"><stop offset="0" stop-color="#fdbf00"/><stop offset="1" stop-color="#ff9100"/></linearGradient><linearGradient id="lg1"><stop offset="0" stop-color="#ffda2d"/><stop offset="1" stop-color="#fdbf00"/></linearGradient><linearGradient id="SVGID_2_" gradientUnits="userSpaceOnUse" x1="150.6" x2="413.761" xlink:href="#lg1" y1="239.647" y2="480.205"/><linearGradient id="lg2"><stop offset="0" stop-color="#ff9100" stop-opacity="0"/><stop offset="1" stop-color="#ff9100"/></linearGradient><linearGradient id="SVGID_3_" gradientUnits="userSpaceOnUse" x1="332.202" x2="174.71" xlink:href="#lg2" y1="309.737" y2="75.749"/><linearGradient id="SVGID_4_" gradientUnits="userSpaceOnUse" x1="236.427" x2="301.007" xlink:href="#lg1" y1="31.605" y2="264.09"/><linearGradient id="SVGID_5_" gradientUnits="userSpaceOnUse" x1="255" x2="255" xlink:href="#lg2" y1="473.375" y2="541.183"/><g><path d="m403.54.228c-.283-.022-.567-.037-.857-.037-5.255 0-9.516 3.687-9.516 8.236v8.072c0 59.835-56.045 108.342-125.18 108.342h-25.974c-69.135 0-125.18-48.506-125.18-108.342v-8.073c0-4.548-4.26-8.236-9.516-8.236-.289 0-.574.016-.857.037v168.795h297.08z" fill="url(#SVGID_1_)"/><path d="m386.103 503.729c-87.144 8.361-175.054 8.361-262.205 0-14.819-1.422-25.275-15.194-22.732-29.863l16.321-94.15c9.588-55.309 10.359-111.787 2.283-167.337l-6.303-43.355h283.065l-6.303 43.355c-8.075 55.55-7.305 112.028 2.283 167.337l16.321 94.151c2.544 14.668-7.912 28.44-22.73 29.862z" fill="url(#SVGID_2_)"/><path d="m392.513 379.716c-9.588-55.309-10.359-111.787-2.283-167.337l6.303-43.355h-283.066l6.303 43.355c1.068 7.349 1.971 14.714 2.73 22.09.001.001.007.011.007.011l268.333 268.333c12.23-3.568 20.256-15.899 17.994-28.946z" fill="url(#SVGID_3_)"/><path d="m393.167 9.516v78.672c0 28.06-19.474 52.361-46.859 58.475-60.132 13.426-122.485 13.426-182.617 0-27.385-6.114-46.859-30.416-46.859-58.475v-78.672c0-5.255-4.26-9.516-9.516-9.516-5.255 0-9.516 4.26-9.516 9.516v168.779c0 40.304 31.547 74.086 71.822 75.622.884.034 1.772.056 2.664.066 20.124.234 38.797-5.902 54.128-16.518 17.184-11.899 39.987-11.899 57.171 0 15.331 10.616 34.004 16.752 54.128 16.518.871-.01 1.739-.031 2.604-.064 40.298-1.512 71.882-35.29 71.882-75.616v-168.787c0-5.255-4.26-9.516-9.516-9.516-5.255 0-9.516 4.26-9.516 9.516z" fill="url(#SVGID_4_)"/><path d="m101.166 473.866c-2.543 14.668 7.913 28.441 22.732 29.863 87.151 8.361 175.061 8.361 262.205 0 14.819-1.422 25.275-15.194 22.732-29.863l-8.892-51.296h-289.885z" fill="url(#SVGID_5_)"/></g></svg>