<svg id="Capa_1" enable-background="new 0 0 510 510" height="512" viewBox="0 0 510 510" width="512" xmlns="http://www.w3.org/2000/svg" xmlns:xlink="http://www.w3.org/1999/xlink"><linearGradient id="lg1"><stop offset="0" stop-color="#ff637b"/><stop offset="1" stop-color="#f90217"/></linearGradient><linearGradient id="SVGID_1_" gradientUnits="userSpaceOnUse" x1="344.127" x2="296.42" xlink:href="#lg1" y1="219.855" y2="221.37"/><linearGradient id="lg2"><stop offset="0" stop-color="#c50000" stop-opacity="0"/><stop offset="1" stop-color="#c50000"/></linearGradient><linearGradient id="SVGID_2_" gradientUnits="userSpaceOnUse" x1="296.249" x2="270.123" xlink:href="#lg2" y1="221.034" y2="226.146"/><linearGradient id="SVGID_3_" gradientUnits="userSpaceOnUse" x1="179.694" x2="329.873" y1="285.679" y2="285.679"><stop offset="0" stop-color="#edf5ff"/><stop offset="1" stop-color="#b5dbff"/></linearGradient><linearGradient id="lg3"><stop offset="0" stop-color="#b5dbff" stop-opacity="0"/><stop offset=".1734" stop-color="#8fc5e9" stop-opacity=".173"/><stop offset=".4541" stop-color="#56a4c8" stop-opacity=".454"/><stop offset=".6955" stop-color="#2d8db1" stop-opacity=".696"/><stop offset=".8853" stop-color="#147ea2" stop-opacity=".885"/><stop offset="1" stop-color="#0b799d"/></linearGradient><linearGradient id="SVGID_4_" gradientUnits="userSpaceOnUse" x1="286.889" x2="200.246" xlink:href="#lg3" y1="126.924" y2="40.281"/><linearGradient id="SVGID_5_" gradientUnits="userSpaceOnUse" x1="209.255" x2="257.398" xlink:href="#lg1" y1="13.711" y2="61.854"/><linearGradient id="SVGID_6_" gradientUnits="userSpaceOnUse" x1="246.312" x2="128.335" xlink:href="#lg3" y1="282.669" y2="315.498"/><linearGradient id="SVGID_7_" gradientUnits="userSpaceOnUse" x1="214.051" x2="292.016" xlink:href="#lg1" y1="414.484" y2="414.484"/><linearGradient id="SVGID_8_" gradientUnits="userSpaceOnUse" x1="214.051" x2="292.016" xlink:href="#lg1" y1="343.167" y2="343.167"/><linearGradient id="SVGID_9_" gradientUnits="userSpaceOnUse" x1="214.051" x2="292.016" xlink:href="#lg1" y1="246.696" y2="246.696"/><linearGradient id="SVGID_10_" gradientUnits="userSpaceOnUse" x1="214.051" x2="292.016" xlink:href="#lg1" y1="144.563" y2="144.563"/><linearGradient id="SVGID_11_" gradientUnits="userSpaceOnUse" x1="300.795" x2="167.897" xlink:href="#lg2" y1="424.098" y2="483.732"/><linearGradient id="SVGID_12_" gradientUnits="userSpaceOnUse" x1="274.89" x2="141.992" xlink:href="#lg2" y1="366.368" y2="426.002"/><linearGradient id="SVGID_13_" gradientUnits="userSpaceOnUse" x1="235.372" x2="102.474" xlink:href="#lg2" y1="278.299" y2="337.933"/><linearGradient id="SVGID_14_" gradientUnits="userSpaceOnUse" x1="192.792" x2="59.894" xlink:href="#lg2" y1="183.406" y2="243.04"/><g><path d="m248.76 80.601 24.963 125.324c6.601 43.628 29.258 83.218 63.53 111.01l11.279 9.147c4.061 3.293 6.42 8.243 6.42 13.472v5.438c0 9.579-7.765 17.344-17.344 17.344h-1.078c-4.713 0-9.223-1.918-12.492-5.312l-69.278-71.928z" fill="url(#SVGID_1_)"/><path d="m248.76 80.601 24.963 125.324c6.601 43.628 29.258 83.218 63.53 111.01l11.279 9.147c4.061 3.293 6.42 8.243 6.42 13.472v5.438c0 9.579-7.765 17.344-17.344 17.344h-1.078c-4.713 0-9.223-1.918-12.492-5.312l-69.278-71.928z" fill="url(#SVGID_2_)"/><g><path d="m251.457 61.357h-18.853-18.853l-57.895 337.295c-3.672 27.469 5.283 55.124 24.359 75.228l21.805 22.98c16.625 17.521 44.542 17.521 61.167 0l21.805-22.98c19.076-20.103 28.03-47.759 24.359-75.228z" fill="url(#SVGID_3_)"/><path d="m251.457 61.357h-18.853-18.853l-3.308 19.256 53.511 53.511z" fill="url(#SVGID_4_)"/><path d="m282.798 39.665c4.199-16.531-2.913-32.626-18.818-36.198-20.58-4.623-42.172-4.622-62.752 0-15.904 3.572-23.017 19.667-18.818 36.198 2.797 11.011 6.685 20.246 11.395 28.058 4.814 7.984 13.904 13.279 22.835 14.236 10.701 1.147 21.227 1.147 31.928 0 8.932-.957 18.022-6.252 22.835-14.236 4.71-7.813 8.598-17.048 11.395-28.058z" fill="url(#SVGID_5_)"/><path d="m263.187 496.859 21.805-22.98c19.076-20.103 28.03-47.759 24.359-75.228l-57.894-337.294h-18.853v448.643c11.135 0 22.271-4.38 30.583-13.141z" fill="url(#SVGID_6_)"/></g><g><path d="m294.487 462.032c-2.806 4.169-5.975 8.133-9.496 11.847l-19.617 20.662-107.523-107.523 9.03-52.591z" fill="url(#SVGID_7_)"/><path d="m306.471 436.508-134.103-134.102 9.03-52.58 123.63 123.63 4.328 25.194c1.715 12.846.67 25.727-2.885 37.858z" fill="url(#SVGID_8_)"/><path d="m297.258 328.179-110.362-110.363 9.03-52.602 88.565 88.565z" fill="url(#SVGID_9_)"/><path d="m276.722 208.513-75.309-75.309 9.03-52.591 53.511 53.511z" fill="url(#SVGID_10_)"/></g><g><path d="m294.487 462.032c-1.181 1.761-2.431 3.499-3.76 5.18-.363.477-.738.943-1.113 1.409-1.477 1.806-3.01 3.555-4.623 5.259l-19.617 20.662-32.77-32.77v-61.622z" fill="url(#SVGID_11_)"/><path d="m310.083 414.529c-.011.386-.034.772-.057 1.159-.057 1.147-.136 2.306-.25 3.453-.023.295-.057.591-.079.897-.045.432-.091.863-.148 1.295-.159 1.363-.341 2.726-.568 4.089-.08.477-.159.943-.238 1.409-.023.125-.046.261-.068.386-.091.477-.182.943-.273 1.408-.204 1.068-.432 2.124-.693 3.18-.114.523-.25 1.045-.386 1.568-.125.534-.273 1.056-.409 1.579s-.284 1.034-.443 1.556l-73.867-73.867v-61.61l72.424 72.424 4.328 25.194c.704 5.305.942 10.621.727 15.88z" fill="url(#SVGID_12_)"/><path d="m297.258 328.179-64.654-64.655v-61.633l51.887 51.888z" fill="url(#SVGID_13_)"/><path d="m276.722 208.513-44.118-44.117v-61.622l31.35 31.35z" fill="url(#SVGID_14_)"/></g></g></svg>