<svg id="Capa_1" enable-background="new 0 0 510 510" height="512" viewBox="0 0 510 510" width="512" xmlns="http://www.w3.org/2000/svg" xmlns:xlink="http://www.w3.org/1999/xlink"><linearGradient id="lg1"><stop offset="0" stop-color="#0b799d"/><stop offset="1" stop-color="#07485e"/></linearGradient><linearGradient id="SVGID_1_" gradientUnits="userSpaceOnUse" x1="128.606" x2="432.414" xlink:href="#lg1" y1="151.296" y2="310.524"/><linearGradient id="lg2"><stop offset="0" stop-color="#07485e" stop-opacity="0"/><stop offset="1" stop-color="#03232e"/></linearGradient><linearGradient id="SVGID_2_" gradientUnits="userSpaceOnUse" x1="281.717" x2="112.298" xlink:href="#lg2" y1="225.167" y2="115.618"/><linearGradient id="SVGID_3_" gradientUnits="userSpaceOnUse" x1="366.321" x2="248.417" xlink:href="#lg2" y1="412.576" y2="346.018"/><linearGradient id="SVGID_4_" gradientUnits="userSpaceOnUse" x1="195.494" x2="169.328" xlink:href="#lg2" y1="206.198" y2="288.795"/><linearGradient id="SVGID_5_" gradientUnits="userSpaceOnUse" x1="224.095" x2="219.095" xlink:href="#lg1" y1="265.807" y2="356.807"/><linearGradient id="SVGID_6_" gradientUnits="userSpaceOnUse" x1="261.926" x2="261.926" xlink:href="#lg2" y1="20.684" y2="88.528"/><linearGradient id="SVGID_7_" gradientUnits="userSpaceOnUse" x1="262.976" x2="262.976" xlink:href="#lg1" y1="1.426" y2="39.068"/><linearGradient id="SVGID_8_" gradientUnits="userSpaceOnUse" x1="262.976" x2="262.976" xlink:href="#lg2" y1="35.143" y2="8.817"/><linearGradient id="SVGID_9_" gradientUnits="userSpaceOnUse" x1="259.88" x2="169.438" xlink:href="#lg2" y1="66.952" y2="99.647"/><linearGradient id="SVGID_10_" gradientUnits="userSpaceOnUse" x1="144.366" x2="178.545" xlink:href="#lg2" y1="41.958" y2="76.137"/><linearGradient id="SVGID_11_" gradientUnits="userSpaceOnUse" x1="378.536" x2="351.84" xlink:href="#lg2" y1="41.904" y2="68.6"/><linearGradient id="SVGID_12_" gradientUnits="userSpaceOnUse" x1="332.934" x2="334.632" xlink:href="#lg2" y1="485.273" y2="509.475"/><linearGradient id="SVGID_13_" gradientUnits="userSpaceOnUse" x1="295.103" x2="327.736" xlink:href="#lg2" y1="346.794" y2="348.373"/><g><path d="m378.614 10.761c0 2.692-10.623 5.154-28.179 7.038s-42.052 3.197-69.791 3.598c-9.796.138-25.54.138-35.335 0-27.739-.4-52.235-1.714-69.791-3.598s-28.179-4.346-28.179-7.038l-20.349 210.722c-1.052 10.894-.484 21.883 1.686 32.61l15.457 76.423c1.995 9.862 8.905 18.014 18.308 21.597l113.854 43.384 4.678 96.95c.49 10.154 9.111 17.992 19.266 17.516l66.217-3.105c9.637-.452 17.189-8.449 17.09-18.096zm-133.817 267.448 13.774-116.993c.735-2.068 2.574-3.105 4.405-3.105 1.832 0 3.67 1.037 4.405 3.105l4.803 126.236z" fill="url(#SVGID_1_)"/><path d="m366.455 506.858-66.587 3.122c-9.93.466-18.344-7.236-18.755-17.169l-13.732-331.595c-.735-2.068-2.574-3.106-4.405-3.106v-118.796c0-9.796 7.872-17.779 17.668-17.917 27.739-.4 52.235-1.714 69.791-3.598s28.179-4.346 28.179-7.038l4.931 478c.1 9.648-7.452 17.645-17.09 18.097z" fill="url(#SVGID_2_)"/><path d="m303.635 299.979-31.02-10.479.987 21.933 3.494 84.37 103.296 103.296c2.023-2.941 3.193-6.507 3.153-10.336l-1.184-114.721-69.404-69.404c-2.358-2.974-5.551-3.387-9.322-4.659z" fill="url(#SVGID_3_)"/><path d="m244.489 284.388 12.403-108.912h-125.43l-4.284 46.007c-.042.454-.078.908-.106 1.362-1.092 17.299 14.544 32.889 30.687 37.385z" fill="url(#SVGID_4_)"/><path d="m290.026 400.729-127.586-48.616c-9.403-3.583-16.313-11.735-18.308-21.597l-15.527-76.765c-2.124-10.5-2.68-21.257-1.65-31.92l.866-8.963c-.808 14.982 8.465 28.667 22.679 33.469l153.134 51.731c8.186 2.763 13.697 10.439 13.697 19.079v64.767c.001 14.103-14.125 23.837-27.305 18.815z" fill="url(#SVGID_5_)"/><path d="m378.614 10.761c0 2.692-10.623 5.154-28.179 7.038s-42.052 3.197-69.791 3.598c-9.796.138-25.54.138-35.335 0-27.739-.4-52.235-1.714-69.791-3.598s-28.179-4.346-28.179-7.038l-2.357 24.406c28.458 5.929 70.755 9.689 117.995 9.689 46.094 0 87.476-3.581 115.894-9.262z" fill="url(#SVGID_6_)"/><ellipse cx="262.976" cy="10.761" fill="url(#SVGID_7_)" rx="115.639" ry="10.761"/><path d="m176.35 17.889c21.187 2.228 52.141 3.633 86.626 3.633s65.439-1.405 86.626-3.633c-21.187-2.228-52.141-3.633-86.626-3.633s-65.439 1.405-86.626 3.633z" fill="url(#SVGID_8_)"/><path d="m280.585 21.398c-9.769.171-17.609 8.135-17.609 17.917v78.291l-9.832-6.874c-6.49-4.538-10.357-11.959-10.357-19.879v-69.495c6.552.105 13.302.164 20.189.164 5.988.001 11.87-.039 17.609-.124z" fill="url(#SVGID_9_)"/><g><path d="m141.17 74.638c19.168-1.072 34.765-15.549 37.538-34.214-12.628-1.456-23.986-3.231-33.727-5.257z" fill="url(#SVGID_10_)"/><path d="m378.87 35.595c-9.261 1.848-19.896 3.476-31.626 4.829 2.502 16.838 15.441 30.267 32.022 33.523z" fill="url(#SVGID_11_)"/></g><path d="m281.113 492.811c.411 9.933 8.825 17.635 18.755 17.169l66.587-3.122c9.637-.452 17.19-8.449 17.09-18.096l-.343-33.256h-103.634z" fill="url(#SVGID_12_)"/><path d="m303.635 298.067-20.915-7.065v106.944l7.305 2.784c13.18 5.022 27.306-4.712 27.306-18.816v-64.767c.001-8.641-5.51-16.318-13.696-19.08z" fill="url(#SVGID_13_)"/></g></svg>