<svg id="Capa_1" enable-background="new 0 0 510 510" height="512" viewBox="0 0 510 510" width="512" xmlns="http://www.w3.org/2000/svg" xmlns:xlink="http://www.w3.org/1999/xlink"><linearGradient id="lg1"><stop offset="0" stop-color="#ff7bab"/><stop offset="1" stop-color="#ff637b"/></linearGradient><linearGradient id="SVGID_1_" gradientTransform="matrix(.999 -.054 .054 .999 -921.41 1626.688)" gradientUnits="userSpaceOnUse" x1="1313.205" x2="1313.205" xlink:href="#lg1" y1="-1070.454" y2="-1048.685"/><linearGradient id="lg2"><stop offset="0" stop-color="#c50000" stop-opacity="0"/><stop offset="1" stop-color="#c50000"/></linearGradient><linearGradient id="SVGID_2_" gradientTransform="matrix(.999 -.054 .054 .999 -27.311 18.693)" gradientUnits="userSpaceOnUse" x1="332.32" x2="345.681" xlink:href="#lg2" y1="492.604" y2="541.673"/><linearGradient id="SVGID_3_" gradientTransform="matrix(.999 -.054 .054 .999 -27.311 18.693)" gradientUnits="userSpaceOnUse" x1="334.019" x2="327.703" xlink:href="#lg2" y1="489.876" y2="531.9"/><linearGradient id="SVGID_4_" gradientTransform="matrix(.999 -.054 .054 .999 -27.311 18.693)" gradientUnits="userSpaceOnUse" x1="333.151" x2="333.151" xlink:href="#lg2" y1="499.365" y2="527.506"/><linearGradient id="SVGID_5_" gradientUnits="userSpaceOnUse" x1="174.185" x2="325.763" xlink:href="#lg1" y1="131.118" y2="265.206"/><linearGradient id="lg3"><stop offset="0" stop-color="#edf5ff"/><stop offset="1" stop-color="#d5e8fe"/></linearGradient><linearGradient id="SVGID_6_" gradientUnits="userSpaceOnUse" x1="131.789" x2="174.074" xlink:href="#lg3" y1="102.736" y2="140.143"/><linearGradient id="SVGID_7_" gradientUnits="userSpaceOnUse" x1="285.637" x2="243.532" xlink:href="#lg2" y1="116.518" y2="-103.724"/><linearGradient id="lg4"><stop offset="0" stop-color="#e63950" stop-opacity="0"/><stop offset="1" stop-color="#e63950"/></linearGradient><linearGradient id="SVGID_8_" gradientUnits="userSpaceOnUse" x1="343.81" x2="180.086" xlink:href="#lg4" y1="130.152" y2="46.104"/><linearGradient id="SVGID_9_" gradientUnits="userSpaceOnUse" x1="346.379" x2="114.505" xlink:href="#lg2" y1="393.694" y2="330.006"/><linearGradient id="SVGID_10_" gradientUnits="userSpaceOnUse" x1="196.674" x2="138.375" xlink:href="#lg2" y1="210.331" y2="374.864"/><linearGradient id="SVGID_11_" gradientUnits="userSpaceOnUse" x1="329.382" x2="329.382" xlink:href="#lg2" y1="474.167" y2="542.195"/><linearGradient id="SVGID_12_" gradientTransform="matrix(0 -1 1 0 1546.588 1664.565)" gradientUnits="userSpaceOnUse" x1="1320.943" x2="1320.943" xlink:href="#lg1" y1="-1237.877" y2="-1216.108"/><linearGradient id="SVGID_13_" gradientTransform="matrix(0 -1 1 0 -10.511 684.511)" gradientUnits="userSpaceOnUse" x1="340.059" x2="353.419" xlink:href="#lg2" y1="325.181" y2="374.249"/><linearGradient id="SVGID_14_" gradientTransform="matrix(0 -1 1 0 -10.511 684.511)" gradientUnits="userSpaceOnUse" x1="341.757" x2="335.442" xlink:href="#lg2" y1="322.453" y2="364.477"/><linearGradient id="SVGID_15_" gradientTransform="matrix(0 -1 1 0 -10.511 684.511)" gradientUnits="userSpaceOnUse" x1="340.889" x2="340.889" xlink:href="#lg2" y1="331.941" y2="360.083"/><linearGradient id="SVGID_16_" gradientUnits="userSpaceOnUse" x1="226.635" x2="210.117" xlink:href="#lg1" y1="273.74" y2="341.756"/><linearGradient id="SVGID_17_" gradientUnits="userSpaceOnUse" x1="293.871" x2="349.181" xlink:href="#lg2" y1="335.91" y2="338.586"/><linearGradient id="SVGID_18_" gradientUnits="userSpaceOnUse" x1="263.457" x2="374.005" xlink:href="#lg3" y1="184.416" y2="282.209"/><linearGradient id="SVGID_19_" gradientUnits="userSpaceOnUse" x1="262.055" x2="262.055" xlink:href="#lg1" y1="26.559" y2="43.97"/><linearGradient id="SVGID_20_" gradientUnits="userSpaceOnUse" x1="266.133" x2="293.663" xlink:href="#lg2" y1="33.577" y2="132.686"/><linearGradient id="SVGID_21_" gradientUnits="userSpaceOnUse" x1="262.566" x2="262.566" xlink:href="#lg1" y1="-6.802" y2="11.66"/><linearGradient id="SVGID_22_" gradientUnits="userSpaceOnUse" x1="262.566" x2="262.566" xlink:href="#lg4" y1="34.147" y2="8.567"/><linearGradient id="SVGID_23_" gradientUnits="userSpaceOnUse" x1="261.728" x2="261.728" xlink:href="#lg2" y1="25.911" y2="80.139"/><linearGradient id="SVGID_24_" gradientUnits="userSpaceOnUse" x1="261.4" x2="266.906" xlink:href="#lg2" y1="26.017" y2="105.693"/><linearGradient id="SVGID_25_" gradientUnits="userSpaceOnUse" x1="261.745" x2="258.183" xlink:href="#lg2" y1="31.832" y2="66.488"/><linearGradient id="SVGID_26_" gradientUnits="userSpaceOnUse" x1="246.997" x2="253.837" xlink:href="#lg3" y1="66.43" y2="66.43"/><linearGradient id="SVGID_27_" gradientUnits="userSpaceOnUse" x1="265.758" x2="272.598" xlink:href="#lg3" y1="85.018" y2="85.018"/><g><g><path d="m365.036 506.483-64.193 3.489c-3.968.216-7.36-2.827-7.576-6.795l-.599-11.015c-.216-3.968 2.827-7.36 6.795-7.576l64.193-3.489c3.968-.216 7.36 2.827 7.576 6.795l.599 11.015c.216 3.969-2.827 7.361-6.795 7.576z" fill="url(#SVGID_1_)"/><path d="m353.863 507.091-41.847 2.275c-3.282.178-6.087-2.337-6.265-5.619l-.734-13.501c-.178-3.282 2.338-6.087 5.619-6.265l41.847-2.275c3.282-.178 6.087 2.337 6.265 5.619l.734 13.501c.179 3.281-2.337 6.086-5.619 6.265z" fill="url(#SVGID_2_)"/><path d="m325.352 508.64 15.176-.825c2.144-.117 3.788-1.949 3.672-4.094l-.958-17.62c-.117-2.144-1.949-3.788-4.094-3.672l-15.176.825c-2.144.117-3.788 1.949-3.672 4.094l.958 17.62c.116 2.145 1.949 3.789 4.094 3.672z" fill="url(#SVGID_3_)"/><path d="m292.968 497.67.28 5.155c.226 4.163 3.476 7.371 7.259 7.166l64.865-3.526c3.783-.206 6.666-3.747 6.44-7.91l-.28-5.155z" fill="url(#SVGID_4_)"/></g><path d="m375.672 65.425c-.233-22.607-19.88-40.047-42.365-37.698-21.312 2.226-45.221 3.473-70.48 3.473-27.003 0-52.464-1.427-74.858-3.947-21.304-2.398-40.464 13.035-42.525 34.375l-14.024 145.208v.029l-.836 8.677c-.078.748-.136 1.496-.185 2.245-.7 9.629-.097 19.307 1.788 28.771l8.473 41.907c6.053 29.927 27.022 54.665 55.559 65.538l79.462 30.286 4.547 94.202c.476 9.862 8.852 17.48 18.724 17.014l64.343-3.012c9.357-.437 16.693-8.211 16.606-17.587zm-103.984 213.877-26.604-8.978.01-.068 13.37-113.606c.719-2.011 2.497-3.022 4.285-3.022 1.778 0 3.566 1.01 4.275 3.022l4.664 122.574z" fill="url(#SVGID_5_)"/><g><path d="m194.111 27.42c-17.014 2.517-30.831 16.275-32.56 34.212l-14.021 145.204v.029l-.836 8.677c-.078.748-.136 1.496-.185 2.245-.7 9.629-.097 19.307 1.788 28.771l.029.155c-5.791-3.148-10.416-7.958-13.37-13.69-.359-5.062-.35-10.154.019-15.236.049-.748.107-1.496.185-2.245l.836-8.677v-.029l14.021-145.204c2.06-21.347 21.221-36.777 42.529-34.377.516.058 1.04.107 1.565.165z" fill="url(#SVGID_6_)"/></g><path d="m375.672 65.425c-.233-22.607-19.88-40.047-42.365-37.698-21.312 2.226-45.221 3.473-70.48 3.473-27.003 0-52.464-1.427-74.858-3.947-6.816-.767-13.408.298-19.295 2.79l208.79 208.79z" fill="url(#SVGID_7_)"/><path d="m375.672 65.425c-.233-22.607-19.88-40.047-42.365-37.698-21.312 2.226-45.221 3.473-70.48 3.473-5.483 0-10.899-.062-16.242-.177v46.052c0 4.274-.971 8.565-3.214 12.212-.914 1.485-1.419 3.255-1.37 5.139.098 3.312 1.982 6.248 4.715 7.847 0 0 17.604 17.881 17.881 18.24-.522 2.088-1.33 4.103-2.464 5.947-.914 1.493-1.419 3.255-1.37 5.147.098 3.312 1.982 6.24 4.715 7.839l112.117 112.125z" fill="url(#SVGID_8_)"/><path d="m379.052 392.749-.369-35.742-49.247-49.247c-2.22-2.22-5.231-3.467-8.371-3.467h-47.931l3.333 80.288 100.353 100.362c1.966-2.858 3.114-6.316 3.08-10.037l-.848-82.137-.007-.026z" fill="url(#SVGID_9_)"/><path d="m244.781 276.327 12.052-105.825h-117.537l-4.162 44.703c-.041.441-.075.882-.103 1.324-1.061 16.808 9.795 31.956 25.48 36.325z" fill="url(#SVGID_10_)"/><path d="m280.368 478.841c.4 9.651 8.575 17.135 18.224 16.682l64.699-3.034c9.364-.439 16.702-8.209 16.606-17.583l-.333-32.313h-100.697z" fill="url(#SVGID_11_)"/><g><path d="m330.432 311.478v64.287c0 3.974-3.222 7.196-7.196 7.196h-11.031c-3.974 0-7.196-3.222-7.196-7.196v-64.287c0-3.974 3.222-7.196 7.196-7.196h11.031c3.974 0 7.196 3.221 7.196 7.196z" fill="url(#SVGID_12_)"/><path d="m330.432 322.667v41.909c0 3.287-2.664 5.951-5.951 5.951h-13.521c-3.287 0-5.951-2.664-5.951-5.951v-41.909c0-3.287 2.664-5.951 5.951-5.951h13.521c3.286 0 5.951 2.664 5.951 5.951z" fill="url(#SVGID_13_)"/><path d="m330.432 351.221v-15.198c0-2.148-1.741-3.889-3.889-3.889h-17.646c-2.148 0-3.889 1.741-3.889 3.889v15.198c0 2.148 1.741 3.889 3.889 3.889h17.646c2.148-.001 3.889-1.742 3.889-3.889z" fill="url(#SVGID_14_)"/><path d="m330.432 351.221v-40.08c0-3.788-3.38-6.859-7.549-6.859h-5.163v78.68h5.163c4.169 0 7.549-3.071 7.549-6.86z" fill="url(#SVGID_15_)"/></g><g><path d="m315.558 322.657v40.829c0 14.215-11.65 24.826-24.777 24.826-2.915 0-5.898-.515-8.852-1.642l-6.248-2.38-79.462-30.286c-28.537-10.873-49.506-35.611-55.559-65.538l-8.473-41.907c-1.924-9.464-2.517-19.151-1.788-28.771.049-.748.107-1.496.185-2.245l.836-8.677c-.029.583-.049 1.156-.049 1.739 0 13.856 8.842 26.274 22.086 30.753l91.637 30.899 26.594 8.968 16.742 5.645c.738.253 1.467.525 2.186.816 14.992 6.053 24.942 20.647 24.942 36.971z" fill="url(#SVGID_16_)"/><path d="m315.558 322.657v40.829c0 14.215-11.65 24.826-24.777 24.826-2.915 0-5.898-.515-8.852-1.642v-103.919l8.687 2.934c14.992 6.054 24.942 20.648 24.942 36.972z" fill="url(#SVGID_17_)"/></g><g><path d="m372.467 65.425c-.233-22.607-19.88-40.047-42.365-37.698-.342.036-.69.069-1.032.104 18.532 2.353 33.27 18.035 33.472 37.594l4.229 409.48c.088 9.376-7.407 17.615-16.915 18.215l10.084-.466c9.508-.599 16.844-8.373 16.756-17.749z" fill="url(#SVGID_18_)"/></g><g><g><path d="m355.257 10.456c0 2.616-8.515 5.008-22.587 6.839s-33.707 3.107-55.942 3.496c-7.852.134-20.472.134-28.324 0-22.235-.389-41.87-1.665-55.942-3.496s-22.587-4.223-22.587-6.839l-1.114 13.987c-.453 5.689 3.42 10.808 9.015 11.934 22.214 4.471 52.019 7.208 84.791 7.208 32.237 0 61.599-2.649 83.691-6.991 5.331-1.048 9.174-5.717 9.127-11.149z" fill="url(#SVGID_19_)"/><path d="m355.257 10.456c0 2.616-8.515 5.008-22.587 6.839s-33.707 3.107-55.942 3.496c-7.852.134-20.472.134-28.324 0-22.235-.389-41.87-1.665-55.942-3.496s-22.587-4.223-22.587-6.839l-1.114 13.987c-.453 5.689 3.42 10.808 9.015 11.934 22.214 4.471 52.019 7.208 84.791 7.208 32.237 0 61.599-2.649 83.691-6.991 5.331-1.048 9.174-5.717 9.127-11.149z" fill="url(#SVGID_20_)"/><ellipse cx="262.566" cy="10.456" fill="url(#SVGID_21_)" rx="92.692" ry="10.456"/><path d="m193.129 17.382c16.983 2.165 41.794 3.53 69.437 3.53 27.642 0 52.454-1.365 69.437-3.53-16.983-2.165-41.794-3.53-69.437-3.53-27.642-.001-52.454 1.365-69.437 3.53z" fill="url(#SVGID_22_)"/></g><g><path d="m336.546 16.761v21.561c-9.133 1.457-19.239 2.662-30.053 3.537-8.9.729-18.296 1.244-28.032 1.506-5.208.146-10.513.223-15.896.223-5.966 0-11.835-.087-17.577-.272-9.755-.291-19.142-.836-28.032-1.594-10.844-.923-20.939-2.167-30.044-3.673v-21.55c1.739.272 3.585.544 5.548.797 6.928.904 15.216 1.671 24.495 2.264 8.58.544 18.024.952 28.032 1.166 1.137.029 2.274.049 3.42.068 7.851.136 20.473.136 28.324 0 .573-.01 1.156-.019 1.729-.029 9.979-.204 19.414-.573 28.032-1.098 9.959-.612 18.831-1.419 26.176-2.371 1.342-.175 2.634-.35 3.878-.535z" fill="url(#SVGID_23_)"/><path d="m306.492 19.666v22.193c-8.9.729-18.296 1.244-28.032 1.506-5.208.146-10.513.223-15.896.223-5.966 0-11.835-.087-17.577-.272-9.755-.291-19.142-.836-28.032-1.594v-22.163c8.58.544 18.024.952 28.032 1.166 1.137.029 2.274.049 3.42.068 7.851.136 20.473.136 28.324 0 .573-.01 1.156-.019 1.729-.029 9.979-.204 19.414-.573 28.032-1.098z" fill="url(#SVGID_24_)"/><path d="m278.46 20.764v22.601c-5.208.146-10.513.223-15.896.223-5.966 0-11.835-.087-17.577-.272v-22.591c1.137.029 2.274.049 3.42.068 7.851.136 20.473.136 28.324 0 .573-.009 1.156-.019 1.729-.029z" fill="url(#SVGID_25_)"/></g></g><g><path d="m256.173 77.994v-43.887c0-2.647-2.146-4.792-4.792-4.792-2.647 0-4.792 2.146-4.792 4.792v42.967c0 4.28-.979 8.563-3.215 12.212-1.028 1.676-1.542 3.7-1.323 5.858.439 4.327 3.938 7.864 8.261 8.343 5.66.627 10.451-3.788 10.451-9.322 0-1.714-.461-3.318-1.265-4.698-2.045-3.51-3.325-7.412-3.325-11.473z" fill="url(#SVGID_26_)"/><path d="m274.935 115.17v-81.063c0-2.647-2.146-4.792-4.792-4.792-2.647 0-4.792 2.146-4.792 4.792v80.143c0 4.28-.979 8.563-3.216 12.212-1.028 1.676-1.542 3.7-1.323 5.858.439 4.327 3.938 7.864 8.261 8.343 5.66.627 10.451-3.788 10.451-9.322 0-1.714-.461-3.318-1.265-4.698-2.045-3.51-3.324-7.411-3.324-11.473z" fill="url(#SVGID_27_)"/></g></g></svg>