<svg id="Capa_1" enable-background="new 0 0 510 510" height="512" viewBox="0 0 510 510" width="512" xmlns="http://www.w3.org/2000/svg" xmlns:xlink="http://www.w3.org/1999/xlink"><linearGradient id="lg1"><stop offset="0" stop-color="#edf5ff"/><stop offset="1" stop-color="#b5dbff"/></linearGradient><linearGradient id="SVGID_1_" gradientUnits="userSpaceOnUse" x1="201.137" x2="347.812" xlink:href="#lg1" y1="69.098" y2="308.986"/><linearGradient id="SVGID_2_" gradientUnits="userSpaceOnUse" x1="237.18" x2="305.733" xlink:href="#lg1" y1="270.716" y2="270.716"/><linearGradient id="lg2"><stop offset="0" stop-color="#b5dbff" stop-opacity="0"/><stop offset=".1734" stop-color="#8fc5e9" stop-opacity=".173"/><stop offset=".4541" stop-color="#56a4c8" stop-opacity=".454"/><stop offset=".6955" stop-color="#2d8db1" stop-opacity=".696"/><stop offset=".8853" stop-color="#147ea2" stop-opacity=".885"/><stop offset="1" stop-color="#0b799d"/></linearGradient><linearGradient id="SVGID_3_" gradientUnits="userSpaceOnUse" x1="175.28" x2="354.397" xlink:href="#lg2" y1="283.677" y2="242.553"/><linearGradient id="SVGID_4_" gradientUnits="userSpaceOnUse" x1="255" x2="255" xlink:href="#lg1" y1="124.718" y2="279.926"/><linearGradient id="lg3"><stop offset="0" stop-color="#b5dbff"/><stop offset="1" stop-color="#48b2e3"/></linearGradient><linearGradient id="SVGID_5_" gradientUnits="userSpaceOnUse" x1="255" x2="255" xlink:href="#lg3" y1="91.608" y2="156.194"/><linearGradient id="SVGID_6_" gradientUnits="userSpaceOnUse" x1="255" x2="255" xlink:href="#lg2" y1="141.741" y2="86.341"/><linearGradient id="SVGID_7_" gradientUnits="userSpaceOnUse" x1="119.041" x2="197.189" xlink:href="#lg3" y1="307.441" y2="229.294"/><linearGradient id="SVGID_8_" gradientUnits="userSpaceOnUse" x1="417.689" x2="324.854" xlink:href="#lg3" y1="334.171" y2="241.336"/><g><path d="m468.972 243.807-183.856 183.856c-6.585 6.585-53.647 6.585-60.232 0l-183.856-183.856c-34.057-34.057-45.437-84.692-29.228-130.046l1.762-4.931h482.876l1.762 4.931c16.209 45.354 4.829 95.989-29.228 130.046z" fill="url(#SVGID_1_)"/><path d="m199.326 402.105 25.558 25.558c6.585 6.585 53.647 6.585 60.232 0l25.559-25.558c40.958-90.006 40.894-203.344-.176-293.275h-110.997c-41.071 89.931-41.135 203.268-.176 293.275z" fill="url(#SVGID_2_)"/><path d="m174.336 190.677c-10.776 60.907-6.178 125.561 13.784 183.268 22.153-13.163 37.99-48.066 37.99-89.066 0-49.094-22.704-89.455-51.774-94.202z" fill="url(#SVGID_3_)"/><path d="m3.549 158.66c61.476 13.097 151.338 21.356 251.451 21.356s189.975-8.259 251.451-21.356c8.726-1.859-1.385-56.644-1.385-56.644h-500.132s-10.111 54.785-1.385 56.644z" fill="url(#SVGID_4_)"/><ellipse cx="255" cy="102.016" fill="url(#SVGID_5_)" rx="250.066" ry="24.618"/><path d="m67.674 118.323c45.816 5.097 112.752 8.312 187.326 8.312s141.511-3.215 187.326-8.312c-45.816-5.097-112.752-8.312-187.326-8.312s-141.511 3.214-187.326 8.312z" fill="url(#SVGID_6_)"/><g><path d="m224.719 427.498-183.686-183.686c-14.996-14.996-25.579-33.187-31.364-52.734 43.098 1.343 97.175 27.539 143.015 73.379 53.269 53.268 80.027 117.682 72.035 163.041z" fill="url(#SVGID_7_)"/><path d="m500.331 191.078c-5.785 19.548-16.367 37.738-31.364 52.734l-183.686 183.686c-7.992-45.359 18.766-109.773 72.035-163.042 45.839-45.839 99.917-72.035 143.015-73.378z" fill="url(#SVGID_8_)"/></g></g></svg>