<svg id="Capa_1" enable-background="new 0 0 510 510" height="512" viewBox="0 0 510 510" width="512" xmlns="http://www.w3.org/2000/svg" xmlns:xlink="http://www.w3.org/1999/xlink"><linearGradient id="lg1"><stop offset="0" stop-color="#b5dbff"/><stop offset="1" stop-color="#48b2e3"/></linearGradient><linearGradient id="SVGID_1_" gradientUnits="userSpaceOnUse" x1="119.132" x2="153.132" xlink:href="#lg1" y1="295.999" y2="255.999"/><linearGradient id="SVGID_2_" gradientTransform="matrix(-1 0 0 1 234.556 0)" gradientUnits="userSpaceOnUse" x1="-156.312" x2="-122.312" xlink:href="#lg1" y1="295.999" y2="255.999"/><linearGradient id="lg2"><stop offset="0" stop-color="#b5dbff"/><stop offset="1" stop-color="#edf5ff"/></linearGradient><linearGradient id="SVGID_3_" gradientTransform="matrix(-1 0 0 -1 510 71.19)" gradientUnits="userSpaceOnUse" x1="17.186" x2="30.019" xlink:href="#lg2" y1="-85.585" y2="-64.597"/><linearGradient id="SVGID_4_" gradientTransform="matrix(-1 0 0 -1 510 71.19)" gradientUnits="userSpaceOnUse" x1="52.619" x2="65.335" xlink:href="#lg2" y1="-79.652" y2="-58.856"/><linearGradient id="SVGID_5_" gradientTransform="matrix(-1 0 0 -1 510 71.19)" gradientUnits="userSpaceOnUse" x1="88.155" x2="100.755" xlink:href="#lg2" y1="-74.694" y2="-54.086"/><linearGradient id="SVGID_6_" gradientTransform="matrix(-1 0 0 -1 510 71.19)" gradientUnits="userSpaceOnUse" x1="123.775" x2="136.263" xlink:href="#lg2" y1="-70.711" y2="-50.286"/><linearGradient id="SVGID_7_" gradientTransform="matrix(-1 0 0 -1 510 71.19)" gradientUnits="userSpaceOnUse" x1="159.46" x2="171.839" xlink:href="#lg2" y1="-67.702" y2="-47.457"/><linearGradient id="SVGID_8_" gradientTransform="matrix(-1 0 0 -1 510 71.19)" gradientUnits="userSpaceOnUse" x1="195.192" x2="207.464" xlink:href="#lg2" y1="-65.669" y2="-45.597"/><linearGradient id="SVGID_9_" gradientTransform="matrix(-1 0 0 -1 510 71.19)" gradientUnits="userSpaceOnUse" x1="230.95" x2="243.12" xlink:href="#lg2" y1="-64.611" y2="-44.707"/><linearGradient id="SVGID_10_" gradientTransform="matrix(-1 0 0 -1 510 71.19)" gradientUnits="userSpaceOnUse" x1="266.716" x2="278.786" xlink:href="#lg2" y1="-64.529" y2="-44.787"/><linearGradient id="SVGID_11_" gradientTransform="matrix(-1 0 0 -1 510 71.19)" gradientUnits="userSpaceOnUse" x1="302.47" x2="314.446" xlink:href="#lg2" y1="-65.422" y2="-45.837"/><linearGradient id="SVGID_12_" gradientTransform="matrix(-1 0 0 -1 510 71.19)" gradientUnits="userSpaceOnUse" x1="338.195" x2="350.078" xlink:href="#lg2" y1="-67.292" y2="-47.856"/><linearGradient id="SVGID_13_" gradientTransform="matrix(-1 0 0 -1 510 71.19)" gradientUnits="userSpaceOnUse" x1="373.87" x2="385.665" xlink:href="#lg2" y1="-70.137" y2="-50.844"/><linearGradient id="SVGID_14_" gradientTransform="matrix(-1 0 0 -1 510 71.19)" gradientUnits="userSpaceOnUse" x1="409.476" x2="421.188" xlink:href="#lg2" y1="-73.958" y2="-54.802"/><linearGradient id="SVGID_15_" gradientTransform="matrix(-1 0 0 -1 510 71.19)" gradientUnits="userSpaceOnUse" x1="444.994" x2="456.628" xlink:href="#lg2" y1="-78.755" y2="-59.728"/><linearGradient id="SVGID_16_" gradientTransform="matrix(-1 0 0 -1 510 71.19)" gradientUnits="userSpaceOnUse" x1="480.405" x2="491.965" xlink:href="#lg2" y1="-84.529" y2="-65.623"/><linearGradient id="lg3"><stop offset="0" stop-color="#edf5ff"/><stop offset="1" stop-color="#b5dbff"/></linearGradient><linearGradient id="SVGID_17_" gradientUnits="userSpaceOnUse" x1="205.031" x2="328.995" xlink:href="#lg3" y1="98.78" y2="301.524"/><linearGradient id="lg4"><stop offset="0" stop-color="#b5dbff" stop-opacity="0"/><stop offset=".1734" stop-color="#8fc5e9" stop-opacity=".173"/><stop offset=".4541" stop-color="#56a4c8" stop-opacity=".454"/><stop offset=".6955" stop-color="#2d8db1" stop-opacity=".696"/><stop offset=".8853" stop-color="#147ea2" stop-opacity=".885"/><stop offset="1" stop-color="#0b799d"/></linearGradient><linearGradient id="SVGID_18_" gradientUnits="userSpaceOnUse" x1="356.646" x2="-196.354" xlink:href="#lg4" y1="264.852" y2="-67.148"/><linearGradient id="SVGID_19_" gradientUnits="userSpaceOnUse" x1="255" x2="255" xlink:href="#lg3" y1="166.096" y2="272.316"/><linearGradient id="SVGID_20_" gradientUnits="userSpaceOnUse" x1="255" x2="255" xlink:href="#lg1" y1="140.15" y2="204.736"/><linearGradient id="SVGID_21_" gradientUnits="userSpaceOnUse" x1="255" x2="255" xlink:href="#lg4" y1="190.283" y2="134.883"/><linearGradient id="SVGID_22_" gradientUnits="userSpaceOnUse" x1="20.262" x2="31.018" xlink:href="#lg3" y1="148.491" y2="166.082"/><linearGradient id="SVGID_23_" gradientUnits="userSpaceOnUse" x1="53.847" x2="64.066" xlink:href="#lg3" y1="155.341" y2="172.053"/><linearGradient id="SVGID_24_" gradientUnits="userSpaceOnUse" x1="89.394" x2="98.891" xlink:href="#lg3" y1="159.975" y2="175.506"/><linearGradient id="SVGID_25_" gradientUnits="userSpaceOnUse" x1="125.278" x2="134.033" xlink:href="#lg3" y1="163.48" y2="177.8"/><linearGradient id="SVGID_26_" gradientUnits="userSpaceOnUse" x1="161.273" x2="169.361" xlink:href="#lg3" y1="166.011" y2="179.238"/><linearGradient id="SVGID_27_" gradientUnits="userSpaceOnUse" x1="197.262" x2="204.825" xlink:href="#lg3" y1="167.669" y2="180.038"/><linearGradient id="SVGID_28_" gradientUnits="userSpaceOnUse" x1="233.153" x2="240.378" xlink:href="#lg3" y1="168.528" y2="180.345"/><linearGradient id="SVGID_29_" gradientUnits="userSpaceOnUse" x1="268.919" x2="276.017" xlink:href="#lg3" y1="168.603" y2="180.213"/><linearGradient id="SVGID_30_" gradientUnits="userSpaceOnUse" x1="304.487" x2="311.647" xlink:href="#lg3" y1="167.905" y2="179.616"/><linearGradient id="SVGID_31_" gradientUnits="userSpaceOnUse" x1="339.856" x2="347.236" xlink:href="#lg3" y1="166.407" y2="178.477"/><linearGradient id="SVGID_32_" gradientUnits="userSpaceOnUse" x1="375.068" x2="382.756" xlink:href="#lg3" y1="164.043" y2="176.617"/><linearGradient id="SVGID_33_" gradientUnits="userSpaceOnUse" x1="410.193" x2="418.172" xlink:href="#lg3" y1="160.716" y2="173.765"/><linearGradient id="SVGID_34_" gradientUnits="userSpaceOnUse" x1="445.229" x2="453.261" xlink:href="#lg3" y1="156.279" y2="169.415"/><linearGradient id="SVGID_35_" gradientUnits="userSpaceOnUse" x1="479.907" x2="486.274" xlink:href="#lg3" y1="150.132" y2="160.545"/><g><g><path d="m15.477 200.86s140.513 57.763 209.712 187.451c0 0-12.623-182.591-209.712-187.451z" fill="url(#SVGID_1_)"/><path d="m494.523 200.86s-140.513 57.763-209.712 187.451c0 0 12.623-182.591 209.712-187.451z" fill="url(#SVGID_2_)"/></g><g><g><path d="m465.794 142.603c1.54-9.94 14.13-13.615 23.135-12.002 9.005 1.612 19.646 9.445 17.802 19.33-1.813 9.719-14.157 13.275-23.093 11.676s-19.358-9.231-17.844-19.004z" fill="url(#SVGID_3_)"/><path d="m430.358 137.332c1.28-9.974 13.752-13.998 22.793-12.633 9.042 1.365 19.861 8.905 18.276 18.833-1.558 9.761-13.785 13.66-22.758 12.306-8.972-1.354-19.569-8.7-18.311-18.506z" fill="url(#SVGID_4_)"/><path d="m394.829 133.033c1.02-10.002 13.367-14.37 22.439-13.252s20.065 8.361 18.74 18.325c-1.303 9.796-13.407 14.034-22.41 12.926-9.003-1.109-19.772-8.165-18.769-17.999z" fill="url(#SVGID_5_)"/><path d="m359.225 129.707c.759-10.023 12.977-14.729 22.073-13.86 9.097.87 20.26 7.812 19.194 17.805-1.048 9.826-13.024 14.396-22.051 13.534-9.026-.863-19.962-7.625-19.216-17.479z" fill="url(#SVGID_6_)"/><path d="m323.566 127.353c.498-10.038 12.581-15.078 21.695-14.457 9.115.622 20.443 7.259 19.638 17.275-.792 9.849-12.634 14.747-21.679 14.131s-20.144-7.08-19.654-16.949z" fill="url(#SVGID_7_)"/><path d="m287.87 125.971c.237-10.047 12.179-15.416 21.306-15.043s20.616 6.7 20.071 16.734c-.536 9.866-12.239 15.087-21.297 14.717-9.057-.37-20.314-6.53-20.08-16.408z" fill="url(#SVGID_8_)"/><path d="m252.156 125.562c-.023-10.049 11.772-15.742 20.905-15.618s20.778 6.137 20.494 16.181c-.279 9.876-11.839 15.415-20.902 15.292-9.063-.122-20.474-5.975-20.497-15.855z" fill="url(#SVGID_9_)"/><path d="m216.445 126.126c-.284-10.045 11.36-16.057 20.494-16.181 9.133-.124 20.929 5.569 20.906 15.618-.023 9.88-11.433 15.732-20.497 15.855s-20.624-5.416-20.903-15.292z" fill="url(#SVGID_10_)"/><path d="m180.753 127.662c-.545-10.034 10.944-16.361 20.071-16.734s21.069 4.996 21.306 15.043c.234 9.878-11.024 16.038-20.081 16.408s-20.76-4.851-21.296-14.717z" fill="url(#SVGID_11_)"/><path d="m145.101 130.171c-.805-10.017 10.523-16.654 19.638-17.275 9.115-.622 21.197 4.419 21.695 14.457.49 9.87-10.609 16.333-19.654 16.949-9.045.617-20.887-4.282-21.679-14.131z" fill="url(#SVGID_12_)"/><path d="m109.508 133.652c-1.066-9.994 10.097-16.936 19.194-17.806 9.096-.87 21.314 3.837 22.073 13.86.746 9.855-10.19 16.617-19.217 17.48s-21.003-3.708-22.05-13.534z" fill="url(#SVGID_13_)"/><path d="m73.992 138.106c-1.326-9.964 9.668-17.207 18.74-18.325s21.419 3.25 22.439 13.252c1.002 9.834-9.766 16.89-18.769 17.999-9.003 1.108-21.107-3.13-22.41-12.926z" fill="url(#SVGID_14_)"/><path d="m38.573 143.532c-1.585-9.928 9.234-17.467 18.276-18.833 9.041-1.365 21.513 2.659 22.793 12.632 1.258 9.807-9.339 17.152-18.311 18.507-8.973 1.355-21.2-2.545-22.758-12.306z" fill="url(#SVGID_15_)"/><path d="m3.27 149.931c-1.844-9.885 8.796-17.718 17.802-19.33 9.005-1.612 21.595 2.063 23.135 12.002 1.514 9.773-8.908 17.404-17.844 19.003-8.937 1.6-21.281-1.957-23.093-11.675z" fill="url(#SVGID_16_)"/></g></g><path d="m509.992 187.179c.244 6.315-4.852 11.958-12.413 13.681-40.812 9.3-85.622 30.836-125.099 62.579-50.696 40.755-80.477 88.576-83.956 127.592-.168 1.882-1.196 3.646-2.856 4.98-6.71 5.394-54.626 5.394-61.336 0-1.66-1.334-2.688-3.098-2.856-4.98-3.479-39.015-33.26-86.836-83.956-127.592-39.476-31.743-84.287-53.279-125.099-62.579-7.561-1.723-12.658-7.366-12.413-13.681.325-8.406 2.748-17.559 7.367-27.958l1.792-4.035h491.666l1.792 4.035c4.619 10.399 7.041 19.552 7.367 27.958z" fill="url(#SVGID_17_)"/><path d="m500.833 155.186h-245.833v244.871c13.656 0 27.313-1.349 30.668-4.046 1.66-1.334 2.688-3.098 2.856-4.98 3.479-39.015 33.26-86.836 83.956-127.592 39.477-31.743 84.287-53.279 125.099-62.579 7.561-1.723 12.658-7.366 12.413-13.681-.325-8.406-2.748-17.559-7.367-27.958z" fill="url(#SVGID_18_)"/><path d="m3.549 182.584c61.476 13.097 151.338 21.356 251.451 21.356s189.975-8.259 251.451-21.356c8.726-1.859-1.385-32.025-1.385-32.025h-500.132s-10.111 30.167-1.385 32.025z" fill="url(#SVGID_19_)"/><ellipse cx="255" cy="150.559" fill="url(#SVGID_20_)" rx="250.066" ry="24.618"/><path d="m67.674 166.865c45.816 5.097 112.752 8.312 187.326 8.312s141.511-3.215 187.326-8.312c-45.816-5.097-112.752-8.312-187.326-8.312s-141.511 3.215-187.326 8.312z" fill="url(#SVGID_21_)"/><g><g><path d="m44.35 163.834c-1.85-.29-3.64-.58-5.37-.87-18.17-3.06-29.83-6.54-33.1-10.25 4.5-5.48 13.53-7.36 20.48-6.12 6.2 1.11 13.11 5.12 16.26 10.74 1.12 1.99 1.76 4.17 1.73 6.5z" fill="url(#SVGID_22_)"/><path d="m79.68 168.114c-1.72-.17-3.42-.34-5.09-.51-11.27-1.16-21.41-2.42-30.24-3.77-1.85-.29-3.64-.58-5.37-.87.68-2.23 1.97-4.11 3.64-5.63 4.71-4.32 12.49-5.91 18.71-4.97 6.22.95 13.22 4.76 16.51 10.28 1 1.67 1.65 3.51 1.84 5.47z" fill="url(#SVGID_23_)"/><path d="m114.86 170.954c-1.44-.1-2.86-.2-4.27-.3-11-.76-21.33-1.61-30.91-2.54-1.72-.17-3.42-.34-5.09-.51.68-1.92 1.81-3.57 3.25-4.96 4.59-4.44 12.32-6.24 18.56-5.47 6.25.77 13.33 4.4 16.76 9.83.77 1.23 1.36 2.55 1.7 3.95z" fill="url(#SVGID_24_)"/><path d="m149.9 172.904c-1.04-.05-2.08-.1-3.12-.15-11.12-.52-21.78-1.13-31.92-1.8-1.44-.1-2.86-.2-4.27-.3.64-1.36 1.51-2.57 2.57-3.65 4.46-4.57 12.14-6.59 18.4-5.99s13.44 4.04 17 9.37c.53.8.99 1.64 1.34 2.52z" fill="url(#SVGID_25_)"/><path d="m184.87 174.194c-.64-.02-1.28-.04-1.91-.06-11.38-.33-22.42-.75-33.06-1.23-1.04-.05-2.08-.1-3.12-.15.49-.85 1.09-1.64 1.78-2.37 4.33-4.69 11.95-6.91 18.22-6.48s13.52 3.66 17.22 8.89c.32.45.61.92.87 1.4z" fill="url(#SVGID_26_)"/><path d="m219.96 174.934c-.34 0-.67-.01-1-.01-11.64-.17-23.03-.41-34.09-.73-.64-.02-1.28-.04-1.91-.06.32-.46.67-.91 1.04-1.34 4.23-4.8 11.77-7.23 18.05-6.97s13.61 3.3 17.43 8.43c.18.22.34.45.48.68z" fill="url(#SVGID_27_)"/><path d="m255.32 175.174h-.64c-11.78 0-23.38-.08-34.72-.24-.34 0-.67-.01-1-.01.16-.23.34-.45.52-.67 4.09-4.91 11.58-7.55 17.87-7.47 6.28.09 13.69 2.93 17.65 7.96.11.14.22.28.32.43z" fill="url(#SVGID_28_)"/><path d="m291.04 174.924c-.33 0-.66.01-1 .01-11.34.16-22.94.24-34.72.24h-.64c.1-.15.21-.29.32-.43 3.96-5.03 11.37-7.87 17.65-7.96 6.29-.08 13.78 2.56 17.87 7.47.18.22.36.44.52.67z" fill="url(#SVGID_29_)"/><path d="m327.04 174.134c-.63.02-1.27.04-1.91.06-11.06.32-22.45.56-34.09.73-.33 0-.66.01-1 .01.14-.23.3-.46.48-.68 3.82-5.13 11.15-8.17 17.43-8.43s13.82 2.17 18.05 6.97c.37.43.72.88 1.04 1.34z" fill="url(#SVGID_30_)"/><path d="m363.22 172.754c-1.04.05-2.08.1-3.12.15-10.64.48-21.68.9-33.06 1.23-.63.02-1.27.04-1.91.06.26-.48.55-.95.87-1.4 3.7-5.23 10.95-8.46 17.22-8.89s13.89 1.79 18.22 6.48c.69.73 1.29 1.52 1.78 2.37z" fill="url(#SVGID_31_)"/><path d="m399.41 170.654c-1.41.1-2.83.2-4.27.3-10.14.67-20.8 1.28-31.92 1.8-1.04.05-2.08.1-3.12.15.35-.88.81-1.72 1.34-2.52 3.56-5.33 10.74-8.77 17-9.37s13.94 1.42 18.4 5.99c1.06 1.08 1.93 2.29 2.57 3.65z" fill="url(#SVGID_32_)"/><path d="m435.41 167.604c-1.67.17-3.37.34-5.09.51-9.58.93-19.91 1.78-30.91 2.54-1.41.1-2.83.2-4.27.3.34-1.4.93-2.72 1.7-3.95 3.43-5.43 10.52-9.06 16.76-9.83s13.97 1.03 18.56 5.47c1.44 1.39 2.57 3.04 3.25 4.96z" fill="url(#SVGID_33_)"/><path d="m471.02 162.964c-1.73.29-3.52.58-5.37.87-8.83 1.35-18.97 2.61-30.24 3.77-1.67.17-3.37.34-5.09.51.19-1.96.84-3.8 1.84-5.47 3.29-5.52 10.29-9.33 16.51-10.28 6.22-.94 14 .65 18.71 4.97 1.67 1.52 2.96 3.4 3.64 5.63z" fill="url(#SVGID_34_)"/><path d="m504.12 152.714c-3.27 3.71-14.93 7.19-33.1 10.25-1.73.29-3.52.58-5.37.87-.03-2.33.61-4.51 1.73-6.5 3.14-5.62 10.06-9.63 16.26-10.74 6.95-1.24 15.98.64 20.48 6.12z" fill="url(#SVGID_35_)"/></g></g></g></svg>