<svg id="Capa_1" enable-background="new 0 0 510 510" height="512" viewBox="0 0 510 510" width="512" xmlns="http://www.w3.org/2000/svg" xmlns:xlink="http://www.w3.org/1999/xlink"><linearGradient id="lg1"><stop offset="0" stop-color="#edf5ff"/><stop offset="1" stop-color="#d5e8fe"/></linearGradient><linearGradient id="SVGID_1_" gradientUnits="userSpaceOnUse" x1="217.998" x2="358.277" xlink:href="#lg1" y1="157.421" y2="351.452"/><linearGradient id="lg2"><stop offset="0" stop-color="#07485e" stop-opacity="0"/><stop offset="1" stop-color="#03232e"/></linearGradient><linearGradient id="SVGID_2_" gradientUnits="userSpaceOnUse" x1="264.96" x2="21.391" xlink:href="#lg2" y1="241.234" y2="148.15"/><linearGradient id="lg3"><stop offset="0" stop-color="#b5dbff" stop-opacity="0"/><stop offset=".2428" stop-color="#93cef6" stop-opacity=".243"/><stop offset=".5763" stop-color="#6abfec" stop-opacity=".576"/><stop offset=".8403" stop-color="#51b5e5" stop-opacity=".84"/><stop offset="1" stop-color="#48b2e3"/></linearGradient><linearGradient id="SVGID_3_" gradientUnits="userSpaceOnUse" x1="318.03" x2="84.275" xlink:href="#lg3" y1="172.391" y2="79.302"/><linearGradient id="SVGID_4_" gradientUnits="userSpaceOnUse" x1="312.79" x2="267.969" xlink:href="#lg3" y1="136.871" y2="53.091"/><linearGradient id="SVGID_5_" gradientUnits="userSpaceOnUse" x1="255" x2="255" xlink:href="#lg3" y1="434.776" y2="507.022"/><linearGradient id="SVGID_6_" gradientUnits="userSpaceOnUse" x1="48.171" x2="48.171" xlink:href="#lg3" y1="136.075" y2="284.105"/><linearGradient id="SVGID_7_" gradientTransform="matrix(-1 0 0 1 -820.322 0)" gradientUnits="userSpaceOnUse" x1="-1282.151" x2="-1282.151" xlink:href="#lg3" y1="136.075" y2="284.105"/><linearGradient id="lg4"><stop offset="0" stop-color="#0b799d"/><stop offset="1" stop-color="#07485e"/></linearGradient><linearGradient id="SVGID_8_" gradientUnits="userSpaceOnUse" x1="93.531" x2="387.276" xlink:href="#lg4" y1="217.105" y2="422.934"/><linearGradient id="SVGID_9_" gradientUnits="userSpaceOnUse" x1="219.037" x2="172.701" xlink:href="#lg2" y1="127.264" y2="80.928"/><linearGradient id="SVGID_10_" gradientUnits="userSpaceOnUse" x1="303.664" x2="524.053" xlink:href="#lg4" y1="209.594" y2="429.984"/><linearGradient id="SVGID_11_" gradientUnits="userSpaceOnUse" x1="373.661" x2="267.622" xlink:href="#lg2" y1="225.566" y2="-41.024"/><linearGradient id="SVGID_12_" gradientUnits="userSpaceOnUse" x1="255" x2="255" y1="22.993" y2="53.403"><stop offset="0" stop-color="#edf5ff"/><stop offset="1" stop-color="#b5dbff"/></linearGradient><linearGradient id="SVGID_13_" gradientUnits="userSpaceOnUse" x1="198.771" x2="208.771" xlink:href="#lg1" y1="69.422" y2="93.422"/><linearGradient id="SVGID_14_" gradientUnits="userSpaceOnUse" x1="299.794" x2="329.441" xlink:href="#lg1" y1="62.171" y2="91.818"/><linearGradient id="lg5"><stop offset="0" stop-color="#ff637b"/><stop offset="1" stop-color="#f90217"/></linearGradient><linearGradient id="SVGID_15_" gradientTransform="matrix(.707 .707 -.707 .707 -196.04 610.949)" gradientUnits="userSpaceOnUse" x1="-82.759" x2="-54.272" xlink:href="#lg5" y1="-680.013" y2="-651.526"/><linearGradient id="SVGID_16_" gradientTransform="matrix(-.707 .707 .707 .707 -1487.427 610.949)" gradientUnits="userSpaceOnUse" x1="-1633.774" x2="-1605.287" xlink:href="#lg5" y1="871.002" y2="899.49"/><linearGradient id="SVGID_17_" gradientUnits="userSpaceOnUse" x1="245.62" x2="264.961" xlink:href="#lg5" y1="81.746" y2="101.087"/><linearGradient id="SVGID_18_" gradientUnits="userSpaceOnUse" x1="243.119" x2="182.948" xlink:href="#lg2" y1="312.546" y2="252.375"/><linearGradient id="SVGID_19_" gradientUnits="userSpaceOnUse" x1="243.119" x2="182.948" xlink:href="#lg2" y1="383.999" y2="323.829"/><linearGradient id="SVGID_20_" gradientUnits="userSpaceOnUse" x1="330.657" x2="270.486" xlink:href="#lg2" y1="312.546" y2="252.375"/><linearGradient id="SVGID_21_" gradientUnits="userSpaceOnUse" x1="330.657" x2="270.486" xlink:href="#lg2" y1="383.999" y2="323.829"/><linearGradient id="lg6"><stop offset="0" stop-color="#ffda2d"/><stop offset="1" stop-color="#fdbf00"/></linearGradient><linearGradient id="SVGID_22_" gradientUnits="userSpaceOnUse" x1="204.947" x2="215.475" xlink:href="#lg6" y1="274.448" y2="284.976"/><linearGradient id="SVGID_23_" gradientTransform="matrix(-1 0 0 -1 -1708.561 565.72)" gradientUnits="userSpaceOnUse" x1="-1923.438" x2="-1917.459" xlink:href="#lg6" y1="281.343" y2="287.321"/><linearGradient id="SVGID_24_" gradientUnits="userSpaceOnUse" x1="292.387" x2="302.916" xlink:href="#lg6" y1="274.448" y2="284.976"/><linearGradient id="SVGID_25_" gradientTransform="matrix(-1 0 0 -1 -1708.561 565.72)" gradientUnits="userSpaceOnUse" x1="-2010.878" x2="-2004.9" xlink:href="#lg6" y1="281.343" y2="287.321"/><linearGradient id="SVGID_26_" gradientUnits="userSpaceOnUse" x1="204.947" x2="215.475" xlink:href="#lg6" y1="345.86" y2="356.388"/><linearGradient id="SVGID_27_" gradientTransform="matrix(-1 0 0 -1 -1708.561 565.72)" gradientUnits="userSpaceOnUse" x1="-1923.438" x2="-1917.459" xlink:href="#lg6" y1="209.931" y2="215.91"/><linearGradient id="SVGID_28_" gradientUnits="userSpaceOnUse" x1="292.387" x2="302.916" xlink:href="#lg6" y1="345.86" y2="356.388"/><linearGradient id="SVGID_29_" gradientTransform="matrix(-1 0 0 -1 -1708.561 565.72)" gradientUnits="userSpaceOnUse" x1="-2010.878" x2="-2004.9" xlink:href="#lg6" y1="209.931" y2="215.91"/><g><path d="m504.768 126.664-33.247-33.247c-37.049-37.049-87.297-57.862-139.692-57.862h-153.658c-52.395 0-102.644 20.814-139.692 57.862l-33.247 33.247c-6.976 6.976-6.976 18.287 0 25.263l57.768 57.767c6.976 6.976 18.287 6.976 25.263 0l8.079-4.942v180.771c0 53.613 43.462 97.075 97.075 97.075h123.167c53.613 0 97.075-43.462 97.075-97.075v-180.771l8.079 4.942c6.976 6.976 18.286 6.976 25.263 0l57.768-57.768c6.975-6.976 6.975-18.286-.001-25.262z" fill="url(#SVGID_1_)"/><path d="m471.521 93.416c-37.049-37.049-87.297-57.862-139.692-57.862h-76.829v447.043h61.583c53.613 0 97.075-43.462 97.075-97.075v-180.77l8.079 4.942c6.976 6.976 18.286 6.976 25.263 0l57.768-57.768c6.976-6.976 6.976-18.286 0-25.263z" fill="url(#SVGID_2_)"/><path d="m504.77 151.925-25.52 25.52-32.25 32.25c-6.98 6.97-18.29 6.97-25.26 0l-8.08-4.94v163.14c-49.22-49.29-246.6-246.48-247.47-247.37-1.03-1.07-.689-2.53-.689-4.2v-64.26c0-6.65 3.23-12.69 8.36-16.44 1.76-.05 2.539-.07 4.309-.07h153.66c1.77 0 3.53.02 5.29.07 50.48 1.35 98.6 21.99 134.4 57.79l33.25 33.25c6.97 6.97 6.97 18.29 0 25.26z" fill="url(#SVGID_3_)"/><path d="m444.857 211.498c-54.858-54.838-145.038-144.995-145.428-145.444-5.158-5.945-13.521-5.945-18.68 0l-10.496 12.098c-1.683-2.143-3.997-3.62-6.596-4.067-5.762-.993-11.552-.993-17.314 0-2.297.396-4.37 1.598-5.983 3.352-.022-.015-.045-.031-.067-.046l-11.041-11.337c-5.158-5.945-13.521-5.945-18.68 0-12.014 13.847-12.014 36.298 0 50.145l203.087 202.717v-114.164l8.079 4.942c6.302 6.303 16.133 6.891 23.119 1.804z" fill="url(#SVGID_4_)"/><path d="m96.342 373.552v11.971c0 53.613 43.462 97.075 97.075 97.075h123.167c53.613 0 97.075-43.462 97.075-97.075v-11.971z" fill="url(#SVGID_5_)"/><g><path d="m38.479 93.416-33.247 33.248c-6.976 6.976-6.976 18.286 0 25.263l57.768 57.767c6.976 6.976 18.287 6.976 25.263 0l8.079-4.942v-151.438c-21.331 9.708-40.972 23.211-57.863 40.102z" fill="url(#SVGID_6_)"/></g><g><path d="m471.521 93.416 33.247 33.247c6.976 6.976 6.976 18.286 0 25.263l-57.768 57.768c-6.976 6.976-18.287 6.976-25.263 0l-8.079-4.942v-151.438c21.331 9.708 40.972 23.211 57.863 40.102z" fill="url(#SVGID_7_)"/></g><path d="m174.197 37.73c1.739 21.26 12.037 103.618 69.713 173.05 7.237 8.712 11.09 19.744 11.09 31.07v176.562c0 6.187-2.458 12.121-6.833 16.496l-46.926 46.926c-6.793 6.793-17.057 8.727-25.857 4.872l-97.334-42.641c-11.498-5.037-16.949-18.27-12.334-29.945l8.681-21.959c14.499-36.676 21.945-75.76 21.945-115.198v-219.987c0-4.317 2.538-8.216 6.471-9.998 10.672-4.834 33.978-13.483 65.676-14.382 2.961-.084 5.466 2.18 5.708 5.134z" fill="url(#SVGID_8_)"/><path d="m174.197 37.73c-.057-.698-.249-1.352-.535-1.951-5.012 3.76-8.161 9.724-8.161 16.286v64.26c0 1.67-.341 3.13.689 4.2.277.284 20.527 20.519 49.579 49.549-33.154-57.972-40.165-115.147-41.572-132.344z" fill="url(#SVGID_9_)"/><path d="m335.803 37.73c-1.739 21.26-12.037 103.618-69.713 173.05-7.237 8.712-11.09 19.744-11.09 31.07v176.562c0 6.187 2.458 12.121 6.833 16.496l46.926 46.926c6.793 6.793 17.057 8.727 25.857 4.872l97.335-42.641c11.498-5.037 16.949-18.27 12.334-29.945l-8.681-21.959c-14.499-36.676-21.945-75.76-21.945-115.198v-219.987c0-4.317-2.538-8.216-6.471-9.998-10.672-4.834-33.978-13.483-65.676-14.382-2.962-.084-5.467 2.18-5.709 5.134z" fill="url(#SVGID_10_)"/><path d="m434.159 388.378c-13.536-35.577-20.5-73.327-20.5-111.414v-219.988c0-4.317-2.538-8.216-6.471-9.998-10.672-4.834-33.978-13.483-65.676-14.382-2.962-.084-5.467 2.18-5.709 5.134-1.739 21.26-12.037 103.618-69.713 173.049-1.47 1.77-2.793 3.639-3.98 5.583 50.284 50.265 122.196 122.163 172.049 172.016z" fill="url(#SVGID_11_)"/><path d="m317.181 30.548c-40.539-12.287-83.822-12.287-124.361 0-7.217 2.187-10.862 10.173-7.852 17.087 12.05 27.679 38.874 32.309 70.032 32.309 31.159 0 57.983-4.631 70.032-32.309 3.01-6.914-.635-14.9-7.851-17.087z" fill="url(#SVGID_12_)"/><g><g><path d="m255 74c-29.779 0-41.444-18.542-48.672-37.522-1.447-3.8-2.166-6.326-2.515-7.783-.207-.864-1.064-1.398-1.933-1.206l-21.78 4.804c-9.146 2.193-15.595 10.371-15.595 19.776v64.253c0 4.467 4.665 7.4 8.691 5.465l79.533-38.23c1.389-.668 2.272-2.072 2.272-3.613v-5.944z" fill="url(#SVGID_13_)"/><path d="m255 79.944c0 1.541.883 2.945 2.272 3.613l79.533 38.23c4.026 1.935 8.691-.999 8.691-5.465v-64.253c0-9.405-6.449-17.583-15.595-19.776l-21.781-4.804c-.868-.191-1.725.342-1.932 1.206-.349 1.457-1.067 3.982-2.515 7.783-7.229 18.98-18.894 37.522-48.673 37.522z" fill="url(#SVGID_14_)"/></g></g><g><g><path d="m210.571 116.199c-12.014-13.847-12.014-36.298 0-50.145 5.158-5.945 13.521-5.945 18.68 0l21.754 25.073-21.754 25.073c-5.158 5.944-13.521 5.944-18.68-.001z" fill="url(#SVGID_15_)"/><path d="m299.429 116.199c12.014-13.847 12.014-36.298 0-50.145-5.158-5.945-13.521-5.945-18.68 0l-21.754 25.073 21.754 25.073c5.158 5.944 13.522 5.944 18.68-.001z" fill="url(#SVGID_16_)"/></g><path d="m272.905 84.424c-.791-5.385-4.562-9.533-9.248-10.34-5.762-.993-11.552-.993-17.314 0-4.687.807-8.457 4.955-9.248 10.34-.656 4.464-.656 8.941 0 13.405.791 5.385 4.562 9.532 9.248 10.34 5.762.993 11.552.993 17.314 0 4.686-.807 8.457-4.955 9.248-10.34.656-4.464.656-8.941 0-13.405z" fill="url(#SVGID_17_)"/></g><path d="m277.115 353.272c-8.782 5.621-20.293 4.373-27.666-3l-53.361-53.361c-4.275-4.048-6.598-9.776-6.598-16.128-.001-12.004 9.862-21.867 21.866-21.866 6.352 0 12.08 2.324 16.128 6.598l53.361 53.361c10.025 10.026 8.212 26.752-3.73 34.396z" fill="url(#SVGID_18_)"/><path d="m277.115 424.725c-8.782 5.621-20.293 4.373-27.666-3l-53.361-53.361c-4.275-4.048-6.598-9.776-6.598-16.128-.001-12.005 9.862-21.867 21.866-21.866 6.352 0 12.08 2.324 16.128 6.598l53.361 53.361c10.025 10.026 8.212 26.753-3.73 34.396z" fill="url(#SVGID_19_)"/><path d="m364.654 353.272c-8.782 5.621-20.293 4.373-27.666-3l-53.361-53.361c-4.275-4.048-6.598-9.776-6.599-16.128-.001-12.004 9.862-21.867 21.866-21.866 6.352 0 12.08 2.324 16.128 6.598l53.361 53.361c10.026 10.026 8.212 26.752-3.729 34.396z" fill="url(#SVGID_20_)"/><path d="m364.654 424.725c-8.782 5.621-20.293 4.373-27.666-3l-53.361-53.361c-4.275-4.048-6.598-9.776-6.599-16.128-.001-12.005 9.862-21.867 21.866-21.866 6.352 0 12.08 2.324 16.128 6.598l53.361 53.361c10.026 10.026 8.212 26.753-3.729 34.396z" fill="url(#SVGID_21_)"/><g><circle cx="211.28" cy="280.781" fill="url(#SVGID_22_)" r="22.209"/><circle cx="211.28" cy="280.781" fill="url(#SVGID_23_)" r="12.612"/></g><g><circle cx="298.72" cy="280.781" fill="url(#SVGID_24_)" r="22.209"/><circle cx="298.72" cy="280.781" fill="url(#SVGID_25_)" r="12.612"/></g><g><circle cx="211.28" cy="352.193" fill="url(#SVGID_26_)" r="22.209"/><circle cx="211.28" cy="352.193" fill="url(#SVGID_27_)" r="12.612"/></g><g><circle cx="298.72" cy="352.193" fill="url(#SVGID_28_)" r="22.209"/><circle cx="298.72" cy="352.193" fill="url(#SVGID_29_)" r="12.612"/></g></g></svg>