<svg id="Capa_1" enable-background="new 0 0 510 510" height="512" viewBox="0 0 510 510" width="512" xmlns="http://www.w3.org/2000/svg" xmlns:xlink="http://www.w3.org/1999/xlink"><linearGradient id="SVGID_1_" gradientTransform="matrix(.707 .707 -.707 .707 257.989 -112.839)" gradientUnits="userSpaceOnUse" x1="94.643" x2="439.057" y1="262.215" y2="262.215"><stop offset="0" stop-color="#0b799d"/><stop offset="1" stop-color="#07485e"/></linearGradient><linearGradient id="lg1"><stop offset="0" stop-color="#b5dbff"/><stop offset="1" stop-color="#48b2e3"/></linearGradient><linearGradient id="SVGID_2_" gradientTransform="matrix(.707 .707 -.707 .707 257.989 -112.839)" gradientUnits="userSpaceOnUse" x1="179.553" x2="186.699" xlink:href="#lg1" y1="487.317" y2="487.317"/><linearGradient id="SVGID_3_" gradientTransform="matrix(.707 .707 -.707 .707 257.989 -112.839)" gradientUnits="userSpaceOnUse" x1="329.278" x2="336.424" xlink:href="#lg1" y1="487.317" y2="487.317"/><linearGradient id="SVGID_4_" gradientTransform="matrix(.707 .707 -.707 .707 257.989 -112.839)" gradientUnits="userSpaceOnUse" x1="179.553" x2="186.699" xlink:href="#lg1" y1="37.113" y2="37.113"/><linearGradient id="SVGID_5_" gradientTransform="matrix(.707 .707 -.707 .707 257.989 -112.839)" gradientUnits="userSpaceOnUse" x1="329.278" x2="336.424" xlink:href="#lg1" y1="37.113" y2="37.113"/><linearGradient id="lg2"><stop offset="0" stop-color="#07485e" stop-opacity="0"/><stop offset="1" stop-color="#03232e"/></linearGradient><linearGradient id="SVGID_6_" gradientTransform="matrix(.707 .707 -.707 .707 257.989 -112.839)" gradientUnits="userSpaceOnUse" x1="257.989" x2="257.989" xlink:href="#lg2" y1="518.463" y2="389.173"/><linearGradient id="lg3"><stop offset="0" stop-color="#edf5ff"/><stop offset="1" stop-color="#b5dbff"/></linearGradient><linearGradient id="SVGID_7_" gradientTransform="matrix(-.707 .707 -.707 -.707 -938.142 -1437.047)" gradientUnits="userSpaceOnUse" x1="352.779" x2="352.779" xlink:href="#lg3" y1="-2213.009" y2="-2188.065"/><linearGradient id="lg4"><stop offset="0" stop-color="#b5dbff" stop-opacity="0"/><stop offset=".1734" stop-color="#8fc5e9" stop-opacity=".173"/><stop offset=".4541" stop-color="#56a4c8" stop-opacity=".454"/><stop offset=".6955" stop-color="#2d8db1" stop-opacity=".696"/><stop offset=".8853" stop-color="#147ea2" stop-opacity=".885"/><stop offset="1" stop-color="#0b799d"/></linearGradient><linearGradient id="SVGID_8_" gradientTransform="matrix(-.707 .707 -.707 -.707 -530.11 356.99)" gradientUnits="userSpaceOnUse" x1="-628.137" x2="-614.256" xlink:href="#lg4" y1="-648.756" y2="-597.773"/><linearGradient id="SVGID_9_" gradientTransform="matrix(-.707 .707 -.707 -.707 -530.11 356.99)" gradientUnits="userSpaceOnUse" x1="-626.307" x2="-633.346" xlink:href="#lg4" y1="-652.027" y2="-605.19"/><linearGradient id="SVGID_10_" gradientTransform="matrix(-.707 .707 -.707 -.707 -530.11 356.99)" gradientUnits="userSpaceOnUse" x1="-627.275" x2="-627.275" xlink:href="#lg4" y1="-641.335" y2="-609.091"/><linearGradient id="SVGID_11_" gradientTransform="matrix(.707 .707 -.707 .707 257.989 -112.839)" gradientUnits="userSpaceOnUse" x1="178.55" x2="433.385" xlink:href="#lg3" y1="182.776" y2="437.61"/><linearGradient id="SVGID_12_" gradientTransform="matrix(-.707 -.707 .707 -.707 257.989 608.409)" gradientUnits="userSpaceOnUse" x1="209.667" x2="345.505" xlink:href="#lg3" y1="205.44" y2="341.278"/><linearGradient id="SVGID_13_" gradientTransform="matrix(.707 .707 -.707 .707 257.989 -112.839)" gradientUnits="userSpaceOnUse" x1="314.626" x2="11.713" xlink:href="#lg4" y1="303.807" y2="123.858"/><linearGradient id="SVGID_14_" gradientTransform="matrix(.707 .707 -.707 .707 257.989 -112.839)" gradientUnits="userSpaceOnUse" x1="310.754" x2="145.867" xlink:href="#lg4" y1="314.979" y2="150.093"/><linearGradient id="SVGID_15_" gradientTransform="matrix(.707 .707 -.707 .707 257.989 -112.839)" gradientUnits="userSpaceOnUse" x1="62.996" x2="414.975" xlink:href="#lg1" y1="262.215" y2="262.215"/><linearGradient id="SVGID_16_" gradientTransform="matrix(.707 .707 -.707 .707 257.989 -112.839)" gradientUnits="userSpaceOnUse" x1="393.873" x2="97.181" xlink:href="#lg1" y1="398.099" y2="101.407"/><linearGradient id="lg5"><stop offset="0" stop-color="#ffd945"/><stop offset=".3043" stop-color="#ffcd3e"/><stop offset=".8558" stop-color="#ffad2b"/><stop offset="1" stop-color="#ffa325"/></linearGradient><linearGradient id="SVGID_17_" gradientTransform="matrix(.707 .707 -.707 .707 257.989 -112.839)" gradientUnits="userSpaceOnUse" x1="235.952" x2="282.409" xlink:href="#lg5" y1="204.745" y2="204.745"/><linearGradient id="SVGID_18_" gradientTransform="matrix(0 1 1 0 6516.073 -2705.023)" gradientUnits="userSpaceOnUse" x1="2937.986" x2="2984.444" xlink:href="#lg5" y1="-6303.603" y2="-6303.603"/><linearGradient id="SVGID_19_" gradientTransform="matrix(.707 .707 -.707 .707 257.989 -112.839)" gradientUnits="userSpaceOnUse" x1="243.977" x2="288.925" y1="248.203" y2="293.151"><stop offset="0" stop-color="#ff637b"/><stop offset="1" stop-color="#e63950"/></linearGradient><linearGradient id="SVGID_20_" gradientTransform="matrix(.707 .707 -.707 .707 257.989 -112.839)" gradientUnits="userSpaceOnUse" x1="257.989" x2="257.989" xlink:href="#lg2" y1="517.442" y2="550.175"/><g><path d="m103.679 503.606-97.285-97.284c-8.525-8.525-8.525-22.346 0-30.871l369.057-369.057c8.525-8.525 22.346-8.525 30.871 0l97.285 97.285c8.525 8.525 8.525 22.346 0 30.871l-369.058 369.056c-8.524 8.525-22.346 8.525-30.87 0z" fill="url(#SVGID_1_)"/><g><g><path d="m10.047 394.082c-1.395-1.395-1.395-3.658 0-5.053l8.663-8.663c1.395-1.395 3.658-1.395 5.053 0s1.395 3.658 0 5.053l-8.663 8.663c-1.395 1.395-3.658 1.395-5.053 0zm17.325-17.326c-1.395-1.395-1.395-3.658 0-5.053l8.663-8.663c1.395-1.395 3.658-1.395 5.053 0s1.395 3.658 0 5.053l-8.663 8.663c-1.394 1.395-3.657 1.395-5.053 0zm17.326-17.325c-1.395-1.395-1.395-3.658 0-5.053l8.663-8.663c1.395-1.395 3.658-1.395 5.053 0s1.395 3.658 0 5.053l-8.663 8.663c-1.395 1.395-3.658 1.395-5.053 0zm17.325-17.326c-1.395-1.395-1.395-3.658 0-5.053l8.663-8.663c1.395-1.395 3.658-1.395 5.053 0s1.395 3.658 0 5.053l-8.663 8.663c-1.395 1.396-3.658 1.396-5.053 0z" fill="url(#SVGID_2_)"/><path d="m115.918 499.953c-1.395-1.395-1.395-3.658 0-5.053l8.663-8.663c1.395-1.395 3.658-1.395 5.053 0s1.395 3.658 0 5.053l-8.663 8.663c-1.395 1.395-3.658 1.395-5.053 0zm17.326-17.325c-1.395-1.395-1.395-3.658 0-5.053l8.663-8.663c1.395-1.395 3.658-1.395 5.053 0s1.395 3.658 0 5.053l-8.663 8.663c-1.395 1.395-3.658 1.395-5.053 0zm17.325-17.326c-1.395-1.395-1.395-3.658 0-5.053l8.663-8.663c1.395-1.395 3.658-1.395 5.053 0s1.395 3.658 0 5.053l-8.663 8.663c-1.395 1.395-3.658 1.395-5.053 0zm17.326-17.325c-1.395-1.395-1.395-3.658 0-5.053l8.663-8.663c1.395-1.395 3.658-1.395 5.053 0s1.395 3.658 0 5.053l-8.663 8.663c-1.395 1.395-3.658 1.395-5.053 0z" fill="url(#SVGID_3_)"/></g><g><path d="m328.39 75.739c-1.395-1.395-1.395-3.658 0-5.053l8.663-8.663c1.395-1.395 3.658-1.395 5.053 0s1.395 3.658 0 5.053l-8.663 8.663c-1.395 1.395-3.658 1.395-5.053 0zm17.325-17.325c-1.395-1.395-1.395-3.658 0-5.053l8.663-8.663c1.395-1.395 3.658-1.395 5.053 0s1.395 3.658 0 5.053l-8.663 8.663c-1.395 1.395-3.658 1.395-5.053 0zm17.325-17.326c-1.395-1.395-1.395-3.658 0-5.053l8.663-8.663c1.395-1.395 3.658-1.395 5.053 0s1.395 3.658 0 5.053l-8.663 8.663c-1.395 1.395-3.657 1.395-5.053 0zm17.326-17.325c-1.395-1.395-1.395-3.658 0-5.053l8.663-8.663c1.395-1.395 3.658-1.395 5.053 0s1.395 3.658 0 5.053l-8.663 8.663c-1.395 1.395-3.658 1.395-5.053 0z" fill="url(#SVGID_4_)"/><path d="m434.261 181.61c-1.395-1.395-1.395-3.658 0-5.053l8.663-8.663c1.395-1.395 3.658-1.395 5.053 0s1.395 3.658 0 5.053l-8.663 8.663c-1.395 1.396-3.658 1.396-5.053 0zm17.325-17.325c-1.395-1.395-1.395-3.658 0-5.053l8.663-8.663c1.395-1.395 3.658-1.395 5.053 0s1.395 3.658 0 5.053l-8.663 8.663c-1.395 1.395-3.658 1.395-5.053 0zm17.326-17.325c-1.395-1.395-1.395-3.658 0-5.053l8.663-8.663c1.395-1.395 3.658-1.395 5.053 0s1.395 3.658 0 5.053l-8.663 8.663c-1.395 1.395-3.658 1.395-5.053 0zm17.325-17.326c-1.395-1.395-1.395-3.658 0-5.053l8.663-8.663c1.395-1.395 3.658-1.395 5.053 0s1.395 3.658 0 5.053l-8.663 8.663c-1.395 1.395-3.658 1.395-5.053 0z" fill="url(#SVGID_5_)"/></g></g><path d="m80.112 301.732-5.358 5.358v167.591l28.925 28.925c8.525 8.525 22.346 8.525 30.871 0l73.718-73.718z" fill="url(#SVGID_6_)"/><g><g><path d="m341.194 378.087 36.893-36.893c2.762-2.762 7.24-2.762 10.001 0l10.597 10.597c2.762 2.762 2.762 7.24 0 10.001l-36.893 36.893c-2.762 2.762-7.24 2.762-10.001 0l-10.597-10.597c-2.762-2.762-2.762-7.239 0-10.001z" fill="url(#SVGID_7_)"/><path d="m347.74 371.541 23.801-23.801c2.284-2.284 5.987-2.284 8.271 0l12.328 12.328c2.284 2.284 2.284 5.987 0 8.271l-23.801 23.801c-2.284 2.284-5.987 2.284-8.271 0l-12.328-12.328c-2.284-2.284-2.284-5.987 0-8.271z" fill="url(#SVGID_8_)"/><path d="m363.785 355.495-8.289 8.289c-1.492 1.492-1.492 3.912 0 5.405l15.194 15.194c1.492 1.492 3.912 1.492 5.405 0l8.289-8.289c1.492-1.492 1.492-3.912 0-5.405l-15.194-15.194c-1.493-1.492-3.913-1.492-5.405 0z" fill="url(#SVGID_9_)"/><path d="m364.17 355.11-23.889 23.889c-2.258 2.258-1.35 6.827 2.028 10.205l4.183 4.183 46.894-46.895-4.183-4.183c-3.378-3.378-7.947-4.286-10.205-2.028z" fill="url(#SVGID_10_)"/></g><g><circle cx="255" cy="255" fill="url(#SVGID_11_)" r="154.13"/><circle cx="255" cy="255" fill="url(#SVGID_12_)" r="82.158"/><g fill="#07485e"><g><g><circle cx="330.278" cy="179.722" r="8.109"/><circle cx="179.722" cy="330.278" r="8.109"/></g><g><circle cx="330.278" cy="330.278" r="8.109"/><circle cx="179.722" cy="179.722" r="8.109"/></g></g><g><g><circle cx="357.715" cy="227.011" r="8.109"/><circle cx="152.286" cy="282.988" r="8.109"/></g><g><circle cx="282.989" cy="357.714" r="8.109"/><circle cx="227.012" cy="152.286" r="8.109"/></g></g><g><g><circle cx="282.989" cy="152.286" r="8.109"/><circle cx="227.012" cy="357.714" r="8.109"/></g><g><circle cx="152.286" cy="227.011" r="8.109"/><circle cx="357.715" cy="282.988" r="8.109"/></g></g></g><path d="m339.198 384.129v-200.478c.741-3.469-.228-7.23-2.923-9.926-4.227-4.227-11.082-2.227-15.309 2l-55.986 56.986c-9.765-3.848-19.308-3.829-27.203 4.066-2.492 2.492-6.391 6.35-7.713 9.398h-49.299c-5.979 0-10.825 2.847-10.825 8.825l.199 128.701c51.085 33.759 117.84 33.898 169.059.428z" fill="url(#SVGID_13_)"/><path d="m282.11 406.735v-149.816c.533-7.582-2.09-13.345-7.887-19.142-10.617-10.617-27.829-10.617-38.446 0-5.797 5.797-8.421 11.56-7.887 19.142v149.815c17.922 3.184 36.299 3.188 54.22.001z" fill="url(#SVGID_14_)"/><path d="m411.059 263.244c.787-15.023 7.082-29.215 17.715-39.849 4.7-4.7 7.046-10.843 7.046-17.008 0-6.15-2.346-12.308-7.039-17.001l-108.168-108.167c-9.392-9.392-24.617-9.385-34.008.007-5.32 5.32-11.521 9.543-18.278 12.547-6.757 3.003-14.055 4.772-21.57 5.169-37.206 1.949-73.842 17.13-102.263 45.551s-43.602 65.057-45.551 102.263c-.78 15.016-7.082 29.215-17.715 39.849-4.7 4.7-7.046 10.843-7.046 17.008 0 6.151 2.346 12.308 7.038 17.001l108.168 108.168c9.392 9.392 24.617 9.385 34.008-.007 5.32-5.32 11.529-9.551 18.285-12.554 6.75-2.996 14.055-4.772 21.563-5.162 37.206-1.949 73.842-17.13 102.263-45.551s43.602-65.058 45.552-102.264zm-241.964 77.661c-47.443-47.443-47.443-124.368 0-171.81s124.368-47.443 171.81 0 47.443 124.368 0 171.81-124.367 47.443-171.81 0z" fill="url(#SVGID_15_)"/><path d="m154.655 355.345c55.42 55.42 145.271 55.42 200.691 0s55.42-145.271 0-200.691-145.271-55.42-200.691 0-55.42 145.271 0 200.691zm186.25-186.25c47.446 47.446 47.446 124.364 0 171.81s-124.364 47.446-171.81 0-47.446-124.364 0-171.81 124.365-47.446 171.81 0z" fill="url(#SVGID_16_)"/><path d="m255 255c-4.227-4.227-4.227-11.082 0-15.309l65.966-65.966c4.227-4.227 11.082-4.227 15.309 0 4.227 4.227 4.227 11.082 0 15.309l-65.966 65.966c-4.227 4.227-11.081 4.227-15.309 0z" fill="url(#SVGID_17_)"/><path d="m255 255c0-5.979-4.847-10.825-10.825-10.825h-63.41c-5.979 0-10.825 4.847-10.825 10.825 0 5.979 4.847 10.825 10.825 10.825h63.41c5.979 0 10.825-4.847 10.825-10.825z" fill="url(#SVGID_18_)"/><circle cx="255" cy="255" fill="url(#SVGID_19_)" r="27.185"/></g></g><path d="m27.027 354.817-20.633 20.634c-8.525 8.525-8.525 22.346 0 30.871l97.285 97.285c8.525 8.525 22.346 8.525 30.871 0l20.633-20.633z" fill="url(#SVGID_20_)"/></g></svg>