<svg id="Capa_1" enable-background="new 0 0 510 510" height="512" viewBox="0 0 510 510" width="512" xmlns="http://www.w3.org/2000/svg" xmlns:xlink="http://www.w3.org/1999/xlink"><linearGradient id="lg1"><stop offset="0" stop-color="#ff7bab"/><stop offset="1" stop-color="#ff637b"/></linearGradient><linearGradient id="SVGID_1_" gradientUnits="userSpaceOnUse" x1="200.505" x2="345.658" xlink:href="#lg1" y1="63.683" y2="432.877"/><linearGradient id="lg2"><stop offset="0" stop-color="#e63950" stop-opacity="0"/><stop offset=".9663" stop-color="#e63950" stop-opacity=".966"/><stop offset="1" stop-color="#e63950"/></linearGradient><linearGradient id="SVGID_2_" gradientUnits="userSpaceOnUse" x1="225.743" x2="268.298" xlink:href="#lg2" y1="29.607" y2="269.369"/><linearGradient id="SVGID_3_" gradientUnits="userSpaceOnUse" x1="280.582" x2="223.496" xlink:href="#lg2" y1="89.425" y2="220.204"/><linearGradient id="SVGID_4_" gradientUnits="userSpaceOnUse" x1="234.679" x2="273.082" xlink:href="#lg2" y1="46.426" y2="214.57"/><linearGradient id="SVGID_5_" gradientUnits="userSpaceOnUse" x1="254.356" x2="254.356" y1="143.265" y2="236.679"><stop offset="0" stop-color="#ffda2d"/><stop offset="1" stop-color="#fdbf00"/></linearGradient><linearGradient id="lg3"><stop offset="0" stop-color="#ff9100" stop-opacity="0"/><stop offset="1" stop-color="#ff9100"/></linearGradient><linearGradient id="SVGID_6_" gradientTransform="matrix(1 0 0 -1 0 789.439)" gradientUnits="userSpaceOnUse" x1="259.453" x2="286.283" xlink:href="#lg3" y1="560.63" y2="699.496"/><linearGradient id="SVGID_7_" gradientTransform="matrix(1 0 0 -1 0 789.439)" gradientUnits="userSpaceOnUse" x1="248.194" x2="231.56" xlink:href="#lg3" y1="558.614" y2="651.115"/><linearGradient id="lg4"><stop offset="0" stop-color="#edf5ff"/><stop offset="1" stop-color="#b5dbff"/></linearGradient><linearGradient id="SVGID_8_" gradientUnits="userSpaceOnUse" x1="30.027" x2="72.002" xlink:href="#lg4" y1="438.571" y2="478.137"/><linearGradient id="SVGID_9_" gradientUnits="userSpaceOnUse" x1="414.305" x2="456.28" xlink:href="#lg4" y1="438.571" y2="478.137"/><linearGradient id="SVGID_10_" gradientUnits="userSpaceOnUse" x1="106.395" x2="-12.448" xlink:href="#lg3" y1="399.966" y2="275.155"/><linearGradient id="SVGID_11_" gradientTransform="matrix(-1 0 0 1 795.423 0)" gradientUnits="userSpaceOnUse" x1="391.818" x2="272.975" xlink:href="#lg3" y1="399.966" y2="275.155"/><linearGradient id="SVGID_12_" gradientUnits="userSpaceOnUse" x1="52.869" x2="65.572" xlink:href="#lg1" y1="392.884" y2="404.858"/><linearGradient id="SVGID_13_" gradientUnits="userSpaceOnUse" x1="52.869" x2="65.572" xlink:href="#lg1" y1="351.395" y2="363.368"/><linearGradient id="SVGID_14_" gradientUnits="userSpaceOnUse" x1="52.869" x2="65.572" xlink:href="#lg1" y1="309.905" y2="321.879"/><linearGradient id="SVGID_15_" gradientUnits="userSpaceOnUse" x1="437.258" x2="449.961" xlink:href="#lg1" y1="392.884" y2="404.858"/><linearGradient id="SVGID_16_" gradientUnits="userSpaceOnUse" x1="437.258" x2="449.961" xlink:href="#lg1" y1="351.395" y2="363.368"/><linearGradient id="SVGID_17_" gradientUnits="userSpaceOnUse" x1="437.258" x2="449.961" xlink:href="#lg1" y1="309.905" y2="321.879"/><g><g><path d="m462.653 213.927c-12.178-8.501-26.927-16.212-43.761-22.907-15.876-6.331-33.615-11.749-52.799-16.088-5.641-1.277-11.397-2.46-17.278-3.539-19.291-3.56-39.815-6.062-61.208-7.338-10.874-.664-21.969-.996-33.251-.996s-22.377.332-33.251.996c-21.393 1.277-41.917 3.778-61.208 7.338-25.872 4.764-49.527 11.438-70.077 19.627-16.834 6.695-31.584 14.407-43.761 22.907 11.869-107.274 82.84-192.843 173.45-210.542l-.001-.001c.088-.017.176-.031.264-.048 5.583-1.082 11.238-1.918 16.96-2.474 1.455-.145 2.909-.27 4.373-.374.727-.052 1.455-.104 2.191-.145.727-.052 1.463-.093 2.2-.125.683-.031 1.366-.062 2.049-.083.497-.021.993-.042 1.49-.052.869-.031 1.738-.052 2.608-.062.177 0 .355-.01.532 0 .726-.011 1.453-.021 2.181-.021s1.455 0 2.182.021c105.793 1.256 192.855 94.036 206.115 213.906z" fill="url(#SVGID_1_)"/><path d="m418.891 191.02c-15.876-6.331-33.615-11.749-52.799-16.088-5.641-1.277-11.397-2.46-17.278-3.539-19.291-3.56-39.815-6.062-61.208-7.338-10.874-.664-21.969-.996-33.251-.996s-22.377.332-33.251.996c-21.393 1.277-41.917 3.778-61.208 7.338-25.872 4.764-49.527 11.438-70.077 19.627 14.644-93.714 66.051-167.065 130.957-186.152 10.164-2.989 20.657-4.65 31.398-4.847.727-.011 1.454-.021 2.182-.021s1.455 0 2.182.021c79.301 1.463 145.413 82.609 162.353 190.999z" fill="url(#SVGID_2_)"/><path d="m348.814 171.393c-19.291-3.56-39.815-6.062-61.208-7.338-10.874-.664-21.969-.996-33.251-.996s-22.377.332-33.251.996c-21.393 1.277-41.917 3.778-61.208 7.338 9.836-76.931 34.52-137.453 65.704-160.879 9.101-6.84 18.76-10.514 28.756-10.514 41.207 0 76.543 62.411 91.479 151.216 1.108 6.58 2.101 13.316 2.979 20.177z" fill="url(#SVGID_3_)"/><path d="m287.607 164.055c-10.874-.664-21.969-.996-33.251-.996s-22.377.332-33.251.996c3.051-60.397 9.393-109.979 17.526-138.294 4.727-16.482 10.066-25.761 15.725-25.761 9.854 0 18.759 28.17 25.154 73.6 3.573 25.398 6.367 56.183 8.097 90.455z" fill="url(#SVGID_4_)"/></g><g><path d="m463.454 183.625c-4.6-5.467-10.97-9.672-18.501-11.836-2.269-.655-4.579-1.298-6.92-1.917-49.289-13.258-113.474-21.273-183.678-21.273s-134.389 8.015-183.678 21.273c-2.341.618-4.651 1.262-6.92 1.917-7.531 2.164-13.902 6.369-18.501 11.836-5.594 6.642-8.567 15.113-7.863 24.019l.704 8.781.404 5.071c.352 4.539 1.657 8.905 3.781 12.862 3.108 5.788 7.956 10.735 14.119 14.1.062.037.135.062.197.099-.062.037-.114.062-.176.099-9.292 5.059-14.596 14.693-13.798 24.711v194.424h40.474v-177.524c0-7.36 5.22-13.708 12.453-15.069.044-.008.089-.017.133-.025 31.844-5.986 76.295-10.166 126.61-11.44 17.776-.445 46.347-.445 64.123 0 50.314 1.274 94.765 5.454 126.61 11.44.049.009.099.019.148.028 7.976 1.504 13.728 8.508 13.728 16.624v175.966h40.474v-211.331h-.02c.228-12.031-6.465-23.386-17.752-29.436 0-.012 0-.012 0-.012 7.407-4.02 13.612-8.286 18.45-12.764 1.916-1.756 3.066-4.106 3.263-6.604.073-.866.104-1.732.104-2.585-.001-7.953-2.912-15.435-7.968-21.434z" fill="url(#SVGID_5_)"/><path d="m449.853 227.148c-39.448-21.533-113.35-36.028-198.015-36.028-93.802 0-174.386 17.797-209.545 43.25 3.108 5.788 7.956 10.723 14.109 14.087.062.037.135.062.197.099-.062.037-.114.062-.176.099-9.292 5.059-14.596 14.693-13.798 24.711l.663 8.274c.145 1.831.829 3.55 1.916 4.848 1.274 1.521 2.973 2.325 4.693 2.325.943 0 1.906-.247 2.807-.754 8.515-4.824 23.36-9.202 42.98-12.887 31.844-5.986 76.295-10.166 126.61-11.44 17.776-.445 46.347-.445 64.123 0 50.314 1.274 94.766 5.454 126.61 11.44 18.877 3.551 33.333 7.748 41.977 12.348 2.47 1.314 5.335.98 7.494-.963l.143-.129c1.647-1.482 2.697-3.723 2.892-6.175l1.734-21.778.01-.111c1.005-12.64-5.697-24.797-17.424-31.216z" fill="url(#SVGID_6_)"/><path d="m467.267 258.488c-33.149-26.826-115.971-45.835-212.912-45.835-42.245 0-81.806 3.612-115.753 9.907-33.937 6.295-62.259 15.274-82.003 25.997-.062.037-.114.062-.176.099-9.292 5.071-14.596 14.693-13.798 24.699l.67 8.373c.145 1.807.821 3.494 1.91 4.762l.01.012c1.968 2.35 4.972 3.006 7.5 1.571 8.505-4.836 23.35-9.214 42.97-12.9 31.844-5.986 76.295-10.166 126.61-11.44 17.776-.445 46.347-.445 64.123 0 50.314 1.274 94.766 5.454 126.61 11.44 18.87 3.541 33.326 7.728 41.976 12.341 2.471 1.318 5.338.984 7.499-.96l.139-.125c1.647-1.482 2.697-3.723 2.892-6.174z" fill="url(#SVGID_7_)"/></g><circle cx="62.861" cy="469.521" fill="url(#SVGID_8_)" r="40.479"/><circle cx="447.139" cy="469.521" fill="url(#SVGID_9_)" r="40.479"/><path d="m95.684 275.172s-32.823 5.1-32.823 25.08v167.539h20.237v-177.524c0-7.36 5.22-13.708 12.453-15.069.044-.009.088-.018.133-.026z" fill="url(#SVGID_10_)"/><path d="m414.316 275.172s32.823 5.1 32.823 25.08v167.539h-20.237v-177.524c0-7.36-5.22-13.708-12.453-15.069-.044-.009-.088-.018-.133-.026z" fill="url(#SVGID_11_)"/><g><g><circle cx="62.805" cy="402.25" fill="url(#SVGID_12_)" r="12.25"/><circle cx="62.805" cy="360.761" fill="url(#SVGID_13_)" r="12.25"/><circle cx="62.805" cy="319.271" fill="url(#SVGID_14_)" r="12.25"/></g><g><circle cx="447.195" cy="402.25" fill="url(#SVGID_15_)" r="12.25"/><circle cx="447.195" cy="360.761" fill="url(#SVGID_16_)" r="12.25"/><circle cx="447.195" cy="319.271" fill="url(#SVGID_17_)" r="12.25"/></g></g></g></svg>