<svg id="Capa_1" enable-background="new 0 0 510 510" height="512" viewBox="0 0 510 510" width="512" xmlns="http://www.w3.org/2000/svg" xmlns:xlink="http://www.w3.org/1999/xlink"><linearGradient id="lg1"><stop offset="0" stop-color="#ffda2d"/><stop offset="1" stop-color="#fdbf00"/></linearGradient><linearGradient id="SVGID_1_" gradientUnits="userSpaceOnUse" x1="246.262" x2="279.517" xlink:href="#lg1" y1="81.491" y2="114.746"/><linearGradient id="SVGID_2_" gradientUnits="userSpaceOnUse" x1="198.512" x2="382.512" y1="176.466" y2="644.466"><stop offset="0" stop-color="#b9dd39"/><stop offset=".1209" stop-color="#acd640"/><stop offset=".343" stop-color="#8bc353"/><stop offset=".6417" stop-color="#55a373"/><stop offset="1" stop-color="#0b799d"/></linearGradient><linearGradient id="lg2"><stop offset="0" stop-color="#0b799d" stop-opacity="0"/><stop offset=".309" stop-color="#0a6d8d" stop-opacity=".309"/><stop offset=".9063" stop-color="#074d65" stop-opacity=".906"/><stop offset="1" stop-color="#07485e"/></linearGradient><linearGradient id="SVGID_3_" gradientUnits="userSpaceOnUse" x1="212.722" x2="536.223" xlink:href="#lg2" y1="194.238" y2="1148.653"/><linearGradient id="SVGID_4_" gradientUnits="userSpaceOnUse" x1="216.366" x2="523.204" xlink:href="#lg2" y1="194.127" y2="1099.383"/><linearGradient id="SVGID_5_" gradientUnits="userSpaceOnUse" x1="223.997" x2="522.465" xlink:href="#lg2" y1="191.925" y2="1072.488"/><linearGradient id="SVGID_6_" gradientUnits="userSpaceOnUse" x1="249.807" x2="263.312" xlink:href="#lg1" y1="361.482" y2="448.071"/><linearGradient id="lg3"><stop offset="0" stop-color="#ff9100" stop-opacity="0"/><stop offset="1" stop-color="#ff9100"/></linearGradient><linearGradient id="SVGID_7_" gradientUnits="userSpaceOnUse" x1="259.943" x2="288.224" xlink:href="#lg3" y1="385.71" y2="532.086"/><linearGradient id="SVGID_8_" gradientUnits="userSpaceOnUse" x1="248.946" x2="231.244" xlink:href="#lg3" y1="384.845" y2="483.285"/><linearGradient id="SVGID_9_" gradientUnits="userSpaceOnUse" x1="346.357" x2="198.012" xlink:href="#lg2" y1="177.55" y2="-378.299"/><g><circle cx="255" cy="90.229" fill="url(#SVGID_1_)" r="42.5"/><g><path d="m491.816 337.714c0 130.79-473.633 130.79-473.633 0s106.027-236.816 236.817-236.816 236.816 106.026 236.816 236.816z" fill="url(#SVGID_2_)"/><path d="m445.247 337.714c0 130.79-380.494 130.79-380.494 0s85.176-236.816 190.247-236.816 190.247 106.026 190.247 236.816z" fill="url(#SVGID_3_)"/><path d="m366.706 337.714c0 130.79-223.412 130.79-223.412 0s50.013-236.816 111.706-236.816 111.706 106.026 111.706 236.816z" fill="url(#SVGID_4_)"/><path d="m294.736 337.714c0 130.79-79.472 130.79-79.472 0s17.791-236.816 39.736-236.816 39.736 106.026 39.736 236.816z" fill="url(#SVGID_5_)"/></g><g><path d="m510 407.875c0 7.662-3.42 14.871-9.358 20.65-5.403 5.267-12.888 9.318-21.735 11.404-2.665.631-5.379 1.251-8.129 1.847-57.903 12.774-133.305 20.496-215.778 20.496s-157.876-7.722-215.778-20.496c-2.75-.596-5.464-1.215-8.129-1.847-8.847-2.085-16.332-6.137-21.735-11.404-6.572-6.399-10.064-14.561-9.237-23.141l.828-8.46.475-4.886c.414-4.373 1.947-8.579 4.442-12.392 3.651-5.577 9.346-10.343 16.587-13.584.073-.035.158-.059.231-.095-.073-.036-.134-.06-.207-.095-10.916-4.874-17.147-14.156-16.21-23.808l.779-7.972c.17-1.764.974-3.42 2.251-4.671 1.497-1.466 3.493-2.252 5.525-2.252 1.107 0 2.227.238 3.286.727 10.003 4.647 27.442 8.877 50.491 12.428 37.409 5.767 89.629 9.795 148.736 11.022 20.883.429 54.447.429 75.33 0 59.108-1.227 111.327-5.255 148.736-11.022 22.169-3.422 39.151-7.457 49.305-11.895 2.9-1.267 6.265-.947 8.802.922l.173.128c1.938 1.428 3.173 3.589 3.403 5.953l2.037 20.978.012.107c1.193 12.261-6.803 24.058-20.761 30.195v.012c8.701 3.873 15.991 7.984 21.674 12.297 2.251 1.692 3.602 3.956 3.833 6.363.084.835.121 1.669.121 2.491z" fill="url(#SVGID_6_)"/><path d="m484.663 386.593c-46.342 20.746-133.159 34.711-232.621 34.711-110.195 0-204.862-17.147-246.166-41.67 3.651-5.577 9.346-10.331 16.575-13.572.073-.035.158-.059.231-.095-.073-.036-.134-.06-.207-.095-10.916-4.874-17.147-14.156-16.21-23.808l.779-7.972c.17-1.764.974-3.42 2.251-4.671 1.497-1.466 3.493-2.24 5.513-2.24 1.107 0 2.239.238 3.298.727 10.003 4.647 27.442 8.866 50.491 12.417 37.409 5.767 89.629 9.795 148.736 11.022 20.883.429 54.447.429 75.33 0 59.108-1.227 111.327-5.255 148.736-11.022 22.176-3.422 39.158-7.465 49.313-11.897 2.901-1.266 6.267-.944 8.804.928l.168.124c1.935 1.428 3.168 3.587 3.398 5.949l2.037 20.982.012.107c1.182 12.177-6.692 23.891-20.468 30.075z" fill="url(#SVGID_7_)"/><path d="m505.12 356.398c-38.943 25.845-136.238 44.16-250.121 44.16-49.627 0-96.103-3.48-135.983-9.545-39.867-6.065-73.139-14.716-96.334-25.047-.073-.036-.134-.06-.207-.095-10.916-4.885-17.147-14.156-16.21-23.796l.787-8.067c.17-1.741.965-3.367 2.243-4.588l.012-.012c2.312-2.264 5.841-2.896 8.811-1.513 9.991 4.659 27.43 8.877 50.479 12.428 37.409 5.767 89.629 9.795 148.736 11.022 20.883.429 54.447.429 75.33 0 59.108-1.227 111.327-5.255 148.736-11.022 22.168-3.412 39.15-7.445 49.312-11.89 2.902-1.27 6.271-.948 8.81.925l.163.121c1.935 1.428 3.168 3.587 3.397 5.949z" fill="url(#SVGID_8_)"/></g><path d="m215.708 104.161 265.444 265.444c6.873-9.59 10.664-20.216 10.664-31.891 0-130.79-106.026-236.816-236.816-236.816-13.388 0-26.51 1.129-39.292 3.263z" fill="url(#SVGID_9_)"/></g></svg>